<?xml version="1.0" encoding="utf-8"?>
<!-- Generator: Adobe Illustrator 16.0.0, SVG Export Plug-In . SVG Version: 6.00 Build 0)  -->
<!DOCTYPE svg PUBLIC "-//W3C//DTD SVG 1.1//EN" "http://www.w3.org/Graphics/SVG/1.1/DTD/svg11.dtd">
<svg version="1.1"
	 id="svg7997" xmlns:dc="http://purl.org/dc/elements/1.1/" xmlns:inkscape="http://www.inkscape.org/namespaces/inkscape" xmlns:svg="http://www.w3.org/2000/svg" xmlns:cc="http://creativecommons.org/ns#" xmlns:rdf="http://www.w3.org/1999/02/22-rdf-syntax-ns#" xmlns:sodipodi="http://sodipodi.sourceforge.net/DTD/sodipodi-0.dtd" sodipodi:docname="New document 3" inkscape:version="0.48.3.1 r9886"
	 xmlns="http://www.w3.org/2000/svg" xmlns:xlink="http://www.w3.org/1999/xlink" x="0px" y="0px" width="144px" height="144px"
	 viewBox="0 0 144 144" enable-background="new 0 0 144 144" xml:space="preserve">
<sodipodi:namedview  fit-margin-top="0" inkscape:zoom="0.35" id="base" inkscape:cy="-116.57144" pagecolor="#ffffff" fit-margin-left="0" inkscape:cx="398.42879" bordercolor="#666666" borderopacity="1.0" showgrid="false" inkscape:window-maximized="0" inkscape:window-y="592" inkscape:window-x="55" inkscape:window-height="421" inkscape:window-width="483" fit-margin-bottom="0" inkscape:current-layer="layer1" inkscape:pageshadow="2" inkscape:document-units="px" inkscape:pageopacity="0.0" fit-margin-right="0">
	</sodipodi:namedview>
<g id="layer1" transform="translate(23.428791,-271.79076)" inkscape:label="Layer 1" inkscape:groupmode="layer">
	<g id="g3140" transform="translate(-27.478721,228.54246)">
		<g id="g3142">
			<path id="path3144" inkscape:connector-curvature="0" fill="#F7931A" stroke="#FFFFFF" stroke-miterlimit="10" d="
				M145.896,132.664c-9.621,38.572-48.689,62.047-87.27,52.429c-38.564-9.617-62.042-48.685-52.419-87.254
				c9.613-38.575,48.686-62.053,87.253-52.436C132.035,55.02,155.512,94.091,145.896,132.664L145.896,132.664z"/>
			<g id="g3146">
				<g id="g3148">
					<path id="path3150" inkscape:connector-curvature="0" fill="#FFFFFF" d="M107.786,104.991
						c1.434-9.582-5.862-14.731-15.838-18.167l3.235-12.978l-7.899-1.969l-3.15,12.636c-2.079-0.518-4.21-1.006-6.331-1.489
						l3.171-12.72l-7.894-1.969L69.84,81.311c-1.719-0.392-3.406-0.778-5.045-1.186l0.008-0.04l-10.895-2.72l-2.102,8.437
						c0,0,5.861,1.343,5.737,1.427c3.199,0.799,3.776,2.916,3.681,4.594l-3.685,14.785c0.22,0.057,0.505,0.136,0.82,0.264
						c-0.264-0.066-0.545-0.137-0.834-0.207l-5.166,20.71c-0.392,0.972-1.385,2.431-3.621,1.877
						c0.079,0.113-5.745-1.434-5.745-1.434l-3.92,9.041l10.28,2.563c1.911,0.479,3.788,0.979,5.632,1.453l-3.267,13.127l7.891,1.969
						l3.237-12.987c2.158,0.584,4.25,1.125,6.298,1.635l-3.226,12.926l7.899,1.969l3.271-13.102
						c13.473,2.548,23.604,1.52,27.866-10.664c3.437-9.809-0.171-15.469-7.259-19.159
						C102.859,115.399,106.749,112.003,107.786,104.991L107.786,104.991z M89.737,130.302c-2.443,9.812-18.96,4.507-24.317,3.177
						l4.338-17.39C75.112,117.424,92.286,120.071,89.737,130.302z M92.177,104.85c-2.227,8.924-15.976,4.389-20.436,3.277
						l3.933-15.772C80.133,93.467,94.498,95.542,92.177,104.85z"/>
				</g>
			</g>
		</g>
	</g>
</g>
</svg>
