<?xml version="1.0"?>
<svg xmlns="http://www.w3.org/2000/svg" width="1000" height="1000" viewBox="-500 -500 1000 1000">
    <path d="M-767.64,-1000C-767.64,-997.32 -769.82,-995.14 -772.50,-995.14C-775.18,-995.14 -777.36,-997.32 -777.36,-1000C-777.36,-1002.68 -775.18,-1004.86 -772.50,-1004.86C-769.82,-1004.86 -767.64,-1002.68 -767.64,-1000Z" fill="#47ff00"/>
    <path d="M-686.33,-1000C-686.33,-997.32 -688.50,-995.14 -691.18,-995.14C-693.87,-995.14 -696.04,-997.32 -696.04,-1000C-696.04,-1002.68 -693.87,-1004.86 -691.18,-1004.86C-688.50,-1004.86 -686.33,-1002.68 -686.33,-1000Z" fill="#ff9000"/>
    <path d="M-605.01,-1000C-605.01,-997.32 -607.19,-995.14 -609.87,-995.14C-612.55,-995.14 -614.73,-997.32 -614.73,-1000C-614.73,-1002.68 -612.55,-1004.86 -609.87,-1004.86C-607.19,-1004.86 -605.01,-1002.68 -605.01,-1000Z" fill="#80ff00"/>
    <path d="M-523.70,-1000C-523.70,-997.32 -525.87,-995.14 -528.55,-995.14C-531.23,-995.14 -533.41,-997.32 -533.41,-1000C-533.41,-1002.68 -531.23,-1004.86 -528.55,-1004.86C-525.87,-1004.86 -523.70,-1002.68 -523.70,-1000Z" fill="#b4ff00"/>
    <path d="M-442.38,-1000C-442.38,-997.32 -444.55,-995.14 -447.24,-995.14C-449.92,-995.14 -452.09,-997.32 -452.09,-1000C-452.09,-1002.68 -449.92,-1004.86 -447.24,-1004.86C-444.55,-1004.86 -442.38,-1002.68 -442.38,-1000Z" fill="#97ff00"/>
    <path d="M-361.06,-1000C-361.06,-997.32 -363.24,-995.14 -365.92,-995.14C-368.60,-995.14 -370.78,-997.32 -370.78,-1000C-370.78,-1002.68 -368.60,-1004.86 -365.92,-1004.86C-363.24,-1004.86 -361.06,-1002.68 -361.06,-1000Z" fill="#ffc800"/>
    <path d="M-279.75,-1000C-279.75,-997.32 -281.92,-995.14 -284.61,-995.14C-287.29,-995.14 -289.46,-997.32 -289.46,-1000C-289.46,-1002.68 -287.29,-1004.86 -284.61,-1004.86C-281.92,-1004.86 -279.75,-1002.68 -279.75,-1000Z" fill="#ffe700"/>
    <path d="M-198.43,-1000C-198.43,-997.32 -200.61,-995.14 -203.29,-995.14C-205.97,-995.14 -208.15,-997.32 -208.15,-1000C-208.15,-1002.68 -205.97,-1004.86 -203.29,-1004.86C-200.61,-1004.86 -198.43,-1002.68 -198.43,-1000Z" fill="#00ff51"/>
    <path d="M-117.12,-1000C-117.12,-997.32 -119.29,-995.14 -121.97,-995.14C-124.66,-995.14 -126.83,-997.32 -126.83,-1000C-126.83,-1002.68 -124.66,-1004.86 -121.97,-1004.86C-119.29,-1004.86 -117.12,-1002.68 -117.12,-1000Z" fill="#00ff12"/>
    <path d="M-35.80,-1000C-35.80,-997.32 -37.98,-995.14 -40.66,-995.14C-43.34,-995.14 -45.51,-997.32 -45.51,-1000C-45.51,-1002.68 -43.34,-1004.86 -40.66,-1004.86C-37.98,-1004.86 -35.80,-1002.68 -35.80,-1000Z" fill="#00ff37"/>
    <path d="M45.51,-1000C45.51,-997.32 43.34,-995.14 40.66,-995.14C37.98,-995.14 35.80,-997.32 35.80,-1000C35.80,-1002.68 37.98,-1004.86 40.66,-1004.86C43.34,-1004.86 45.51,-1002.68 45.51,-1000Z" fill="#ffa500"/>
    <path d="M126.83,-1000C126.83,-997.32 124.66,-995.14 121.97,-995.14C119.29,-995.14 117.12,-997.32 117.12,-1000C117.12,-1002.68 119.29,-1004.86 121.97,-1004.86C124.66,-1004.86 126.83,-1002.68 126.83,-1000Z" fill="#ff4d00"/>
    <path d="M208.15,-1000C208.15,-997.32 205.97,-995.14 203.29,-995.14C200.61,-995.14 198.43,-997.32 198.43,-1000C198.43,-1002.68 200.61,-1004.86 203.29,-1004.86C205.97,-1004.86 208.15,-1002.68 208.15,-1000Z" fill="#ff5800"/>
    <path d="M289.46,-1000C289.46,-997.32 287.29,-995.14 284.61,-995.14C281.92,-995.14 279.75,-997.32 279.75,-1000C279.75,-1002.68 281.92,-1004.86 284.61,-1004.86C287.29,-1004.86 289.46,-1002.68 289.46,-1000Z" fill="#ff0e00"/>
    <path d="M370.78,-1000C370.78,-997.32 368.60,-995.14 365.92,-995.14C363.24,-995.14 361.06,-997.32 361.06,-1000C361.06,-1002.68 363.24,-1004.86 365.92,-1004.86C368.60,-1004.86 370.78,-1002.68 370.78,-1000Z" fill="#b6ff00"/>
    <path d="M452.09,-1000C452.09,-997.32 449.92,-995.14 447.24,-995.14C444.55,-995.14 442.38,-997.32 442.38,-1000C442.38,-1002.68 444.55,-1004.86 447.24,-1004.86C449.92,-1004.86 452.09,-1002.68 452.09,-1000Z" fill="#00ff45"/>
    <path d="M533.41,-1000C533.41,-997.32 531.23,-995.14 528.55,-995.14C525.87,-995.14 523.70,-997.32 523.70,-1000C523.70,-1002.68 525.87,-1004.86 528.55,-1004.86C531.23,-1004.86 533.41,-1002.68 533.41,-1000Z" fill="#ff3f00"/>
    <path d="M614.73,-1000C614.73,-997.32 612.55,-995.14 609.87,-995.14C607.19,-995.14 605.01,-997.32 605.01,-1000C605.01,-1002.68 607.19,-1004.86 609.87,-1004.86C612.55,-1004.86 614.73,-1002.68 614.73,-1000Z" fill="#87ff00"/>
    <path d="M696.04,-1000C696.04,-997.32 693.87,-995.14 691.18,-995.14C688.50,-995.14 686.33,-997.32 686.33,-1000C686.33,-1002.68 688.50,-1004.86 691.18,-1004.86C693.87,-1004.86 696.04,-1002.68 696.04,-1000Z" fill="#fff600"/>
    <path d="M777.36,-1000C777.36,-997.32 775.18,-995.14 772.50,-995.14C769.82,-995.14 767.64,-997.32 767.64,-1000C767.64,-1002.68 769.82,-1004.86 772.50,-1004.86C775.18,-1004.86 777.36,-1002.68 777.36,-1000Z" fill="#2cff00"/>
    <path d="M-767.64,-894.74C-767.64,-892.05 -769.82,-889.88 -772.50,-889.88C-775.18,-889.88 -777.36,-892.05 -777.36,-894.74C-777.36,-897.42 -775.18,-899.59 -772.50,-899.59C-769.82,-899.59 -767.64,-897.42 -767.64,-894.74Z" fill="#00ff54"/>
    <path d="M-686.33,-894.74C-686.33,-892.05 -688.50,-889.88 -691.18,-889.88C-693.87,-889.88 -696.04,-892.05 -696.04,-894.74C-696.04,-897.42 -693.87,-899.59 -691.18,-899.59C-688.50,-899.59 -686.33,-897.42 -686.33,-894.74Z" fill="#daff00"/>
    <path d="M-605.01,-894.74C-605.01,-892.05 -607.19,-889.88 -609.87,-889.88C-612.55,-889.88 -614.73,-892.05 -614.73,-894.74C-614.73,-897.42 -612.55,-899.59 -609.87,-899.59C-607.19,-899.59 -605.01,-897.42 -605.01,-894.74Z" fill="#3eff00"/>
    <path d="M-523.70,-894.74C-523.70,-892.05 -525.87,-889.88 -528.55,-889.88C-531.23,-889.88 -533.41,-892.05 -533.41,-894.74C-533.41,-897.42 -531.23,-899.59 -528.55,-899.59C-525.87,-899.59 -523.70,-897.42 -523.70,-894.74Z" fill="#46ff00"/>
    <path d="M-442.38,-894.74C-442.38,-892.05 -444.55,-889.88 -447.24,-889.88C-449.92,-889.88 -452.09,-892.05 -452.09,-894.74C-452.09,-897.42 -449.92,-899.59 -447.24,-899.59C-444.55,-899.59 -442.38,-897.42 -442.38,-894.74Z" fill="#14ff00"/>
    <path d="M-361.06,-894.74C-361.06,-892.05 -363.24,-889.88 -365.92,-889.88C-368.60,-889.88 -370.78,-892.05 -370.78,-894.74C-370.78,-897.42 -368.60,-899.59 -365.92,-899.59C-363.24,-899.59 -361.06,-897.42 -361.06,-894.74Z" fill="#07ff00"/>
    <path d="M-279.75,-894.74C-279.75,-892.05 -281.92,-889.88 -284.61,-889.88C-287.29,-889.88 -289.46,-892.05 -289.46,-894.74C-289.46,-897.42 -287.29,-899.59 -284.61,-899.59C-281.92,-899.59 -279.75,-897.42 -279.75,-894.74Z" fill="#c2ff00"/>
    <path d="M-198.43,-894.74C-198.43,-892.05 -200.61,-889.88 -203.29,-889.88C-205.97,-889.88 -208.15,-892.05 -208.15,-894.74C-208.15,-897.42 -205.97,-899.59 -203.29,-899.59C-200.61,-899.59 -198.43,-897.42 -198.43,-894.74Z" fill="#00ff1e"/>
    <path d="M-117.12,-894.74C-117.12,-892.05 -119.29,-889.88 -121.97,-889.88C-124.66,-889.88 -126.83,-892.05 -126.83,-894.74C-126.83,-897.42 -124.66,-899.59 -121.97,-899.59C-119.29,-899.59 -117.12,-897.42 -117.12,-894.74Z" fill="#ff5000"/>
    <path d="M-35.80,-894.74C-35.80,-892.05 -37.98,-889.88 -40.66,-889.88C-43.34,-889.88 -45.51,-892.05 -45.51,-894.74C-45.51,-897.42 -43.34,-899.59 -40.66,-899.59C-37.98,-899.59 -35.80,-897.42 -35.80,-894.74Z" fill="#ff3200"/>
    <path d="M45.51,-894.74C45.51,-892.05 43.34,-889.88 40.66,-889.88C37.98,-889.88 35.80,-892.05 35.80,-894.74C35.80,-897.42 37.98,-899.59 40.66,-899.59C43.34,-899.59 45.51,-897.42 45.51,-894.74Z" fill="#00ff4d"/>
    <path d="M126.83,-894.74C126.83,-892.05 124.66,-889.88 121.97,-889.88C119.29,-889.88 117.12,-892.05 117.12,-894.74C117.12,-897.42 119.29,-899.59 121.97,-899.59C124.66,-899.59 126.83,-897.42 126.83,-894.74Z" fill="#4dff00"/>
    <path d="M208.15,-894.74C208.15,-892.05 205.97,-889.88 203.29,-889.88C200.61,-889.88 198.43,-892.05 198.43,-894.74C198.43,-897.42 200.61,-899.59 203.29,-899.59C205.97,-899.59 208.15,-897.42 208.15,-894.74Z" fill="#51ff00"/>
    <path d="M289.46,-894.74C289.46,-892.05 287.29,-889.88 284.61,-889.88C281.92,-889.88 279.75,-892.05 279.75,-894.74C279.75,-897.42 281.92,-899.59 284.61,-899.59C287.29,-899.59 289.46,-897.42 289.46,-894.74Z" fill="#ff5600"/>
    <path d="M370.78,-894.74C370.78,-892.05 368.60,-889.88 365.92,-889.88C363.24,-889.88 361.06,-892.05 361.06,-894.74C361.06,-897.42 363.24,-899.59 365.92,-899.59C368.60,-899.59 370.78,-897.42 370.78,-894.74Z" fill="#e8ff00"/>
    <path d="M452.09,-894.74C452.09,-892.05 449.92,-889.88 447.24,-889.88C444.55,-889.88 442.38,-892.05 442.38,-894.74C442.38,-897.42 444.55,-899.59 447.24,-899.59C449.92,-899.59 452.09,-897.42 452.09,-894.74Z" fill="#ff0300"/>
    <path d="M533.41,-894.74C533.41,-892.05 531.23,-889.88 528.55,-889.88C525.87,-889.88 523.70,-892.05 523.70,-894.74C523.70,-897.42 525.87,-899.59 528.55,-899.59C531.23,-899.59 533.41,-897.42 533.41,-894.74Z" fill="#ff2b00"/>
    <path d="M614.73,-894.74C614.73,-892.05 612.55,-889.88 609.87,-889.88C607.19,-889.88 605.01,-892.05 605.01,-894.74C605.01,-897.42 607.19,-899.59 609.87,-899.59C612.55,-899.59 614.73,-897.42 614.73,-894.74Z" fill="#ffd100"/>
    <path d="M696.04,-894.74C696.04,-892.05 693.87,-889.88 691.18,-889.88C688.50,-889.88 686.33,-892.05 686.33,-894.74C686.33,-897.42 688.50,-899.59 691.18,-899.59C693.87,-899.59 696.04,-897.42 696.04,-894.74Z" fill="#ffcb00"/>
    <path d="M777.36,-894.74C777.36,-892.05 775.18,-889.88 772.50,-889.88C769.82,-889.88 767.64,-892.05 767.64,-894.74C767.64,-897.42 769.82,-899.59 772.50,-899.59C775.18,-899.59 777.36,-897.42 777.36,-894.74Z" fill="#00ff06"/>
    <path d="M-767.64,-789.47C-767.64,-786.79 -769.82,-784.62 -772.50,-784.62C-775.18,-784.62 -777.36,-786.79 -777.36,-789.47C-777.36,-792.16 -775.18,-794.33 -772.50,-794.33C-769.82,-794.33 -767.64,-792.16 -767.64,-789.47Z" fill="#00ff49"/>
    <path d="M-686.33,-789.47C-686.33,-786.79 -688.50,-784.62 -691.18,-784.62C-693.87,-784.62 -696.04,-786.79 -696.04,-789.47C-696.04,-792.16 -693.87,-794.33 -691.18,-794.33C-688.50,-794.33 -686.33,-792.16 -686.33,-789.47Z" fill="#00ff09"/>
    <path d="M-605.01,-789.47C-605.01,-786.79 -607.19,-784.62 -609.87,-784.62C-612.55,-784.62 -614.73,-786.79 -614.73,-789.47C-614.73,-792.16 -612.55,-794.33 -609.87,-794.33C-607.19,-794.33 -605.01,-792.16 -605.01,-789.47Z" fill="#8eff00"/>
    <path d="M-523.70,-789.47C-523.70,-786.79 -525.87,-784.62 -528.55,-784.62C-531.23,-784.62 -533.41,-786.79 -533.41,-789.47C-533.41,-792.16 -531.23,-794.33 -528.55,-794.33C-525.87,-794.33 -523.70,-792.16 -523.70,-789.47Z" fill="#ff6b00"/>
    <path d="M-442.38,-789.47C-442.38,-786.79 -444.55,-784.62 -447.24,-784.62C-449.92,-784.62 -452.09,-786.79 -452.09,-789.47C-452.09,-792.16 -449.92,-794.33 -447.24,-794.33C-444.55,-794.33 -442.38,-792.16 -442.38,-789.47Z" fill="#ff8300"/>
    <path d="M-361.06,-789.47C-361.06,-786.79 -363.24,-784.62 -365.92,-784.62C-368.60,-784.62 -370.78,-786.79 -370.78,-789.47C-370.78,-792.16 -368.60,-794.33 -365.92,-794.33C-363.24,-794.33 -361.06,-792.16 -361.06,-789.47Z" fill="#00ff03"/>
    <path d="M-279.75,-789.47C-279.75,-786.79 -281.92,-784.62 -284.61,-784.62C-287.29,-784.62 -289.46,-786.79 -289.46,-789.47C-289.46,-792.16 -287.29,-794.33 -284.61,-794.33C-281.92,-794.33 -279.75,-792.16 -279.75,-789.47Z" fill="#ff0600"/>
    <path d="M-198.43,-789.47C-198.43,-786.79 -200.61,-784.62 -203.29,-784.62C-205.97,-784.62 -208.15,-786.79 -208.15,-789.47C-208.15,-792.16 -205.97,-794.33 -203.29,-794.33C-200.61,-794.33 -198.43,-792.16 -198.43,-789.47Z" fill="#5fff00"/>
    <path d="M-117.12,-789.47C-117.12,-786.79 -119.29,-784.62 -121.97,-784.62C-124.66,-784.62 -126.83,-786.79 -126.83,-789.47C-126.83,-792.16 -124.66,-794.33 -121.97,-794.33C-119.29,-794.33 -117.12,-792.16 -117.12,-789.47Z" fill="#2fff00"/>
    <path d="M-35.80,-789.47C-35.80,-786.79 -37.98,-784.62 -40.66,-784.62C-43.34,-784.62 -45.51,-786.79 -45.51,-789.47C-45.51,-792.16 -43.34,-794.33 -40.66,-794.33C-37.98,-794.33 -35.80,-792.16 -35.80,-789.47Z" fill="#52ff00"/>
    <path d="M45.51,-789.47C45.51,-786.79 43.34,-784.62 40.66,-784.62C37.98,-784.62 35.80,-786.79 35.80,-789.47C35.80,-792.16 37.98,-794.33 40.66,-794.33C43.34,-794.33 45.51,-792.16 45.51,-789.47Z" fill="#ff7f00"/>
    <path d="M126.83,-789.47C126.83,-786.79 124.66,-784.62 121.97,-784.62C119.29,-784.62 117.12,-786.79 117.12,-789.47C117.12,-792.16 119.29,-794.33 121.97,-794.33C124.66,-794.33 126.83,-792.16 126.83,-789.47Z" fill="#28ff00"/>
    <path d="M208.15,-789.47C208.15,-786.79 205.97,-784.62 203.29,-784.62C200.61,-784.62 198.43,-786.79 198.43,-789.47C198.43,-792.16 200.61,-794.33 203.29,-794.33C205.97,-794.33 208.15,-792.16 208.15,-789.47Z" fill="#00ff39"/>
    <path d="M289.46,-789.47C289.46,-786.79 287.29,-784.62 284.61,-784.62C281.92,-784.62 279.75,-786.79 279.75,-789.47C279.75,-792.16 281.92,-794.33 284.61,-794.33C287.29,-794.33 289.46,-792.16 289.46,-789.47Z" fill="#ff0900"/>
    <path d="M370.78,-789.47C370.78,-786.79 368.60,-784.62 365.92,-784.62C363.24,-784.62 361.06,-786.79 361.06,-789.47C361.06,-792.16 363.24,-794.33 365.92,-794.33C368.60,-794.33 370.78,-792.16 370.78,-789.47Z" fill="#ffed00"/>
    <path d="M452.09,-789.47C452.09,-786.79 449.92,-784.62 447.24,-784.62C444.55,-784.62 442.38,-786.79 442.38,-789.47C442.38,-792.16 444.55,-794.33 447.24,-794.33C449.92,-794.33 452.09,-792.16 452.09,-789.47Z" fill="#00ff02"/>
    <path d="M533.41,-789.47C533.41,-786.79 531.23,-784.62 528.55,-784.62C525.87,-784.62 523.70,-786.79 523.70,-789.47C523.70,-792.16 525.87,-794.33 528.55,-794.33C531.23,-794.33 533.41,-792.16 533.41,-789.47Z" fill="#26ff00"/>
    <path d="M614.73,-789.47C614.73,-786.79 612.55,-784.62 609.87,-784.62C607.19,-784.62 605.01,-786.79 605.01,-789.47C605.01,-792.16 607.19,-794.33 609.87,-794.33C612.55,-794.33 614.73,-792.16 614.73,-789.47Z" fill="#00ff56"/>
    <path d="M696.04,-789.47C696.04,-786.79 693.87,-784.62 691.18,-784.62C688.50,-784.62 686.33,-786.79 686.33,-789.47C686.33,-792.16 688.50,-794.33 691.18,-794.33C693.87,-794.33 696.04,-792.16 696.04,-789.47Z" fill="#00ff14"/>
    <path d="M777.36,-789.47C777.36,-786.79 775.18,-784.62 772.50,-784.62C769.82,-784.62 767.64,-786.79 767.64,-789.47C767.64,-792.16 769.82,-794.33 772.50,-794.33C775.18,-794.33 777.36,-792.16 777.36,-789.47Z" fill="#ff6600"/>
    <path d="M-767.64,-684.21C-767.64,-681.53 -769.82,-679.35 -772.50,-679.35C-775.18,-679.35 -777.36,-681.53 -777.36,-684.21C-777.36,-686.89 -775.18,-689.07 -772.50,-689.07C-769.82,-689.07 -767.64,-686.89 -767.64,-684.21Z" fill="#00ff43"/>
    <path d="M-686.33,-684.21C-686.33,-681.53 -688.50,-679.35 -691.18,-679.35C-693.87,-679.35 -696.04,-681.53 -696.04,-684.21C-696.04,-686.89 -693.87,-689.07 -691.18,-689.07C-688.50,-689.07 -686.33,-686.89 -686.33,-684.21Z" fill="#4bff00"/>
    <path d="M-605.01,-684.21C-605.01,-681.53 -607.19,-679.35 -609.87,-679.35C-612.55,-679.35 -614.73,-681.53 -614.73,-684.21C-614.73,-686.89 -612.55,-689.07 -609.87,-689.07C-607.19,-689.07 -605.01,-686.89 -605.01,-684.21Z" fill="#68ff00"/>
    <path d="M-523.70,-684.21C-523.70,-681.53 -525.87,-679.35 -528.55,-679.35C-531.23,-679.35 -533.41,-681.53 -533.41,-684.21C-533.41,-686.89 -531.23,-689.07 -528.55,-689.07C-525.87,-689.07 -523.70,-686.89 -523.70,-684.21Z" fill="#1bff00"/>
    <path d="M-442.38,-684.21C-442.38,-681.53 -444.55,-679.35 -447.24,-679.35C-449.92,-679.35 -452.09,-681.53 -452.09,-684.21C-452.09,-686.89 -449.92,-689.07 -447.24,-689.07C-444.55,-689.07 -442.38,-686.89 -442.38,-684.21Z" fill="#f5ff00"/>
    <path d="M-361.06,-684.21C-361.06,-681.53 -363.24,-679.35 -365.92,-679.35C-368.60,-679.35 -370.78,-681.53 -370.78,-684.21C-370.78,-686.89 -368.60,-689.07 -365.92,-689.07C-363.24,-689.07 -361.06,-686.89 -361.06,-684.21Z" fill="#e9ff00"/>
    <path d="M-279.75,-684.21C-279.75,-681.53 -281.92,-679.35 -284.61,-679.35C-287.29,-679.35 -289.46,-681.53 -289.46,-684.21C-289.46,-686.89 -287.29,-689.07 -284.61,-689.07C-281.92,-689.07 -279.75,-686.89 -279.75,-684.21Z" fill="#00ff02"/>
    <path d="M-198.43,-684.21C-198.43,-681.53 -200.61,-679.35 -203.29,-679.35C-205.97,-679.35 -208.15,-681.53 -208.15,-684.21C-208.15,-686.89 -205.97,-689.07 -203.29,-689.07C-200.61,-689.07 -198.43,-686.89 -198.43,-684.21Z" fill="#d1ff00"/>
    <path d="M-117.12,-684.21C-117.12,-681.53 -119.29,-679.35 -121.97,-679.35C-124.66,-679.35 -126.83,-681.53 -126.83,-684.21C-126.83,-686.89 -124.66,-689.07 -121.97,-689.07C-119.29,-689.07 -117.12,-686.89 -117.12,-684.21Z" fill="#00ff55"/>
    <path d="M-35.80,-684.21C-35.80,-681.53 -37.98,-679.35 -40.66,-679.35C-43.34,-679.35 -45.51,-681.53 -45.51,-684.21C-45.51,-686.89 -43.34,-689.07 -40.66,-689.07C-37.98,-689.07 -35.80,-686.89 -35.80,-684.21Z" fill="#00ff48"/>
    <path d="M45.51,-684.21C45.51,-681.53 43.34,-679.35 40.66,-679.35C37.98,-679.35 35.80,-681.53 35.80,-684.21C35.80,-686.89 37.98,-689.07 40.66,-689.07C43.34,-689.07 45.51,-686.89 45.51,-684.21Z" fill="#ffd400"/>
    <path d="M126.83,-684.21C126.83,-681.53 124.66,-679.35 121.97,-679.35C119.29,-679.35 117.12,-681.53 117.12,-684.21C117.12,-686.89 119.29,-689.07 121.97,-689.07C124.66,-689.07 126.83,-686.89 126.83,-684.21Z" fill="#ff1c00"/>
    <path d="M208.15,-684.21C208.15,-681.53 205.97,-679.35 203.29,-679.35C200.61,-679.35 198.43,-681.53 198.43,-684.21C198.43,-686.89 200.61,-689.07 203.29,-689.07C205.97,-689.07 208.15,-686.89 208.15,-684.21Z" fill="#ff2b00"/>
    <path d="M289.46,-684.21C289.46,-681.53 287.29,-679.35 284.61,-679.35C281.92,-679.35 279.75,-681.53 279.75,-684.21C279.75,-686.89 281.92,-689.07 284.61,-689.07C287.29,-689.07 289.46,-686.89 289.46,-684.21Z" fill="#ff1100"/>
    <path d="M370.78,-684.21C370.78,-681.53 368.60,-679.35 365.92,-679.35C363.24,-679.35 361.06,-681.53 361.06,-684.21C361.06,-686.89 363.24,-689.07 365.92,-689.07C368.60,-689.07 370.78,-686.89 370.78,-684.21Z" fill="#dcff00"/>
    <path d="M452.09,-684.21C452.09,-681.53 449.92,-679.35 447.24,-679.35C444.55,-679.35 442.38,-681.53 442.38,-684.21C442.38,-686.89 444.55,-689.07 447.24,-689.07C449.92,-689.07 452.09,-686.89 452.09,-684.21Z" fill="#00ff49"/>
    <path d="M533.41,-684.21C533.41,-681.53 531.23,-679.35 528.55,-679.35C525.87,-679.35 523.70,-681.53 523.70,-684.21C523.70,-686.89 525.87,-689.07 528.55,-689.07C531.23,-689.07 533.41,-686.89 533.41,-684.21Z" fill="#00ff53"/>
    <path d="M614.73,-684.21C614.73,-681.53 612.55,-679.35 609.87,-679.35C607.19,-679.35 605.01,-681.53 605.01,-684.21C605.01,-686.89 607.19,-689.07 609.87,-689.07C612.55,-689.07 614.73,-686.89 614.73,-684.21Z" fill="#32ff00"/>
    <path d="M696.04,-684.21C696.04,-681.53 693.87,-679.35 691.18,-679.35C688.50,-679.35 686.33,-681.53 686.33,-684.21C686.33,-686.89 688.50,-689.07 691.18,-689.07C693.87,-689.07 696.04,-686.89 696.04,-684.21Z" fill="#d1ff00"/>
    <path d="M777.36,-684.21C777.36,-681.53 775.18,-679.35 772.50,-679.35C769.82,-679.35 767.64,-681.53 767.64,-684.21C767.64,-686.89 769.82,-689.07 772.50,-689.07C775.18,-689.07 777.36,-686.89 777.36,-684.21Z" fill="#ff9900"/>
    <path d="M-767.64,-578.95C-767.64,-576.27 -769.82,-574.09 -772.50,-574.09C-775.18,-574.09 -777.36,-576.27 -777.36,-578.95C-777.36,-581.63 -775.18,-583.80 -772.50,-583.80C-769.82,-583.80 -767.64,-581.63 -767.64,-578.95Z" fill="#ffb900"/>
    <path d="M-686.33,-578.95C-686.33,-576.27 -688.50,-574.09 -691.18,-574.09C-693.87,-574.09 -696.04,-576.27 -696.04,-578.95C-696.04,-581.63 -693.87,-583.80 -691.18,-583.80C-688.50,-583.80 -686.33,-581.63 -686.33,-578.95Z" fill="#01ff00"/>
    <path d="M-605.01,-578.95C-605.01,-576.27 -607.19,-574.09 -609.87,-574.09C-612.55,-574.09 -614.73,-576.27 -614.73,-578.95C-614.73,-581.63 -612.55,-583.80 -609.87,-583.80C-607.19,-583.80 -605.01,-581.63 -605.01,-578.95Z" fill="#ff1f00"/>
    <path d="M-523.70,-578.95C-523.70,-576.27 -525.87,-574.09 -528.55,-574.09C-531.23,-574.09 -533.41,-576.27 -533.41,-578.95C-533.41,-581.63 -531.23,-583.80 -528.55,-583.80C-525.87,-583.80 -523.70,-581.63 -523.70,-578.95Z" fill="#ff0600"/>
    <path d="M-442.38,-578.95C-442.38,-576.27 -444.55,-574.09 -447.24,-574.09C-449.92,-574.09 -452.09,-576.27 -452.09,-578.95C-452.09,-581.63 -449.92,-583.80 -447.24,-583.80C-444.55,-583.80 -442.38,-581.63 -442.38,-578.95Z" fill="#ffd400"/>
    <path d="M-361.06,-578.95C-361.06,-576.27 -363.24,-574.09 -365.92,-574.09C-368.60,-574.09 -370.78,-576.27 -370.78,-578.95C-370.78,-581.63 -368.60,-583.80 -365.92,-583.80C-363.24,-583.80 -361.06,-581.63 -361.06,-578.95Z" fill="#ff3400"/>
    <path d="M-279.75,-578.95C-279.75,-576.27 -281.92,-574.09 -284.61,-574.09C-287.29,-574.09 -289.46,-576.27 -289.46,-578.95C-289.46,-581.63 -287.29,-583.80 -284.61,-583.80C-281.92,-583.80 -279.75,-581.63 -279.75,-578.95Z" fill="#00ff00"/>
    <path d="M-198.43,-578.95C-198.43,-576.27 -200.61,-574.09 -203.29,-574.09C-205.97,-574.09 -208.15,-576.27 -208.15,-578.95C-208.15,-581.63 -205.97,-583.80 -203.29,-583.80C-200.61,-583.80 -198.43,-581.63 -198.43,-578.95Z" fill="#ff0200"/>
    <path d="M-117.12,-578.95C-117.12,-576.27 -119.29,-574.09 -121.97,-574.09C-124.66,-574.09 -126.83,-576.27 -126.83,-578.95C-126.83,-581.63 -124.66,-583.80 -121.97,-583.80C-119.29,-583.80 -117.12,-581.63 -117.12,-578.95Z" fill="#ffb900"/>
    <path d="M-35.80,-578.95C-35.80,-576.27 -37.98,-574.09 -40.66,-574.09C-43.34,-574.09 -45.51,-576.27 -45.51,-578.95C-45.51,-581.63 -43.34,-583.80 -40.66,-583.80C-37.98,-583.80 -35.80,-581.63 -35.80,-578.95Z" fill="#bfff00"/>
    <path d="M45.51,-578.95C45.51,-576.27 43.34,-574.09 40.66,-574.09C37.98,-574.09 35.80,-576.27 35.80,-578.95C35.80,-581.63 37.98,-583.80 40.66,-583.80C43.34,-583.80 45.51,-581.63 45.51,-578.95Z" fill="#00ff29"/>
    <path d="M126.83,-578.95C126.83,-576.27 124.66,-574.09 121.97,-574.09C119.29,-574.09 117.12,-576.27 117.12,-578.95C117.12,-581.63 119.29,-583.80 121.97,-583.80C124.66,-583.80 126.83,-581.63 126.83,-578.95Z" fill="#ffa600"/>
    <path d="M208.15,-578.95C208.15,-576.27 205.97,-574.09 203.29,-574.09C200.61,-574.09 198.43,-576.27 198.43,-578.95C198.43,-581.63 200.61,-583.80 203.29,-583.80C205.97,-583.80 208.15,-581.63 208.15,-578.95Z" fill="#00ff0f"/>
    <path d="M289.46,-578.95C289.46,-576.27 287.29,-574.09 284.61,-574.09C281.92,-574.09 279.75,-576.27 279.75,-578.95C279.75,-581.63 281.92,-583.80 284.61,-583.80C287.29,-583.80 289.46,-581.63 289.46,-578.95Z" fill="#90ff00"/>
    <path d="M370.78,-578.95C370.78,-576.27 368.60,-574.09 365.92,-574.09C363.24,-574.09 361.06,-576.27 361.06,-578.95C361.06,-581.63 363.24,-583.80 365.92,-583.80C368.60,-583.80 370.78,-581.63 370.78,-578.95Z" fill="#00ff23"/>
    <path d="M452.09,-578.95C452.09,-576.27 449.92,-574.09 447.24,-574.09C444.55,-574.09 442.38,-576.27 442.38,-578.95C442.38,-581.63 444.55,-583.80 447.24,-583.80C449.92,-583.80 452.09,-581.63 452.09,-578.95Z" fill="#ff1b00"/>
    <path d="M533.41,-578.95C533.41,-576.27 531.23,-574.09 528.55,-574.09C525.87,-574.09 523.70,-576.27 523.70,-578.95C523.70,-581.63 525.87,-583.80 528.55,-583.80C531.23,-583.80 533.41,-581.63 533.41,-578.95Z" fill="#7aff00"/>
    <path d="M614.73,-578.95C614.73,-576.27 612.55,-574.09 609.87,-574.09C607.19,-574.09 605.01,-576.27 605.01,-578.95C605.01,-581.63 607.19,-583.80 609.87,-583.80C612.55,-583.80 614.73,-581.63 614.73,-578.95Z" fill="#d4ff00"/>
    <path d="M696.04,-578.95C696.04,-576.27 693.87,-574.09 691.18,-574.09C688.50,-574.09 686.33,-576.27 686.33,-578.95C686.33,-581.63 688.50,-583.80 691.18,-583.80C693.87,-583.80 696.04,-581.63 696.04,-578.95Z" fill="#ceff00"/>
    <path d="M777.36,-578.95C777.36,-576.27 775.18,-574.09 772.50,-574.09C769.82,-574.09 767.64,-576.27 767.64,-578.95C767.64,-581.63 769.82,-583.80 772.50,-583.80C775.18,-583.80 777.36,-581.63 777.36,-578.95Z" fill="#c6ff00"/>
    <path d="M-767.64,-473.68C-767.64,-471.00 -769.82,-468.83 -772.50,-468.83C-775.18,-468.83 -777.36,-471.00 -777.36,-473.68C-777.36,-476.37 -775.18,-478.54 -772.50,-478.54C-769.82,-478.54 -767.64,-476.37 -767.64,-473.68Z" fill="#47ff00"/>
    <path d="M-686.33,-473.68C-686.33,-471.00 -688.50,-468.83 -691.18,-468.83C-693.87,-468.83 -696.04,-471.00 -696.04,-473.68C-696.04,-476.37 -693.87,-478.54 -691.18,-478.54C-688.50,-478.54 -686.33,-476.37 -686.33,-473.68Z" fill="#ff9000"/>
    <path d="M-605.01,-473.68C-605.01,-471.00 -607.19,-468.83 -609.87,-468.83C-612.55,-468.83 -614.73,-471.00 -614.73,-473.68C-614.73,-476.37 -612.55,-478.54 -609.87,-478.54C-607.19,-478.54 -605.01,-476.37 -605.01,-473.68Z" fill="#80ff00"/>
    <path d="M-523.70,-473.68C-523.70,-471.00 -525.87,-468.83 -528.55,-468.83C-531.23,-468.83 -533.41,-471.00 -533.41,-473.68C-533.41,-476.37 -531.23,-478.54 -528.55,-478.54C-525.87,-478.54 -523.70,-476.37 -523.70,-473.68Z" fill="#b4ff00"/>
    <path d="M-442.38,-473.68C-442.38,-471.00 -444.55,-468.83 -447.24,-468.83C-449.92,-468.83 -452.09,-471.00 -452.09,-473.68C-452.09,-476.37 -449.92,-478.54 -447.24,-478.54C-444.55,-478.54 -442.38,-476.37 -442.38,-473.68Z" fill="#97ff00"/>
    <path d="M-361.06,-473.68C-361.06,-471.00 -363.24,-468.83 -365.92,-468.83C-368.60,-468.83 -370.78,-471.00 -370.78,-473.68C-370.78,-476.37 -368.60,-478.54 -365.92,-478.54C-363.24,-478.54 -361.06,-476.37 -361.06,-473.68Z" fill="#ffc800"/>
    <path d="M-279.75,-473.68C-279.75,-471.00 -281.92,-468.83 -284.61,-468.83C-287.29,-468.83 -289.46,-471.00 -289.46,-473.68C-289.46,-476.37 -287.29,-478.54 -284.61,-478.54C-281.92,-478.54 -279.75,-476.37 -279.75,-473.68Z" fill="#ffe700"/>
    <path d="M-198.43,-473.68C-198.43,-471.00 -200.61,-468.83 -203.29,-468.83C-205.97,-468.83 -208.15,-471.00 -208.15,-473.68C-208.15,-476.37 -205.97,-478.54 -203.29,-478.54C-200.61,-478.54 -198.43,-476.37 -198.43,-473.68Z" fill="#00ff51"/>
    <path d="M-117.12,-473.68C-117.12,-471.00 -119.29,-468.83 -121.97,-468.83C-124.66,-468.83 -126.83,-471.00 -126.83,-473.68C-126.83,-476.37 -124.66,-478.54 -121.97,-478.54C-119.29,-478.54 -117.12,-476.37 -117.12,-473.68Z" fill="#00ff12"/>
    <path d="M-35.80,-473.68C-35.80,-471.00 -37.98,-468.83 -40.66,-468.83C-43.34,-468.83 -45.51,-471.00 -45.51,-473.68C-45.51,-476.37 -43.34,-478.54 -40.66,-478.54C-37.98,-478.54 -35.80,-476.37 -35.80,-473.68Z" fill="#00ff37"/>
    <path d="M45.51,-473.68C45.51,-471.00 43.34,-468.83 40.66,-468.83C37.98,-468.83 35.80,-471.00 35.80,-473.68C35.80,-476.37 37.98,-478.54 40.66,-478.54C43.34,-478.54 45.51,-476.37 45.51,-473.68Z" fill="#ffa500"/>
    <path d="M126.83,-473.68C126.83,-471.00 124.66,-468.83 121.97,-468.83C119.29,-468.83 117.12,-471.00 117.12,-473.68C117.12,-476.37 119.29,-478.54 121.97,-478.54C124.66,-478.54 126.83,-476.37 126.83,-473.68Z" fill="#ff4d00"/>
    <path d="M208.15,-473.68C208.15,-471.00 205.97,-468.83 203.29,-468.83C200.61,-468.83 198.43,-471.00 198.43,-473.68C198.43,-476.37 200.61,-478.54 203.29,-478.54C205.97,-478.54 208.15,-476.37 208.15,-473.68Z" fill="#ff5800"/>
    <path d="M289.46,-473.68C289.46,-471.00 287.29,-468.83 284.61,-468.83C281.92,-468.83 279.75,-471.00 279.75,-473.68C279.75,-476.37 281.92,-478.54 284.61,-478.54C287.29,-478.54 289.46,-476.37 289.46,-473.68Z" fill="#ff0e00"/>
    <path d="M370.78,-473.68C370.78,-471.00 368.60,-468.83 365.92,-468.83C363.24,-468.83 361.06,-471.00 361.06,-473.68C361.06,-476.37 363.24,-478.54 365.92,-478.54C368.60,-478.54 370.78,-476.37 370.78,-473.68Z" fill="#b6ff00"/>
    <path d="M452.09,-473.68C452.09,-471.00 449.92,-468.83 447.24,-468.83C444.55,-468.83 442.38,-471.00 442.38,-473.68C442.38,-476.37 444.55,-478.54 447.24,-478.54C449.92,-478.54 452.09,-476.37 452.09,-473.68Z" fill="#00ff45"/>
    <path d="M533.41,-473.68C533.41,-471.00 531.23,-468.83 528.55,-468.83C525.87,-468.83 523.70,-471.00 523.70,-473.68C523.70,-476.37 525.87,-478.54 528.55,-478.54C531.23,-478.54 533.41,-476.37 533.41,-473.68Z" fill="#ff3f00"/>
    <path d="M614.73,-473.68C614.73,-471.00 612.55,-468.83 609.87,-468.83C607.19,-468.83 605.01,-471.00 605.01,-473.68C605.01,-476.37 607.19,-478.54 609.87,-478.54C612.55,-478.54 614.73,-476.37 614.73,-473.68Z" fill="#87ff00"/>
    <path d="M696.04,-473.68C696.04,-471.00 693.87,-468.83 691.18,-468.83C688.50,-468.83 686.33,-471.00 686.33,-473.68C686.33,-476.37 688.50,-478.54 691.18,-478.54C693.87,-478.54 696.04,-476.37 696.04,-473.68Z" fill="#fff600"/>
    <path d="M777.36,-473.68C777.36,-471.00 775.18,-468.83 772.50,-468.83C769.82,-468.83 767.64,-471.00 767.64,-473.68C767.64,-476.37 769.82,-478.54 772.50,-478.54C775.18,-478.54 777.36,-476.37 777.36,-473.68Z" fill="#2cff00"/>
    <path d="M-767.64,-368.42C-767.64,-365.74 -769.82,-363.56 -772.50,-363.56C-775.18,-363.56 -777.36,-365.74 -777.36,-368.42C-777.36,-371.10 -775.18,-373.28 -772.50,-373.28C-769.82,-373.28 -767.64,-371.10 -767.64,-368.42Z" fill="#00ff54"/>
    <path d="M-686.33,-368.42C-686.33,-365.74 -688.50,-363.56 -691.18,-363.56C-693.87,-363.56 -696.04,-365.74 -696.04,-368.42C-696.04,-371.10 -693.87,-373.28 -691.18,-373.28C-688.50,-373.28 -686.33,-371.10 -686.33,-368.42Z" fill="#daff00"/>
    <path d="M-605.01,-368.42C-605.01,-365.74 -607.19,-363.56 -609.87,-363.56C-612.55,-363.56 -614.73,-365.74 -614.73,-368.42C-614.73,-371.10 -612.55,-373.28 -609.87,-373.28C-607.19,-373.28 -605.01,-371.10 -605.01,-368.42Z" fill="#3eff00"/>
    <path d="M-523.70,-368.42C-523.70,-365.74 -525.87,-363.56 -528.55,-363.56C-531.23,-363.56 -533.41,-365.74 -533.41,-368.42C-533.41,-371.10 -531.23,-373.28 -528.55,-373.28C-525.87,-373.28 -523.70,-371.10 -523.70,-368.42Z" fill="#46ff00"/>
    <path d="M-442.38,-368.42C-442.38,-365.74 -444.55,-363.56 -447.24,-363.56C-449.92,-363.56 -452.09,-365.74 -452.09,-368.42C-452.09,-371.10 -449.92,-373.28 -447.24,-373.28C-444.55,-373.28 -442.38,-371.10 -442.38,-368.42Z" fill="#14ff00"/>
    <path d="M-361.06,-368.42C-361.06,-365.74 -363.24,-363.56 -365.92,-363.56C-368.60,-363.56 -370.78,-365.74 -370.78,-368.42C-370.78,-371.10 -368.60,-373.28 -365.92,-373.28C-363.24,-373.28 -361.06,-371.10 -361.06,-368.42Z" fill="#07ff00"/>
    <path d="M-279.75,-368.42C-279.75,-365.74 -281.92,-363.56 -284.61,-363.56C-287.29,-363.56 -289.46,-365.74 -289.46,-368.42C-289.46,-371.10 -287.29,-373.28 -284.61,-373.28C-281.92,-373.28 -279.75,-371.10 -279.75,-368.42Z" fill="#c2ff00"/>
    <path d="M-198.43,-368.42C-198.43,-365.74 -200.61,-363.56 -203.29,-363.56C-205.97,-363.56 -208.15,-365.74 -208.15,-368.42C-208.15,-371.10 -205.97,-373.28 -203.29,-373.28C-200.61,-373.28 -198.43,-371.10 -198.43,-368.42Z" fill="#00ff1e"/>
    <path d="M-117.12,-368.42C-117.12,-365.74 -119.29,-363.56 -121.97,-363.56C-124.66,-363.56 -126.83,-365.74 -126.83,-368.42C-126.83,-371.10 -124.66,-373.28 -121.97,-373.28C-119.29,-373.28 -117.12,-371.10 -117.12,-368.42Z" fill="#ff5000"/>
    <path d="M-35.80,-368.42C-35.80,-365.74 -37.98,-363.56 -40.66,-363.56C-43.34,-363.56 -45.51,-365.74 -45.51,-368.42C-45.51,-371.10 -43.34,-373.28 -40.66,-373.28C-37.98,-373.28 -35.80,-371.10 -35.80,-368.42Z" fill="#ff3200"/>
    <path d="M45.51,-368.42C45.51,-365.74 43.34,-363.56 40.66,-363.56C37.98,-363.56 35.80,-365.74 35.80,-368.42C35.80,-371.10 37.98,-373.28 40.66,-373.28C43.34,-373.28 45.51,-371.10 45.51,-368.42Z" fill="#00ff4d"/>
    <path d="M126.83,-368.42C126.83,-365.74 124.66,-363.56 121.97,-363.56C119.29,-363.56 117.12,-365.74 117.12,-368.42C117.12,-371.10 119.29,-373.28 121.97,-373.28C124.66,-373.28 126.83,-371.10 126.83,-368.42Z" fill="#4dff00"/>
    <path d="M208.15,-368.42C208.15,-365.74 205.97,-363.56 203.29,-363.56C200.61,-363.56 198.43,-365.74 198.43,-368.42C198.43,-371.10 200.61,-373.28 203.29,-373.28C205.97,-373.28 208.15,-371.10 208.15,-368.42Z" fill="#51ff00"/>
    <path d="M289.46,-368.42C289.46,-365.74 287.29,-363.56 284.61,-363.56C281.92,-363.56 279.75,-365.74 279.75,-368.42C279.75,-371.10 281.92,-373.28 284.61,-373.28C287.29,-373.28 289.46,-371.10 289.46,-368.42Z" fill="#ff5600"/>
    <path d="M370.78,-368.42C370.78,-365.74 368.60,-363.56 365.92,-363.56C363.24,-363.56 361.06,-365.74 361.06,-368.42C361.06,-371.10 363.24,-373.28 365.92,-373.28C368.60,-373.28 370.78,-371.10 370.78,-368.42Z" fill="#e8ff00"/>
    <path d="M452.09,-368.42C452.09,-365.74 449.92,-363.56 447.24,-363.56C444.55,-363.56 442.38,-365.74 442.38,-368.42C442.38,-371.10 444.55,-373.28 447.24,-373.28C449.92,-373.28 452.09,-371.10 452.09,-368.42Z" fill="#ff0300"/>
    <path d="M533.41,-368.42C533.41,-365.74 531.23,-363.56 528.55,-363.56C525.87,-363.56 523.70,-365.74 523.70,-368.42C523.70,-371.10 525.87,-373.28 528.55,-373.28C531.23,-373.28 533.41,-371.10 533.41,-368.42Z" fill="#ff2b00"/>
    <path d="M614.73,-368.42C614.73,-365.74 612.55,-363.56 609.87,-363.56C607.19,-363.56 605.01,-365.74 605.01,-368.42C605.01,-371.10 607.19,-373.28 609.87,-373.28C612.55,-373.28 614.73,-371.10 614.73,-368.42Z" fill="#ffd100"/>
    <path d="M696.04,-368.42C696.04,-365.74 693.87,-363.56 691.18,-363.56C688.50,-363.56 686.33,-365.74 686.33,-368.42C686.33,-371.10 688.50,-373.28 691.18,-373.28C693.87,-373.28 696.04,-371.10 696.04,-368.42Z" fill="#ffcb00"/>
    <path d="M777.36,-368.42C777.36,-365.74 775.18,-363.56 772.50,-363.56C769.82,-363.56 767.64,-365.74 767.64,-368.42C767.64,-371.10 769.82,-373.28 772.50,-373.28C775.18,-373.28 777.36,-371.10 777.36,-368.42Z" fill="#00ff06"/>
    <path d="M-767.64,-263.16C-767.64,-260.48 -769.82,-258.30 -772.50,-258.30C-775.18,-258.30 -777.36,-260.48 -777.36,-263.16C-777.36,-265.84 -775.18,-268.01 -772.50,-268.01C-769.82,-268.01 -767.64,-265.84 -767.64,-263.16Z" fill="#00ff49"/>
    <path d="M-686.33,-263.16C-686.33,-260.48 -688.50,-258.30 -691.18,-258.30C-693.87,-258.30 -696.04,-260.48 -696.04,-263.16C-696.04,-265.84 -693.87,-268.01 -691.18,-268.01C-688.50,-268.01 -686.33,-265.84 -686.33,-263.16Z" fill="#00ff09"/>
    <path d="M-605.01,-263.16C-605.01,-260.48 -607.19,-258.30 -609.87,-258.30C-612.55,-258.30 -614.73,-260.48 -614.73,-263.16C-614.73,-265.84 -612.55,-268.01 -609.87,-268.01C-607.19,-268.01 -605.01,-265.84 -605.01,-263.16Z" fill="#8eff00"/>
    <path d="M-523.70,-263.16C-523.70,-260.48 -525.87,-258.30 -528.55,-258.30C-531.23,-258.30 -533.41,-260.48 -533.41,-263.16C-533.41,-265.84 -531.23,-268.01 -528.55,-268.01C-525.87,-268.01 -523.70,-265.84 -523.70,-263.16Z" fill="#ff6b00"/>
    <path d="M-442.38,-263.16C-442.38,-260.48 -444.55,-258.30 -447.24,-258.30C-449.92,-258.30 -452.09,-260.48 -452.09,-263.16C-452.09,-265.84 -449.92,-268.01 -447.24,-268.01C-444.55,-268.01 -442.38,-265.84 -442.38,-263.16Z" fill="#ff8300"/>
    <path d="M-361.06,-263.16C-361.06,-260.48 -363.24,-258.30 -365.92,-258.30C-368.60,-258.30 -370.78,-260.48 -370.78,-263.16C-370.78,-265.84 -368.60,-268.01 -365.92,-268.01C-363.24,-268.01 -361.06,-265.84 -361.06,-263.16Z" fill="#00ff03"/>
    <path d="M-279.75,-263.16C-279.75,-260.48 -281.92,-258.30 -284.61,-258.30C-287.29,-258.30 -289.46,-260.48 -289.46,-263.16C-289.46,-265.84 -287.29,-268.01 -284.61,-268.01C-281.92,-268.01 -279.75,-265.84 -279.75,-263.16Z" fill="#ff0600"/>
    <path d="M-198.43,-263.16C-198.43,-260.48 -200.61,-258.30 -203.29,-258.30C-205.97,-258.30 -208.15,-260.48 -208.15,-263.16C-208.15,-265.84 -205.97,-268.01 -203.29,-268.01C-200.61,-268.01 -198.43,-265.84 -198.43,-263.16Z" fill="#5fff00"/>
    <path d="M-117.12,-263.16C-117.12,-260.48 -119.29,-258.30 -121.97,-258.30C-124.66,-258.30 -126.83,-260.48 -126.83,-263.16C-126.83,-265.84 -124.66,-268.01 -121.97,-268.01C-119.29,-268.01 -117.12,-265.84 -117.12,-263.16Z" fill="#2fff00"/>
    <path d="M-35.80,-263.16C-35.80,-260.48 -37.98,-258.30 -40.66,-258.30C-43.34,-258.30 -45.51,-260.48 -45.51,-263.16C-45.51,-265.84 -43.34,-268.01 -40.66,-268.01C-37.98,-268.01 -35.80,-265.84 -35.80,-263.16Z" fill="#52ff00"/>
    <path d="M45.51,-263.16C45.51,-260.48 43.34,-258.30 40.66,-258.30C37.98,-258.30 35.80,-260.48 35.80,-263.16C35.80,-265.84 37.98,-268.01 40.66,-268.01C43.34,-268.01 45.51,-265.84 45.51,-263.16Z" fill="#ff7f00"/>
    <path d="M126.83,-263.16C126.83,-260.48 124.66,-258.30 121.97,-258.30C119.29,-258.30 117.12,-260.48 117.12,-263.16C117.12,-265.84 119.29,-268.01 121.97,-268.01C124.66,-268.01 126.83,-265.84 126.83,-263.16Z" fill="#28ff00"/>
    <path d="M208.15,-263.16C208.15,-260.48 205.97,-258.30 203.29,-258.30C200.61,-258.30 198.43,-260.48 198.43,-263.16C198.43,-265.84 200.61,-268.01 203.29,-268.01C205.97,-268.01 208.15,-265.84 208.15,-263.16Z" fill="#00ff39"/>
    <path d="M289.46,-263.16C289.46,-260.48 287.29,-258.30 284.61,-258.30C281.92,-258.30 279.75,-260.48 279.75,-263.16C279.75,-265.84 281.92,-268.01 284.61,-268.01C287.29,-268.01 289.46,-265.84 289.46,-263.16Z" fill="#ff0900"/>
    <path d="M370.78,-263.16C370.78,-260.48 368.60,-258.30 365.92,-258.30C363.24,-258.30 361.06,-260.48 361.06,-263.16C361.06,-265.84 363.24,-268.01 365.92,-268.01C368.60,-268.01 370.78,-265.84 370.78,-263.16Z" fill="#ffed00"/>
    <path d="M452.09,-263.16C452.09,-260.48 449.92,-258.30 447.24,-258.30C444.55,-258.30 442.38,-260.48 442.38,-263.16C442.38,-265.84 444.55,-268.01 447.24,-268.01C449.92,-268.01 452.09,-265.84 452.09,-263.16Z" fill="#00ff02"/>
    <path d="M533.41,-263.16C533.41,-260.48 531.23,-258.30 528.55,-258.30C525.87,-258.30 523.70,-260.48 523.70,-263.16C523.70,-265.84 525.87,-268.01 528.55,-268.01C531.23,-268.01 533.41,-265.84 533.41,-263.16Z" fill="#26ff00"/>
    <path d="M614.73,-263.16C614.73,-260.48 612.55,-258.30 609.87,-258.30C607.19,-258.30 605.01,-260.48 605.01,-263.16C605.01,-265.84 607.19,-268.01 609.87,-268.01C612.55,-268.01 614.73,-265.84 614.73,-263.16Z" fill="#00ff56"/>
    <path d="M696.04,-263.16C696.04,-260.48 693.87,-258.30 691.18,-258.30C688.50,-258.30 686.33,-260.48 686.33,-263.16C686.33,-265.84 688.50,-268.01 691.18,-268.01C693.87,-268.01 696.04,-265.84 696.04,-263.16Z" fill="#00ff14"/>
    <path d="M777.36,-263.16C777.36,-260.48 775.18,-258.30 772.50,-258.30C769.82,-258.30 767.64,-260.48 767.64,-263.16C767.64,-265.84 769.82,-268.01 772.50,-268.01C775.18,-268.01 777.36,-265.84 777.36,-263.16Z" fill="#ff6600"/>
    <path d="M-767.64,-157.89C-767.64,-155.21 -769.82,-153.04 -772.50,-153.04C-775.18,-153.04 -777.36,-155.21 -777.36,-157.89C-777.36,-160.58 -775.18,-162.75 -772.50,-162.75C-769.82,-162.75 -767.64,-160.58 -767.64,-157.89Z" fill="#00ff43"/>
    <path d="M-686.33,-157.89C-686.33,-155.21 -688.50,-153.04 -691.18,-153.04C-693.87,-153.04 -696.04,-155.21 -696.04,-157.89C-696.04,-160.58 -693.87,-162.75 -691.18,-162.75C-688.50,-162.75 -686.33,-160.58 -686.33,-157.89Z" fill="#4bff00"/>
    <path d="M-605.01,-157.89C-605.01,-155.21 -607.19,-153.04 -609.87,-153.04C-612.55,-153.04 -614.73,-155.21 -614.73,-157.89C-614.73,-160.58 -612.55,-162.75 -609.87,-162.75C-607.19,-162.75 -605.01,-160.58 -605.01,-157.89Z" fill="#68ff00"/>
    <path d="M-523.70,-157.89C-523.70,-155.21 -525.87,-153.04 -528.55,-153.04C-531.23,-153.04 -533.41,-155.21 -533.41,-157.89C-533.41,-160.58 -531.23,-162.75 -528.55,-162.75C-525.87,-162.75 -523.70,-160.58 -523.70,-157.89Z" fill="#1bff00"/>
    <path d="M-442.38,-157.89C-442.38,-155.21 -444.55,-153.04 -447.24,-153.04C-449.92,-153.04 -452.09,-155.21 -452.09,-157.89C-452.09,-160.58 -449.92,-162.75 -447.24,-162.75C-444.55,-162.75 -442.38,-160.58 -442.38,-157.89Z" fill="#f5ff00"/>
    <path d="M-361.06,-157.89C-361.06,-155.21 -363.24,-153.04 -365.92,-153.04C-368.60,-153.04 -370.78,-155.21 -370.78,-157.89C-370.78,-160.58 -368.60,-162.75 -365.92,-162.75C-363.24,-162.75 -361.06,-160.58 -361.06,-157.89Z" fill="#e9ff00"/>
    <path d="M-279.75,-157.89C-279.75,-155.21 -281.92,-153.04 -284.61,-153.04C-287.29,-153.04 -289.46,-155.21 -289.46,-157.89C-289.46,-160.58 -287.29,-162.75 -284.61,-162.75C-281.92,-162.75 -279.75,-160.58 -279.75,-157.89Z" fill="#00ff02"/>
    <path d="M-198.43,-157.89C-198.43,-155.21 -200.61,-153.04 -203.29,-153.04C-205.97,-153.04 -208.15,-155.21 -208.15,-157.89C-208.15,-160.58 -205.97,-162.75 -203.29,-162.75C-200.61,-162.75 -198.43,-160.58 -198.43,-157.89Z" fill="#d1ff00"/>
    <path d="M-117.12,-157.89C-117.12,-155.21 -119.29,-153.04 -121.97,-153.04C-124.66,-153.04 -126.83,-155.21 -126.83,-157.89C-126.83,-160.58 -124.66,-162.75 -121.97,-162.75C-119.29,-162.75 -117.12,-160.58 -117.12,-157.89Z" fill="#00ff55"/>
    <path d="M-35.80,-157.89C-35.80,-155.21 -37.98,-153.04 -40.66,-153.04C-43.34,-153.04 -45.51,-155.21 -45.51,-157.89C-45.51,-160.58 -43.34,-162.75 -40.66,-162.75C-37.98,-162.75 -35.80,-160.58 -35.80,-157.89Z" fill="#00ff48"/>
    <path d="M45.51,-157.89C45.51,-155.21 43.34,-153.04 40.66,-153.04C37.98,-153.04 35.80,-155.21 35.80,-157.89C35.80,-160.58 37.98,-162.75 40.66,-162.75C43.34,-162.75 45.51,-160.58 45.51,-157.89Z" fill="#ffd400"/>
    <path d="M126.83,-157.89C126.83,-155.21 124.66,-153.04 121.97,-153.04C119.29,-153.04 117.12,-155.21 117.12,-157.89C117.12,-160.58 119.29,-162.75 121.97,-162.75C124.66,-162.75 126.83,-160.58 126.83,-157.89Z" fill="#ff1c00"/>
    <path d="M208.15,-157.89C208.15,-155.21 205.97,-153.04 203.29,-153.04C200.61,-153.04 198.43,-155.21 198.43,-157.89C198.43,-160.58 200.61,-162.75 203.29,-162.75C205.97,-162.75 208.15,-160.58 208.15,-157.89Z" fill="#ff2b00"/>
    <path d="M289.46,-157.89C289.46,-155.21 287.29,-153.04 284.61,-153.04C281.92,-153.04 279.75,-155.21 279.75,-157.89C279.75,-160.58 281.92,-162.75 284.61,-162.75C287.29,-162.75 289.46,-160.58 289.46,-157.89Z" fill="#ff1100"/>
    <path d="M370.78,-157.89C370.78,-155.21 368.60,-153.04 365.92,-153.04C363.24,-153.04 361.06,-155.21 361.06,-157.89C361.06,-160.58 363.24,-162.75 365.92,-162.75C368.60,-162.75 370.78,-160.58 370.78,-157.89Z" fill="#dcff00"/>
    <path d="M452.09,-157.89C452.09,-155.21 449.92,-153.04 447.24,-153.04C444.55,-153.04 442.38,-155.21 442.38,-157.89C442.38,-160.58 444.55,-162.75 447.24,-162.75C449.92,-162.75 452.09,-160.58 452.09,-157.89Z" fill="#00ff49"/>
    <path d="M533.41,-157.89C533.41,-155.21 531.23,-153.04 528.55,-153.04C525.87,-153.04 523.70,-155.21 523.70,-157.89C523.70,-160.58 525.87,-162.75 528.55,-162.75C531.23,-162.75 533.41,-160.58 533.41,-157.89Z" fill="#00ff53"/>
    <path d="M614.73,-157.89C614.73,-155.21 612.55,-153.04 609.87,-153.04C607.19,-153.04 605.01,-155.21 605.01,-157.89C605.01,-160.58 607.19,-162.75 609.87,-162.75C612.55,-162.75 614.73,-160.58 614.73,-157.89Z" fill="#32ff00"/>
    <path d="M696.04,-157.89C696.04,-155.21 693.87,-153.04 691.18,-153.04C688.50,-153.04 686.33,-155.21 686.33,-157.89C686.33,-160.58 688.50,-162.75 691.18,-162.75C693.87,-162.75 696.04,-160.58 696.04,-157.89Z" fill="#d1ff00"/>
    <path d="M777.36,-157.89C777.36,-155.21 775.18,-153.04 772.50,-153.04C769.82,-153.04 767.64,-155.21 767.64,-157.89C767.64,-160.58 769.82,-162.75 772.50,-162.75C775.18,-162.75 777.36,-160.58 777.36,-157.89Z" fill="#ff9900"/>
    <path d="M-767.64,-52.63C-767.64,-49.95 -769.82,-47.77 -772.50,-47.77C-775.18,-47.77 -777.36,-49.95 -777.36,-52.63C-777.36,-55.31 -775.18,-57.49 -772.50,-57.49C-769.82,-57.49 -767.64,-55.31 -767.64,-52.63Z" fill="#ffb900"/>
    <path d="M-686.33,-52.63C-686.33,-49.95 -688.50,-47.77 -691.18,-47.77C-693.87,-47.77 -696.04,-49.95 -696.04,-52.63C-696.04,-55.31 -693.87,-57.49 -691.18,-57.49C-688.50,-57.49 -686.33,-55.31 -686.33,-52.63Z" fill="#01ff00"/>
    <path d="M-605.01,-52.63C-605.01,-49.95 -607.19,-47.77 -609.87,-47.77C-612.55,-47.77 -614.73,-49.95 -614.73,-52.63C-614.73,-55.31 -612.55,-57.49 -609.87,-57.49C-607.19,-57.49 -605.01,-55.31 -605.01,-52.63Z" fill="#ff1f00"/>
    <path d="M-523.70,-52.63C-523.70,-49.95 -525.87,-47.77 -528.55,-47.77C-531.23,-47.77 -533.41,-49.95 -533.41,-52.63C-533.41,-55.31 -531.23,-57.49 -528.55,-57.49C-525.87,-57.49 -523.70,-55.31 -523.70,-52.63Z" fill="#ff0600"/>
    <path d="M-442.38,-52.63C-442.38,-49.95 -444.55,-47.77 -447.24,-47.77C-449.92,-47.77 -452.09,-49.95 -452.09,-52.63C-452.09,-55.31 -449.92,-57.49 -447.24,-57.49C-444.55,-57.49 -442.38,-55.31 -442.38,-52.63Z" fill="#ffd400"/>
    <path d="M-361.06,-52.63C-361.06,-49.95 -363.24,-47.77 -365.92,-47.77C-368.60,-47.77 -370.78,-49.95 -370.78,-52.63C-370.78,-55.31 -368.60,-57.49 -365.92,-57.49C-363.24,-57.49 -361.06,-55.31 -361.06,-52.63Z" fill="#ff3400"/>
    <path d="M-279.75,-52.63C-279.75,-49.95 -281.92,-47.77 -284.61,-47.77C-287.29,-47.77 -289.46,-49.95 -289.46,-52.63C-289.46,-55.31 -287.29,-57.49 -284.61,-57.49C-281.92,-57.49 -279.75,-55.31 -279.75,-52.63Z" fill="#00ff00"/>
    <path d="M-198.43,-52.63C-198.43,-49.95 -200.61,-47.77 -203.29,-47.77C-205.97,-47.77 -208.15,-49.95 -208.15,-52.63C-208.15,-55.31 -205.97,-57.49 -203.29,-57.49C-200.61,-57.49 -198.43,-55.31 -198.43,-52.63Z" fill="#ff0200"/>
    <path d="M-117.12,-52.63C-117.12,-49.95 -119.29,-47.77 -121.97,-47.77C-124.66,-47.77 -126.83,-49.95 -126.83,-52.63C-126.83,-55.31 -124.66,-57.49 -121.97,-57.49C-119.29,-57.49 -117.12,-55.31 -117.12,-52.63Z" fill="#ffb900"/>
    <path d="M-35.80,-52.63C-35.80,-49.95 -37.98,-47.77 -40.66,-47.77C-43.34,-47.77 -45.51,-49.95 -45.51,-52.63C-45.51,-55.31 -43.34,-57.49 -40.66,-57.49C-37.98,-57.49 -35.80,-55.31 -35.80,-52.63Z" fill="#bfff00"/>
    <path d="M45.51,-52.63C45.51,-49.95 43.34,-47.77 40.66,-47.77C37.98,-47.77 35.80,-49.95 35.80,-52.63C35.80,-55.31 37.98,-57.49 40.66,-57.49C43.34,-57.49 45.51,-55.31 45.51,-52.63Z" fill="#00ff29"/>
    <path d="M126.83,-52.63C126.83,-49.95 124.66,-47.77 121.97,-47.77C119.29,-47.77 117.12,-49.95 117.12,-52.63C117.12,-55.31 119.29,-57.49 121.97,-57.49C124.66,-57.49 126.83,-55.31 126.83,-52.63Z" fill="#ffa600"/>
    <path d="M208.15,-52.63C208.15,-49.95 205.97,-47.77 203.29,-47.77C200.61,-47.77 198.43,-49.95 198.43,-52.63C198.43,-55.31 200.61,-57.49 203.29,-57.49C205.97,-57.49 208.15,-55.31 208.15,-52.63Z" fill="#00ff0f"/>
    <path d="M289.46,-52.63C289.46,-49.95 287.29,-47.77 284.61,-47.77C281.92,-47.77 279.75,-49.95 279.75,-52.63C279.75,-55.31 281.92,-57.49 284.61,-57.49C287.29,-57.49 289.46,-55.31 289.46,-52.63Z" fill="#90ff00"/>
    <path d="M370.78,-52.63C370.78,-49.95 368.60,-47.77 365.92,-47.77C363.24,-47.77 361.06,-49.95 361.06,-52.63C361.06,-55.31 363.24,-57.49 365.92,-57.49C368.60,-57.49 370.78,-55.31 370.78,-52.63Z" fill="#00ff23"/>
    <path d="M452.09,-52.63C452.09,-49.95 449.92,-47.77 447.24,-47.77C444.55,-47.77 442.38,-49.95 442.38,-52.63C442.38,-55.31 444.55,-57.49 447.24,-57.49C449.92,-57.49 452.09,-55.31 452.09,-52.63Z" fill="#ff1b00"/>
    <path d="M533.41,-52.63C533.41,-49.95 531.23,-47.77 528.55,-47.77C525.87,-47.77 523.70,-49.95 523.70,-52.63C523.70,-55.31 525.87,-57.49 528.55,-57.49C531.23,-57.49 533.41,-55.31 533.41,-52.63Z" fill="#7aff00"/>
    <path d="M614.73,-52.63C614.73,-49.95 612.55,-47.77 609.87,-47.77C607.19,-47.77 605.01,-49.95 605.01,-52.63C605.01,-55.31 607.19,-57.49 609.87,-57.49C612.55,-57.49 614.73,-55.31 614.73,-52.63Z" fill="#d4ff00"/>
    <path d="M696.04,-52.63C696.04,-49.95 693.87,-47.77 691.18,-47.77C688.50,-47.77 686.33,-49.95 686.33,-52.63C686.33,-55.31 688.50,-57.49 691.18,-57.49C693.87,-57.49 696.04,-55.31 696.04,-52.63Z" fill="#ceff00"/>
    <path d="M777.36,-52.63C777.36,-49.95 775.18,-47.77 772.50,-47.77C769.82,-47.77 767.64,-49.95 767.64,-52.63C767.64,-55.31 769.82,-57.49 772.50,-57.49C775.18,-57.49 777.36,-55.31 777.36,-52.63Z" fill="#c6ff00"/>
    <path d="M-767.64,52.63C-767.64,55.31 -769.82,57.49 -772.50,57.49C-775.18,57.49 -777.36,55.31 -777.36,52.63C-777.36,49.95 -775.18,47.77 -772.50,47.77C-769.82,47.77 -767.64,49.95 -767.64,52.63Z" fill="#47ff00"/>
    <path d="M-686.33,52.63C-686.33,55.31 -688.50,57.49 -691.18,57.49C-693.87,57.49 -696.04,55.31 -696.04,52.63C-696.04,49.95 -693.87,47.77 -691.18,47.77C-688.50,47.77 -686.33,49.95 -686.33,52.63Z" fill="#ff9000"/>
    <path d="M-605.01,52.63C-605.01,55.31 -607.19,57.49 -609.87,57.49C-612.55,57.49 -614.73,55.31 -614.73,52.63C-614.73,49.95 -612.55,47.77 -609.87,47.77C-607.19,47.77 -605.01,49.95 -605.01,52.63Z" fill="#80ff00"/>
    <path d="M-523.70,52.63C-523.70,55.31 -525.87,57.49 -528.55,57.49C-531.23,57.49 -533.41,55.31 -533.41,52.63C-533.41,49.95 -531.23,47.77 -528.55,47.77C-525.87,47.77 -523.70,49.95 -523.70,52.63Z" fill="#b4ff00"/>
    <path d="M-442.38,52.63C-442.38,55.31 -444.55,57.49 -447.24,57.49C-449.92,57.49 -452.09,55.31 -452.09,52.63C-452.09,49.95 -449.92,47.77 -447.24,47.77C-444.55,47.77 -442.38,49.95 -442.38,52.63Z" fill="#97ff00"/>
    <path d="M-361.06,52.63C-361.06,55.31 -363.24,57.49 -365.92,57.49C-368.60,57.49 -370.78,55.31 -370.78,52.63C-370.78,49.95 -368.60,47.77 -365.92,47.77C-363.24,47.77 -361.06,49.95 -361.06,52.63Z" fill="#ffc800"/>
    <path d="M-279.75,52.63C-279.75,55.31 -281.92,57.49 -284.61,57.49C-287.29,57.49 -289.46,55.31 -289.46,52.63C-289.46,49.95 -287.29,47.77 -284.61,47.77C-281.92,47.77 -279.75,49.95 -279.75,52.63Z" fill="#ffe700"/>
    <path d="M-198.43,52.63C-198.43,55.31 -200.61,57.49 -203.29,57.49C-205.97,57.49 -208.15,55.31 -208.15,52.63C-208.15,49.95 -205.97,47.77 -203.29,47.77C-200.61,47.77 -198.43,49.95 -198.43,52.63Z" fill="#00ff51"/>
    <path d="M-117.12,52.63C-117.12,55.31 -119.29,57.49 -121.97,57.49C-124.66,57.49 -126.83,55.31 -126.83,52.63C-126.83,49.95 -124.66,47.77 -121.97,47.77C-119.29,47.77 -117.12,49.95 -117.12,52.63Z" fill="#00ff12"/>
    <path d="M-35.80,52.63C-35.80,55.31 -37.98,57.49 -40.66,57.49C-43.34,57.49 -45.51,55.31 -45.51,52.63C-45.51,49.95 -43.34,47.77 -40.66,47.77C-37.98,47.77 -35.80,49.95 -35.80,52.63Z" fill="#00ff37"/>
    <path d="M45.51,52.63C45.51,55.31 43.34,57.49 40.66,57.49C37.98,57.49 35.80,55.31 35.80,52.63C35.80,49.95 37.98,47.77 40.66,47.77C43.34,47.77 45.51,49.95 45.51,52.63Z" fill="#ffa500"/>
    <path d="M126.83,52.63C126.83,55.31 124.66,57.49 121.97,57.49C119.29,57.49 117.12,55.31 117.12,52.63C117.12,49.95 119.29,47.77 121.97,47.77C124.66,47.77 126.83,49.95 126.83,52.63Z" fill="#ff4d00"/>
    <path d="M208.15,52.63C208.15,55.31 205.97,57.49 203.29,57.49C200.61,57.49 198.43,55.31 198.43,52.63C198.43,49.95 200.61,47.77 203.29,47.77C205.97,47.77 208.15,49.95 208.15,52.63Z" fill="#ff5800"/>
    <path d="M289.46,52.63C289.46,55.31 287.29,57.49 284.61,57.49C281.92,57.49 279.75,55.31 279.75,52.63C279.75,49.95 281.92,47.77 284.61,47.77C287.29,47.77 289.46,49.95 289.46,52.63Z" fill="#ff0e00"/>
    <path d="M370.78,52.63C370.78,55.31 368.60,57.49 365.92,57.49C363.24,57.49 361.06,55.31 361.06,52.63C361.06,49.95 363.24,47.77 365.92,47.77C368.60,47.77 370.78,49.95 370.78,52.63Z" fill="#b6ff00"/>
    <path d="M452.09,52.63C452.09,55.31 449.92,57.49 447.24,57.49C444.55,57.49 442.38,55.31 442.38,52.63C442.38,49.95 444.55,47.77 447.24,47.77C449.92,47.77 452.09,49.95 452.09,52.63Z" fill="#00ff45"/>
    <path d="M533.41,52.63C533.41,55.31 531.23,57.49 528.55,57.49C525.87,57.49 523.70,55.31 523.70,52.63C523.70,49.95 525.87,47.77 528.55,47.77C531.23,47.77 533.41,49.95 533.41,52.63Z" fill="#ff3f00"/>
    <path d="M614.73,52.63C614.73,55.31 612.55,57.49 609.87,57.49C607.19,57.49 605.01,55.31 605.01,52.63C605.01,49.95 607.19,47.77 609.87,47.77C612.55,47.77 614.73,49.95 614.73,52.63Z" fill="#87ff00"/>
    <path d="M696.04,52.63C696.04,55.31 693.87,57.49 691.18,57.49C688.50,57.49 686.33,55.31 686.33,52.63C686.33,49.95 688.50,47.77 691.18,47.77C693.87,47.77 696.04,49.95 696.04,52.63Z" fill="#fff600"/>
    <path d="M777.36,52.63C777.36,55.31 775.18,57.49 772.50,57.49C769.82,57.49 767.64,55.31 767.64,52.63C767.64,49.95 769.82,47.77 772.50,47.77C775.18,47.77 777.36,49.95 777.36,52.63Z" fill="#2cff00"/>
    <path d="M-767.64,157.89C-767.64,160.58 -769.82,162.75 -772.50,162.75C-775.18,162.75 -777.36,160.58 -777.36,157.89C-777.36,155.21 -775.18,153.04 -772.50,153.04C-769.82,153.04 -767.64,155.21 -767.64,157.89Z" fill="#00ff54"/>
    <path d="M-686.33,157.89C-686.33,160.58 -688.50,162.75 -691.18,162.75C-693.87,162.75 -696.04,160.58 -696.04,157.89C-696.04,155.21 -693.87,153.04 -691.18,153.04C-688.50,153.04 -686.33,155.21 -686.33,157.89Z" fill="#daff00"/>
    <path d="M-605.01,157.89C-605.01,160.58 -607.19,162.75 -609.87,162.75C-612.55,162.75 -614.73,160.58 -614.73,157.89C-614.73,155.21 -612.55,153.04 -609.87,153.04C-607.19,153.04 -605.01,155.21 -605.01,157.89Z" fill="#3eff00"/>
    <path d="M-523.70,157.89C-523.70,160.58 -525.87,162.75 -528.55,162.75C-531.23,162.75 -533.41,160.58 -533.41,157.89C-533.41,155.21 -531.23,153.04 -528.55,153.04C-525.87,153.04 -523.70,155.21 -523.70,157.89Z" fill="#46ff00"/>
    <path d="M-442.38,157.89C-442.38,160.58 -444.55,162.75 -447.24,162.75C-449.92,162.75 -452.09,160.58 -452.09,157.89C-452.09,155.21 -449.92,153.04 -447.24,153.04C-444.55,153.04 -442.38,155.21 -442.38,157.89Z" fill="#14ff00"/>
    <path d="M-361.06,157.89C-361.06,160.58 -363.24,162.75 -365.92,162.75C-368.60,162.75 -370.78,160.58 -370.78,157.89C-370.78,155.21 -368.60,153.04 -365.92,153.04C-363.24,153.04 -361.06,155.21 -361.06,157.89Z" fill="#07ff00"/>
    <path d="M-279.75,157.89C-279.75,160.58 -281.92,162.75 -284.61,162.75C-287.29,162.75 -289.46,160.58 -289.46,157.89C-289.46,155.21 -287.29,153.04 -284.61,153.04C-281.92,153.04 -279.75,155.21 -279.75,157.89Z" fill="#c2ff00"/>
    <path d="M-198.43,157.89C-198.43,160.58 -200.61,162.75 -203.29,162.75C-205.97,162.75 -208.15,160.58 -208.15,157.89C-208.15,155.21 -205.97,153.04 -203.29,153.04C-200.61,153.04 -198.43,155.21 -198.43,157.89Z" fill="#00ff1e"/>
    <path d="M-117.12,157.89C-117.12,160.58 -119.29,162.75 -121.97,162.75C-124.66,162.75 -126.83,160.58 -126.83,157.89C-126.83,155.21 -124.66,153.04 -121.97,153.04C-119.29,153.04 -117.12,155.21 -117.12,157.89Z" fill="#ff5000"/>
    <path d="M-35.80,157.89C-35.80,160.58 -37.98,162.75 -40.66,162.75C-43.34,162.75 -45.51,160.58 -45.51,157.89C-45.51,155.21 -43.34,153.04 -40.66,153.04C-37.98,153.04 -35.80,155.21 -35.80,157.89Z" fill="#ff3200"/>
    <path d="M45.51,157.89C45.51,160.58 43.34,162.75 40.66,162.75C37.98,162.75 35.80,160.58 35.80,157.89C35.80,155.21 37.98,153.04 40.66,153.04C43.34,153.04 45.51,155.21 45.51,157.89Z" fill="#00ff4d"/>
    <path d="M126.83,157.89C126.83,160.58 124.66,162.75 121.97,162.75C119.29,162.75 117.12,160.58 117.12,157.89C117.12,155.21 119.29,153.04 121.97,153.04C124.66,153.04 126.83,155.21 126.83,157.89Z" fill="#4dff00"/>
    <path d="M208.15,157.89C208.15,160.58 205.97,162.75 203.29,162.75C200.61,162.75 198.43,160.58 198.43,157.89C198.43,155.21 200.61,153.04 203.29,153.04C205.97,153.04 208.15,155.21 208.15,157.89Z" fill="#51ff00"/>
    <path d="M289.46,157.89C289.46,160.58 287.29,162.75 284.61,162.75C281.92,162.75 279.75,160.58 279.75,157.89C279.75,155.21 281.92,153.04 284.61,153.04C287.29,153.04 289.46,155.21 289.46,157.89Z" fill="#ff5600"/>
    <path d="M370.78,157.89C370.78,160.58 368.60,162.75 365.92,162.75C363.24,162.75 361.06,160.58 361.06,157.89C361.06,155.21 363.24,153.04 365.92,153.04C368.60,153.04 370.78,155.21 370.78,157.89Z" fill="#e8ff00"/>
    <path d="M452.09,157.89C452.09,160.58 449.92,162.75 447.24,162.75C444.55,162.75 442.38,160.58 442.38,157.89C442.38,155.21 444.55,153.04 447.24,153.04C449.92,153.04 452.09,155.21 452.09,157.89Z" fill="#ff0300"/>
    <path d="M533.41,157.89C533.41,160.58 531.23,162.75 528.55,162.75C525.87,162.75 523.70,160.58 523.70,157.89C523.70,155.21 525.87,153.04 528.55,153.04C531.23,153.04 533.41,155.21 533.41,157.89Z" fill="#ff2b00"/>
    <path d="M614.73,157.89C614.73,160.58 612.55,162.75 609.87,162.75C607.19,162.75 605.01,160.58 605.01,157.89C605.01,155.21 607.19,153.04 609.87,153.04C612.55,153.04 614.73,155.21 614.73,157.89Z" fill="#ffd100"/>
    <path d="M696.04,157.89C696.04,160.58 693.87,162.75 691.18,162.75C688.50,162.75 686.33,160.58 686.33,157.89C686.33,155.21 688.50,153.04 691.18,153.04C693.87,153.04 696.04,155.21 696.04,157.89Z" fill="#ffcb00"/>
    <path d="M777.36,157.89C777.36,160.58 775.18,162.75 772.50,162.75C769.82,162.75 767.64,160.58 767.64,157.89C767.64,155.21 769.82,153.04 772.50,153.04C775.18,153.04 777.36,155.21 777.36,157.89Z" fill="#00ff06"/>
    <path d="M-767.64,263.16C-767.64,265.84 -769.82,268.01 -772.50,268.01C-775.18,268.01 -777.36,265.84 -777.36,263.16C-777.36,260.48 -775.18,258.30 -772.50,258.30C-769.82,258.30 -767.64,260.48 -767.64,263.16Z" fill="#00ff49"/>
    <path d="M-686.33,263.16C-686.33,265.84 -688.50,268.01 -691.18,268.01C-693.87,268.01 -696.04,265.84 -696.04,263.16C-696.04,260.48 -693.87,258.30 -691.18,258.30C-688.50,258.30 -686.33,260.48 -686.33,263.16Z" fill="#00ff09"/>
    <path d="M-605.01,263.16C-605.01,265.84 -607.19,268.01 -609.87,268.01C-612.55,268.01 -614.73,265.84 -614.73,263.16C-614.73,260.48 -612.55,258.30 -609.87,258.30C-607.19,258.30 -605.01,260.48 -605.01,263.16Z" fill="#8eff00"/>
    <path d="M-523.70,263.16C-523.70,265.84 -525.87,268.01 -528.55,268.01C-531.23,268.01 -533.41,265.84 -533.41,263.16C-533.41,260.48 -531.23,258.30 -528.55,258.30C-525.87,258.30 -523.70,260.48 -523.70,263.16Z" fill="#ff6b00"/>
    <path d="M-442.38,263.16C-442.38,265.84 -444.55,268.01 -447.24,268.01C-449.92,268.01 -452.09,265.84 -452.09,263.16C-452.09,260.48 -449.92,258.30 -447.24,258.30C-444.55,258.30 -442.38,260.48 -442.38,263.16Z" fill="#ff8300"/>
    <path d="M-361.06,263.16C-361.06,265.84 -363.24,268.01 -365.92,268.01C-368.60,268.01 -370.78,265.84 -370.78,263.16C-370.78,260.48 -368.60,258.30 -365.92,258.30C-363.24,258.30 -361.06,260.48 -361.06,263.16Z" fill="#00ff03"/>
    <path d="M-279.75,263.16C-279.75,265.84 -281.92,268.01 -284.61,268.01C-287.29,268.01 -289.46,265.84 -289.46,263.16C-289.46,260.48 -287.29,258.30 -284.61,258.30C-281.92,258.30 -279.75,260.48 -279.75,263.16Z" fill="#ff0600"/>
    <path d="M-198.43,263.16C-198.43,265.84 -200.61,268.01 -203.29,268.01C-205.97,268.01 -208.15,265.84 -208.15,263.16C-208.15,260.48 -205.97,258.30 -203.29,258.30C-200.61,258.30 -198.43,260.48 -198.43,263.16Z" fill="#5fff00"/>
    <path d="M-117.12,263.16C-117.12,265.84 -119.29,268.01 -121.97,268.01C-124.66,268.01 -126.83,265.84 -126.83,263.16C-126.83,260.48 -124.66,258.30 -121.97,258.30C-119.29,258.30 -117.12,260.48 -117.12,263.16Z" fill="#2fff00"/>
    <path d="M-35.80,263.16C-35.80,265.84 -37.98,268.01 -40.66,268.01C-43.34,268.01 -45.51,265.84 -45.51,263.16C-45.51,260.48 -43.34,258.30 -40.66,258.30C-37.98,258.30 -35.80,260.48 -35.80,263.16Z" fill="#52ff00"/>
    <path d="M45.51,263.16C45.51,265.84 43.34,268.01 40.66,268.01C37.98,268.01 35.80,265.84 35.80,263.16C35.80,260.48 37.98,258.30 40.66,258.30C43.34,258.30 45.51,260.48 45.51,263.16Z" fill="#ff7f00"/>
    <path d="M126.83,263.16C126.83,265.84 124.66,268.01 121.97,268.01C119.29,268.01 117.12,265.84 117.12,263.16C117.12,260.48 119.29,258.30 121.97,258.30C124.66,258.30 126.83,260.48 126.83,263.16Z" fill="#28ff00"/>
    <path d="M208.15,263.16C208.15,265.84 205.97,268.01 203.29,268.01C200.61,268.01 198.43,265.84 198.43,263.16C198.43,260.48 200.61,258.30 203.29,258.30C205.97,258.30 208.15,260.48 208.15,263.16Z" fill="#00ff39"/>
    <path d="M289.46,263.16C289.46,265.84 287.29,268.01 284.61,268.01C281.92,268.01 279.75,265.84 279.75,263.16C279.75,260.48 281.92,258.30 284.61,258.30C287.29,258.30 289.46,260.48 289.46,263.16Z" fill="#ff0900"/>
    <path d="M370.78,263.16C370.78,265.84 368.60,268.01 365.92,268.01C363.24,268.01 361.06,265.84 361.06,263.16C361.06,260.48 363.24,258.30 365.92,258.30C368.60,258.30 370.78,260.48 370.78,263.16Z" fill="#ffed00"/>
    <path d="M452.09,263.16C452.09,265.84 449.92,268.01 447.24,268.01C444.55,268.01 442.38,265.84 442.38,263.16C442.38,260.48 444.55,258.30 447.24,258.30C449.92,258.30 452.09,260.48 452.09,263.16Z" fill="#00ff02"/>
    <path d="M533.41,263.16C533.41,265.84 531.23,268.01 528.55,268.01C525.87,268.01 523.70,265.84 523.70,263.16C523.70,260.48 525.87,258.30 528.55,258.30C531.23,258.30 533.41,260.48 533.41,263.16Z" fill="#26ff00"/>
    <path d="M614.73,263.16C614.73,265.84 612.55,268.01 609.87,268.01C607.19,268.01 605.01,265.84 605.01,263.16C605.01,260.48 607.19,258.30 609.87,258.30C612.55,258.30 614.73,260.48 614.73,263.16Z" fill="#00ff56"/>
    <path d="M696.04,263.16C696.04,265.84 693.87,268.01 691.18,268.01C688.50,268.01 686.33,265.84 686.33,263.16C686.33,260.48 688.50,258.30 691.18,258.30C693.87,258.30 696.04,260.48 696.04,263.16Z" fill="#00ff14"/>
    <path d="M777.36,263.16C777.36,265.84 775.18,268.01 772.50,268.01C769.82,268.01 767.64,265.84 767.64,263.16C767.64,260.48 769.82,258.30 772.50,258.30C775.18,258.30 777.36,260.48 777.36,263.16Z" fill="#ff6600"/>
    <path d="M-767.64,368.42C-767.64,371.10 -769.82,373.28 -772.50,373.28C-775.18,373.28 -777.36,371.10 -777.36,368.42C-777.36,365.74 -775.18,363.56 -772.50,363.56C-769.82,363.56 -767.64,365.74 -767.64,368.42Z" fill="#00ff43"/>
    <path d="M-686.33,368.42C-686.33,371.10 -688.50,373.28 -691.18,373.28C-693.87,373.28 -696.04,371.10 -696.04,368.42C-696.04,365.74 -693.87,363.56 -691.18,363.56C-688.50,363.56 -686.33,365.74 -686.33,368.42Z" fill="#4bff00"/>
    <path d="M-605.01,368.42C-605.01,371.10 -607.19,373.28 -609.87,373.28C-612.55,373.28 -614.73,371.10 -614.73,368.42C-614.73,365.74 -612.55,363.56 -609.87,363.56C-607.19,363.56 -605.01,365.74 -605.01,368.42Z" fill="#68ff00"/>
    <path d="M-523.70,368.42C-523.70,371.10 -525.87,373.28 -528.55,373.28C-531.23,373.28 -533.41,371.10 -533.41,368.42C-533.41,365.74 -531.23,363.56 -528.55,363.56C-525.87,363.56 -523.70,365.74 -523.70,368.42Z" fill="#1bff00"/>
    <path d="M-442.38,368.42C-442.38,371.10 -444.55,373.28 -447.24,373.28C-449.92,373.28 -452.09,371.10 -452.09,368.42C-452.09,365.74 -449.92,363.56 -447.24,363.56C-444.55,363.56 -442.38,365.74 -442.38,368.42Z" fill="#f5ff00"/>
    <path d="M-361.06,368.42C-361.06,371.10 -363.24,373.28 -365.92,373.28C-368.60,373.28 -370.78,371.10 -370.78,368.42C-370.78,365.74 -368.60,363.56 -365.92,363.56C-363.24,363.56 -361.06,365.74 -361.06,368.42Z" fill="#e9ff00"/>
    <path d="M-279.75,368.42C-279.75,371.10 -281.92,373.28 -284.61,373.28C-287.29,373.28 -289.46,371.10 -289.46,368.42C-289.46,365.74 -287.29,363.56 -284.61,363.56C-281.92,363.56 -279.75,365.74 -279.75,368.42Z" fill="#00ff02"/>
    <path d="M-198.43,368.42C-198.43,371.10 -200.61,373.28 -203.29,373.28C-205.97,373.28 -208.15,371.10 -208.15,368.42C-208.15,365.74 -205.97,363.56 -203.29,363.56C-200.61,363.56 -198.43,365.74 -198.43,368.42Z" fill="#d1ff00"/>
    <path d="M-117.12,368.42C-117.12,371.10 -119.29,373.28 -121.97,373.28C-124.66,373.28 -126.83,371.10 -126.83,368.42C-126.83,365.74 -124.66,363.56 -121.97,363.56C-119.29,363.56 -117.12,365.74 -117.12,368.42Z" fill="#00ff55"/>
    <path d="M-35.80,368.42C-35.80,371.10 -37.98,373.28 -40.66,373.28C-43.34,373.28 -45.51,371.10 -45.51,368.42C-45.51,365.74 -43.34,363.56 -40.66,363.56C-37.98,363.56 -35.80,365.74 -35.80,368.42Z" fill="#00ff48"/>
    <path d="M45.51,368.42C45.51,371.10 43.34,373.28 40.66,373.28C37.98,373.28 35.80,371.10 35.80,368.42C35.80,365.74 37.98,363.56 40.66,363.56C43.34,363.56 45.51,365.74 45.51,368.42Z" fill="#ffd400"/>
    <path d="M126.83,368.42C126.83,371.10 124.66,373.28 121.97,373.28C119.29,373.28 117.12,371.10 117.12,368.42C117.12,365.74 119.29,363.56 121.97,363.56C124.66,363.56 126.83,365.74 126.83,368.42Z" fill="#ff1c00"/>
    <path d="M208.15,368.42C208.15,371.10 205.97,373.28 203.29,373.28C200.61,373.28 198.43,371.10 198.43,368.42C198.43,365.74 200.61,363.56 203.29,363.56C205.97,363.56 208.15,365.74 208.15,368.42Z" fill="#ff2b00"/>
    <path d="M289.46,368.42C289.46,371.10 287.29,373.28 284.61,373.28C281.92,373.28 279.75,371.10 279.75,368.42C279.75,365.74 281.92,363.56 284.61,363.56C287.29,363.56 289.46,365.74 289.46,368.42Z" fill="#ff1100"/>
    <path d="M370.78,368.42C370.78,371.10 368.60,373.28 365.92,373.28C363.24,373.28 361.06,371.10 361.06,368.42C361.06,365.74 363.24,363.56 365.92,363.56C368.60,363.56 370.78,365.74 370.78,368.42Z" fill="#dcff00"/>
    <path d="M452.09,368.42C452.09,371.10 449.92,373.28 447.24,373.28C444.55,373.28 442.38,371.10 442.38,368.42C442.38,365.74 444.55,363.56 447.24,363.56C449.92,363.56 452.09,365.74 452.09,368.42Z" fill="#00ff49"/>
    <path d="M533.41,368.42C533.41,371.10 531.23,373.28 528.55,373.28C525.87,373.28 523.70,371.10 523.70,368.42C523.70,365.74 525.87,363.56 528.55,363.56C531.23,363.56 533.41,365.74 533.41,368.42Z" fill="#00ff53"/>
    <path d="M614.73,368.42C614.73,371.10 612.55,373.28 609.87,373.28C607.19,373.28 605.01,371.10 605.01,368.42C605.01,365.74 607.19,363.56 609.87,363.56C612.55,363.56 614.73,365.74 614.73,368.42Z" fill="#32ff00"/>
    <path d="M696.04,368.42C696.04,371.10 693.87,373.28 691.18,373.28C688.50,373.28 686.33,371.10 686.33,368.42C686.33,365.74 688.50,363.56 691.18,363.56C693.87,363.56 696.04,365.74 696.04,368.42Z" fill="#d1ff00"/>
    <path d="M777.36,368.42C777.36,371.10 775.18,373.28 772.50,373.28C769.82,373.28 767.64,371.10 767.64,368.42C767.64,365.74 769.82,363.56 772.50,363.56C775.18,363.56 777.36,365.74 777.36,368.42Z" fill="#ff9900"/>
    <path d="M-767.64,473.68C-767.64,476.37 -769.82,478.54 -772.50,478.54C-775.18,478.54 -777.36,476.37 -777.36,473.68C-777.36,471.00 -775.18,468.83 -772.50,468.83C-769.82,468.83 -767.64,471.00 -767.64,473.68Z" fill="#ffb900"/>
    <path d="M-686.33,473.68C-686.33,476.37 -688.50,478.54 -691.18,478.54C-693.87,478.54 -696.04,476.37 -696.04,473.68C-696.04,471.00 -693.87,468.83 -691.18,468.83C-688.50,468.83 -686.33,471.00 -686.33,473.68Z" fill="#01ff00"/>
    <path d="M-605.01,473.68C-605.01,476.37 -607.19,478.54 -609.87,478.54C-612.55,478.54 -614.73,476.37 -614.73,473.68C-614.73,471.00 -612.55,468.83 -609.87,468.83C-607.19,468.83 -605.01,471.00 -605.01,473.68Z" fill="#ff1f00"/>
    <path d="M-523.70,473.68C-523.70,476.37 -525.87,478.54 -528.55,478.54C-531.23,478.54 -533.41,476.37 -533.41,473.68C-533.41,471.00 -531.23,468.83 -528.55,468.83C-525.87,468.83 -523.70,471.00 -523.70,473.68Z" fill="#ff0600"/>
    <path d="M-442.38,473.68C-442.38,476.37 -444.55,478.54 -447.24,478.54C-449.92,478.54 -452.09,476.37 -452.09,473.68C-452.09,471.00 -449.92,468.83 -447.24,468.83C-444.55,468.83 -442.38,471.00 -442.38,473.68Z" fill="#ffd400"/>
    <path d="M-361.06,473.68C-361.06,476.37 -363.24,478.54 -365.92,478.54C-368.60,478.54 -370.78,476.37 -370.78,473.68C-370.78,471.00 -368.60,468.83 -365.92,468.83C-363.24,468.83 -361.06,471.00 -361.06,473.68Z" fill="#ff3400"/>
    <path d="M-279.75,473.68C-279.75,476.37 -281.92,478.54 -284.61,478.54C-287.29,478.54 -289.46,476.37 -289.46,473.68C-289.46,471.00 -287.29,468.83 -284.61,468.83C-281.92,468.83 -279.75,471.00 -279.75,473.68Z" fill="#00ff00"/>
    <path d="M-198.43,473.68C-198.43,476.37 -200.61,478.54 -203.29,478.54C-205.97,478.54 -208.15,476.37 -208.15,473.68C-208.15,471.00 -205.97,468.83 -203.29,468.83C-200.61,468.83 -198.43,471.00 -198.43,473.68Z" fill="#ff0200"/>
    <path d="M-117.12,473.68C-117.12,476.37 -119.29,478.54 -121.97,478.54C-124.66,478.54 -126.83,476.37 -126.83,473.68C-126.83,471.00 -124.66,468.83 -121.97,468.83C-119.29,468.83 -117.12,471.00 -117.12,473.68Z" fill="#ffb900"/>
    <path d="M-35.80,473.68C-35.80,476.37 -37.98,478.54 -40.66,478.54C-43.34,478.54 -45.51,476.37 -45.51,473.68C-45.51,471.00 -43.34,468.83 -40.66,468.83C-37.98,468.83 -35.80,471.00 -35.80,473.68Z" fill="#bfff00"/>
    <path d="M45.51,473.68C45.51,476.37 43.34,478.54 40.66,478.54C37.98,478.54 35.80,476.37 35.80,473.68C35.80,471.00 37.98,468.83 40.66,468.83C43.34,468.83 45.51,471.00 45.51,473.68Z" fill="#00ff29"/>
    <path d="M126.83,473.68C126.83,476.37 124.66,478.54 121.97,478.54C119.29,478.54 117.12,476.37 117.12,473.68C117.12,471.00 119.29,468.83 121.97,468.83C124.66,468.83 126.83,471.00 126.83,473.68Z" fill="#ffa600"/>
    <path d="M208.15,473.68C208.15,476.37 205.97,478.54 203.29,478.54C200.61,478.54 198.43,476.37 198.43,473.68C198.43,471.00 200.61,468.83 203.29,468.83C205.97,468.83 208.15,471.00 208.15,473.68Z" fill="#00ff0f"/>
    <path d="M289.46,473.68C289.46,476.37 287.29,478.54 284.61,478.54C281.92,478.54 279.75,476.37 279.75,473.68C279.75,471.00 281.92,468.83 284.61,468.83C287.29,468.83 289.46,471.00 289.46,473.68Z" fill="#90ff00"/>
    <path d="M370.78,473.68C370.78,476.37 368.60,478.54 365.92,478.54C363.24,478.54 361.06,476.37 361.06,473.68C361.06,471.00 363.24,468.83 365.92,468.83C368.60,468.83 370.78,471.00 370.78,473.68Z" fill="#00ff23"/>
    <path d="M452.09,473.68C452.09,476.37 449.92,478.54 447.24,478.54C444.55,478.54 442.38,476.37 442.38,473.68C442.38,471.00 444.55,468.83 447.24,468.83C449.92,468.83 452.09,471.00 452.09,473.68Z" fill="#ff1b00"/>
    <path d="M533.41,473.68C533.41,476.37 531.23,478.54 528.55,478.54C525.87,478.54 523.70,476.37 523.70,473.68C523.70,471.00 525.87,468.83 528.55,468.83C531.23,468.83 533.41,471.00 533.41,473.68Z" fill="#7aff00"/>
    <path d="M614.73,473.68C614.73,476.37 612.55,478.54 609.87,478.54C607.19,478.54 605.01,476.37 605.01,473.68C605.01,471.00 607.19,468.83 609.87,468.83C612.55,468.83 614.73,471.00 614.73,473.68Z" fill="#d4ff00"/>
    <path d="M696.04,473.68C696.04,476.37 693.87,478.54 691.18,478.54C688.50,478.54 686.33,476.37 686.33,473.68C686.33,471.00 688.50,468.83 691.18,468.83C693.87,468.83 696.04,471.00 696.04,473.68Z" fill="#ceff00"/>
    <path d="M777.36,473.68C777.36,476.37 775.18,478.54 772.50,478.54C769.82,478.54 767.64,476.37 767.64,473.68C767.64,471.00 769.82,468.83 772.50,468.83C775.18,468.83 777.36,471.00 777.36,473.68Z" fill="#c6ff00"/>
    <path d="M-767.64,578.95C-767.64,581.63 -769.82,583.80 -772.50,583.80C-775.18,583.80 -777.36,581.63 -777.36,578.95C-777.36,576.27 -775.18,574.09 -772.50,574.09C-769.82,574.09 -767.64,576.27 -767.64,578.95Z" fill="#47ff00"/>
    <path d="M-686.33,578.95C-686.33,581.63 -688.50,583.80 -691.18,583.80C-693.87,583.80 -696.04,581.63 -696.04,578.95C-696.04,576.27 -693.87,574.09 -691.18,574.09C-688.50,574.09 -686.33,576.27 -686.33,578.95Z" fill="#ff9000"/>
    <path d="M-605.01,578.95C-605.01,581.63 -607.19,583.80 -609.87,583.80C-612.55,583.80 -614.73,581.63 -614.73,578.95C-614.73,576.27 -612.55,574.09 -609.87,574.09C-607.19,574.09 -605.01,576.27 -605.01,578.95Z" fill="#80ff00"/>
    <path d="M-523.70,578.95C-523.70,581.63 -525.87,583.80 -528.55,583.80C-531.23,583.80 -533.41,581.63 -533.41,578.95C-533.41,576.27 -531.23,574.09 -528.55,574.09C-525.87,574.09 -523.70,576.27 -523.70,578.95Z" fill="#b4ff00"/>
    <path d="M-442.38,578.95C-442.38,581.63 -444.55,583.80 -447.24,583.80C-449.92,583.80 -452.09,581.63 -452.09,578.95C-452.09,576.27 -449.92,574.09 -447.24,574.09C-444.55,574.09 -442.38,576.27 -442.38,578.95Z" fill="#97ff00"/>
    <path d="M-361.06,578.95C-361.06,581.63 -363.24,583.80 -365.92,583.80C-368.60,583.80 -370.78,581.63 -370.78,578.95C-370.78,576.27 -368.60,574.09 -365.92,574.09C-363.24,574.09 -361.06,576.27 -361.06,578.95Z" fill="#ffc800"/>
    <path d="M-279.75,578.95C-279.75,581.63 -281.92,583.80 -284.61,583.80C-287.29,583.80 -289.46,581.63 -289.46,578.95C-289.46,576.27 -287.29,574.09 -284.61,574.09C-281.92,574.09 -279.75,576.27 -279.75,578.95Z" fill="#ffe700"/>
    <path d="M-198.43,578.95C-198.43,581.63 -200.61,583.80 -203.29,583.80C-205.97,583.80 -208.15,581.63 -208.15,578.95C-208.15,576.27 -205.97,574.09 -203.29,574.09C-200.61,574.09 -198.43,576.27 -198.43,578.95Z" fill="#00ff51"/>
    <path d="M-117.12,578.95C-117.12,581.63 -119.29,583.80 -121.97,583.80C-124.66,583.80 -126.83,581.63 -126.83,578.95C-126.83,576.27 -124.66,574.09 -121.97,574.09C-119.29,574.09 -117.12,576.27 -117.12,578.95Z" fill="#00ff12"/>
    <path d="M-35.80,578.95C-35.80,581.63 -37.98,583.80 -40.66,583.80C-43.34,583.80 -45.51,581.63 -45.51,578.95C-45.51,576.27 -43.34,574.09 -40.66,574.09C-37.98,574.09 -35.80,576.27 -35.80,578.95Z" fill="#00ff37"/>
    <path d="M45.51,578.95C45.51,581.63 43.34,583.80 40.66,583.80C37.98,583.80 35.80,581.63 35.80,578.95C35.80,576.27 37.98,574.09 40.66,574.09C43.34,574.09 45.51,576.27 45.51,578.95Z" fill="#ffa500"/>
    <path d="M126.83,578.95C126.83,581.63 124.66,583.80 121.97,583.80C119.29,583.80 117.12,581.63 117.12,578.95C117.12,576.27 119.29,574.09 121.97,574.09C124.66,574.09 126.83,576.27 126.83,578.95Z" fill="#ff4d00"/>
    <path d="M208.15,578.95C208.15,581.63 205.97,583.80 203.29,583.80C200.61,583.80 198.43,581.63 198.43,578.95C198.43,576.27 200.61,574.09 203.29,574.09C205.97,574.09 208.15,576.27 208.15,578.95Z" fill="#ff5800"/>
    <path d="M289.46,578.95C289.46,581.63 287.29,583.80 284.61,583.80C281.92,583.80 279.75,581.63 279.75,578.95C279.75,576.27 281.92,574.09 284.61,574.09C287.29,574.09 289.46,576.27 289.46,578.95Z" fill="#ff0e00"/>
    <path d="M370.78,578.95C370.78,581.63 368.60,583.80 365.92,583.80C363.24,583.80 361.06,581.63 361.06,578.95C361.06,576.27 363.24,574.09 365.92,574.09C368.60,574.09 370.78,576.27 370.78,578.95Z" fill="#b6ff00"/>
    <path d="M452.09,578.95C452.09,581.63 449.92,583.80 447.24,583.80C444.55,583.80 442.38,581.63 442.38,578.95C442.38,576.27 444.55,574.09 447.24,574.09C449.92,574.09 452.09,576.27 452.09,578.95Z" fill="#00ff45"/>
    <path d="M533.41,578.95C533.41,581.63 531.23,583.80 528.55,583.80C525.87,583.80 523.70,581.63 523.70,578.95C523.70,576.27 525.87,574.09 528.55,574.09C531.23,574.09 533.41,576.27 533.41,578.95Z" fill="#ff3f00"/>
    <path d="M614.73,578.95C614.73,581.63 612.55,583.80 609.87,583.80C607.19,583.80 605.01,581.63 605.01,578.95C605.01,576.27 607.19,574.09 609.87,574.09C612.55,574.09 614.73,576.27 614.73,578.95Z" fill="#87ff00"/>
    <path d="M696.04,578.95C696.04,581.63 693.87,583.80 691.18,583.80C688.50,583.80 686.33,581.63 686.33,578.95C686.33,576.27 688.50,574.09 691.18,574.09C693.87,574.09 696.04,576.27 696.04,578.95Z" fill="#fff600"/>
    <path d="M777.36,578.95C777.36,581.63 775.18,583.80 772.50,583.80C769.82,583.80 767.64,581.63 767.64,578.95C767.64,576.27 769.82,574.09 772.50,574.09C775.18,574.09 777.36,576.27 777.36,578.95Z" fill="#2cff00"/>
    <path d="M-767.64,684.21C-767.64,686.89 -769.82,689.07 -772.50,689.07C-775.18,689.07 -777.36,686.89 -777.36,684.21C-777.36,681.53 -775.18,679.35 -772.50,679.35C-769.82,679.35 -767.64,681.53 -767.64,684.21Z" fill="#00ff54"/>
    <path d="M-686.33,684.21C-686.33,686.89 -688.50,689.07 -691.18,689.07C-693.87,689.07 -696.04,686.89 -696.04,684.21C-696.04,681.53 -693.87,679.35 -691.18,679.35C-688.50,679.35 -686.33,681.53 -686.33,684.21Z" fill="#daff00"/>
    <path d="M-605.01,684.21C-605.01,686.89 -607.19,689.07 -609.87,689.07C-612.55,689.07 -614.73,686.89 -614.73,684.21C-614.73,681.53 -612.55,679.35 -609.87,679.35C-607.19,679.35 -605.01,681.53 -605.01,684.21Z" fill="#3eff00"/>
    <path d="M-523.70,684.21C-523.70,686.89 -525.87,689.07 -528.55,689.07C-531.23,689.07 -533.41,686.89 -533.41,684.21C-533.41,681.53 -531.23,679.35 -528.55,679.35C-525.87,679.35 -523.70,681.53 -523.70,684.21Z" fill="#46ff00"/>
    <path d="M-442.38,684.21C-442.38,686.89 -444.55,689.07 -447.24,689.07C-449.92,689.07 -452.09,686.89 -452.09,684.21C-452.09,681.53 -449.92,679.35 -447.24,679.35C-444.55,679.35 -442.38,681.53 -442.38,684.21Z" fill="#14ff00"/>
    <path d="M-361.06,684.21C-361.06,686.89 -363.24,689.07 -365.92,689.07C-368.60,689.07 -370.78,686.89 -370.78,684.21C-370.78,681.53 -368.60,679.35 -365.92,679.35C-363.24,679.35 -361.06,681.53 -361.06,684.21Z" fill="#07ff00"/>
    <path d="M-279.75,684.21C-279.75,686.89 -281.92,689.07 -284.61,689.07C-287.29,689.07 -289.46,686.89 -289.46,684.21C-289.46,681.53 -287.29,679.35 -284.61,679.35C-281.92,679.35 -279.75,681.53 -279.75,684.21Z" fill="#c2ff00"/>
    <path d="M-198.43,684.21C-198.43,686.89 -200.61,689.07 -203.29,689.07C-205.97,689.07 -208.15,686.89 -208.15,684.21C-208.15,681.53 -205.97,679.35 -203.29,679.35C-200.61,679.35 -198.43,681.53 -198.43,684.21Z" fill="#00ff1e"/>
    <path d="M-117.12,684.21C-117.12,686.89 -119.29,689.07 -121.97,689.07C-124.66,689.07 -126.83,686.89 -126.83,684.21C-126.83,681.53 -124.66,679.35 -121.97,679.35C-119.29,679.35 -117.12,681.53 -117.12,684.21Z" fill="#ff5000"/>
    <path d="M-35.80,684.21C-35.80,686.89 -37.98,689.07 -40.66,689.07C-43.34,689.07 -45.51,686.89 -45.51,684.21C-45.51,681.53 -43.34,679.35 -40.66,679.35C-37.98,679.35 -35.80,681.53 -35.80,684.21Z" fill="#ff3200"/>
    <path d="M45.51,684.21C45.51,686.89 43.34,689.07 40.66,689.07C37.98,689.07 35.80,686.89 35.80,684.21C35.80,681.53 37.98,679.35 40.66,679.35C43.34,679.35 45.51,681.53 45.51,684.21Z" fill="#00ff4d"/>
    <path d="M126.83,684.21C126.83,686.89 124.66,689.07 121.97,689.07C119.29,689.07 117.12,686.89 117.12,684.21C117.12,681.53 119.29,679.35 121.97,679.35C124.66,679.35 126.83,681.53 126.83,684.21Z" fill="#4dff00"/>
    <path d="M208.15,684.21C208.15,686.89 205.97,689.07 203.29,689.07C200.61,689.07 198.43,686.89 198.43,684.21C198.43,681.53 200.61,679.35 203.29,679.35C205.97,679.35 208.15,681.53 208.15,684.21Z" fill="#51ff00"/>
    <path d="M289.46,684.21C289.46,686.89 287.29,689.07 284.61,689.07C281.92,689.07 279.75,686.89 279.75,684.21C279.75,681.53 281.92,679.35 284.61,679.35C287.29,679.35 289.46,681.53 289.46,684.21Z" fill="#ff5600"/>
    <path d="M370.78,684.21C370.78,686.89 368.60,689.07 365.92,689.07C363.24,689.07 361.06,686.89 361.06,684.21C361.06,681.53 363.24,679.35 365.92,679.35C368.60,679.35 370.78,681.53 370.78,684.21Z" fill="#e8ff00"/>
    <path d="M452.09,684.21C452.09,686.89 449.92,689.07 447.24,689.07C444.55,689.07 442.38,686.89 442.38,684.21C442.38,681.53 444.55,679.35 447.24,679.35C449.92,679.35 452.09,681.53 452.09,684.21Z" fill="#ff0300"/>
    <path d="M533.41,684.21C533.41,686.89 531.23,689.07 528.55,689.07C525.87,689.07 523.70,686.89 523.70,684.21C523.70,681.53 525.87,679.35 528.55,679.35C531.23,679.35 533.41,681.53 533.41,684.21Z" fill="#ff2b00"/>
    <path d="M614.73,684.21C614.73,686.89 612.55,689.07 609.87,689.07C607.19,689.07 605.01,686.89 605.01,684.21C605.01,681.53 607.19,679.35 609.87,679.35C612.55,679.35 614.73,681.53 614.73,684.21Z" fill="#ffd100"/>
    <path d="M696.04,684.21C696.04,686.89 693.87,689.07 691.18,689.07C688.50,689.07 686.33,686.89 686.33,684.21C686.33,681.53 688.50,679.35 691.18,679.35C693.87,679.35 696.04,681.53 696.04,684.21Z" fill="#ffcb00"/>
    <path d="M777.36,684.21C777.36,686.89 775.18,689.07 772.50,689.07C769.82,689.07 767.64,686.89 767.64,684.21C767.64,681.53 769.82,679.35 772.50,679.35C775.18,679.35 777.36,681.53 777.36,684.21Z" fill="#00ff06"/>
    <path d="M-767.64,789.47C-767.64,792.16 -769.82,794.33 -772.50,794.33C-775.18,794.33 -777.36,792.16 -777.36,789.47C-777.36,786.79 -775.18,784.62 -772.50,784.62C-769.82,784.62 -767.64,786.79 -767.64,789.47Z" fill="#00ff49"/>
    <path d="M-686.33,789.47C-686.33,792.16 -688.50,794.33 -691.18,794.33C-693.87,794.33 -696.04,792.16 -696.04,789.47C-696.04,786.79 -693.87,784.62 -691.18,784.62C-688.50,784.62 -686.33,786.79 -686.33,789.47Z" fill="#00ff09"/>
    <path d="M-605.01,789.47C-605.01,792.16 -607.19,794.33 -609.87,794.33C-612.55,794.33 -614.73,792.16 -614.73,789.47C-614.73,786.79 -612.55,784.62 -609.87,784.62C-607.19,784.62 -605.01,786.79 -605.01,789.47Z" fill="#8eff00"/>
    <path d="M-523.70,789.47C-523.70,792.16 -525.87,794.33 -528.55,794.33C-531.23,794.33 -533.41,792.16 -533.41,789.47C-533.41,786.79 -531.23,784.62 -528.55,784.62C-525.87,784.62 -523.70,786.79 -523.70,789.47Z" fill="#ff6b00"/>
    <path d="M-442.38,789.47C-442.38,792.16 -444.55,794.33 -447.24,794.33C-449.92,794.33 -452.09,792.16 -452.09,789.47C-452.09,786.79 -449.92,784.62 -447.24,784.62C-444.55,784.62 -442.38,786.79 -442.38,789.47Z" fill="#ff8300"/>
    <path d="M-361.06,789.47C-361.06,792.16 -363.24,794.33 -365.92,794.33C-368.60,794.33 -370.78,792.16 -370.78,789.47C-370.78,786.79 -368.60,784.62 -365.92,784.62C-363.24,784.62 -361.06,786.79 -361.06,789.47Z" fill="#00ff03"/>
    <path d="M-279.75,789.47C-279.75,792.16 -281.92,794.33 -284.61,794.33C-287.29,794.33 -289.46,792.16 -289.46,789.47C-289.46,786.79 -287.29,784.62 -284.61,784.62C-281.92,784.62 -279.75,786.79 -279.75,789.47Z" fill="#ff0600"/>
    <path d="M-198.43,789.47C-198.43,792.16 -200.61,794.33 -203.29,794.33C-205.97,794.33 -208.15,792.16 -208.15,789.47C-208.15,786.79 -205.97,784.62 -203.29,784.62C-200.61,784.62 -198.43,786.79 -198.43,789.47Z" fill="#5fff00"/>
    <path d="M-117.12,789.47C-117.12,792.16 -119.29,794.33 -121.97,794.33C-124.66,794.33 -126.83,792.16 -126.83,789.47C-126.83,786.79 -124.66,784.62 -121.97,784.62C-119.29,784.62 -117.12,786.79 -117.12,789.47Z" fill="#2fff00"/>
    <path d="M-35.80,789.47C-35.80,792.16 -37.98,794.33 -40.66,794.33C-43.34,794.33 -45.51,792.16 -45.51,789.47C-45.51,786.79 -43.34,784.62 -40.66,784.62C-37.98,784.62 -35.80,786.79 -35.80,789.47Z" fill="#52ff00"/>
    <path d="M45.51,789.47C45.51,792.16 43.34,794.33 40.66,794.33C37.98,794.33 35.80,792.16 35.80,789.47C35.80,786.79 37.98,784.62 40.66,784.62C43.34,784.62 45.51,786.79 45.51,789.47Z" fill="#ff7f00"/>
    <path d="M126.83,789.47C126.83,792.16 124.66,794.33 121.97,794.33C119.29,794.33 117.12,792.16 117.12,789.47C117.12,786.79 119.29,784.62 121.97,784.62C124.66,784.62 126.83,786.79 126.83,789.47Z" fill="#28ff00"/>
    <path d="M208.15,789.47C208.15,792.16 205.97,794.33 203.29,794.33C200.61,794.33 198.43,792.16 198.43,789.47C198.43,786.79 200.61,784.62 203.29,784.62C205.97,784.62 208.15,786.79 208.15,789.47Z" fill="#00ff39"/>
    <path d="M289.46,789.47C289.46,792.16 287.29,794.33 284.61,794.33C281.92,794.33 279.75,792.16 279.75,789.47C279.75,786.79 281.92,784.62 284.61,784.62C287.29,784.62 289.46,786.79 289.46,789.47Z" fill="#ff0900"/>
    <path d="M370.78,789.47C370.78,792.16 368.60,794.33 365.92,794.33C363.24,794.33 361.06,792.16 361.06,789.47C361.06,786.79 363.24,784.62 365.92,784.62C368.60,784.62 370.78,786.79 370.78,789.47Z" fill="#ffed00"/>
    <path d="M452.09,789.47C452.09,792.16 449.92,794.33 447.24,794.33C444.55,794.33 442.38,792.16 442.38,789.47C442.38,786.79 444.55,784.62 447.24,784.62C449.92,784.62 452.09,786.79 452.09,789.47Z" fill="#00ff02"/>
    <path d="M533.41,789.47C533.41,792.16 531.23,794.33 528.55,794.33C525.87,794.33 523.70,792.16 523.70,789.47C523.70,786.79 525.87,784.62 528.55,784.62C531.23,784.62 533.41,786.79 533.41,789.47Z" fill="#26ff00"/>
    <path d="M614.73,789.47C614.73,792.16 612.55,794.33 609.87,794.33C607.19,794.33 605.01,792.16 605.01,789.47C605.01,786.79 607.19,784.62 609.87,784.62C612.55,784.62 614.73,786.79 614.73,789.47Z" fill="#00ff56"/>
    <path d="M696.04,789.47C696.04,792.16 693.87,794.33 691.18,794.33C688.50,794.33 686.33,792.16 686.33,789.47C686.33,786.79 688.50,784.62 691.18,784.62C693.87,784.62 696.04,786.79 696.04,789.47Z" fill="#00ff14"/>
    <path d="M777.36,789.47C777.36,792.16 775.18,794.33 772.50,794.33C769.82,794.33 767.64,792.16 767.64,789.47C767.64,786.79 769.82,784.62 772.50,784.62C775.18,784.62 777.36,786.79 777.36,789.47Z" fill="#ff6600"/>
    <path d="M-767.64,894.74C-767.64,897.42 -769.82,899.59 -772.50,899.59C-775.18,899.59 -777.36,897.42 -777.36,894.74C-777.36,892.05 -775.18,889.88 -772.50,889.88C-769.82,889.88 -767.64,892.05 -767.64,894.74Z" fill="#00ff43"/>
    <path d="M-686.33,894.74C-686.33,897.42 -688.50,899.59 -691.18,899.59C-693.87,899.59 -696.04,897.42 -696.04,894.74C-696.04,892.05 -693.87,889.88 -691.18,889.88C-688.50,889.88 -686.33,892.05 -686.33,894.74Z" fill="#4bff00"/>
    <path d="M-605.01,894.74C-605.01,897.42 -607.19,899.59 -609.87,899.59C-612.55,899.59 -614.73,897.42 -614.73,894.74C-614.73,892.05 -612.55,889.88 -609.87,889.88C-607.19,889.88 -605.01,892.05 -605.01,894.74Z" fill="#68ff00"/>
    <path d="M-523.70,894.74C-523.70,897.42 -525.87,899.59 -528.55,899.59C-531.23,899.59 -533.41,897.42 -533.41,894.74C-533.41,892.05 -531.23,889.88 -528.55,889.88C-525.87,889.88 -523.70,892.05 -523.70,894.74Z" fill="#1bff00"/>
    <path d="M-442.38,894.74C-442.38,897.42 -444.55,899.59 -447.24,899.59C-449.92,899.59 -452.09,897.42 -452.09,894.74C-452.09,892.05 -449.92,889.88 -447.24,889.88C-444.55,889.88 -442.38,892.05 -442.38,894.74Z" fill="#f5ff00"/>
    <path d="M-361.06,894.74C-361.06,897.42 -363.24,899.59 -365.92,899.59C-368.60,899.59 -370.78,897.42 -370.78,894.74C-370.78,892.05 -368.60,889.88 -365.92,889.88C-363.24,889.88 -361.06,892.05 -361.06,894.74Z" fill="#e9ff00"/>
    <path d="M-279.75,894.74C-279.75,897.42 -281.92,899.59 -284.61,899.59C-287.29,899.59 -289.46,897.42 -289.46,894.74C-289.46,892.05 -287.29,889.88 -284.61,889.88C-281.92,889.88 -279.75,892.05 -279.75,894.74Z" fill="#00ff02"/>
    <path d="M-198.43,894.74C-198.43,897.42 -200.61,899.59 -203.29,899.59C-205.97,899.59 -208.15,897.42 -208.15,894.74C-208.15,892.05 -205.97,889.88 -203.29,889.88C-200.61,889.88 -198.43,892.05 -198.43,894.74Z" fill="#d1ff00"/>
    <path d="M-117.12,894.74C-117.12,897.42 -119.29,899.59 -121.97,899.59C-124.66,899.59 -126.83,897.42 -126.83,894.74C-126.83,892.05 -124.66,889.88 -121.97,889.88C-119.29,889.88 -117.12,892.05 -117.12,894.74Z" fill="#00ff55"/>
    <path d="M-35.80,894.74C-35.80,897.42 -37.98,899.59 -40.66,899.59C-43.34,899.59 -45.51,897.42 -45.51,894.74C-45.51,892.05 -43.34,889.88 -40.66,889.88C-37.98,889.88 -35.80,892.05 -35.80,894.74Z" fill="#00ff48"/>
    <path d="M45.51,894.74C45.51,897.42 43.34,899.59 40.66,899.59C37.98,899.59 35.80,897.42 35.80,894.74C35.80,892.05 37.98,889.88 40.66,889.88C43.34,889.88 45.51,892.05 45.51,894.74Z" fill="#ffd400"/>
    <path d="M126.83,894.74C126.83,897.42 124.66,899.59 121.97,899.59C119.29,899.59 117.12,897.42 117.12,894.74C117.12,892.05 119.29,889.88 121.97,889.88C124.66,889.88 126.83,892.05 126.83,894.74Z" fill="#ff1c00"/>
    <path d="M208.15,894.74C208.15,897.42 205.97,899.59 203.29,899.59C200.61,899.59 198.43,897.42 198.43,894.74C198.43,892.05 200.61,889.88 203.29,889.88C205.97,889.88 208.15,892.05 208.15,894.74Z" fill="#ff2b00"/>
    <path d="M289.46,894.74C289.46,897.42 287.29,899.59 284.61,899.59C281.92,899.59 279.75,897.42 279.75,894.74C279.75,892.05 281.92,889.88 284.61,889.88C287.29,889.88 289.46,892.05 289.46,894.74Z" fill="#ff1100"/>
    <path d="M370.78,894.74C370.78,897.42 368.60,899.59 365.92,899.59C363.24,899.59 361.06,897.42 361.06,894.74C361.06,892.05 363.24,889.88 365.92,889.88C368.60,889.88 370.78,892.05 370.78,894.74Z" fill="#dcff00"/>
    <path d="M452.09,894.74C452.09,897.42 449.92,899.59 447.24,899.59C444.55,899.59 442.38,897.42 442.38,894.74C442.38,892.05 444.55,889.88 447.24,889.88C449.92,889.88 452.09,892.05 452.09,894.74Z" fill="#00ff49"/>
    <path d="M533.41,894.74C533.41,897.42 531.23,899.59 528.55,899.59C525.87,899.59 523.70,897.42 523.70,894.74C523.70,892.05 525.87,889.88 528.55,889.88C531.23,889.88 533.41,892.05 533.41,894.74Z" fill="#00ff53"/>
    <path d="M614.73,894.74C614.73,897.42 612.55,899.59 609.87,899.59C607.19,899.59 605.01,897.42 605.01,894.74C605.01,892.05 607.19,889.88 609.87,889.88C612.55,889.88 614.73,892.05 614.73,894.74Z" fill="#32ff00"/>
    <path d="M696.04,894.74C696.04,897.42 693.87,899.59 691.18,899.59C688.50,899.59 686.33,897.42 686.33,894.74C686.33,892.05 688.50,889.88 691.18,889.88C693.87,889.88 696.04,892.05 696.04,894.74Z" fill="#d1ff00"/>
    <path d="M777.36,894.74C777.36,897.42 775.18,899.59 772.50,899.59C769.82,899.59 767.64,897.42 767.64,894.74C767.64,892.05 769.82,889.88 772.50,889.88C775.18,889.88 777.36,892.05 777.36,894.74Z" fill="#ff9900"/>
    <path d="M-767.64,1000.00C-767.64,1002.68 -769.82,1004.86 -772.50,1004.86C-775.18,1004.86 -777.36,1002.68 -777.36,1000.00C-777.36,997.32 -775.18,995.14 -772.50,995.14C-769.82,995.14 -767.64,997.32 -767.64,1000.00Z" fill="#ffb900"/>
    <path d="M-686.33,1000.00C-686.33,1002.68 -688.50,1004.86 -691.18,1004.86C-693.87,1004.86 -696.04,1002.68 -696.04,1000.00C-696.04,997.32 -693.87,995.14 -691.18,995.14C-688.50,995.14 -686.33,997.32 -686.33,1000.00Z" fill="#01ff00"/>
    <path d="M-605.01,1000.00C-605.01,1002.68 -607.19,1004.86 -609.87,1004.86C-612.55,1004.86 -614.73,1002.68 -614.73,1000.00C-614.73,997.32 -612.55,995.14 -609.87,995.14C-607.19,995.14 -605.01,997.32 -605.01,1000.00Z" fill="#ff1f00"/>
    <path d="M-523.70,1000.00C-523.70,1002.68 -525.87,1004.86 -528.55,1004.86C-531.23,1004.86 -533.41,1002.68 -533.41,1000.00C-533.41,997.32 -531.23,995.14 -528.55,995.14C-525.87,995.14 -523.70,997.32 -523.70,1000.00Z" fill="#ff0600"/>
    <path d="M-442.38,1000.00C-442.38,1002.68 -444.55,1004.86 -447.24,1004.86C-449.92,1004.86 -452.09,1002.68 -452.09,1000.00C-452.09,997.32 -449.92,995.14 -447.24,995.14C-444.55,995.14 -442.38,997.32 -442.38,1000.00Z" fill="#ffd400"/>
    <path d="M-361.06,1000.00C-361.06,1002.68 -363.24,1004.86 -365.92,1004.86C-368.60,1004.86 -370.78,1002.68 -370.78,1000.00C-370.78,997.32 -368.60,995.14 -365.92,995.14C-363.24,995.14 -361.06,997.32 -361.06,1000.00Z" fill="#ff3400"/>
    <path d="M-279.75,1000.00C-279.75,1002.68 -281.92,1004.86 -284.61,1004.86C-287.29,1004.86 -289.46,1002.68 -289.46,1000.00C-289.46,997.32 -287.29,995.14 -284.61,995.14C-281.92,995.14 -279.75,997.32 -279.75,1000.00Z" fill="#00ff00"/>
    <path d="M-198.43,1000.00C-198.43,1002.68 -200.61,1004.86 -203.29,1004.86C-205.97,1004.86 -208.15,1002.68 -208.15,1000.00C-208.15,997.32 -205.97,995.14 -203.29,995.14C-200.61,995.14 -198.43,997.32 -198.43,1000.00Z" fill="#ff0200"/>
    <path d="M-117.12,1000.00C-117.12,1002.68 -119.29,1004.86 -121.97,1004.86C-124.66,1004.86 -126.83,1002.68 -126.83,1000.00C-126.83,997.32 -124.66,995.14 -121.97,995.14C-119.29,995.14 -117.12,997.32 -117.12,1000.00Z" fill="#ffb900"/>
    <path d="M-35.80,1000.00C-35.80,1002.68 -37.98,1004.86 -40.66,1004.86C-43.34,1004.86 -45.51,1002.68 -45.51,1000.00C-45.51,997.32 -43.34,995.14 -40.66,995.14C-37.98,995.14 -35.80,997.32 -35.80,1000.00Z" fill="#bfff00"/>
    <path d="M45.51,1000.00C45.51,1002.68 43.34,1004.86 40.66,1004.86C37.98,1004.86 35.80,1002.68 35.80,1000.00C35.80,997.32 37.98,995.14 40.66,995.14C43.34,995.14 45.51,997.32 45.51,1000.00Z" fill="#00ff29"/>
    <path d="M126.83,1000.00C126.83,1002.68 124.66,1004.86 121.97,1004.86C119.29,1004.86 117.12,1002.68 117.12,1000.00C117.12,997.32 119.29,995.14 121.97,995.14C124.66,995.14 126.83,997.32 126.83,1000.00Z" fill="#ffa600"/>
    <path d="M208.15,1000.00C208.15,1002.68 205.97,1004.86 203.29,1004.86C200.61,1004.86 198.43,1002.68 198.43,1000.00C198.43,997.32 200.61,995.14 203.29,995.14C205.97,995.14 208.15,997.32 208.15,1000.00Z" fill="#00ff0f"/>
    <path d="M289.46,1000.00C289.46,1002.68 287.29,1004.86 284.61,1004.86C281.92,1004.86 279.75,1002.68 279.75,1000.00C279.75,997.32 281.92,995.14 284.61,995.14C287.29,995.14 289.46,997.32 289.46,1000.00Z" fill="#90ff00"/>
    <path d="M370.78,1000.00C370.78,1002.68 368.60,1004.86 365.92,1004.86C363.24,1004.86 361.06,1002.68 361.06,1000.00C361.06,997.32 363.24,995.14 365.92,995.14C368.60,995.14 370.78,997.32 370.78,1000.00Z" fill="#00ff23"/>
    <path d="M452.09,1000.00C452.09,1002.68 449.92,1004.86 447.24,1004.86C444.55,1004.86 442.38,1002.68 442.38,1000.00C442.38,997.32 444.55,995.14 447.24,995.14C449.92,995.14 452.09,997.32 452.09,1000.00Z" fill="#ff1b00"/>
    <path d="M533.41,1000.00C533.41,1002.68 531.23,1004.86 528.55,1004.86C525.87,1004.86 523.70,1002.68 523.70,1000.00C523.70,997.32 525.87,995.14 528.55,995.14C531.23,995.14 533.41,997.32 533.41,1000.00Z" fill="#7aff00"/>
    <path d="M614.73,1000.00C614.73,1002.68 612.55,1004.86 609.87,1004.86C607.19,1004.86 605.01,1002.68 605.01,1000.00C605.01,997.32 607.19,995.14 609.87,995.14C612.55,995.14 614.73,997.32 614.73,1000.00Z" fill="#d4ff00"/>
    <path d="M696.04,1000.00C696.04,1002.68 693.87,1004.86 691.18,1004.86C688.50,1004.86 686.33,1002.68 686.33,1000.00C686.33,997.32 688.50,995.14 691.18,995.14C693.87,995.14 696.04,997.32 696.04,1000.00Z" fill="#ceff00"/>
    <path d="M777.36,1000.00C777.36,1002.68 775.18,1004.86 772.50,1004.86C769.82,1004.86 767.64,1002.68 767.64,1000.00C767.64,997.32 769.82,995.14 772.50,995.14C775.18,995.14 777.36,997.32 777.36,1000.00Z" fill="#c6ff00"/>
</svg>