<?xml version="1.0"?>
<svg xmlns="http://www.w3.org/2000/svg" width="1000" height="1000" viewBox="-500 -500 1000 1000">
    <path d="M-767.64,-1000C-767.64,-997.32 -769.82,-995.14 -772.50,-995.14C-775.18,-995.14 -777.36,-997.32 -777.36,-1000C-777.36,-1002.68 -775.18,-1004.86 -772.50,-1004.86C-769.82,-1004.86 -767.64,-1002.68 -767.64,-1000Z" fill="#47ff00"/>
    <path d="M-683.38,-1000C-683.38,-995.69 -686.87,-992.20 -691.18,-992.20C-695.49,-992.20 -698.99,-995.69 -698.99,-1000C-698.99,-1004.31 -695.49,-1007.80 -691.18,-1007.80C-686.87,-1007.80 -683.38,-1004.31 -683.38,-1000Z" fill="#ff9000"/>
    <path d="M-605.01,-1000C-605.01,-997.32 -607.19,-995.14 -609.87,-995.14C-612.55,-995.14 -614.73,-997.32 -614.73,-1000C-614.73,-1002.68 -612.55,-1004.86 -609.87,-1004.86C-607.19,-1004.86 -605.01,-1002.68 -605.01,-1000Z" fill="#80ff00"/>
    <path d="M-520.75,-1000C-520.75,-995.69 -524.24,-992.20 -528.55,-992.20C-532.86,-992.20 -536.36,-995.69 -536.36,-1000C-536.36,-1004.31 -532.86,-1007.80 -528.55,-1007.80C-524.24,-1007.80 -520.75,-1004.31 -520.75,-1000Z" fill="#b4ff00"/>
    <path d="M-442.38,-1000C-442.38,-997.32 -444.55,-995.14 -447.24,-995.14C-449.92,-995.14 -452.09,-997.32 -452.09,-1000C-452.09,-1002.68 -449.92,-1004.86 -447.24,-1004.86C-444.55,-1004.86 -442.38,-1002.68 -442.38,-1000Z" fill="#97ff00"/>
    <path d="M-358.12,-1000C-358.12,-995.69 -361.61,-992.20 -365.92,-992.20C-370.23,-992.20 -373.73,-995.69 -373.73,-1000C-373.73,-1004.31 -370.23,-1007.80 -365.92,-1007.80C-361.61,-1007.80 -358.12,-1004.31 -358.12,-1000Z" fill="#ffc800"/>
    <path d="M-279.75,-1000C-279.75,-997.32 -281.92,-995.14 -284.61,-995.14C-287.29,-995.14 -289.46,-997.32 -289.46,-1000C-289.46,-1002.68 -287.29,-1004.86 -284.61,-1004.86C-281.92,-1004.86 -279.75,-1002.68 -279.75,-1000Z" fill="#ffe700"/>
    <path d="M-195.48,-1000C-195.48,-995.69 -198.98,-992.20 -203.29,-992.20C-207.60,-992.20 -211.09,-995.69 -211.09,-1000C-211.09,-1004.31 -207.60,-1007.80 -203.29,-1007.80C-198.98,-1007.80 -195.48,-1004.31 -195.48,-1000Z" fill="#00ff51"/>
    <path d="M-117.12,-1000C-117.12,-997.32 -119.29,-995.14 -121.97,-995.14C-124.66,-995.14 -126.83,-997.32 -126.83,-1000C-126.83,-1002.68 -124.66,-1004.86 -121.97,-1004.86C-119.29,-1004.86 -117.12,-1002.68 -117.12,-1000Z" fill="#00ff12"/>
    <path d="M-32.85,-1000C-32.85,-995.69 -36.35,-992.20 -40.66,-992.20C-44.97,-992.20 -48.46,-995.69 -48.46,-1000C-48.46,-1004.31 -44.97,-1007.80 -40.66,-1007.80C-36.35,-1007.80 -32.85,-1004.31 -32.85,-1000Z" fill="#00ff37"/>
    <path d="M45.51,-1000C45.51,-997.32 43.34,-995.14 40.66,-995.14C37.98,-995.14 35.80,-997.32 35.80,-1000C35.80,-1002.68 37.98,-1004.86 40.66,-1004.86C43.34,-1004.86 45.51,-1002.68 45.51,-1000Z" fill="#ffa500"/>
    <path d="M129.78,-1000C129.78,-995.69 126.28,-992.20 121.97,-992.20C117.66,-992.20 114.17,-995.69 114.17,-1000C114.17,-1004.31 117.66,-1007.80 121.97,-1007.80C126.28,-1007.80 129.78,-1004.31 129.78,-1000Z" fill="#ff4d00"/>
    <path d="M208.15,-1000C208.15,-997.32 205.97,-995.14 203.29,-995.14C200.61,-995.14 198.43,-997.32 198.43,-1000C198.43,-1002.68 200.61,-1004.86 203.29,-1004.86C205.97,-1004.86 208.15,-1002.68 208.15,-1000Z" fill="#ff5800"/>
    <path d="M292.41,-1000C292.41,-995.69 288.92,-992.20 284.61,-992.20C280.29,-992.20 276.80,-995.69 276.80,-1000C276.80,-1004.31 280.29,-1007.80 284.61,-1007.80C288.92,-1007.80 292.41,-1004.31 292.41,-1000Z" fill="#ff0e00"/>
    <path d="M370.78,-1000C370.78,-997.32 368.60,-995.14 365.92,-995.14C363.24,-995.14 361.06,-997.32 361.06,-1000C361.06,-1002.68 363.24,-1004.86 365.92,-1004.86C368.60,-1004.86 370.78,-1002.68 370.78,-1000Z" fill="#b6ff00"/>
    <path d="M455.04,-1000C455.04,-995.69 451.55,-992.20 447.24,-992.20C442.93,-992.20 439.43,-995.69 439.43,-1000C439.43,-1004.31 442.93,-1007.80 447.24,-1007.80C451.55,-1007.80 455.04,-1004.31 455.04,-1000Z" fill="#00ff45"/>
    <path d="M533.41,-1000C533.41,-997.32 531.23,-995.14 528.55,-995.14C525.87,-995.14 523.70,-997.32 523.70,-1000C523.70,-1002.68 525.87,-1004.86 528.55,-1004.86C531.23,-1004.86 533.41,-1002.68 533.41,-1000Z" fill="#ff3f00"/>
    <path d="M617.67,-1000C617.67,-995.69 614.18,-992.20 609.87,-992.20C605.56,-992.20 602.06,-995.69 602.06,-1000C602.06,-1004.31 605.56,-1007.80 609.87,-1007.80C614.18,-1007.80 617.67,-1004.31 617.67,-1000Z" fill="#87ff00"/>
    <path d="M696.04,-1000C696.04,-997.32 693.87,-995.14 691.18,-995.14C688.50,-995.14 686.33,-997.32 686.33,-1000C686.33,-1002.68 688.50,-1004.86 691.18,-1004.86C693.87,-1004.86 696.04,-1002.68 696.04,-1000Z" fill="#fff600"/>
    <path d="M780.30,-1000C780.30,-995.69 776.81,-992.20 772.50,-992.20C768.19,-992.20 764.70,-995.69 764.70,-1000C764.70,-1004.31 768.19,-1007.80 772.50,-1007.80C776.81,-1007.80 780.30,-1004.31 780.30,-1000Z" fill="#2cff00"/>
    <path d="M-767.64,-894.74C-767.64,-892.05 -769.82,-889.88 -772.50,-889.88C-775.18,-889.88 -777.36,-892.05 -777.36,-894.74C-777.36,-897.42 -775.18,-899.59 -772.50,-899.59C-769.82,-899.59 -767.64,-897.42 -767.64,-894.74Z" fill="#00ff54"/>
    <path d="M-683.38,-894.74C-683.38,-890.43 -686.87,-886.93 -691.18,-886.93C-695.49,-886.93 -698.99,-890.43 -698.99,-894.74C-698.99,-899.05 -695.49,-902.54 -691.18,-902.54C-686.87,-902.54 -683.38,-899.05 -683.38,-894.74Z" fill="#daff00"/>
    <path d="M-605.01,-894.74C-605.01,-892.05 -607.19,-889.88 -609.87,-889.88C-612.55,-889.88 -614.73,-892.05 -614.73,-894.74C-614.73,-897.42 -612.55,-899.59 -609.87,-899.59C-607.19,-899.59 -605.01,-897.42 -605.01,-894.74Z" fill="#3eff00"/>
    <path d="M-520.75,-894.74C-520.75,-890.43 -524.24,-886.93 -528.55,-886.93C-532.86,-886.93 -536.36,-890.43 -536.36,-894.74C-536.36,-899.05 -532.86,-902.54 -528.55,-902.54C-524.24,-902.54 -520.75,-899.05 -520.75,-894.74Z" fill="#46ff00"/>
    <path d="M-442.38,-894.74C-442.38,-892.05 -444.55,-889.88 -447.24,-889.88C-449.92,-889.88 -452.09,-892.05 -452.09,-894.74C-452.09,-897.42 -449.92,-899.59 -447.24,-899.59C-444.55,-899.59 -442.38,-897.42 -442.38,-894.74Z" fill="#14ff00"/>
    <path d="M-358.12,-894.74C-358.12,-890.43 -361.61,-886.93 -365.92,-886.93C-370.23,-886.93 -373.73,-890.43 -373.73,-894.74C-373.73,-899.05 -370.23,-902.54 -365.92,-902.54C-361.61,-902.54 -358.12,-899.05 -358.12,-894.74Z" fill="#07ff00"/>
    <path d="M-279.75,-894.74C-279.75,-892.05 -281.92,-889.88 -284.61,-889.88C-287.29,-889.88 -289.46,-892.05 -289.46,-894.74C-289.46,-897.42 -287.29,-899.59 -284.61,-899.59C-281.92,-899.59 -279.75,-897.42 -279.75,-894.74Z" fill="#c2ff00"/>
    <path d="M-195.48,-894.74C-195.48,-890.43 -198.98,-886.93 -203.29,-886.93C-207.60,-886.93 -211.09,-890.43 -211.09,-894.74C-211.09,-899.05 -207.60,-902.54 -203.29,-902.54C-198.98,-902.54 -195.48,-899.05 -195.48,-894.74Z" fill="#00ff1e"/>
    <path d="M-117.12,-894.74C-117.12,-892.05 -119.29,-889.88 -121.97,-889.88C-124.66,-889.88 -126.83,-892.05 -126.83,-894.74C-126.83,-897.42 -124.66,-899.59 -121.97,-899.59C-119.29,-899.59 -117.12,-897.42 -117.12,-894.74Z" fill="#ff5000"/>
    <path d="M-32.85,-894.74C-32.85,-890.43 -36.35,-886.93 -40.66,-886.93C-44.97,-886.93 -48.46,-890.43 -48.46,-894.74C-48.46,-899.05 -44.97,-902.54 -40.66,-902.54C-36.35,-902.54 -32.85,-899.05 -32.85,-894.74Z" fill="#ff3200"/>
    <path d="M45.51,-894.74C45.51,-892.05 43.34,-889.88 40.66,-889.88C37.98,-889.88 35.80,-892.05 35.80,-894.74C35.80,-897.42 37.98,-899.59 40.66,-899.59C43.34,-899.59 45.51,-897.42 45.51,-894.74Z" fill="#00ff4d"/>
    <path d="M129.78,-894.74C129.78,-890.43 126.28,-886.93 121.97,-886.93C117.66,-886.93 114.17,-890.43 114.17,-894.74C114.17,-899.05 117.66,-902.54 121.97,-902.54C126.28,-902.54 129.78,-899.05 129.78,-894.74Z" fill="#4dff00"/>
    <path d="M208.15,-894.74C208.15,-892.05 205.97,-889.88 203.29,-889.88C200.61,-889.88 198.43,-892.05 198.43,-894.74C198.43,-897.42 200.61,-899.59 203.29,-899.59C205.97,-899.59 208.15,-897.42 208.15,-894.74Z" fill="#51ff00"/>
    <path d="M292.41,-894.74C292.41,-890.43 288.92,-886.93 284.61,-886.93C280.29,-886.93 276.80,-890.43 276.80,-894.74C276.80,-899.05 280.29,-902.54 284.61,-902.54C288.92,-902.54 292.41,-899.05 292.41,-894.74Z" fill="#ff5600"/>
    <path d="M370.78,-894.74C370.78,-892.05 368.60,-889.88 365.92,-889.88C363.24,-889.88 361.06,-892.05 361.06,-894.74C361.06,-897.42 363.24,-899.59 365.92,-899.59C368.60,-899.59 370.78,-897.42 370.78,-894.74Z" fill="#e8ff00"/>
    <path d="M455.04,-894.74C455.04,-890.43 451.55,-886.93 447.24,-886.93C442.93,-886.93 439.43,-890.43 439.43,-894.74C439.43,-899.05 442.93,-902.54 447.24,-902.54C451.55,-902.54 455.04,-899.05 455.04,-894.74Z" fill="#ff0300"/>
    <path d="M533.41,-894.74C533.41,-892.05 531.23,-889.88 528.55,-889.88C525.87,-889.88 523.70,-892.05 523.70,-894.74C523.70,-897.42 525.87,-899.59 528.55,-899.59C531.23,-899.59 533.41,-897.42 533.41,-894.74Z" fill="#ff2b00"/>
    <path d="M617.67,-894.74C617.67,-890.43 614.18,-886.93 609.87,-886.93C605.56,-886.93 602.06,-890.43 602.06,-894.74C602.06,-899.05 605.56,-902.54 609.87,-902.54C614.18,-902.54 617.67,-899.05 617.67,-894.74Z" fill="#ffd100"/>
    <path d="M696.04,-894.74C696.04,-892.05 693.87,-889.88 691.18,-889.88C688.50,-889.88 686.33,-892.05 686.33,-894.74C686.33,-897.42 688.50,-899.59 691.18,-899.59C693.87,-899.59 696.04,-897.42 696.04,-894.74Z" fill="#ffcb00"/>
    <path d="M780.30,-894.74C780.30,-890.43 776.81,-886.93 772.50,-886.93C768.19,-886.93 764.70,-890.43 764.70,-894.74C764.70,-899.05 768.19,-902.54 772.50,-902.54C776.81,-902.54 780.30,-899.05 780.30,-894.74Z" fill="#00ff06"/>
    <path d="M-767.64,-789.47C-767.64,-786.79 -769.82,-784.62 -772.50,-784.62C-775.18,-784.62 -777.36,-786.79 -777.36,-789.47C-777.36,-792.16 -775.18,-794.33 -772.50,-794.33C-769.82,-794.33 -767.64,-792.16 -767.64,-789.47Z" fill="#00ff49"/>
    <path d="M-683.38,-789.47C-683.38,-785.16 -686.87,-781.67 -691.18,-781.67C-695.49,-781.67 -698.99,-785.16 -698.99,-789.47C-698.99,-793.78 -695.49,-797.28 -691.18,-797.28C-686.87,-797.28 -683.38,-793.78 -683.38,-789.47Z" fill="#00ff09"/>
    <path d="M-605.01,-789.47C-605.01,-786.79 -607.19,-784.62 -609.87,-784.62C-612.55,-784.62 -614.73,-786.79 -614.73,-789.47C-614.73,-792.16 -612.55,-794.33 -609.87,-794.33C-607.19,-794.33 -605.01,-792.16 -605.01,-789.47Z" fill="#8eff00"/>
    <path d="M-520.75,-789.47C-520.75,-785.16 -524.24,-781.67 -528.55,-781.67C-532.86,-781.67 -536.36,-785.16 -536.36,-789.47C-536.36,-793.78 -532.86,-797.28 -528.55,-797.28C-524.24,-797.28 -520.75,-793.78 -520.75,-789.47Z" fill="#ff6b00"/>
    <path d="M-442.38,-789.47C-442.38,-786.79 -444.55,-784.62 -447.24,-784.62C-449.92,-784.62 -452.09,-786.79 -452.09,-789.47C-452.09,-792.16 -449.92,-794.33 -447.24,-794.33C-444.55,-794.33 -442.38,-792.16 -442.38,-789.47Z" fill="#ff8300"/>
    <path d="M-358.12,-789.47C-358.12,-785.16 -361.61,-781.67 -365.92,-781.67C-370.23,-781.67 -373.73,-785.16 -373.73,-789.47C-373.73,-793.78 -370.23,-797.28 -365.92,-797.28C-361.61,-797.28 -358.12,-793.78 -358.12,-789.47Z" fill="#00ff03"/>
    <path d="M-279.75,-789.47C-279.75,-786.79 -281.92,-784.62 -284.61,-784.62C-287.29,-784.62 -289.46,-786.79 -289.46,-789.47C-289.46,-792.16 -287.29,-794.33 -284.61,-794.33C-281.92,-794.33 -279.75,-792.16 -279.75,-789.47Z" fill="#ff0600"/>
    <path d="M-195.48,-789.47C-195.48,-785.16 -198.98,-781.67 -203.29,-781.67C-207.60,-781.67 -211.09,-785.16 -211.09,-789.47C-211.09,-793.78 -207.60,-797.28 -203.29,-797.28C-198.98,-797.28 -195.48,-793.78 -195.48,-789.47Z" fill="#5fff00"/>
    <path d="M-117.12,-789.47C-117.12,-786.79 -119.29,-784.62 -121.97,-784.62C-124.66,-784.62 -126.83,-786.79 -126.83,-789.47C-126.83,-792.16 -124.66,-794.33 -121.97,-794.33C-119.29,-794.33 -117.12,-792.16 -117.12,-789.47Z" fill="#2fff00"/>
    <path d="M-32.85,-789.47C-32.85,-785.16 -36.35,-781.67 -40.66,-781.67C-44.97,-781.67 -48.46,-785.16 -48.46,-789.47C-48.46,-793.78 -44.97,-797.28 -40.66,-797.28C-36.35,-797.28 -32.85,-793.78 -32.85,-789.47Z" fill="#52ff00"/>
    <path d="M45.51,-789.47C45.51,-786.79 43.34,-784.62 40.66,-784.62C37.98,-784.62 35.80,-786.79 35.80,-789.47C35.80,-792.16 37.98,-794.33 40.66,-794.33C43.34,-794.33 45.51,-792.16 45.51,-789.47Z" fill="#ff7f00"/>
    <path d="M129.78,-789.47C129.78,-785.16 126.28,-781.67 121.97,-781.67C117.66,-781.67 114.17,-785.16 114.17,-789.47C114.17,-793.78 117.66,-797.28 121.97,-797.28C126.28,-797.28 129.78,-793.78 129.78,-789.47Z" fill="#28ff00"/>
    <path d="M208.15,-789.47C208.15,-786.79 205.97,-784.62 203.29,-784.62C200.61,-784.62 198.43,-786.79 198.43,-789.47C198.43,-792.16 200.61,-794.33 203.29,-794.33C205.97,-794.33 208.15,-792.16 208.15,-789.47Z" fill="#00ff39"/>
    <path d="M292.41,-789.47C292.41,-785.16 288.92,-781.67 284.61,-781.67C280.29,-781.67 276.80,-785.16 276.80,-789.47C276.80,-793.78 280.29,-797.28 284.61,-797.28C288.92,-797.28 292.41,-793.78 292.41,-789.47Z" fill="#ff0900"/>
    <path d="M370.78,-789.47C370.78,-786.79 368.60,-784.62 365.92,-784.62C363.24,-784.62 361.06,-786.79 361.06,-789.47C361.06,-792.16 363.24,-794.33 365.92,-794.33C368.60,-794.33 370.78,-792.16 370.78,-789.47Z" fill="#ffed00"/>
    <path d="M455.04,-789.47C455.04,-785.16 451.55,-781.67 447.24,-781.67C442.93,-781.67 439.43,-785.16 439.43,-789.47C439.43,-793.78 442.93,-797.28 447.24,-797.28C451.55,-797.28 455.04,-793.78 455.04,-789.47Z" fill="#00ff02"/>
    <path d="M533.41,-789.47C533.41,-786.79 531.23,-784.62 528.55,-784.62C525.87,-784.62 523.70,-786.79 523.70,-789.47C523.70,-792.16 525.87,-794.33 528.55,-794.33C531.23,-794.33 533.41,-792.16 533.41,-789.47Z" fill="#26ff00"/>
    <path d="M617.67,-789.47C617.67,-785.16 614.18,-781.67 609.87,-781.67C605.56,-781.67 602.06,-785.16 602.06,-789.47C602.06,-793.78 605.56,-797.28 609.87,-797.28C614.18,-797.28 617.67,-793.78 617.67,-789.47Z" fill="#00ff56"/>
    <path d="M696.04,-789.47C696.04,-786.79 693.87,-784.62 691.18,-784.62C688.50,-784.62 686.33,-786.79 686.33,-789.47C686.33,-792.16 688.50,-794.33 691.18,-794.33C693.87,-794.33 696.04,-792.16 696.04,-789.47Z" fill="#00ff14"/>
    <path d="M780.30,-789.47C780.30,-785.16 776.81,-781.67 772.50,-781.67C768.19,-781.67 764.70,-785.16 764.70,-789.47C764.70,-793.78 768.19,-797.28 772.50,-797.28C776.81,-797.28 780.30,-793.78 780.30,-789.47Z" fill="#ff6600"/>
    <path d="M-767.64,-684.21C-767.64,-681.53 -769.82,-679.35 -772.50,-679.35C-775.18,-679.35 -777.36,-681.53 -777.36,-684.21C-777.36,-686.89 -775.18,-689.07 -772.50,-689.07C-769.82,-689.07 -767.64,-686.89 -767.64,-684.21Z" fill="#00ff43"/>
    <path d="M-683.38,-684.21C-683.38,-679.90 -686.87,-676.41 -691.18,-676.41C-695.49,-676.41 -698.99,-679.90 -698.99,-684.21C-698.99,-688.52 -695.49,-692.02 -691.18,-692.02C-686.87,-692.02 -683.38,-688.52 -683.38,-684.21Z" fill="#4bff00"/>
    <path d="M-605.01,-684.21C-605.01,-681.53 -607.19,-679.35 -609.87,-679.35C-612.55,-679.35 -614.73,-681.53 -614.73,-684.21C-614.73,-686.89 -612.55,-689.07 -609.87,-689.07C-607.19,-689.07 -605.01,-686.89 -605.01,-684.21Z" fill="#68ff00"/>
    <path d="M-520.75,-684.21C-520.75,-679.90 -524.24,-676.41 -528.55,-676.41C-532.86,-676.41 -536.36,-679.90 -536.36,-684.21C-536.36,-688.52 -532.86,-692.02 -528.55,-692.02C-524.24,-692.02 -520.75,-688.52 -520.75,-684.21Z" fill="#1bff00"/>
    <path d="M-442.38,-684.21C-442.38,-681.53 -444.55,-679.35 -447.24,-679.35C-449.92,-679.35 -452.09,-681.53 -452.09,-684.21C-452.09,-686.89 -449.92,-689.07 -447.24,-689.07C-444.55,-689.07 -442.38,-686.89 -442.38,-684.21Z" fill="#f5ff00"/>
    <path d="M-358.12,-684.21C-358.12,-679.90 -361.61,-676.41 -365.92,-676.41C-370.23,-676.41 -373.73,-679.90 -373.73,-684.21C-373.73,-688.52 -370.23,-692.02 -365.92,-692.02C-361.61,-692.02 -358.12,-688.52 -358.12,-684.21Z" fill="#e9ff00"/>
    <path d="M-279.75,-684.21C-279.75,-681.53 -281.92,-679.35 -284.61,-679.35C-287.29,-679.35 -289.46,-681.53 -289.46,-684.21C-289.46,-686.89 -287.29,-689.07 -284.61,-689.07C-281.92,-689.07 -279.75,-686.89 -279.75,-684.21Z" fill="#00ff02"/>
    <path d="M-195.48,-684.21C-195.48,-679.90 -198.98,-676.41 -203.29,-676.41C-207.60,-676.41 -211.09,-679.90 -211.09,-684.21C-211.09,-688.52 -207.60,-692.02 -203.29,-692.02C-198.98,-692.02 -195.48,-688.52 -195.48,-684.21Z" fill="#d1ff00"/>
    <path d="M-117.12,-684.21C-117.12,-681.53 -119.29,-679.35 -121.97,-679.35C-124.66,-679.35 -126.83,-681.53 -126.83,-684.21C-126.83,-686.89 -124.66,-689.07 -121.97,-689.07C-119.29,-689.07 -117.12,-686.89 -117.12,-684.21Z" fill="#00ff55"/>
    <path d="M-32.85,-684.21C-32.85,-679.90 -36.35,-676.41 -40.66,-676.41C-44.97,-676.41 -48.46,-679.90 -48.46,-684.21C-48.46,-688.52 -44.97,-692.02 -40.66,-692.02C-36.35,-692.02 -32.85,-688.52 -32.85,-684.21Z" fill="#00ff48"/>
    <path d="M45.51,-684.21C45.51,-681.53 43.34,-679.35 40.66,-679.35C37.98,-679.35 35.80,-681.53 35.80,-684.21C35.80,-686.89 37.98,-689.07 40.66,-689.07C43.34,-689.07 45.51,-686.89 45.51,-684.21Z" fill="#ffd400"/>
    <path d="M129.78,-684.21C129.78,-679.90 126.28,-676.41 121.97,-676.41C117.66,-676.41 114.17,-679.90 114.17,-684.21C114.17,-688.52 117.66,-692.02 121.97,-692.02C126.28,-692.02 129.78,-688.52 129.78,-684.21Z" fill="#ff1c00"/>
    <path d="M208.15,-684.21C208.15,-681.53 205.97,-679.35 203.29,-679.35C200.61,-679.35 198.43,-681.53 198.43,-684.21C198.43,-686.89 200.61,-689.07 203.29,-689.07C205.97,-689.07 208.15,-686.89 208.15,-684.21Z" fill="#ff2b00"/>
    <path d="M292.41,-684.21C292.41,-679.90 288.92,-676.41 284.61,-676.41C280.29,-676.41 276.80,-679.90 276.80,-684.21C276.80,-688.52 280.29,-692.02 284.61,-692.02C288.92,-692.02 292.41,-688.52 292.41,-684.21Z" fill="#ff1100"/>
    <path d="M370.78,-684.21C370.78,-681.53 368.60,-679.35 365.92,-679.35C363.24,-679.35 361.06,-681.53 361.06,-684.21C361.06,-686.89 363.24,-689.07 365.92,-689.07C368.60,-689.07 370.78,-686.89 370.78,-684.21Z" fill="#dcff00"/>
    <path d="M455.04,-684.21C455.04,-679.90 451.55,-676.41 447.24,-676.41C442.93,-676.41 439.43,-679.90 439.43,-684.21C439.43,-688.52 442.93,-692.02 447.24,-692.02C451.55,-692.02 455.04,-688.52 455.04,-684.21Z" fill="#00ff49"/>
    <path d="M533.41,-684.21C533.41,-681.53 531.23,-679.35 528.55,-679.35C525.87,-679.35 523.70,-681.53 523.70,-684.21C523.70,-686.89 525.87,-689.07 528.55,-689.07C531.23,-689.07 533.41,-686.89 533.41,-684.21Z" fill="#00ff53"/>
    <path d="M617.67,-684.21C617.67,-679.90 614.18,-676.41 609.87,-676.41C605.56,-676.41 602.06,-679.90 602.06,-684.21C602.06,-688.52 605.56,-692.02 609.87,-692.02C614.18,-692.02 617.67,-688.52 617.67,-684.21Z" fill="#32ff00"/>
    <path d="M696.04,-684.21C696.04,-681.53 693.87,-679.35 691.18,-679.35C688.50,-679.35 686.33,-681.53 686.33,-684.21C686.33,-686.89 688.50,-689.07 691.18,-689.07C693.87,-689.07 696.04,-686.89 696.04,-684.21Z" fill="#d1ff00"/>
    <path d="M780.30,-684.21C780.30,-679.90 776.81,-676.41 772.50,-676.41C768.19,-676.41 764.70,-679.90 764.70,-684.21C764.70,-688.52 768.19,-692.02 772.50,-692.02C776.81,-692.02 780.30,-688.52 780.30,-684.21Z" fill="#ff9900"/>
    <path d="M-767.64,-578.95C-767.64,-576.27 -769.82,-574.09 -772.50,-574.09C-775.18,-574.09 -777.36,-576.27 -777.36,-578.95C-777.36,-581.63 -775.18,-583.80 -772.50,-583.80C-769.82,-583.80 -767.64,-581.63 -767.64,-578.95Z" fill="#ffb900"/>
    <path d="M-683.38,-578.95C-683.38,-574.64 -686.87,-571.14 -691.18,-571.14C-695.49,-571.14 -698.99,-574.64 -698.99,-578.95C-698.99,-583.26 -695.49,-586.75 -691.18,-586.75C-686.87,-586.75 -683.38,-583.26 -683.38,-578.95Z" fill="#01ff00"/>
    <path d="M-605.01,-578.95C-605.01,-576.27 -607.19,-574.09 -609.87,-574.09C-612.55,-574.09 -614.73,-576.27 -614.73,-578.95C-614.73,-581.63 -612.55,-583.80 -609.87,-583.80C-607.19,-583.80 -605.01,-581.63 -605.01,-578.95Z" fill="#ff1f00"/>
    <path d="M-520.75,-578.95C-520.75,-574.64 -524.24,-571.14 -528.55,-571.14C-532.86,-571.14 -536.36,-574.64 -536.36,-578.95C-536.36,-583.26 -532.86,-586.75 -528.55,-586.75C-524.24,-586.75 -520.75,-583.26 -520.75,-578.95Z" fill="#ff0600"/>
    <path d="M-442.38,-578.95C-442.38,-576.27 -444.55,-574.09 -447.24,-574.09C-449.92,-574.09 -452.09,-576.27 -452.09,-578.95C-452.09,-581.63 -449.92,-583.80 -447.24,-583.80C-444.55,-583.80 -442.38,-581.63 -442.38,-578.95Z" fill="#ffd400"/>
    <path d="M-358.12,-578.95C-358.12,-574.64 -361.61,-571.14 -365.92,-571.14C-370.23,-571.14 -373.73,-574.64 -373.73,-578.95C-373.73,-583.26 -370.23,-586.75 -365.92,-586.75C-361.61,-586.75 -358.12,-583.26 -358.12,-578.95Z" fill="#ff3400"/>
    <path d="M-279.75,-578.95C-279.75,-576.27 -281.92,-574.09 -284.61,-574.09C-287.29,-574.09 -289.46,-576.27 -289.46,-578.95C-289.46,-581.63 -287.29,-583.80 -284.61,-583.80C-281.92,-583.80 -279.75,-581.63 -279.75,-578.95Z" fill="#00ff00"/>
    <path d="M-195.48,-578.95C-195.48,-574.64 -198.98,-571.14 -203.29,-571.14C-207.60,-571.14 -211.09,-574.64 -211.09,-578.95C-211.09,-583.26 -207.60,-586.75 -203.29,-586.75C-198.98,-586.75 -195.48,-583.26 -195.48,-578.95Z" fill="#ff0200"/>
    <path d="M-117.12,-578.95C-117.12,-576.27 -119.29,-574.09 -121.97,-574.09C-124.66,-574.09 -126.83,-576.27 -126.83,-578.95C-126.83,-581.63 -124.66,-583.80 -121.97,-583.80C-119.29,-583.80 -117.12,-581.63 -117.12,-578.95Z" fill="#ffb900"/>
    <path d="M-32.85,-578.95C-32.85,-574.64 -36.35,-571.14 -40.66,-571.14C-44.97,-571.14 -48.46,-574.64 -48.46,-578.95C-48.46,-583.26 -44.97,-586.75 -40.66,-586.75C-36.35,-586.75 -32.85,-583.26 -32.85,-578.95Z" fill="#bfff00"/>
    <path d="M45.51,-578.95C45.51,-576.27 43.34,-574.09 40.66,-574.09C37.98,-574.09 35.80,-576.27 35.80,-578.95C35.80,-581.63 37.98,-583.80 40.66,-583.80C43.34,-583.80 45.51,-581.63 45.51,-578.95Z" fill="#00ff29"/>
    <path d="M129.78,-578.95C129.78,-574.64 126.28,-571.14 121.97,-571.14C117.66,-571.14 114.17,-574.64 114.17,-578.95C114.17,-583.26 117.66,-586.75 121.97,-586.75C126.28,-586.75 129.78,-583.26 129.78,-578.95Z" fill="#ffa600"/>
    <path d="M208.15,-578.95C208.15,-576.27 205.97,-574.09 203.29,-574.09C200.61,-574.09 198.43,-576.27 198.43,-578.95C198.43,-581.63 200.61,-583.80 203.29,-583.80C205.97,-583.80 208.15,-581.63 208.15,-578.95Z" fill="#00ff0f"/>
    <path d="M292.41,-578.95C292.41,-574.64 288.92,-571.14 284.61,-571.14C280.29,-571.14 276.80,-574.64 276.80,-578.95C276.80,-583.26 280.29,-586.75 284.61,-586.75C288.92,-586.75 292.41,-583.26 292.41,-578.95Z" fill="#90ff00"/>
    <path d="M370.78,-578.95C370.78,-576.27 368.60,-574.09 365.92,-574.09C363.24,-574.09 361.06,-576.27 361.06,-578.95C361.06,-581.63 363.24,-583.80 365.92,-583.80C368.60,-583.80 370.78,-581.63 370.78,-578.95Z" fill="#00ff23"/>
    <path d="M455.04,-578.95C455.04,-574.64 451.55,-571.14 447.24,-571.14C442.93,-571.14 439.43,-574.64 439.43,-578.95C439.43,-583.26 442.93,-586.75 447.24,-586.75C451.55,-586.75 455.04,-583.26 455.04,-578.95Z" fill="#ff1b00"/>
    <path d="M533.41,-578.95C533.41,-576.27 531.23,-574.09 528.55,-574.09C525.87,-574.09 523.70,-576.27 523.70,-578.95C523.70,-581.63 525.87,-583.80 528.55,-583.80C531.23,-583.80 533.41,-581.63 533.41,-578.95Z" fill="#7aff00"/>
    <path d="M617.67,-578.95C617.67,-574.64 614.18,-571.14 609.87,-571.14C605.56,-571.14 602.06,-574.64 602.06,-578.95C602.06,-583.26 605.56,-586.75 609.87,-586.75C614.18,-586.75 617.67,-583.26 617.67,-578.95Z" fill="#d4ff00"/>
    <path d="M696.04,-578.95C696.04,-576.27 693.87,-574.09 691.18,-574.09C688.50,-574.09 686.33,-576.27 686.33,-578.95C686.33,-581.63 688.50,-583.80 691.18,-583.80C693.87,-583.80 696.04,-581.63 696.04,-578.95Z" fill="#ceff00"/>
    <path d="M780.30,-578.95C780.30,-574.64 776.81,-571.14 772.50,-571.14C768.19,-571.14 764.70,-574.64 764.70,-578.95C764.70,-583.26 768.19,-586.75 772.50,-586.75C776.81,-586.75 780.30,-583.26 780.30,-578.95Z" fill="#c6ff00"/>
    <path d="M-767.64,-473.68C-767.64,-471.00 -769.82,-468.83 -772.50,-468.83C-775.18,-468.83 -777.36,-471.00 -777.36,-473.68C-777.36,-476.37 -775.18,-478.54 -772.50,-478.54C-769.82,-478.54 -767.64,-476.37 -767.64,-473.68Z" fill="#47ff00"/>
    <path d="M-683.38,-473.68C-683.38,-469.37 -686.87,-465.88 -691.18,-465.88C-695.49,-465.88 -698.99,-469.37 -698.99,-473.68C-698.99,-477.99 -695.49,-481.49 -691.18,-481.49C-686.87,-481.49 -683.38,-477.99 -683.38,-473.68Z" fill="#ff9000"/>
    <path d="M-605.01,-473.68C-605.01,-471.00 -607.19,-468.83 -609.87,-468.83C-612.55,-468.83 -614.73,-471.00 -614.73,-473.68C-614.73,-476.37 -612.55,-478.54 -609.87,-478.54C-607.19,-478.54 -605.01,-476.37 -605.01,-473.68Z" fill="#80ff00"/>
    <path d="M-520.75,-473.68C-520.75,-469.37 -524.24,-465.88 -528.55,-465.88C-532.86,-465.88 -536.36,-469.37 -536.36,-473.68C-536.36,-477.99 -532.86,-481.49 -528.55,-481.49C-524.24,-481.49 -520.75,-477.99 -520.75,-473.68Z" fill="#b4ff00"/>
    <path d="M-442.38,-473.68C-442.38,-471.00 -444.55,-468.83 -447.24,-468.83C-449.92,-468.83 -452.09,-471.00 -452.09,-473.68C-452.09,-476.37 -449.92,-478.54 -447.24,-478.54C-444.55,-478.54 -442.38,-476.37 -442.38,-473.68Z" fill="#97ff00"/>
    <path d="M-358.12,-473.68C-358.12,-469.37 -361.61,-465.88 -365.92,-465.88C-370.23,-465.88 -373.73,-469.37 -373.73,-473.68C-373.73,-477.99 -370.23,-481.49 -365.92,-481.49C-361.61,-481.49 -358.12,-477.99 -358.12,-473.68Z" fill="#ffc800"/>
    <path d="M-279.75,-473.68C-279.75,-471.00 -281.92,-468.83 -284.61,-468.83C-287.29,-468.83 -289.46,-471.00 -289.46,-473.68C-289.46,-476.37 -287.29,-478.54 -284.61,-478.54C-281.92,-478.54 -279.75,-476.37 -279.75,-473.68Z" fill="#ffe700"/>
    <path d="M-195.48,-473.68C-195.48,-469.37 -198.98,-465.88 -203.29,-465.88C-207.60,-465.88 -211.09,-469.37 -211.09,-473.68C-211.09,-477.99 -207.60,-481.49 -203.29,-481.49C-198.98,-481.49 -195.48,-477.99 -195.48,-473.68Z" fill="#00ff51"/>
    <path d="M-117.12,-473.68C-117.12,-471.00 -119.29,-468.83 -121.97,-468.83C-124.66,-468.83 -126.83,-471.00 -126.83,-473.68C-126.83,-476.37 -124.66,-478.54 -121.97,-478.54C-119.29,-478.54 -117.12,-476.37 -117.12,-473.68Z" fill="#00ff12"/>
    <path d="M-32.85,-473.68C-32.85,-469.37 -36.35,-465.88 -40.66,-465.88C-44.97,-465.88 -48.46,-469.37 -48.46,-473.68C-48.46,-477.99 -44.97,-481.49 -40.66,-481.49C-36.35,-481.49 -32.85,-477.99 -32.85,-473.68Z" fill="#00ff37"/>
    <path d="M45.51,-473.68C45.51,-471.00 43.34,-468.83 40.66,-468.83C37.98,-468.83 35.80,-471.00 35.80,-473.68C35.80,-476.37 37.98,-478.54 40.66,-478.54C43.34,-478.54 45.51,-476.37 45.51,-473.68Z" fill="#ffa500"/>
    <path d="M129.78,-473.68C129.78,-469.37 126.28,-465.88 121.97,-465.88C117.66,-465.88 114.17,-469.37 114.17,-473.68C114.17,-477.99 117.66,-481.49 121.97,-481.49C126.28,-481.49 129.78,-477.99 129.78,-473.68Z" fill="#ff4d00"/>
    <path d="M208.15,-473.68C208.15,-471.00 205.97,-468.83 203.29,-468.83C200.61,-468.83 198.43,-471.00 198.43,-473.68C198.43,-476.37 200.61,-478.54 203.29,-478.54C205.97,-478.54 208.15,-476.37 208.15,-473.68Z" fill="#ff5800"/>
    <path d="M292.41,-473.68C292.41,-469.37 288.92,-465.88 284.61,-465.88C280.29,-465.88 276.80,-469.37 276.80,-473.68C276.80,-477.99 280.29,-481.49 284.61,-481.49C288.92,-481.49 292.41,-477.99 292.41,-473.68Z" fill="#ff0e00"/>
    <path d="M370.78,-473.68C370.78,-471.00 368.60,-468.83 365.92,-468.83C363.24,-468.83 361.06,-471.00 361.06,-473.68C361.06,-476.37 363.24,-478.54 365.92,-478.54C368.60,-478.54 370.78,-476.37 370.78,-473.68Z" fill="#b6ff00"/>
    <path d="M455.04,-473.68C455.04,-469.37 451.55,-465.88 447.24,-465.88C442.93,-465.88 439.43,-469.37 439.43,-473.68C439.43,-477.99 442.93,-481.49 447.24,-481.49C451.55,-481.49 455.04,-477.99 455.04,-473.68Z" fill="#00ff45"/>
    <path d="M533.41,-473.68C533.41,-471.00 531.23,-468.83 528.55,-468.83C525.87,-468.83 523.70,-471.00 523.70,-473.68C523.70,-476.37 525.87,-478.54 528.55,-478.54C531.23,-478.54 533.41,-476.37 533.41,-473.68Z" fill="#ff3f00"/>
    <path d="M617.67,-473.68C617.67,-469.37 614.18,-465.88 609.87,-465.88C605.56,-465.88 602.06,-469.37 602.06,-473.68C602.06,-477.99 605.56,-481.49 609.87,-481.49C614.18,-481.49 617.67,-477.99 617.67,-473.68Z" fill="#87ff00"/>
    <path d="M696.04,-473.68C696.04,-471.00 693.87,-468.83 691.18,-468.83C688.50,-468.83 686.33,-471.00 686.33,-473.68C686.33,-476.37 688.50,-478.54 691.18,-478.54C693.87,-478.54 696.04,-476.37 696.04,-473.68Z" fill="#fff600"/>
    <path d="M780.30,-473.68C780.30,-469.37 776.81,-465.88 772.50,-465.88C768.19,-465.88 764.70,-469.37 764.70,-473.68C764.70,-477.99 768.19,-481.49 772.50,-481.49C776.81,-481.49 780.30,-477.99 780.30,-473.68Z" fill="#2cff00"/>
    <path d="M-767.64,-368.42C-767.64,-365.74 -769.82,-363.56 -772.50,-363.56C-775.18,-363.56 -777.36,-365.74 -777.36,-368.42C-777.36,-371.10 -775.18,-373.28 -772.50,-373.28C-769.82,-373.28 -767.64,-371.10 -767.64,-368.42Z" fill="#00ff54"/>
    <path d="M-683.38,-368.42C-683.38,-364.11 -686.87,-360.62 -691.18,-360.62C-695.49,-360.62 -698.99,-364.11 -698.99,-368.42C-698.99,-372.73 -695.49,-376.23 -691.18,-376.23C-686.87,-376.23 -683.38,-372.73 -683.38,-368.42Z" fill="#daff00"/>
    <path d="M-605.01,-368.42C-605.01,-365.74 -607.19,-363.56 -609.87,-363.56C-612.55,-363.56 -614.73,-365.74 -614.73,-368.42C-614.73,-371.10 -612.55,-373.28 -609.87,-373.28C-607.19,-373.28 -605.01,-371.10 -605.01,-368.42Z" fill="#3eff00"/>
    <path d="M-520.75,-368.42C-520.75,-364.11 -524.24,-360.62 -528.55,-360.62C-532.86,-360.62 -536.36,-364.11 -536.36,-368.42C-536.36,-372.73 -532.86,-376.23 -528.55,-376.23C-524.24,-376.23 -520.75,-372.73 -520.75,-368.42Z" fill="#46ff00"/>
    <path d="M-442.38,-368.42C-442.38,-365.74 -444.55,-363.56 -447.24,-363.56C-449.92,-363.56 -452.09,-365.74 -452.09,-368.42C-452.09,-371.10 -449.92,-373.28 -447.24,-373.28C-444.55,-373.28 -442.38,-371.10 -442.38,-368.42Z" fill="#14ff00"/>
    <path d="M-358.12,-368.42C-358.12,-364.11 -361.61,-360.62 -365.92,-360.62C-370.23,-360.62 -373.73,-364.11 -373.73,-368.42C-373.73,-372.73 -370.23,-376.23 -365.92,-376.23C-361.61,-376.23 -358.12,-372.73 -358.12,-368.42Z" fill="#07ff00"/>
    <path d="M-279.75,-368.42C-279.75,-365.74 -281.92,-363.56 -284.61,-363.56C-287.29,-363.56 -289.46,-365.74 -289.46,-368.42C-289.46,-371.10 -287.29,-373.28 -284.61,-373.28C-281.92,-373.28 -279.75,-371.10 -279.75,-368.42Z" fill="#c2ff00"/>
    <path d="M-195.48,-368.42C-195.48,-364.11 -198.98,-360.62 -203.29,-360.62C-207.60,-360.62 -211.09,-364.11 -211.09,-368.42C-211.09,-372.73 -207.60,-376.23 -203.29,-376.23C-198.98,-376.23 -195.48,-372.73 -195.48,-368.42Z" fill="#00ff1e"/>
    <path d="M-117.12,-368.42C-117.12,-365.74 -119.29,-363.56 -121.97,-363.56C-124.66,-363.56 -126.83,-365.74 -126.83,-368.42C-126.83,-371.10 -124.66,-373.28 -121.97,-373.28C-119.29,-373.28 -117.12,-371.10 -117.12,-368.42Z" fill="#ff5000"/>
    <path d="M-32.85,-368.42C-32.85,-364.11 -36.35,-360.62 -40.66,-360.62C-44.97,-360.62 -48.46,-364.11 -48.46,-368.42C-48.46,-372.73 -44.97,-376.23 -40.66,-376.23C-36.35,-376.23 -32.85,-372.73 -32.85,-368.42Z" fill="#ff3200"/>
    <path d="M45.51,-368.42C45.51,-365.74 43.34,-363.56 40.66,-363.56C37.98,-363.56 35.80,-365.74 35.80,-368.42C35.80,-371.10 37.98,-373.28 40.66,-373.28C43.34,-373.28 45.51,-371.10 45.51,-368.42Z" fill="#00ff4d"/>
    <path d="M129.78,-368.42C129.78,-364.11 126.28,-360.62 121.97,-360.62C117.66,-360.62 114.17,-364.11 114.17,-368.42C114.17,-372.73 117.66,-376.23 121.97,-376.23C126.28,-376.23 129.78,-372.73 129.78,-368.42Z" fill="#4dff00"/>
    <path d="M208.15,-368.42C208.15,-365.74 205.97,-363.56 203.29,-363.56C200.61,-363.56 198.43,-365.74 198.43,-368.42C198.43,-371.10 200.61,-373.28 203.29,-373.28C205.97,-373.28 208.15,-371.10 208.15,-368.42Z" fill="#51ff00"/>
    <path d="M292.41,-368.42C292.41,-364.11 288.92,-360.62 284.61,-360.62C280.29,-360.62 276.80,-364.11 276.80,-368.42C276.80,-372.73 280.29,-376.23 284.61,-376.23C288.92,-376.23 292.41,-372.73 292.41,-368.42Z" fill="#ff5600"/>
    <path d="M370.78,-368.42C370.78,-365.74 368.60,-363.56 365.92,-363.56C363.24,-363.56 361.06,-365.74 361.06,-368.42C361.06,-371.10 363.24,-373.28 365.92,-373.28C368.60,-373.28 370.78,-371.10 370.78,-368.42Z" fill="#e8ff00"/>
    <path d="M455.04,-368.42C455.04,-364.11 451.55,-360.62 447.24,-360.62C442.93,-360.62 439.43,-364.11 439.43,-368.42C439.43,-372.73 442.93,-376.23 447.24,-376.23C451.55,-376.23 455.04,-372.73 455.04,-368.42Z" fill="#ff0300"/>
    <path d="M533.41,-368.42C533.41,-365.74 531.23,-363.56 528.55,-363.56C525.87,-363.56 523.70,-365.74 523.70,-368.42C523.70,-371.10 525.87,-373.28 528.55,-373.28C531.23,-373.28 533.41,-371.10 533.41,-368.42Z" fill="#ff2b00"/>
    <path d="M617.67,-368.42C617.67,-364.11 614.18,-360.62 609.87,-360.62C605.56,-360.62 602.06,-364.11 602.06,-368.42C602.06,-372.73 605.56,-376.23 609.87,-376.23C614.18,-376.23 617.67,-372.73 617.67,-368.42Z" fill="#ffd100"/>
    <path d="M696.04,-368.42C696.04,-365.74 693.87,-363.56 691.18,-363.56C688.50,-363.56 686.33,-365.74 686.33,-368.42C686.33,-371.10 688.50,-373.28 691.18,-373.28C693.87,-373.28 696.04,-371.10 696.04,-368.42Z" fill="#ffcb00"/>
    <path d="M780.30,-368.42C780.30,-364.11 776.81,-360.62 772.50,-360.62C768.19,-360.62 764.70,-364.11 764.70,-368.42C764.70,-372.73 768.19,-376.23 772.50,-376.23C776.81,-376.23 780.30,-372.73 780.30,-368.42Z" fill="#00ff06"/>
    <path d="M-767.64,-263.16C-767.64,-260.48 -769.82,-258.30 -772.50,-258.30C-775.18,-258.30 -777.36,-260.48 -777.36,-263.16C-777.36,-265.84 -775.18,-268.01 -772.50,-268.01C-769.82,-268.01 -767.64,-265.84 -767.64,-263.16Z" fill="#00ff49"/>
    <path d="M-683.38,-263.16C-683.38,-258.85 -686.87,-255.35 -691.18,-255.35C-695.49,-255.35 -698.99,-258.85 -698.99,-263.16C-698.99,-267.47 -695.49,-270.96 -691.18,-270.96C-686.87,-270.96 -683.38,-267.47 -683.38,-263.16Z" fill="#00ff09"/>
    <path d="M-605.01,-263.16C-605.01,-260.48 -607.19,-258.30 -609.87,-258.30C-612.55,-258.30 -614.73,-260.48 -614.73,-263.16C-614.73,-265.84 -612.55,-268.01 -609.87,-268.01C-607.19,-268.01 -605.01,-265.84 -605.01,-263.16Z" fill="#8eff00"/>
    <path d="M-520.75,-263.16C-520.75,-258.85 -524.24,-255.35 -528.55,-255.35C-532.86,-255.35 -536.36,-258.85 -536.36,-263.16C-536.36,-267.47 -532.86,-270.96 -528.55,-270.96C-524.24,-270.96 -520.75,-267.47 -520.75,-263.16Z" fill="#ff6b00"/>
    <path d="M-442.38,-263.16C-442.38,-260.48 -444.55,-258.30 -447.24,-258.30C-449.92,-258.30 -452.09,-260.48 -452.09,-263.16C-452.09,-265.84 -449.92,-268.01 -447.24,-268.01C-444.55,-268.01 -442.38,-265.84 -442.38,-263.16Z" fill="#ff8300"/>
    <path d="M-358.12,-263.16C-358.12,-258.85 -361.61,-255.35 -365.92,-255.35C-370.23,-255.35 -373.73,-258.85 -373.73,-263.16C-373.73,-267.47 -370.23,-270.96 -365.92,-270.96C-361.61,-270.96 -358.12,-267.47 -358.12,-263.16Z" fill="#00ff03"/>
    <path d="M-279.75,-263.16C-279.75,-260.48 -281.92,-258.30 -284.61,-258.30C-287.29,-258.30 -289.46,-260.48 -289.46,-263.16C-289.46,-265.84 -287.29,-268.01 -284.61,-268.01C-281.92,-268.01 -279.75,-265.84 -279.75,-263.16Z" fill="#ff0600"/>
    <path d="M-195.48,-263.16C-195.48,-258.85 -198.98,-255.35 -203.29,-255.35C-207.60,-255.35 -211.09,-258.85 -211.09,-263.16C-211.09,-267.47 -207.60,-270.96 -203.29,-270.96C-198.98,-270.96 -195.48,-267.47 -195.48,-263.16Z" fill="#5fff00"/>
    <path d="M-117.12,-263.16C-117.12,-260.48 -119.29,-258.30 -121.97,-258.30C-124.66,-258.30 -126.83,-260.48 -126.83,-263.16C-126.83,-265.84 -124.66,-268.01 -121.97,-268.01C-119.29,-268.01 -117.12,-265.84 -117.12,-263.16Z" fill="#2fff00"/>
    <path d="M-32.85,-263.16C-32.85,-258.85 -36.35,-255.35 -40.66,-255.35C-44.97,-255.35 -48.46,-258.85 -48.46,-263.16C-48.46,-267.47 -44.97,-270.96 -40.66,-270.96C-36.35,-270.96 -32.85,-267.47 -32.85,-263.16Z" fill="#52ff00"/>
    <path d="M45.51,-263.16C45.51,-260.48 43.34,-258.30 40.66,-258.30C37.98,-258.30 35.80,-260.48 35.80,-263.16C35.80,-265.84 37.98,-268.01 40.66,-268.01C43.34,-268.01 45.51,-265.84 45.51,-263.16Z" fill="#ff7f00"/>
    <path d="M129.78,-263.16C129.78,-258.85 126.28,-255.35 121.97,-255.35C117.66,-255.35 114.17,-258.85 114.17,-263.16C114.17,-267.47 117.66,-270.96 121.97,-270.96C126.28,-270.96 129.78,-267.47 129.78,-263.16Z" fill="#28ff00"/>
    <path d="M208.15,-263.16C208.15,-260.48 205.97,-258.30 203.29,-258.30C200.61,-258.30 198.43,-260.48 198.43,-263.16C198.43,-265.84 200.61,-268.01 203.29,-268.01C205.97,-268.01 208.15,-265.84 208.15,-263.16Z" fill="#00ff39"/>
    <path d="M292.41,-263.16C292.41,-258.85 288.92,-255.35 284.61,-255.35C280.29,-255.35 276.80,-258.85 276.80,-263.16C276.80,-267.47 280.29,-270.96 284.61,-270.96C288.92,-270.96 292.41,-267.47 292.41,-263.16Z" fill="#ff0900"/>
    <path d="M370.78,-263.16C370.78,-260.48 368.60,-258.30 365.92,-258.30C363.24,-258.30 361.06,-260.48 361.06,-263.16C361.06,-265.84 363.24,-268.01 365.92,-268.01C368.60,-268.01 370.78,-265.84 370.78,-263.16Z" fill="#ffed00"/>
    <path d="M455.04,-263.16C455.04,-258.85 451.55,-255.35 447.24,-255.35C442.93,-255.35 439.43,-258.85 439.43,-263.16C439.43,-267.47 442.93,-270.96 447.24,-270.96C451.55,-270.96 455.04,-267.47 455.04,-263.16Z" fill="#00ff02"/>
    <path d="M533.41,-263.16C533.41,-260.48 531.23,-258.30 528.55,-258.30C525.87,-258.30 523.70,-260.48 523.70,-263.16C523.70,-265.84 525.87,-268.01 528.55,-268.01C531.23,-268.01 533.41,-265.84 533.41,-263.16Z" fill="#26ff00"/>
    <path d="M617.67,-263.16C617.67,-258.85 614.18,-255.35 609.87,-255.35C605.56,-255.35 602.06,-258.85 602.06,-263.16C602.06,-267.47 605.56,-270.96 609.87,-270.96C614.18,-270.96 617.67,-267.47 617.67,-263.16Z" fill="#00ff56"/>
    <path d="M696.04,-263.16C696.04,-260.48 693.87,-258.30 691.18,-258.30C688.50,-258.30 686.33,-260.48 686.33,-263.16C686.33,-265.84 688.50,-268.01 691.18,-268.01C693.87,-268.01 696.04,-265.84 696.04,-263.16Z" fill="#00ff14"/>
    <path d="M780.30,-263.16C780.30,-258.85 776.81,-255.35 772.50,-255.35C768.19,-255.35 764.70,-258.85 764.70,-263.16C764.70,-267.47 768.19,-270.96 772.50,-270.96C776.81,-270.96 780.30,-267.47 780.30,-263.16Z" fill="#ff6600"/>
    <path d="M-767.64,-157.89C-767.64,-155.21 -769.82,-153.04 -772.50,-153.04C-775.18,-153.04 -777.36,-155.21 -777.36,-157.89C-777.36,-160.58 -775.18,-162.75 -772.50,-162.75C-769.82,-162.75 -767.64,-160.58 -767.64,-157.89Z" fill="#00ff43"/>
    <path d="M-683.38,-157.89C-683.38,-153.58 -686.87,-150.09 -691.18,-150.09C-695.49,-150.09 -698.99,-153.58 -698.99,-157.89C-698.99,-162.21 -695.49,-165.70 -691.18,-165.70C-686.87,-165.70 -683.38,-162.21 -683.38,-157.89Z" fill="#4bff00"/>
    <path d="M-605.01,-157.89C-605.01,-155.21 -607.19,-153.04 -609.87,-153.04C-612.55,-153.04 -614.73,-155.21 -614.73,-157.89C-614.73,-160.58 -612.55,-162.75 -609.87,-162.75C-607.19,-162.75 -605.01,-160.58 -605.01,-157.89Z" fill="#68ff00"/>
    <path d="M-520.75,-157.89C-520.75,-153.58 -524.24,-150.09 -528.55,-150.09C-532.86,-150.09 -536.36,-153.58 -536.36,-157.89C-536.36,-162.21 -532.86,-165.70 -528.55,-165.70C-524.24,-165.70 -520.75,-162.21 -520.75,-157.89Z" fill="#1bff00"/>
    <path d="M-442.38,-157.89C-442.38,-155.21 -444.55,-153.04 -447.24,-153.04C-449.92,-153.04 -452.09,-155.21 -452.09,-157.89C-452.09,-160.58 -449.92,-162.75 -447.24,-162.75C-444.55,-162.75 -442.38,-160.58 -442.38,-157.89Z" fill="#f5ff00"/>
    <path d="M-358.12,-157.89C-358.12,-153.58 -361.61,-150.09 -365.92,-150.09C-370.23,-150.09 -373.73,-153.58 -373.73,-157.89C-373.73,-162.21 -370.23,-165.70 -365.92,-165.70C-361.61,-165.70 -358.12,-162.21 -358.12,-157.89Z" fill="#e9ff00"/>
    <path d="M-279.75,-157.89C-279.75,-155.21 -281.92,-153.04 -284.61,-153.04C-287.29,-153.04 -289.46,-155.21 -289.46,-157.89C-289.46,-160.58 -287.29,-162.75 -284.61,-162.75C-281.92,-162.75 -279.75,-160.58 -279.75,-157.89Z" fill="#00ff02"/>
    <path d="M-195.48,-157.89C-195.48,-153.58 -198.98,-150.09 -203.29,-150.09C-207.60,-150.09 -211.09,-153.58 -211.09,-157.89C-211.09,-162.21 -207.60,-165.70 -203.29,-165.70C-198.98,-165.70 -195.48,-162.21 -195.48,-157.89Z" fill="#d1ff00"/>
    <path d="M-117.12,-157.89C-117.12,-155.21 -119.29,-153.04 -121.97,-153.04C-124.66,-153.04 -126.83,-155.21 -126.83,-157.89C-126.83,-160.58 -124.66,-162.75 -121.97,-162.75C-119.29,-162.75 -117.12,-160.58 -117.12,-157.89Z" fill="#00ff55"/>
    <path d="M-32.85,-157.89C-32.85,-153.58 -36.35,-150.09 -40.66,-150.09C-44.97,-150.09 -48.46,-153.58 -48.46,-157.89C-48.46,-162.21 -44.97,-165.70 -40.66,-165.70C-36.35,-165.70 -32.85,-162.21 -32.85,-157.89Z" fill="#00ff48"/>
    <path d="M45.51,-157.89C45.51,-155.21 43.34,-153.04 40.66,-153.04C37.98,-153.04 35.80,-155.21 35.80,-157.89C35.80,-160.58 37.98,-162.75 40.66,-162.75C43.34,-162.75 45.51,-160.58 45.51,-157.89Z" fill="#ffd400"/>
    <path d="M129.78,-157.89C129.78,-153.58 126.28,-150.09 121.97,-150.09C117.66,-150.09 114.17,-153.58 114.17,-157.89C114.17,-162.21 117.66,-165.70 121.97,-165.70C126.28,-165.70 129.78,-162.21 129.78,-157.89Z" fill="#ff1c00"/>
    <path d="M208.15,-157.89C208.15,-155.21 205.97,-153.04 203.29,-153.04C200.61,-153.04 198.43,-155.21 198.43,-157.89C198.43,-160.58 200.61,-162.75 203.29,-162.75C205.97,-162.75 208.15,-160.58 208.15,-157.89Z" fill="#ff2b00"/>
    <path d="M292.41,-157.89C292.41,-153.58 288.92,-150.09 284.61,-150.09C280.29,-150.09 276.80,-153.58 276.80,-157.89C276.80,-162.21 280.29,-165.70 284.61,-165.70C288.92,-165.70 292.41,-162.21 292.41,-157.89Z" fill="#ff1100"/>
    <path d="M370.78,-157.89C370.78,-155.21 368.60,-153.04 365.92,-153.04C363.24,-153.04 361.06,-155.21 361.06,-157.89C361.06,-160.58 363.24,-162.75 365.92,-162.75C368.60,-162.75 370.78,-160.58 370.78,-157.89Z" fill="#dcff00"/>
    <path d="M455.04,-157.89C455.04,-153.58 451.55,-150.09 447.24,-150.09C442.93,-150.09 439.43,-153.58 439.43,-157.89C439.43,-162.21 442.93,-165.70 447.24,-165.70C451.55,-165.70 455.04,-162.21 455.04,-157.89Z" fill="#00ff49"/>
    <path d="M533.41,-157.89C533.41,-155.21 531.23,-153.04 528.55,-153.04C525.87,-153.04 523.70,-155.21 523.70,-157.89C523.70,-160.58 525.87,-162.75 528.55,-162.75C531.23,-162.75 533.41,-160.58 533.41,-157.89Z" fill="#00ff53"/>
    <path d="M617.67,-157.89C617.67,-153.58 614.18,-150.09 609.87,-150.09C605.56,-150.09 602.06,-153.58 602.06,-157.89C602.06,-162.21 605.56,-165.70 609.87,-165.70C614.18,-165.70 617.67,-162.21 617.67,-157.89Z" fill="#32ff00"/>
    <path d="M696.04,-157.89C696.04,-155.21 693.87,-153.04 691.18,-153.04C688.50,-153.04 686.33,-155.21 686.33,-157.89C686.33,-160.58 688.50,-162.75 691.18,-162.75C693.87,-162.75 696.04,-160.58 696.04,-157.89Z" fill="#d1ff00"/>
    <path d="M780.30,-157.89C780.30,-153.58 776.81,-150.09 772.50,-150.09C768.19,-150.09 764.70,-153.58 764.70,-157.89C764.70,-162.21 768.19,-165.70 772.50,-165.70C776.81,-165.70 780.30,-162.21 780.30,-157.89Z" fill="#ff9900"/>
    <path d="M-767.64,-52.63C-767.64,-49.95 -769.82,-47.77 -772.50,-47.77C-775.18,-47.77 -777.36,-49.95 -777.36,-52.63C-777.36,-55.31 -775.18,-57.49 -772.50,-57.49C-769.82,-57.49 -767.64,-55.31 -767.64,-52.63Z" fill="#ffb900"/>
    <path d="M-683.38,-52.63C-683.38,-48.32 -686.87,-44.83 -691.18,-44.83C-695.49,-44.83 -698.99,-48.32 -698.99,-52.63C-698.99,-56.94 -695.49,-60.44 -691.18,-60.44C-686.87,-60.44 -683.38,-56.94 -683.38,-52.63Z" fill="#01ff00"/>
    <path d="M-605.01,-52.63C-605.01,-49.95 -607.19,-47.77 -609.87,-47.77C-612.55,-47.77 -614.73,-49.95 -614.73,-52.63C-614.73,-55.31 -612.55,-57.49 -609.87,-57.49C-607.19,-57.49 -605.01,-55.31 -605.01,-52.63Z" fill="#ff1f00"/>
    <path d="M-520.75,-52.63C-520.75,-48.32 -524.24,-44.83 -528.55,-44.83C-532.86,-44.83 -536.36,-48.32 -536.36,-52.63C-536.36,-56.94 -532.86,-60.44 -528.55,-60.44C-524.24,-60.44 -520.75,-56.94 -520.75,-52.63Z" fill="#ff0600"/>
    <path d="M-442.38,-52.63C-442.38,-49.95 -444.55,-47.77 -447.24,-47.77C-449.92,-47.77 -452.09,-49.95 -452.09,-52.63C-452.09,-55.31 -449.92,-57.49 -447.24,-57.49C-444.55,-57.49 -442.38,-55.31 -442.38,-52.63Z" fill="#ffd400"/>
    <path d="M-358.12,-52.63C-358.12,-48.32 -361.61,-44.83 -365.92,-44.83C-370.23,-44.83 -373.73,-48.32 -373.73,-52.63C-373.73,-56.94 -370.23,-60.44 -365.92,-60.44C-361.61,-60.44 -358.12,-56.94 -358.12,-52.63Z" fill="#ff3400"/>
    <path d="M-279.75,-52.63C-279.75,-49.95 -281.92,-47.77 -284.61,-47.77C-287.29,-47.77 -289.46,-49.95 -289.46,-52.63C-289.46,-55.31 -287.29,-57.49 -284.61,-57.49C-281.92,-57.49 -279.75,-55.31 -279.75,-52.63Z" fill="#00ff00"/>
    <path d="M-195.48,-52.63C-195.48,-48.32 -198.98,-44.83 -203.29,-44.83C-207.60,-44.83 -211.09,-48.32 -211.09,-52.63C-211.09,-56.94 -207.60,-60.44 -203.29,-60.44C-198.98,-60.44 -195.48,-56.94 -195.48,-52.63Z" fill="#ff0200"/>
    <path d="M-117.12,-52.63C-117.12,-49.95 -119.29,-47.77 -121.97,-47.77C-124.66,-47.77 -126.83,-49.95 -126.83,-52.63C-126.83,-55.31 -124.66,-57.49 -121.97,-57.49C-119.29,-57.49 -117.12,-55.31 -117.12,-52.63Z" fill="#ffb900"/>
    <path d="M-32.85,-52.63C-32.85,-48.32 -36.35,-44.83 -40.66,-44.83C-44.97,-44.83 -48.46,-48.32 -48.46,-52.63C-48.46,-56.94 -44.97,-60.44 -40.66,-60.44C-36.35,-60.44 -32.85,-56.94 -32.85,-52.63Z" fill="#bfff00"/>
    <path d="M45.51,-52.63C45.51,-49.95 43.34,-47.77 40.66,-47.77C37.98,-47.77 35.80,-49.95 35.80,-52.63C35.80,-55.31 37.98,-57.49 40.66,-57.49C43.34,-57.49 45.51,-55.31 45.51,-52.63Z" fill="#00ff29"/>
    <path d="M129.78,-52.63C129.78,-48.32 126.28,-44.83 121.97,-44.83C117.66,-44.83 114.17,-48.32 114.17,-52.63C114.17,-56.94 117.66,-60.44 121.97,-60.44C126.28,-60.44 129.78,-56.94 129.78,-52.63Z" fill="#ffa600"/>
    <path d="M208.15,-52.63C208.15,-49.95 205.97,-47.77 203.29,-47.77C200.61,-47.77 198.43,-49.95 198.43,-52.63C198.43,-55.31 200.61,-57.49 203.29,-57.49C205.97,-57.49 208.15,-55.31 208.15,-52.63Z" fill="#00ff0f"/>
    <path d="M292.41,-52.63C292.41,-48.32 288.92,-44.83 284.61,-44.83C280.29,-44.83 276.80,-48.32 276.80,-52.63C276.80,-56.94 280.29,-60.44 284.61,-60.44C288.92,-60.44 292.41,-56.94 292.41,-52.63Z" fill="#90ff00"/>
    <path d="M370.78,-52.63C370.78,-49.95 368.60,-47.77 365.92,-47.77C363.24,-47.77 361.06,-49.95 361.06,-52.63C361.06,-55.31 363.24,-57.49 365.92,-57.49C368.60,-57.49 370.78,-55.31 370.78,-52.63Z" fill="#00ff23"/>
    <path d="M455.04,-52.63C455.04,-48.32 451.55,-44.83 447.24,-44.83C442.93,-44.83 439.43,-48.32 439.43,-52.63C439.43,-56.94 442.93,-60.44 447.24,-60.44C451.55,-60.44 455.04,-56.94 455.04,-52.63Z" fill="#ff1b00"/>
    <path d="M533.41,-52.63C533.41,-49.95 531.23,-47.77 528.55,-47.77C525.87,-47.77 523.70,-49.95 523.70,-52.63C523.70,-55.31 525.87,-57.49 528.55,-57.49C531.23,-57.49 533.41,-55.31 533.41,-52.63Z" fill="#7aff00"/>
    <path d="M617.67,-52.63C617.67,-48.32 614.18,-44.83 609.87,-44.83C605.56,-44.83 602.06,-48.32 602.06,-52.63C602.06,-56.94 605.56,-60.44 609.87,-60.44C614.18,-60.44 617.67,-56.94 617.67,-52.63Z" fill="#d4ff00"/>
    <path d="M696.04,-52.63C696.04,-49.95 693.87,-47.77 691.18,-47.77C688.50,-47.77 686.33,-49.95 686.33,-52.63C686.33,-55.31 688.50,-57.49 691.18,-57.49C693.87,-57.49 696.04,-55.31 696.04,-52.63Z" fill="#ceff00"/>
    <path d="M780.30,-52.63C780.30,-48.32 776.81,-44.83 772.50,-44.83C768.19,-44.83 764.70,-48.32 764.70,-52.63C764.70,-56.94 768.19,-60.44 772.50,-60.44C776.81,-60.44 780.30,-56.94 780.30,-52.63Z" fill="#c6ff00"/>
    <path d="M-767.64,52.63C-767.64,55.31 -769.82,57.49 -772.50,57.49C-775.18,57.49 -777.36,55.31 -777.36,52.63C-777.36,49.95 -775.18,47.77 -772.50,47.77C-769.82,47.77 -767.64,49.95 -767.64,52.63Z" fill="#47ff00"/>
    <path d="M-683.38,52.63C-683.38,56.94 -686.87,60.44 -691.18,60.44C-695.49,60.44 -698.99,56.94 -698.99,52.63C-698.99,48.32 -695.49,44.83 -691.18,44.83C-686.87,44.83 -683.38,48.32 -683.38,52.63Z" fill="#ff9000"/>
    <path d="M-605.01,52.63C-605.01,55.31 -607.19,57.49 -609.87,57.49C-612.55,57.49 -614.73,55.31 -614.73,52.63C-614.73,49.95 -612.55,47.77 -609.87,47.77C-607.19,47.77 -605.01,49.95 -605.01,52.63Z" fill="#80ff00"/>
    <path d="M-520.75,52.63C-520.75,56.94 -524.24,60.44 -528.55,60.44C-532.86,60.44 -536.36,56.94 -536.36,52.63C-536.36,48.32 -532.86,44.83 -528.55,44.83C-524.24,44.83 -520.75,48.32 -520.75,52.63Z" fill="#b4ff00"/>
    <path d="M-442.38,52.63C-442.38,55.31 -444.55,57.49 -447.24,57.49C-449.92,57.49 -452.09,55.31 -452.09,52.63C-452.09,49.95 -449.92,47.77 -447.24,47.77C-444.55,47.77 -442.38,49.95 -442.38,52.63Z" fill="#97ff00"/>
    <path d="M-358.12,52.63C-358.12,56.94 -361.61,60.44 -365.92,60.44C-370.23,60.44 -373.73,56.94 -373.73,52.63C-373.73,48.32 -370.23,44.83 -365.92,44.83C-361.61,44.83 -358.12,48.32 -358.12,52.63Z" fill="#ffc800"/>
    <path d="M-279.75,52.63C-279.75,55.31 -281.92,57.49 -284.61,57.49C-287.29,57.49 -289.46,55.31 -289.46,52.63C-289.46,49.95 -287.29,47.77 -284.61,47.77C-281.92,47.77 -279.75,49.95 -279.75,52.63Z" fill="#ffe700"/>
    <path d="M-195.48,52.63C-195.48,56.94 -198.98,60.44 -203.29,60.44C-207.60,60.44 -211.09,56.94 -211.09,52.63C-211.09,48.32 -207.60,44.83 -203.29,44.83C-198.98,44.83 -195.48,48.32 -195.48,52.63Z" fill="#00ff51"/>
    <path d="M-117.12,52.63C-117.12,55.31 -119.29,57.49 -121.97,57.49C-124.66,57.49 -126.83,55.31 -126.83,52.63C-126.83,49.95 -124.66,47.77 -121.97,47.77C-119.29,47.77 -117.12,49.95 -117.12,52.63Z" fill="#00ff12"/>
    <path d="M-32.85,52.63C-32.85,56.94 -36.35,60.44 -40.66,60.44C-44.97,60.44 -48.46,56.94 -48.46,52.63C-48.46,48.32 -44.97,44.83 -40.66,44.83C-36.35,44.83 -32.85,48.32 -32.85,52.63Z" fill="#00ff37"/>
    <path d="M45.51,52.63C45.51,55.31 43.34,57.49 40.66,57.49C37.98,57.49 35.80,55.31 35.80,52.63C35.80,49.95 37.98,47.77 40.66,47.77C43.34,47.77 45.51,49.95 45.51,52.63Z" fill="#ffa500"/>
    <path d="M129.78,52.63C129.78,56.94 126.28,60.44 121.97,60.44C117.66,60.44 114.17,56.94 114.17,52.63C114.17,48.32 117.66,44.83 121.97,44.83C126.28,44.83 129.78,48.32 129.78,52.63Z" fill="#ff4d00"/>
    <path d="M208.15,52.63C208.15,55.31 205.97,57.49 203.29,57.49C200.61,57.49 198.43,55.31 198.43,52.63C198.43,49.95 200.61,47.77 203.29,47.77C205.97,47.77 208.15,49.95 208.15,52.63Z" fill="#ff5800"/>
    <path d="M292.41,52.63C292.41,56.94 288.92,60.44 284.61,60.44C280.29,60.44 276.80,56.94 276.80,52.63C276.80,48.32 280.29,44.83 284.61,44.83C288.92,44.83 292.41,48.32 292.41,52.63Z" fill="#ff0e00"/>
    <path d="M370.78,52.63C370.78,55.31 368.60,57.49 365.92,57.49C363.24,57.49 361.06,55.31 361.06,52.63C361.06,49.95 363.24,47.77 365.92,47.77C368.60,47.77 370.78,49.95 370.78,52.63Z" fill="#b6ff00"/>
    <path d="M455.04,52.63C455.04,56.94 451.55,60.44 447.24,60.44C442.93,60.44 439.43,56.94 439.43,52.63C439.43,48.32 442.93,44.83 447.24,44.83C451.55,44.83 455.04,48.32 455.04,52.63Z" fill="#00ff45"/>
    <path d="M533.41,52.63C533.41,55.31 531.23,57.49 528.55,57.49C525.87,57.49 523.70,55.31 523.70,52.63C523.70,49.95 525.87,47.77 528.55,47.77C531.23,47.77 533.41,49.95 533.41,52.63Z" fill="#ff3f00"/>
    <path d="M617.67,52.63C617.67,56.94 614.18,60.44 609.87,60.44C605.56,60.44 602.06,56.94 602.06,52.63C602.06,48.32 605.56,44.83 609.87,44.83C614.18,44.83 617.67,48.32 617.67,52.63Z" fill="#87ff00"/>
    <path d="M696.04,52.63C696.04,55.31 693.87,57.49 691.18,57.49C688.50,57.49 686.33,55.31 686.33,52.63C686.33,49.95 688.50,47.77 691.18,47.77C693.87,47.77 696.04,49.95 696.04,52.63Z" fill="#fff600"/>
    <path d="M780.30,52.63C780.30,56.94 776.81,60.44 772.50,60.44C768.19,60.44 764.70,56.94 764.70,52.63C764.70,48.32 768.19,44.83 772.50,44.83C776.81,44.83 780.30,48.32 780.30,52.63Z" fill="#2cff00"/>
    <path d="M-767.64,157.89C-767.64,160.58 -769.82,162.75 -772.50,162.75C-775.18,162.75 -777.36,160.58 -777.36,157.89C-777.36,155.21 -775.18,153.04 -772.50,153.04C-769.82,153.04 -767.64,155.21 -767.64,157.89Z" fill="#00ff54"/>
    <path d="M-683.38,157.89C-683.38,162.21 -686.87,165.70 -691.18,165.70C-695.49,165.70 -698.99,162.21 -698.99,157.89C-698.99,153.58 -695.49,150.09 -691.18,150.09C-686.87,150.09 -683.38,153.58 -683.38,157.89Z" fill="#daff00"/>
    <path d="M-605.01,157.89C-605.01,160.58 -607.19,162.75 -609.87,162.75C-612.55,162.75 -614.73,160.58 -614.73,157.89C-614.73,155.21 -612.55,153.04 -609.87,153.04C-607.19,153.04 -605.01,155.21 -605.01,157.89Z" fill="#3eff00"/>
    <path d="M-520.75,157.89C-520.75,162.21 -524.24,165.70 -528.55,165.70C-532.86,165.70 -536.36,162.21 -536.36,157.89C-536.36,153.58 -532.86,150.09 -528.55,150.09C-524.24,150.09 -520.75,153.58 -520.75,157.89Z" fill="#46ff00"/>
    <path d="M-442.38,157.89C-442.38,160.58 -444.55,162.75 -447.24,162.75C-449.92,162.75 -452.09,160.58 -452.09,157.89C-452.09,155.21 -449.92,153.04 -447.24,153.04C-444.55,153.04 -442.38,155.21 -442.38,157.89Z" fill="#14ff00"/>
    <path d="M-358.12,157.89C-358.12,162.21 -361.61,165.70 -365.92,165.70C-370.23,165.70 -373.73,162.21 -373.73,157.89C-373.73,153.58 -370.23,150.09 -365.92,150.09C-361.61,150.09 -358.12,153.58 -358.12,157.89Z" fill="#07ff00"/>
    <path d="M-279.75,157.89C-279.75,160.58 -281.92,162.75 -284.61,162.75C-287.29,162.75 -289.46,160.58 -289.46,157.89C-289.46,155.21 -287.29,153.04 -284.61,153.04C-281.92,153.04 -279.75,155.21 -279.75,157.89Z" fill="#c2ff00"/>
    <path d="M-195.48,157.89C-195.48,162.21 -198.98,165.70 -203.29,165.70C-207.60,165.70 -211.09,162.21 -211.09,157.89C-211.09,153.58 -207.60,150.09 -203.29,150.09C-198.98,150.09 -195.48,153.58 -195.48,157.89Z" fill="#00ff1e"/>
    <path d="M-117.12,157.89C-117.12,160.58 -119.29,162.75 -121.97,162.75C-124.66,162.75 -126.83,160.58 -126.83,157.89C-126.83,155.21 -124.66,153.04 -121.97,153.04C-119.29,153.04 -117.12,155.21 -117.12,157.89Z" fill="#ff5000"/>
    <path d="M-32.85,157.89C-32.85,162.21 -36.35,165.70 -40.66,165.70C-44.97,165.70 -48.46,162.21 -48.46,157.89C-48.46,153.58 -44.97,150.09 -40.66,150.09C-36.35,150.09 -32.85,153.58 -32.85,157.89Z" fill="#ff3200"/>
    <path d="M45.51,157.89C45.51,160.58 43.34,162.75 40.66,162.75C37.98,162.75 35.80,160.58 35.80,157.89C35.80,155.21 37.98,153.04 40.66,153.04C43.34,153.04 45.51,155.21 45.51,157.89Z" fill="#00ff4d"/>
    <path d="M129.78,157.89C129.78,162.21 126.28,165.70 121.97,165.70C117.66,165.70 114.17,162.21 114.17,157.89C114.17,153.58 117.66,150.09 121.97,150.09C126.28,150.09 129.78,153.58 129.78,157.89Z" fill="#4dff00"/>
    <path d="M208.15,157.89C208.15,160.58 205.97,162.75 203.29,162.75C200.61,162.75 198.43,160.58 198.43,157.89C198.43,155.21 200.61,153.04 203.29,153.04C205.97,153.04 208.15,155.21 208.15,157.89Z" fill="#51ff00"/>
    <path d="M292.41,157.89C292.41,162.21 288.92,165.70 284.61,165.70C280.29,165.70 276.80,162.21 276.80,157.89C276.80,153.58 280.29,150.09 284.61,150.09C288.92,150.09 292.41,153.58 292.41,157.89Z" fill="#ff5600"/>
    <path d="M370.78,157.89C370.78,160.58 368.60,162.75 365.92,162.75C363.24,162.75 361.06,160.58 361.06,157.89C361.06,155.21 363.24,153.04 365.92,153.04C368.60,153.04 370.78,155.21 370.78,157.89Z" fill="#e8ff00"/>
    <path d="M455.04,157.89C455.04,162.21 451.55,165.70 447.24,165.70C442.93,165.70 439.43,162.21 439.43,157.89C439.43,153.58 442.93,150.09 447.24,150.09C451.55,150.09 455.04,153.58 455.04,157.89Z" fill="#ff0300"/>
    <path d="M533.41,157.89C533.41,160.58 531.23,162.75 528.55,162.75C525.87,162.75 523.70,160.58 523.70,157.89C523.70,155.21 525.87,153.04 528.55,153.04C531.23,153.04 533.41,155.21 533.41,157.89Z" fill="#ff2b00"/>
    <path d="M617.67,157.89C617.67,162.21 614.18,165.70 609.87,165.70C605.56,165.70 602.06,162.21 602.06,157.89C602.06,153.58 605.56,150.09 609.87,150.09C614.18,150.09 617.67,153.58 617.67,157.89Z" fill="#ffd100"/>
    <path d="M696.04,157.89C696.04,160.58 693.87,162.75 691.18,162.75C688.50,162.75 686.33,160.58 686.33,157.89C686.33,155.21 688.50,153.04 691.18,153.04C693.87,153.04 696.04,155.21 696.04,157.89Z" fill="#ffcb00"/>
    <path d="M780.30,157.89C780.30,162.21 776.81,165.70 772.50,165.70C768.19,165.70 764.70,162.21 764.70,157.89C764.70,153.58 768.19,150.09 772.50,150.09C776.81,150.09 780.30,153.58 780.30,157.89Z" fill="#00ff06"/>
    <path d="M-767.64,263.16C-767.64,265.84 -769.82,268.01 -772.50,268.01C-775.18,268.01 -777.36,265.84 -777.36,263.16C-777.36,260.48 -775.18,258.30 -772.50,258.30C-769.82,258.30 -767.64,260.48 -767.64,263.16Z" fill="#00ff49"/>
    <path d="M-683.38,263.16C-683.38,267.47 -686.87,270.96 -691.18,270.96C-695.49,270.96 -698.99,267.47 -698.99,263.16C-698.99,258.85 -695.49,255.35 -691.18,255.35C-686.87,255.35 -683.38,258.85 -683.38,263.16Z" fill="#00ff09"/>
    <path d="M-605.01,263.16C-605.01,265.84 -607.19,268.01 -609.87,268.01C-612.55,268.01 -614.73,265.84 -614.73,263.16C-614.73,260.48 -612.55,258.30 -609.87,258.30C-607.19,258.30 -605.01,260.48 -605.01,263.16Z" fill="#8eff00"/>
    <path d="M-520.75,263.16C-520.75,267.47 -524.24,270.96 -528.55,270.96C-532.86,270.96 -536.36,267.47 -536.36,263.16C-536.36,258.85 -532.86,255.35 -528.55,255.35C-524.24,255.35 -520.75,258.85 -520.75,263.16Z" fill="#ff6b00"/>
    <path d="M-442.38,263.16C-442.38,265.84 -444.55,268.01 -447.24,268.01C-449.92,268.01 -452.09,265.84 -452.09,263.16C-452.09,260.48 -449.92,258.30 -447.24,258.30C-444.55,258.30 -442.38,260.48 -442.38,263.16Z" fill="#ff8300"/>
    <path d="M-358.12,263.16C-358.12,267.47 -361.61,270.96 -365.92,270.96C-370.23,270.96 -373.73,267.47 -373.73,263.16C-373.73,258.85 -370.23,255.35 -365.92,255.35C-361.61,255.35 -358.12,258.85 -358.12,263.16Z" fill="#00ff03"/>
    <path d="M-279.75,263.16C-279.75,265.84 -281.92,268.01 -284.61,268.01C-287.29,268.01 -289.46,265.84 -289.46,263.16C-289.46,260.48 -287.29,258.30 -284.61,258.30C-281.92,258.30 -279.75,260.48 -279.75,263.16Z" fill="#ff0600"/>
    <path d="M-195.48,263.16C-195.48,267.47 -198.98,270.96 -203.29,270.96C-207.60,270.96 -211.09,267.47 -211.09,263.16C-211.09,258.85 -207.60,255.35 -203.29,255.35C-198.98,255.35 -195.48,258.85 -195.48,263.16Z" fill="#5fff00"/>
    <path d="M-117.12,263.16C-117.12,265.84 -119.29,268.01 -121.97,268.01C-124.66,268.01 -126.83,265.84 -126.83,263.16C-126.83,260.48 -124.66,258.30 -121.97,258.30C-119.29,258.30 -117.12,260.48 -117.12,263.16Z" fill="#2fff00"/>
    <path d="M-32.85,263.16C-32.85,267.47 -36.35,270.96 -40.66,270.96C-44.97,270.96 -48.46,267.47 -48.46,263.16C-48.46,258.85 -44.97,255.35 -40.66,255.35C-36.35,255.35 -32.85,258.85 -32.85,263.16Z" fill="#52ff00"/>
    <path d="M45.51,263.16C45.51,265.84 43.34,268.01 40.66,268.01C37.98,268.01 35.80,265.84 35.80,263.16C35.80,260.48 37.98,258.30 40.66,258.30C43.34,258.30 45.51,260.48 45.51,263.16Z" fill="#ff7f00"/>
    <path d="M129.78,263.16C129.78,267.47 126.28,270.96 121.97,270.96C117.66,270.96 114.17,267.47 114.17,263.16C114.17,258.85 117.66,255.35 121.97,255.35C126.28,255.35 129.78,258.85 129.78,263.16Z" fill="#28ff00"/>
    <path d="M208.15,263.16C208.15,265.84 205.97,268.01 203.29,268.01C200.61,268.01 198.43,265.84 198.43,263.16C198.43,260.48 200.61,258.30 203.29,258.30C205.97,258.30 208.15,260.48 208.15,263.16Z" fill="#00ff39"/>
    <path d="M292.41,263.16C292.41,267.47 288.92,270.96 284.61,270.96C280.29,270.96 276.80,267.47 276.80,263.16C276.80,258.85 280.29,255.35 284.61,255.35C288.92,255.35 292.41,258.85 292.41,263.16Z" fill="#ff0900"/>
    <path d="M370.78,263.16C370.78,265.84 368.60,268.01 365.92,268.01C363.24,268.01 361.06,265.84 361.06,263.16C361.06,260.48 363.24,258.30 365.92,258.30C368.60,258.30 370.78,260.48 370.78,263.16Z" fill="#ffed00"/>
    <path d="M455.04,263.16C455.04,267.47 451.55,270.96 447.24,270.96C442.93,270.96 439.43,267.47 439.43,263.16C439.43,258.85 442.93,255.35 447.24,255.35C451.55,255.35 455.04,258.85 455.04,263.16Z" fill="#00ff02"/>
    <path d="M533.41,263.16C533.41,265.84 531.23,268.01 528.55,268.01C525.87,268.01 523.70,265.84 523.70,263.16C523.70,260.48 525.87,258.30 528.55,258.30C531.23,258.30 533.41,260.48 533.41,263.16Z" fill="#26ff00"/>
    <path d="M617.67,263.16C617.67,267.47 614.18,270.96 609.87,270.96C605.56,270.96 602.06,267.47 602.06,263.16C602.06,258.85 605.56,255.35 609.87,255.35C614.18,255.35 617.67,258.85 617.67,263.16Z" fill="#00ff56"/>
    <path d="M696.04,263.16C696.04,265.84 693.87,268.01 691.18,268.01C688.50,268.01 686.33,265.84 686.33,263.16C686.33,260.48 688.50,258.30 691.18,258.30C693.87,258.30 696.04,260.48 696.04,263.16Z" fill="#00ff14"/>
    <path d="M780.30,263.16C780.30,267.47 776.81,270.96 772.50,270.96C768.19,270.96 764.70,267.47 764.70,263.16C764.70,258.85 768.19,255.35 772.50,255.35C776.81,255.35 780.30,258.85 780.30,263.16Z" fill="#ff6600"/>
    <path d="M-767.64,368.42C-767.64,371.10 -769.82,373.28 -772.50,373.28C-775.18,373.28 -777.36,371.10 -777.36,368.42C-777.36,365.74 -775.18,363.56 -772.50,363.56C-769.82,363.56 -767.64,365.74 -767.64,368.42Z" fill="#00ff43"/>
    <path d="M-683.38,368.42C-683.38,372.73 -686.87,376.23 -691.18,376.23C-695.49,376.23 -698.99,372.73 -698.99,368.42C-698.99,364.11 -695.49,360.62 -691.18,360.62C-686.87,360.62 -683.38,364.11 -683.38,368.42Z" fill="#4bff00"/>
    <path d="M-605.01,368.42C-605.01,371.10 -607.19,373.28 -609.87,373.28C-612.55,373.28 -614.73,371.10 -614.73,368.42C-614.73,365.74 -612.55,363.56 -609.87,363.56C-607.19,363.56 -605.01,365.74 -605.01,368.42Z" fill="#68ff00"/>
    <path d="M-520.75,368.42C-520.75,372.73 -524.24,376.23 -528.55,376.23C-532.86,376.23 -536.36,372.73 -536.36,368.42C-536.36,364.11 -532.86,360.62 -528.55,360.62C-524.24,360.62 -520.75,364.11 -520.75,368.42Z" fill="#1bff00"/>
    <path d="M-442.38,368.42C-442.38,371.10 -444.55,373.28 -447.24,373.28C-449.92,373.28 -452.09,371.10 -452.09,368.42C-452.09,365.74 -449.92,363.56 -447.24,363.56C-444.55,363.56 -442.38,365.74 -442.38,368.42Z" fill="#f5ff00"/>
    <path d="M-358.12,368.42C-358.12,372.73 -361.61,376.23 -365.92,376.23C-370.23,376.23 -373.73,372.73 -373.73,368.42C-373.73,364.11 -370.23,360.62 -365.92,360.62C-361.61,360.62 -358.12,364.11 -358.12,368.42Z" fill="#e9ff00"/>
    <path d="M-279.75,368.42C-279.75,371.10 -281.92,373.28 -284.61,373.28C-287.29,373.28 -289.46,371.10 -289.46,368.42C-289.46,365.74 -287.29,363.56 -284.61,363.56C-281.92,363.56 -279.75,365.74 -279.75,368.42Z" fill="#00ff02"/>
    <path d="M-195.48,368.42C-195.48,372.73 -198.98,376.23 -203.29,376.23C-207.60,376.23 -211.09,372.73 -211.09,368.42C-211.09,364.11 -207.60,360.62 -203.29,360.62C-198.98,360.62 -195.48,364.11 -195.48,368.42Z" fill="#d1ff00"/>
    <path d="M-117.12,368.42C-117.12,371.10 -119.29,373.28 -121.97,373.28C-124.66,373.28 -126.83,371.10 -126.83,368.42C-126.83,365.74 -124.66,363.56 -121.97,363.56C-119.29,363.56 -117.12,365.74 -117.12,368.42Z" fill="#00ff55"/>
    <path d="M-32.85,368.42C-32.85,372.73 -36.35,376.23 -40.66,376.23C-44.97,376.23 -48.46,372.73 -48.46,368.42C-48.46,364.11 -44.97,360.62 -40.66,360.62C-36.35,360.62 -32.85,364.11 -32.85,368.42Z" fill="#00ff48"/>
    <path d="M45.51,368.42C45.51,371.10 43.34,373.28 40.66,373.28C37.98,373.28 35.80,371.10 35.80,368.42C35.80,365.74 37.98,363.56 40.66,363.56C43.34,363.56 45.51,365.74 45.51,368.42Z" fill="#ffd400"/>
    <path d="M129.78,368.42C129.78,372.73 126.28,376.23 121.97,376.23C117.66,376.23 114.17,372.73 114.17,368.42C114.17,364.11 117.66,360.62 121.97,360.62C126.28,360.62 129.78,364.11 129.78,368.42Z" fill="#ff1c00"/>
    <path d="M208.15,368.42C208.15,371.10 205.97,373.28 203.29,373.28C200.61,373.28 198.43,371.10 198.43,368.42C198.43,365.74 200.61,363.56 203.29,363.56C205.97,363.56 208.15,365.74 208.15,368.42Z" fill="#ff2b00"/>
    <path d="M292.41,368.42C292.41,372.73 288.92,376.23 284.61,376.23C280.29,376.23 276.80,372.73 276.80,368.42C276.80,364.11 280.29,360.62 284.61,360.62C288.92,360.62 292.41,364.11 292.41,368.42Z" fill="#ff1100"/>
    <path d="M370.78,368.42C370.78,371.10 368.60,373.28 365.92,373.28C363.24,373.28 361.06,371.10 361.06,368.42C361.06,365.74 363.24,363.56 365.92,363.56C368.60,363.56 370.78,365.74 370.78,368.42Z" fill="#dcff00"/>
    <path d="M455.04,368.42C455.04,372.73 451.55,376.23 447.24,376.23C442.93,376.23 439.43,372.73 439.43,368.42C439.43,364.11 442.93,360.62 447.24,360.62C451.55,360.62 455.04,364.11 455.04,368.42Z" fill="#00ff49"/>
    <path d="M533.41,368.42C533.41,371.10 531.23,373.28 528.55,373.28C525.87,373.28 523.70,371.10 523.70,368.42C523.70,365.74 525.87,363.56 528.55,363.56C531.23,363.56 533.41,365.74 533.41,368.42Z" fill="#00ff53"/>
    <path d="M617.67,368.42C617.67,372.73 614.18,376.23 609.87,376.23C605.56,376.23 602.06,372.73 602.06,368.42C602.06,364.11 605.56,360.62 609.87,360.62C614.18,360.62 617.67,364.11 617.67,368.42Z" fill="#32ff00"/>
    <path d="M696.04,368.42C696.04,371.10 693.87,373.28 691.18,373.28C688.50,373.28 686.33,371.10 686.33,368.42C686.33,365.74 688.50,363.56 691.18,363.56C693.87,363.56 696.04,365.74 696.04,368.42Z" fill="#d1ff00"/>
    <path d="M780.30,368.42C780.30,372.73 776.81,376.23 772.50,376.23C768.19,376.23 764.70,372.73 764.70,368.42C764.70,364.11 768.19,360.62 772.50,360.62C776.81,360.62 780.30,364.11 780.30,368.42Z" fill="#ff9900"/>
    <path d="M-767.64,473.68C-767.64,476.37 -769.82,478.54 -772.50,478.54C-775.18,478.54 -777.36,476.37 -777.36,473.68C-777.36,471.00 -775.18,468.83 -772.50,468.83C-769.82,468.83 -767.64,471.00 -767.64,473.68Z" fill="#ffb900"/>
    <path d="M-683.38,473.68C-683.38,477.99 -686.87,481.49 -691.18,481.49C-695.49,481.49 -698.99,477.99 -698.99,473.68C-698.99,469.37 -695.49,465.88 -691.18,465.88C-686.87,465.88 -683.38,469.37 -683.38,473.68Z" fill="#01ff00"/>
    <path d="M-605.01,473.68C-605.01,476.37 -607.19,478.54 -609.87,478.54C-612.55,478.54 -614.73,476.37 -614.73,473.68C-614.73,471.00 -612.55,468.83 -609.87,468.83C-607.19,468.83 -605.01,471.00 -605.01,473.68Z" fill="#ff1f00"/>
    <path d="M-520.75,473.68C-520.75,477.99 -524.24,481.49 -528.55,481.49C-532.86,481.49 -536.36,477.99 -536.36,473.68C-536.36,469.37 -532.86,465.88 -528.55,465.88C-524.24,465.88 -520.75,469.37 -520.75,473.68Z" fill="#ff0600"/>
    <path d="M-442.38,473.68C-442.38,476.37 -444.55,478.54 -447.24,478.54C-449.92,478.54 -452.09,476.37 -452.09,473.68C-452.09,471.00 -449.92,468.83 -447.24,468.83C-444.55,468.83 -442.38,471.00 -442.38,473.68Z" fill="#ffd400"/>
    <path d="M-358.12,473.68C-358.12,477.99 -361.61,481.49 -365.92,481.49C-370.23,481.49 -373.73,477.99 -373.73,473.68C-373.73,469.37 -370.23,465.88 -365.92,465.88C-361.61,465.88 -358.12,469.37 -358.12,473.68Z" fill="#ff3400"/>
    <path d="M-279.75,473.68C-279.75,476.37 -281.92,478.54 -284.61,478.54C-287.29,478.54 -289.46,476.37 -289.46,473.68C-289.46,471.00 -287.29,468.83 -284.61,468.83C-281.92,468.83 -279.75,471.00 -279.75,473.68Z" fill="#00ff00"/>
    <path d="M-195.48,473.68C-195.48,477.99 -198.98,481.49 -203.29,481.49C-207.60,481.49 -211.09,477.99 -211.09,473.68C-211.09,469.37 -207.60,465.88 -203.29,465.88C-198.98,465.88 -195.48,469.37 -195.48,473.68Z" fill="#ff0200"/>
    <path d="M-117.12,473.68C-117.12,476.37 -119.29,478.54 -121.97,478.54C-124.66,478.54 -126.83,476.37 -126.83,473.68C-126.83,471.00 -124.66,468.83 -121.97,468.83C-119.29,468.83 -117.12,471.00 -117.12,473.68Z" fill="#ffb900"/>
    <path d="M-32.85,473.68C-32.85,477.99 -36.35,481.49 -40.66,481.49C-44.97,481.49 -48.46,477.99 -48.46,473.68C-48.46,469.37 -44.97,465.88 -40.66,465.88C-36.35,465.88 -32.85,469.37 -32.85,473.68Z" fill="#bfff00"/>
    <path d="M45.51,473.68C45.51,476.37 43.34,478.54 40.66,478.54C37.98,478.54 35.80,476.37 35.80,473.68C35.80,471.00 37.98,468.83 40.66,468.83C43.34,468.83 45.51,471.00 45.51,473.68Z" fill="#00ff29"/>
    <path d="M129.78,473.68C129.78,477.99 126.28,481.49 121.97,481.49C117.66,481.49 114.17,477.99 114.17,473.68C114.17,469.37 117.66,465.88 121.97,465.88C126.28,465.88 129.78,469.37 129.78,473.68Z" fill="#ffa600"/>
    <path d="M208.15,473.68C208.15,476.37 205.97,478.54 203.29,478.54C200.61,478.54 198.43,476.37 198.43,473.68C198.43,471.00 200.61,468.83 203.29,468.83C205.97,468.83 208.15,471.00 208.15,473.68Z" fill="#00ff0f"/>
    <path d="M292.41,473.68C292.41,477.99 288.92,481.49 284.61,481.49C280.29,481.49 276.80,477.99 276.80,473.68C276.80,469.37 280.29,465.88 284.61,465.88C288.92,465.88 292.41,469.37 292.41,473.68Z" fill="#90ff00"/>
    <path d="M370.78,473.68C370.78,476.37 368.60,478.54 365.92,478.54C363.24,478.54 361.06,476.37 361.06,473.68C361.06,471.00 363.24,468.83 365.92,468.83C368.60,468.83 370.78,471.00 370.78,473.68Z" fill="#00ff23"/>
    <path d="M455.04,473.68C455.04,477.99 451.55,481.49 447.24,481.49C442.93,481.49 439.43,477.99 439.43,473.68C439.43,469.37 442.93,465.88 447.24,465.88C451.55,465.88 455.04,469.37 455.04,473.68Z" fill="#ff1b00"/>
    <path d="M533.41,473.68C533.41,476.37 531.23,478.54 528.55,478.54C525.87,478.54 523.70,476.37 523.70,473.68C523.70,471.00 525.87,468.83 528.55,468.83C531.23,468.83 533.41,471.00 533.41,473.68Z" fill="#7aff00"/>
    <path d="M617.67,473.68C617.67,477.99 614.18,481.49 609.87,481.49C605.56,481.49 602.06,477.99 602.06,473.68C602.06,469.37 605.56,465.88 609.87,465.88C614.18,465.88 617.67,469.37 617.67,473.68Z" fill="#d4ff00"/>
    <path d="M696.04,473.68C696.04,476.37 693.87,478.54 691.18,478.54C688.50,478.54 686.33,476.37 686.33,473.68C686.33,471.00 688.50,468.83 691.18,468.83C693.87,468.83 696.04,471.00 696.04,473.68Z" fill="#ceff00"/>
    <path d="M780.30,473.68C780.30,477.99 776.81,481.49 772.50,481.49C768.19,481.49 764.70,477.99 764.70,473.68C764.70,469.37 768.19,465.88 772.50,465.88C776.81,465.88 780.30,469.37 780.30,473.68Z" fill="#c6ff00"/>
    <path d="M-767.64,578.95C-767.64,581.63 -769.82,583.80 -772.50,583.80C-775.18,583.80 -777.36,581.63 -777.36,578.95C-777.36,576.27 -775.18,574.09 -772.50,574.09C-769.82,574.09 -767.64,576.27 -767.64,578.95Z" fill="#47ff00"/>
    <path d="M-683.38,578.95C-683.38,583.26 -686.87,586.75 -691.18,586.75C-695.49,586.75 -698.99,583.26 -698.99,578.95C-698.99,574.64 -695.49,571.14 -691.18,571.14C-686.87,571.14 -683.38,574.64 -683.38,578.95Z" fill="#ff9000"/>
    <path d="M-605.01,578.95C-605.01,581.63 -607.19,583.80 -609.87,583.80C-612.55,583.80 -614.73,581.63 -614.73,578.95C-614.73,576.27 -612.55,574.09 -609.87,574.09C-607.19,574.09 -605.01,576.27 -605.01,578.95Z" fill="#80ff00"/>
    <path d="M-520.75,578.95C-520.75,583.26 -524.24,586.75 -528.55,586.75C-532.86,586.75 -536.36,583.26 -536.36,578.95C-536.36,574.64 -532.86,571.14 -528.55,571.14C-524.24,571.14 -520.75,574.64 -520.75,578.95Z" fill="#b4ff00"/>
    <path d="M-442.38,578.95C-442.38,581.63 -444.55,583.80 -447.24,583.80C-449.92,583.80 -452.09,581.63 -452.09,578.95C-452.09,576.27 -449.92,574.09 -447.24,574.09C-444.55,574.09 -442.38,576.27 -442.38,578.95Z" fill="#97ff00"/>
    <path d="M-358.12,578.95C-358.12,583.26 -361.61,586.75 -365.92,586.75C-370.23,586.75 -373.73,583.26 -373.73,578.95C-373.73,574.64 -370.23,571.14 -365.92,571.14C-361.61,571.14 -358.12,574.64 -358.12,578.95Z" fill="#ffc800"/>
    <path d="M-279.75,578.95C-279.75,581.63 -281.92,583.80 -284.61,583.80C-287.29,583.80 -289.46,581.63 -289.46,578.95C-289.46,576.27 -287.29,574.09 -284.61,574.09C-281.92,574.09 -279.75,576.27 -279.75,578.95Z" fill="#ffe700"/>
    <path d="M-195.48,578.95C-195.48,583.26 -198.98,586.75 -203.29,586.75C-207.60,586.75 -211.09,583.26 -211.09,578.95C-211.09,574.64 -207.60,571.14 -203.29,571.14C-198.98,571.14 -195.48,574.64 -195.48,578.95Z" fill="#00ff51"/>
    <path d="M-117.12,578.95C-117.12,581.63 -119.29,583.80 -121.97,583.80C-124.66,583.80 -126.83,581.63 -126.83,578.95C-126.83,576.27 -124.66,574.09 -121.97,574.09C-119.29,574.09 -117.12,576.27 -117.12,578.95Z" fill="#00ff12"/>
    <path d="M-32.85,578.95C-32.85,583.26 -36.35,586.75 -40.66,586.75C-44.97,586.75 -48.46,583.26 -48.46,578.95C-48.46,574.64 -44.97,571.14 -40.66,571.14C-36.35,571.14 -32.85,574.64 -32.85,578.95Z" fill="#00ff37"/>
    <path d="M45.51,578.95C45.51,581.63 43.34,583.80 40.66,583.80C37.98,583.80 35.80,581.63 35.80,578.95C35.80,576.27 37.98,574.09 40.66,574.09C43.34,574.09 45.51,576.27 45.51,578.95Z" fill="#ffa500"/>
    <path d="M129.78,578.95C129.78,583.26 126.28,586.75 121.97,586.75C117.66,586.75 114.17,583.26 114.17,578.95C114.17,574.64 117.66,571.14 121.97,571.14C126.28,571.14 129.78,574.64 129.78,578.95Z" fill="#ff4d00"/>
    <path d="M208.15,578.95C208.15,581.63 205.97,583.80 203.29,583.80C200.61,583.80 198.43,581.63 198.43,578.95C198.43,576.27 200.61,574.09 203.29,574.09C205.97,574.09 208.15,576.27 208.15,578.95Z" fill="#ff5800"/>
    <path d="M292.41,578.95C292.41,583.26 288.92,586.75 284.61,586.75C280.29,586.75 276.80,583.26 276.80,578.95C276.80,574.64 280.29,571.14 284.61,571.14C288.92,571.14 292.41,574.64 292.41,578.95Z" fill="#ff0e00"/>
    <path d="M370.78,578.95C370.78,581.63 368.60,583.80 365.92,583.80C363.24,583.80 361.06,581.63 361.06,578.95C361.06,576.27 363.24,574.09 365.92,574.09C368.60,574.09 370.78,576.27 370.78,578.95Z" fill="#b6ff00"/>
    <path d="M455.04,578.95C455.04,583.26 451.55,586.75 447.24,586.75C442.93,586.75 439.43,583.26 439.43,578.95C439.43,574.64 442.93,571.14 447.24,571.14C451.55,571.14 455.04,574.64 455.04,578.95Z" fill="#00ff45"/>
    <path d="M533.41,578.95C533.41,581.63 531.23,583.80 528.55,583.80C525.87,583.80 523.70,581.63 523.70,578.95C523.70,576.27 525.87,574.09 528.55,574.09C531.23,574.09 533.41,576.27 533.41,578.95Z" fill="#ff3f00"/>
    <path d="M617.67,578.95C617.67,583.26 614.18,586.75 609.87,586.75C605.56,586.75 602.06,583.26 602.06,578.95C602.06,574.64 605.56,571.14 609.87,571.14C614.18,571.14 617.67,574.64 617.67,578.95Z" fill="#87ff00"/>
    <path d="M696.04,578.95C696.04,581.63 693.87,583.80 691.18,583.80C688.50,583.80 686.33,581.63 686.33,578.95C686.33,576.27 688.50,574.09 691.18,574.09C693.87,574.09 696.04,576.27 696.04,578.95Z" fill="#fff600"/>
    <path d="M780.30,578.95C780.30,583.26 776.81,586.75 772.50,586.75C768.19,586.75 764.70,583.26 764.70,578.95C764.70,574.64 768.19,571.14 772.50,571.14C776.81,571.14 780.30,574.64 780.30,578.95Z" fill="#2cff00"/>
    <path d="M-767.64,684.21C-767.64,686.89 -769.82,689.07 -772.50,689.07C-775.18,689.07 -777.36,686.89 -777.36,684.21C-777.36,681.53 -775.18,679.35 -772.50,679.35C-769.82,679.35 -767.64,681.53 -767.64,684.21Z" fill="#00ff54"/>
    <path d="M-683.38,684.21C-683.38,688.52 -686.87,692.02 -691.18,692.02C-695.49,692.02 -698.99,688.52 -698.99,684.21C-698.99,679.90 -695.49,676.41 -691.18,676.41C-686.87,676.41 -683.38,679.90 -683.38,684.21Z" fill="#daff00"/>
    <path d="M-605.01,684.21C-605.01,686.89 -607.19,689.07 -609.87,689.07C-612.55,689.07 -614.73,686.89 -614.73,684.21C-614.73,681.53 -612.55,679.35 -609.87,679.35C-607.19,679.35 -605.01,681.53 -605.01,684.21Z" fill="#3eff00"/>
    <path d="M-520.75,684.21C-520.75,688.52 -524.24,692.02 -528.55,692.02C-532.86,692.02 -536.36,688.52 -536.36,684.21C-536.36,679.90 -532.86,676.41 -528.55,676.41C-524.24,676.41 -520.75,679.90 -520.75,684.21Z" fill="#46ff00"/>
    <path d="M-442.38,684.21C-442.38,686.89 -444.55,689.07 -447.24,689.07C-449.92,689.07 -452.09,686.89 -452.09,684.21C-452.09,681.53 -449.92,679.35 -447.24,679.35C-444.55,679.35 -442.38,681.53 -442.38,684.21Z" fill="#14ff00"/>
    <path d="M-358.12,684.21C-358.12,688.52 -361.61,692.02 -365.92,692.02C-370.23,692.02 -373.73,688.52 -373.73,684.21C-373.73,679.90 -370.23,676.41 -365.92,676.41C-361.61,676.41 -358.12,679.90 -358.12,684.21Z" fill="#07ff00"/>
    <path d="M-279.75,684.21C-279.75,686.89 -281.92,689.07 -284.61,689.07C-287.29,689.07 -289.46,686.89 -289.46,684.21C-289.46,681.53 -287.29,679.35 -284.61,679.35C-281.92,679.35 -279.75,681.53 -279.75,684.21Z" fill="#c2ff00"/>
    <path d="M-195.48,684.21C-195.48,688.52 -198.98,692.02 -203.29,692.02C-207.60,692.02 -211.09,688.52 -211.09,684.21C-211.09,679.90 -207.60,676.41 -203.29,676.41C-198.98,676.41 -195.48,679.90 -195.48,684.21Z" fill="#00ff1e"/>
    <path d="M-117.12,684.21C-117.12,686.89 -119.29,689.07 -121.97,689.07C-124.66,689.07 -126.83,686.89 -126.83,684.21C-126.83,681.53 -124.66,679.35 -121.97,679.35C-119.29,679.35 -117.12,681.53 -117.12,684.21Z" fill="#ff5000"/>
    <path d="M-32.85,684.21C-32.85,688.52 -36.35,692.02 -40.66,692.02C-44.97,692.02 -48.46,688.52 -48.46,684.21C-48.46,679.90 -44.97,676.41 -40.66,676.41C-36.35,676.41 -32.85,679.90 -32.85,684.21Z" fill="#ff3200"/>
    <path d="M45.51,684.21C45.51,686.89 43.34,689.07 40.66,689.07C37.98,689.07 35.80,686.89 35.80,684.21C35.80,681.53 37.98,679.35 40.66,679.35C43.34,679.35 45.51,681.53 45.51,684.21Z" fill="#00ff4d"/>
    <path d="M129.78,684.21C129.78,688.52 126.28,692.02 121.97,692.02C117.66,692.02 114.17,688.52 114.17,684.21C114.17,679.90 117.66,676.41 121.97,676.41C126.28,676.41 129.78,679.90 129.78,684.21Z" fill="#4dff00"/>
    <path d="M208.15,684.21C208.15,686.89 205.97,689.07 203.29,689.07C200.61,689.07 198.43,686.89 198.43,684.21C198.43,681.53 200.61,679.35 203.29,679.35C205.97,679.35 208.15,681.53 208.15,684.21Z" fill="#51ff00"/>
    <path d="M292.41,684.21C292.41,688.52 288.92,692.02 284.61,692.02C280.29,692.02 276.80,688.52 276.80,684.21C276.80,679.90 280.29,676.41 284.61,676.41C288.92,676.41 292.41,679.90 292.41,684.21Z" fill="#ff5600"/>
    <path d="M370.78,684.21C370.78,686.89 368.60,689.07 365.92,689.07C363.24,689.07 361.06,686.89 361.06,684.21C361.06,681.53 363.24,679.35 365.92,679.35C368.60,679.35 370.78,681.53 370.78,684.21Z" fill="#e8ff00"/>
    <path d="M455.04,684.21C455.04,688.52 451.55,692.02 447.24,692.02C442.93,692.02 439.43,688.52 439.43,684.21C439.43,679.90 442.93,676.41 447.24,676.41C451.55,676.41 455.04,679.90 455.04,684.21Z" fill="#ff0300"/>
    <path d="M533.41,684.21C533.41,686.89 531.23,689.07 528.55,689.07C525.87,689.07 523.70,686.89 523.70,684.21C523.70,681.53 525.87,679.35 528.55,679.35C531.23,679.35 533.41,681.53 533.41,684.21Z" fill="#ff2b00"/>
    <path d="M617.67,684.21C617.67,688.52 614.18,692.02 609.87,692.02C605.56,692.02 602.06,688.52 602.06,684.21C602.06,679.90 605.56,676.41 609.87,676.41C614.18,676.41 617.67,679.90 617.67,684.21Z" fill="#ffd100"/>
    <path d="M696.04,684.21C696.04,686.89 693.87,689.07 691.18,689.07C688.50,689.07 686.33,686.89 686.33,684.21C686.33,681.53 688.50,679.35 691.18,679.35C693.87,679.35 696.04,681.53 696.04,684.21Z" fill="#ffcb00"/>
    <path d="M780.30,684.21C780.30,688.52 776.81,692.02 772.50,692.02C768.19,692.02 764.70,688.52 764.70,684.21C764.70,679.90 768.19,676.41 772.50,676.41C776.81,676.41 780.30,679.90 780.30,684.21Z" fill="#00ff06"/>
    <path d="M-767.64,789.47C-767.64,792.16 -769.82,794.33 -772.50,794.33C-775.18,794.33 -777.36,792.16 -777.36,789.47C-777.36,786.79 -775.18,784.62 -772.50,784.62C-769.82,784.62 -767.64,786.79 -767.64,789.47Z" fill="#00ff49"/>
    <path d="M-683.38,789.47C-683.38,793.78 -686.87,797.28 -691.18,797.28C-695.49,797.28 -698.99,793.78 -698.99,789.47C-698.99,785.16 -695.49,781.67 -691.18,781.67C-686.87,781.67 -683.38,785.16 -683.38,789.47Z" fill="#00ff09"/>
    <path d="M-605.01,789.47C-605.01,792.16 -607.19,794.33 -609.87,794.33C-612.55,794.33 -614.73,792.16 -614.73,789.47C-614.73,786.79 -612.55,784.62 -609.87,784.62C-607.19,784.62 -605.01,786.79 -605.01,789.47Z" fill="#8eff00"/>
    <path d="M-520.75,789.47C-520.75,793.78 -524.24,797.28 -528.55,797.28C-532.86,797.28 -536.36,793.78 -536.36,789.47C-536.36,785.16 -532.86,781.67 -528.55,781.67C-524.24,781.67 -520.75,785.16 -520.75,789.47Z" fill="#ff6b00"/>
    <path d="M-442.38,789.47C-442.38,792.16 -444.55,794.33 -447.24,794.33C-449.92,794.33 -452.09,792.16 -452.09,789.47C-452.09,786.79 -449.92,784.62 -447.24,784.62C-444.55,784.62 -442.38,786.79 -442.38,789.47Z" fill="#ff8300"/>
    <path d="M-358.12,789.47C-358.12,793.78 -361.61,797.28 -365.92,797.28C-370.23,797.28 -373.73,793.78 -373.73,789.47C-373.73,785.16 -370.23,781.67 -365.92,781.67C-361.61,781.67 -358.12,785.16 -358.12,789.47Z" fill="#00ff03"/>
    <path d="M-279.75,789.47C-279.75,792.16 -281.92,794.33 -284.61,794.33C-287.29,794.33 -289.46,792.16 -289.46,789.47C-289.46,786.79 -287.29,784.62 -284.61,784.62C-281.92,784.62 -279.75,786.79 -279.75,789.47Z" fill="#ff0600"/>
    <path d="M-195.48,789.47C-195.48,793.78 -198.98,797.28 -203.29,797.28C-207.60,797.28 -211.09,793.78 -211.09,789.47C-211.09,785.16 -207.60,781.67 -203.29,781.67C-198.98,781.67 -195.48,785.16 -195.48,789.47Z" fill="#5fff00"/>
    <path d="M-117.12,789.47C-117.12,792.16 -119.29,794.33 -121.97,794.33C-124.66,794.33 -126.83,792.16 -126.83,789.47C-126.83,786.79 -124.66,784.62 -121.97,784.62C-119.29,784.62 -117.12,786.79 -117.12,789.47Z" fill="#2fff00"/>
    <path d="M-32.85,789.47C-32.85,793.78 -36.35,797.28 -40.66,797.28C-44.97,797.28 -48.46,793.78 -48.46,789.47C-48.46,785.16 -44.97,781.67 -40.66,781.67C-36.35,781.67 -32.85,785.16 -32.85,789.47Z" fill="#52ff00"/>
    <path d="M45.51,789.47C45.51,792.16 43.34,794.33 40.66,794.33C37.98,794.33 35.80,792.16 35.80,789.47C35.80,786.79 37.98,784.62 40.66,784.62C43.34,784.62 45.51,786.79 45.51,789.47Z" fill="#ff7f00"/>
    <path d="M129.78,789.47C129.78,793.78 126.28,797.28 121.97,797.28C117.66,797.28 114.17,793.78 114.17,789.47C114.17,785.16 117.66,781.67 121.97,781.67C126.28,781.67 129.78,785.16 129.78,789.47Z" fill="#28ff00"/>
    <path d="M208.15,789.47C208.15,792.16 205.97,794.33 203.29,794.33C200.61,794.33 198.43,792.16 198.43,789.47C198.43,786.79 200.61,784.62 203.29,784.62C205.97,784.62 208.15,786.79 208.15,789.47Z" fill="#00ff39"/>
    <path d="M292.41,789.47C292.41,793.78 288.92,797.28 284.61,797.28C280.29,797.28 276.80,793.78 276.80,789.47C276.80,785.16 280.29,781.67 284.61,781.67C288.92,781.67 292.41,785.16 292.41,789.47Z" fill="#ff0900"/>
    <path d="M370.78,789.47C370.78,792.16 368.60,794.33 365.92,794.33C363.24,794.33 361.06,792.16 361.06,789.47C361.06,786.79 363.24,784.62 365.92,784.62C368.60,784.62 370.78,786.79 370.78,789.47Z" fill="#ffed00"/>
    <path d="M455.04,789.47C455.04,793.78 451.55,797.28 447.24,797.28C442.93,797.28 439.43,793.78 439.43,789.47C439.43,785.16 442.93,781.67 447.24,781.67C451.55,781.67 455.04,785.16 455.04,789.47Z" fill="#00ff02"/>
    <path d="M533.41,789.47C533.41,792.16 531.23,794.33 528.55,794.33C525.87,794.33 523.70,792.16 523.70,789.47C523.70,786.79 525.87,784.62 528.55,784.62C531.23,784.62 533.41,786.79 533.41,789.47Z" fill="#26ff00"/>
    <path d="M617.67,789.47C617.67,793.78 614.18,797.28 609.87,797.28C605.56,797.28 602.06,793.78 602.06,789.47C602.06,785.16 605.56,781.67 609.87,781.67C614.18,781.67 617.67,785.16 617.67,789.47Z" fill="#00ff56"/>
    <path d="M696.04,789.47C696.04,792.16 693.87,794.33 691.18,794.33C688.50,794.33 686.33,792.16 686.33,789.47C686.33,786.79 688.50,784.62 691.18,784.62C693.87,784.62 696.04,786.79 696.04,789.47Z" fill="#00ff14"/>
    <path d="M780.30,789.47C780.30,793.78 776.81,797.28 772.50,797.28C768.19,797.28 764.70,793.78 764.70,789.47C764.70,785.16 768.19,781.67 772.50,781.67C776.81,781.67 780.30,785.16 780.30,789.47Z" fill="#ff6600"/>
    <path d="M-767.64,894.74C-767.64,897.42 -769.82,899.59 -772.50,899.59C-775.18,899.59 -777.36,897.42 -777.36,894.74C-777.36,892.05 -775.18,889.88 -772.50,889.88C-769.82,889.88 -767.64,892.05 -767.64,894.74Z" fill="#00ff43"/>
    <path d="M-683.38,894.74C-683.38,899.05 -686.87,902.54 -691.18,902.54C-695.49,902.54 -698.99,899.05 -698.99,894.74C-698.99,890.43 -695.49,886.93 -691.18,886.93C-686.87,886.93 -683.38,890.43 -683.38,894.74Z" fill="#4bff00"/>
    <path d="M-605.01,894.74C-605.01,897.42 -607.19,899.59 -609.87,899.59C-612.55,899.59 -614.73,897.42 -614.73,894.74C-614.73,892.05 -612.55,889.88 -609.87,889.88C-607.19,889.88 -605.01,892.05 -605.01,894.74Z" fill="#68ff00"/>
    <path d="M-520.75,894.74C-520.75,899.05 -524.24,902.54 -528.55,902.54C-532.86,902.54 -536.36,899.05 -536.36,894.74C-536.36,890.43 -532.86,886.93 -528.55,886.93C-524.24,886.93 -520.75,890.43 -520.75,894.74Z" fill="#1bff00"/>
    <path d="M-442.38,894.74C-442.38,897.42 -444.55,899.59 -447.24,899.59C-449.92,899.59 -452.09,897.42 -452.09,894.74C-452.09,892.05 -449.92,889.88 -447.24,889.88C-444.55,889.88 -442.38,892.05 -442.38,894.74Z" fill="#f5ff00"/>
    <path d="M-358.12,894.74C-358.12,899.05 -361.61,902.54 -365.92,902.54C-370.23,902.54 -373.73,899.05 -373.73,894.74C-373.73,890.43 -370.23,886.93 -365.92,886.93C-361.61,886.93 -358.12,890.43 -358.12,894.74Z" fill="#e9ff00"/>
    <path d="M-279.75,894.74C-279.75,897.42 -281.92,899.59 -284.61,899.59C-287.29,899.59 -289.46,897.42 -289.46,894.74C-289.46,892.05 -287.29,889.88 -284.61,889.88C-281.92,889.88 -279.75,892.05 -279.75,894.74Z" fill="#00ff02"/>
    <path d="M-195.48,894.74C-195.48,899.05 -198.98,902.54 -203.29,902.54C-207.60,902.54 -211.09,899.05 -211.09,894.74C-211.09,890.43 -207.60,886.93 -203.29,886.93C-198.98,886.93 -195.48,890.43 -195.48,894.74Z" fill="#d1ff00"/>
    <path d="M-117.12,894.74C-117.12,897.42 -119.29,899.59 -121.97,899.59C-124.66,899.59 -126.83,897.42 -126.83,894.74C-126.83,892.05 -124.66,889.88 -121.97,889.88C-119.29,889.88 -117.12,892.05 -117.12,894.74Z" fill="#00ff55"/>
    <path d="M-32.85,894.74C-32.85,899.05 -36.35,902.54 -40.66,902.54C-44.97,902.54 -48.46,899.05 -48.46,894.74C-48.46,890.43 -44.97,886.93 -40.66,886.93C-36.35,886.93 -32.85,890.43 -32.85,894.74Z" fill="#00ff48"/>
    <path d="M45.51,894.74C45.51,897.42 43.34,899.59 40.66,899.59C37.98,899.59 35.80,897.42 35.80,894.74C35.80,892.05 37.98,889.88 40.66,889.88C43.34,889.88 45.51,892.05 45.51,894.74Z" fill="#ffd400"/>
    <path d="M129.78,894.74C129.78,899.05 126.28,902.54 121.97,902.54C117.66,902.54 114.17,899.05 114.17,894.74C114.17,890.43 117.66,886.93 121.97,886.93C126.28,886.93 129.78,890.43 129.78,894.74Z" fill="#ff1c00"/>
    <path d="M208.15,894.74C208.15,897.42 205.97,899.59 203.29,899.59C200.61,899.59 198.43,897.42 198.43,894.74C198.43,892.05 200.61,889.88 203.29,889.88C205.97,889.88 208.15,892.05 208.15,894.74Z" fill="#ff2b00"/>
    <path d="M292.41,894.74C292.41,899.05 288.92,902.54 284.61,902.54C280.29,902.54 276.80,899.05 276.80,894.74C276.80,890.43 280.29,886.93 284.61,886.93C288.92,886.93 292.41,890.43 292.41,894.74Z" fill="#ff1100"/>
    <path d="M370.78,894.74C370.78,897.42 368.60,899.59 365.92,899.59C363.24,899.59 361.06,897.42 361.06,894.74C361.06,892.05 363.24,889.88 365.92,889.88C368.60,889.88 370.78,892.05 370.78,894.74Z" fill="#dcff00"/>
    <path d="M455.04,894.74C455.04,899.05 451.55,902.54 447.24,902.54C442.93,902.54 439.43,899.05 439.43,894.74C439.43,890.43 442.93,886.93 447.24,886.93C451.55,886.93 455.04,890.43 455.04,894.74Z" fill="#00ff49"/>
    <path d="M533.41,894.74C533.41,897.42 531.23,899.59 528.55,899.59C525.87,899.59 523.70,897.42 523.70,894.74C523.70,892.05 525.87,889.88 528.55,889.88C531.23,889.88 533.41,892.05 533.41,894.74Z" fill="#00ff53"/>
    <path d="M617.67,894.74C617.67,899.05 614.18,902.54 609.87,902.54C605.56,902.54 602.06,899.05 602.06,894.74C602.06,890.43 605.56,886.93 609.87,886.93C614.18,886.93 617.67,890.43 617.67,894.74Z" fill="#32ff00"/>
    <path d="M696.04,894.74C696.04,897.42 693.87,899.59 691.18,899.59C688.50,899.59 686.33,897.42 686.33,894.74C686.33,892.05 688.50,889.88 691.18,889.88C693.87,889.88 696.04,892.05 696.04,894.74Z" fill="#d1ff00"/>
    <path d="M780.30,894.74C780.30,899.05 776.81,902.54 772.50,902.54C768.19,902.54 764.70,899.05 764.70,894.74C764.70,890.43 768.19,886.93 772.50,886.93C776.81,886.93 780.30,890.43 780.30,894.74Z" fill="#ff9900"/>
    <path d="M-767.64,1000.00C-767.64,1002.68 -769.82,1004.86 -772.50,1004.86C-775.18,1004.86 -777.36,1002.68 -777.36,1000.00C-777.36,997.32 -775.18,995.14 -772.50,995.14C-769.82,995.14 -767.64,997.32 -767.64,1000.00Z" fill="#ffb900"/>
    <path d="M-683.38,1000.00C-683.38,1004.31 -686.87,1007.80 -691.18,1007.80C-695.49,1007.80 -698.99,1004.31 -698.99,1000.00C-698.99,995.69 -695.49,992.20 -691.18,992.20C-686.87,992.20 -683.38,995.69 -683.38,1000.00Z" fill="#01ff00"/>
    <path d="M-605.01,1000.00C-605.01,1002.68 -607.19,1004.86 -609.87,1004.86C-612.55,1004.86 -614.73,1002.68 -614.73,1000.00C-614.73,997.32 -612.55,995.14 -609.87,995.14C-607.19,995.14 -605.01,997.32 -605.01,1000.00Z" fill="#ff1f00"/>
    <path d="M-520.75,1000.00C-520.75,1004.31 -524.24,1007.80 -528.55,1007.80C-532.86,1007.80 -536.36,1004.31 -536.36,1000.00C-536.36,995.69 -532.86,992.20 -528.55,992.20C-524.24,992.20 -520.75,995.69 -520.75,1000.00Z" fill="#ff0600"/>
    <path d="M-442.38,1000.00C-442.38,1002.68 -444.55,1004.86 -447.24,1004.86C-449.92,1004.86 -452.09,1002.68 -452.09,1000.00C-452.09,997.32 -449.92,995.14 -447.24,995.14C-444.55,995.14 -442.38,997.32 -442.38,1000.00Z" fill="#ffd400"/>
    <path d="M-358.12,1000.00C-358.12,1004.31 -361.61,1007.80 -365.92,1007.80C-370.23,1007.80 -373.73,1004.31 -373.73,1000.00C-373.73,995.69 -370.23,992.20 -365.92,992.20C-361.61,992.20 -358.12,995.69 -358.12,1000.00Z" fill="#ff3400"/>
    <path d="M-279.75,1000.00C-279.75,1002.68 -281.92,1004.86 -284.61,1004.86C-287.29,1004.86 -289.46,1002.68 -289.46,1000.00C-289.46,997.32 -287.29,995.14 -284.61,995.14C-281.92,995.14 -279.75,997.32 -279.75,1000.00Z" fill="#00ff00"/>
    <path d="M-195.48,1000.00C-195.48,1004.31 -198.98,1007.80 -203.29,1007.80C-207.60,1007.80 -211.09,1004.31 -211.09,1000.00C-211.09,995.69 -207.60,992.20 -203.29,992.20C-198.98,992.20 -195.48,995.69 -195.48,1000.00Z" fill="#ff0200"/>
    <path d="M-117.12,1000.00C-117.12,1002.68 -119.29,1004.86 -121.97,1004.86C-124.66,1004.86 -126.83,1002.68 -126.83,1000.00C-126.83,997.32 -124.66,995.14 -121.97,995.14C-119.29,995.14 -117.12,997.32 -117.12,1000.00Z" fill="#ffb900"/>
    <path d="M-32.85,1000.00C-32.85,1004.31 -36.35,1007.80 -40.66,1007.80C-44.97,1007.80 -48.46,1004.31 -48.46,1000.00C-48.46,995.69 -44.97,992.20 -40.66,992.20C-36.35,992.20 -32.85,995.69 -32.85,1000.00Z" fill="#bfff00"/>
    <path d="M45.51,1000.00C45.51,1002.68 43.34,1004.86 40.66,1004.86C37.98,1004.86 35.80,1002.68 35.80,1000.00C35.80,997.32 37.98,995.14 40.66,995.14C43.34,995.14 45.51,997.32 45.51,1000.00Z" fill="#00ff29"/>
    <path d="M129.78,1000.00C129.78,1004.31 126.28,1007.80 121.97,1007.80C117.66,1007.80 114.17,1004.31 114.17,1000.00C114.17,995.69 117.66,992.20 121.97,992.20C126.28,992.20 129.78,995.69 129.78,1000.00Z" fill="#ffa600"/>
    <path d="M208.15,1000.00C208.15,1002.68 205.97,1004.86 203.29,1004.86C200.61,1004.86 198.43,1002.68 198.43,1000.00C198.43,997.32 200.61,995.14 203.29,995.14C205.97,995.14 208.15,997.32 208.15,1000.00Z" fill="#00ff0f"/>
    <path d="M292.41,1000.00C292.41,1004.31 288.92,1007.80 284.61,1007.80C280.29,1007.80 276.80,1004.31 276.80,1000.00C276.80,995.69 280.29,992.20 284.61,992.20C288.92,992.20 292.41,995.69 292.41,1000.00Z" fill="#90ff00"/>
    <path d="M370.78,1000.00C370.78,1002.68 368.60,1004.86 365.92,1004.86C363.24,1004.86 361.06,1002.68 361.06,1000.00C361.06,997.32 363.24,995.14 365.92,995.14C368.60,995.14 370.78,997.32 370.78,1000.00Z" fill="#00ff23"/>
    <path d="M455.04,1000.00C455.04,1004.31 451.55,1007.80 447.24,1007.80C442.93,1007.80 439.43,1004.31 439.43,1000.00C439.43,995.69 442.93,992.20 447.24,992.20C451.55,992.20 455.04,995.69 455.04,1000.00Z" fill="#ff1b00"/>
    <path d="M533.41,1000.00C533.41,1002.68 531.23,1004.86 528.55,1004.86C525.87,1004.86 523.70,1002.68 523.70,1000.00C523.70,997.32 525.87,995.14 528.55,995.14C531.23,995.14 533.41,997.32 533.41,1000.00Z" fill="#7aff00"/>
    <path d="M617.67,1000.00C617.67,1004.31 614.18,1007.80 609.87,1007.80C605.56,1007.80 602.06,1004.31 602.06,1000.00C602.06,995.69 605.56,992.20 609.87,992.20C614.18,992.20 617.67,995.69 617.67,1000.00Z" fill="#d4ff00"/>
    <path d="M696.04,1000.00C696.04,1002.68 693.87,1004.86 691.18,1004.86C688.50,1004.86 686.33,1002.68 686.33,1000.00C686.33,997.32 688.50,995.14 691.18,995.14C693.87,995.14 696.04,997.32 696.04,1000.00Z" fill="#ceff00"/>
    <path d="M780.30,1000.00C780.30,1004.31 776.81,1007.80 772.50,1007.80C768.19,1007.80 764.70,1004.31 764.70,1000.00C764.70,995.69 768.19,992.20 772.50,992.20C776.81,992.20 780.30,995.69 780.30,1000.00Z" fill="#c6ff00"/>
</svg>