<?xml version="1.0"?>
<svg xmlns="http://www.w3.org/2000/svg" width="1000" height="1000" viewBox="-500 -500 1000 1000">
    <path d="M-767.64,-1000C-767.64,-997.32 -769.82,-995.14 -772.50,-995.14C-775.18,-995.14 -777.36,-997.32 -777.36,-1000C-777.36,-1002.68 -775.18,-1004.86 -772.50,-1004.86C-769.82,-1004.86 -767.64,-1002.68 -767.64,-1000Z" fill="#47ff00"/>
    <path d="M-683.38,-1000C-683.38,-995.69 -686.87,-992.20 -691.18,-992.20C-695.49,-992.20 -698.99,-995.69 -698.99,-1000C-698.99,-1004.31 -695.49,-1007.80 -691.18,-1007.80C-686.87,-1007.80 -683.38,-1004.31 -683.38,-1000Z" fill="#ff9000"/>
    <path d="M-605.59,-1000C-605.59,-997.63 -607.50,-995.72 -609.87,-995.72C-612.23,-995.72 -614.15,-997.63 -614.15,-1000C-614.15,-1002.37 -612.23,-1004.28 -609.87,-1004.28C-607.50,-1004.28 -605.59,-1002.37 -605.59,-1000Z" fill="#80ff00"/>
    <path d="M-523.70,-1000C-523.70,-997.32 -525.87,-995.14 -528.55,-995.14C-531.23,-995.14 -533.41,-997.32 -533.41,-1000C-533.41,-1002.68 -531.23,-1004.86 -528.55,-1004.86C-525.87,-1004.86 -523.70,-1002.68 -523.70,-1000Z" fill="#b4ff00"/>
    <path d="M-439.43,-1000C-439.43,-995.69 -442.93,-992.20 -447.24,-992.20C-451.55,-992.20 -455.04,-995.69 -455.04,-1000C-455.04,-1004.31 -451.55,-1007.80 -447.24,-1007.80C-442.93,-1007.80 -439.43,-1004.31 -439.43,-1000Z" fill="#97ff00"/>
    <path d="M-361.64,-1000C-361.64,-997.63 -363.56,-995.72 -365.92,-995.72C-368.29,-995.72 -370.20,-997.63 -370.20,-1000C-370.20,-1002.37 -368.29,-1004.28 -365.92,-1004.28C-363.56,-1004.28 -361.64,-1002.37 -361.64,-1000Z" fill="#ffc800"/>
    <path d="M-279.75,-1000C-279.75,-997.32 -281.92,-995.14 -284.61,-995.14C-287.29,-995.14 -289.46,-997.32 -289.46,-1000C-289.46,-1002.68 -287.29,-1004.86 -284.61,-1004.86C-281.92,-1004.86 -279.75,-1002.68 -279.75,-1000Z" fill="#ffe700"/>
    <path d="M-195.48,-1000C-195.48,-995.69 -198.98,-992.20 -203.29,-992.20C-207.60,-992.20 -211.09,-995.69 -211.09,-1000C-211.09,-1004.31 -207.60,-1007.80 -203.29,-1007.80C-198.98,-1007.80 -195.48,-1004.31 -195.48,-1000Z" fill="#00ff51"/>
    <path d="M-117.69,-1000C-117.69,-997.63 -119.61,-995.72 -121.97,-995.72C-124.34,-995.72 -126.26,-997.63 -126.26,-1000C-126.26,-1002.37 -124.34,-1004.28 -121.97,-1004.28C-119.61,-1004.28 -117.69,-1002.37 -117.69,-1000Z" fill="#00ff12"/>
    <path d="M-35.80,-1000C-35.80,-997.32 -37.98,-995.14 -40.66,-995.14C-43.34,-995.14 -45.51,-997.32 -45.51,-1000C-45.51,-1002.68 -43.34,-1004.86 -40.66,-1004.86C-37.98,-1004.86 -35.80,-1002.68 -35.80,-1000Z" fill="#00ff37"/>
    <path d="M48.46,-1000C48.46,-995.69 44.97,-992.20 40.66,-992.20C36.35,-992.20 32.85,-995.69 32.85,-1000C32.85,-1004.31 36.35,-1007.80 40.66,-1007.80C44.97,-1007.80 48.46,-1004.31 48.46,-1000Z" fill="#ffa500"/>
    <path d="M126.26,-1000C126.26,-997.63 124.34,-995.72 121.97,-995.72C119.61,-995.72 117.69,-997.63 117.69,-1000C117.69,-1002.37 119.61,-1004.28 121.97,-1004.28C124.34,-1004.28 126.26,-1002.37 126.26,-1000Z" fill="#ff4d00"/>
    <path d="M208.15,-1000C208.15,-997.32 205.97,-995.14 203.29,-995.14C200.61,-995.14 198.43,-997.32 198.43,-1000C198.43,-1002.68 200.61,-1004.86 203.29,-1004.86C205.97,-1004.86 208.15,-1002.68 208.15,-1000Z" fill="#ff5800"/>
    <path d="M292.41,-1000C292.41,-995.69 288.92,-992.20 284.61,-992.20C280.29,-992.20 276.80,-995.69 276.80,-1000C276.80,-1004.31 280.29,-1007.80 284.61,-1007.80C288.92,-1007.80 292.41,-1004.31 292.41,-1000Z" fill="#ff0e00"/>
    <path d="M370.20,-1000C370.20,-997.63 368.29,-995.72 365.92,-995.72C363.56,-995.72 361.64,-997.63 361.64,-1000C361.64,-1002.37 363.56,-1004.28 365.92,-1004.28C368.29,-1004.28 370.20,-1002.37 370.20,-1000Z" fill="#b6ff00"/>
    <path d="M452.09,-1000C452.09,-997.32 449.92,-995.14 447.24,-995.14C444.55,-995.14 442.38,-997.32 442.38,-1000C442.38,-1002.68 444.55,-1004.86 447.24,-1004.86C449.92,-1004.86 452.09,-1002.68 452.09,-1000Z" fill="#00ff45"/>
    <path d="M536.36,-1000C536.36,-995.69 532.86,-992.20 528.55,-992.20C524.24,-992.20 520.75,-995.69 520.75,-1000C520.75,-1004.31 524.24,-1007.80 528.55,-1007.80C532.86,-1007.80 536.36,-1004.31 536.36,-1000Z" fill="#ff3f00"/>
    <path d="M614.15,-1000C614.15,-997.63 612.23,-995.72 609.87,-995.72C607.50,-995.72 605.59,-997.63 605.59,-1000C605.59,-1002.37 607.50,-1004.28 609.87,-1004.28C612.23,-1004.28 614.15,-1002.37 614.15,-1000Z" fill="#87ff00"/>
    <path d="M696.04,-1000C696.04,-997.32 693.87,-995.14 691.18,-995.14C688.50,-995.14 686.33,-997.32 686.33,-1000C686.33,-1002.68 688.50,-1004.86 691.18,-1004.86C693.87,-1004.86 696.04,-1002.68 696.04,-1000Z" fill="#fff600"/>
    <path d="M780.30,-1000C780.30,-995.69 776.81,-992.20 772.50,-992.20C768.19,-992.20 764.70,-995.69 764.70,-1000C764.70,-1004.31 768.19,-1007.80 772.50,-1007.80C776.81,-1007.80 780.30,-1004.31 780.30,-1000Z" fill="#2cff00"/>
    <path d="M-768.22,-894.74C-768.22,-892.37 -770.13,-890.45 -772.50,-890.45C-774.87,-890.45 -776.78,-892.37 -776.78,-894.74C-776.78,-897.10 -774.87,-899.02 -772.50,-899.02C-770.13,-899.02 -768.22,-897.10 -768.22,-894.74Z" fill="#00ff54"/>
    <path d="M-686.33,-894.74C-686.33,-892.05 -688.50,-889.88 -691.18,-889.88C-693.87,-889.88 -696.04,-892.05 -696.04,-894.74C-696.04,-897.42 -693.87,-899.59 -691.18,-899.59C-688.50,-899.59 -686.33,-897.42 -686.33,-894.74Z" fill="#daff00"/>
    <path d="M-602.06,-894.74C-602.06,-890.43 -605.56,-886.93 -609.87,-886.93C-614.18,-886.93 -617.67,-890.43 -617.67,-894.74C-617.67,-899.05 -614.18,-902.54 -609.87,-902.54C-605.56,-902.54 -602.06,-899.05 -602.06,-894.74Z" fill="#3eff00"/>
    <path d="M-524.27,-894.74C-524.27,-892.37 -526.19,-890.45 -528.55,-890.45C-530.92,-890.45 -532.84,-892.37 -532.84,-894.74C-532.84,-897.10 -530.92,-899.02 -528.55,-899.02C-526.19,-899.02 -524.27,-897.10 -524.27,-894.74Z" fill="#46ff00"/>
    <path d="M-442.38,-894.74C-442.38,-892.05 -444.55,-889.88 -447.24,-889.88C-449.92,-889.88 -452.09,-892.05 -452.09,-894.74C-452.09,-897.42 -449.92,-899.59 -447.24,-899.59C-444.55,-899.59 -442.38,-897.42 -442.38,-894.74Z" fill="#14ff00"/>
    <path d="M-358.12,-894.74C-358.12,-890.43 -361.61,-886.93 -365.92,-886.93C-370.23,-886.93 -373.73,-890.43 -373.73,-894.74C-373.73,-899.05 -370.23,-902.54 -365.92,-902.54C-361.61,-902.54 -358.12,-899.05 -358.12,-894.74Z" fill="#07ff00"/>
    <path d="M-280.32,-894.74C-280.32,-892.37 -282.24,-890.45 -284.61,-890.45C-286.97,-890.45 -288.89,-892.37 -288.89,-894.74C-288.89,-897.10 -286.97,-899.02 -284.61,-899.02C-282.24,-899.02 -280.32,-897.10 -280.32,-894.74Z" fill="#c2ff00"/>
    <path d="M-198.43,-894.74C-198.43,-892.05 -200.61,-889.88 -203.29,-889.88C-205.97,-889.88 -208.15,-892.05 -208.15,-894.74C-208.15,-897.42 -205.97,-899.59 -203.29,-899.59C-200.61,-899.59 -198.43,-897.42 -198.43,-894.74Z" fill="#00ff1e"/>
    <path d="M-114.17,-894.74C-114.17,-890.43 -117.66,-886.93 -121.97,-886.93C-126.28,-886.93 -129.78,-890.43 -129.78,-894.74C-129.78,-899.05 -126.28,-902.54 -121.97,-902.54C-117.66,-902.54 -114.17,-899.05 -114.17,-894.74Z" fill="#ff5000"/>
    <path d="M-36.38,-894.74C-36.38,-892.37 -38.29,-890.45 -40.66,-890.45C-43.02,-890.45 -44.94,-892.37 -44.94,-894.74C-44.94,-897.10 -43.02,-899.02 -40.66,-899.02C-38.29,-899.02 -36.38,-897.10 -36.38,-894.74Z" fill="#ff3200"/>
    <path d="M45.51,-894.74C45.51,-892.05 43.34,-889.88 40.66,-889.88C37.98,-889.88 35.80,-892.05 35.80,-894.74C35.80,-897.42 37.98,-899.59 40.66,-899.59C43.34,-899.59 45.51,-897.42 45.51,-894.74Z" fill="#00ff4d"/>
    <path d="M129.78,-894.74C129.78,-890.43 126.28,-886.93 121.97,-886.93C117.66,-886.93 114.17,-890.43 114.17,-894.74C114.17,-899.05 117.66,-902.54 121.97,-902.54C126.28,-902.54 129.78,-899.05 129.78,-894.74Z" fill="#4dff00"/>
    <path d="M207.57,-894.74C207.57,-892.37 205.65,-890.45 203.29,-890.45C200.92,-890.45 199.01,-892.37 199.01,-894.74C199.01,-897.10 200.92,-899.02 203.29,-899.02C205.65,-899.02 207.57,-897.10 207.57,-894.74Z" fill="#51ff00"/>
    <path d="M289.46,-894.74C289.46,-892.05 287.29,-889.88 284.61,-889.88C281.92,-889.88 279.75,-892.05 279.75,-894.74C279.75,-897.42 281.92,-899.59 284.61,-899.59C287.29,-899.59 289.46,-897.42 289.46,-894.74Z" fill="#ff5600"/>
    <path d="M373.73,-894.74C373.73,-890.43 370.23,-886.93 365.92,-886.93C361.61,-886.93 358.12,-890.43 358.12,-894.74C358.12,-899.05 361.61,-902.54 365.92,-902.54C370.23,-902.54 373.73,-899.05 373.73,-894.74Z" fill="#e8ff00"/>
    <path d="M451.52,-894.74C451.52,-892.37 449.60,-890.45 447.24,-890.45C444.87,-890.45 442.95,-892.37 442.95,-894.74C442.95,-897.10 444.87,-899.02 447.24,-899.02C449.60,-899.02 451.52,-897.10 451.52,-894.74Z" fill="#ff0300"/>
    <path d="M533.41,-894.74C533.41,-892.05 531.23,-889.88 528.55,-889.88C525.87,-889.88 523.70,-892.05 523.70,-894.74C523.70,-897.42 525.87,-899.59 528.55,-899.59C531.23,-899.59 533.41,-897.42 533.41,-894.74Z" fill="#ff2b00"/>
    <path d="M617.67,-894.74C617.67,-890.43 614.18,-886.93 609.87,-886.93C605.56,-886.93 602.06,-890.43 602.06,-894.74C602.06,-899.05 605.56,-902.54 609.87,-902.54C614.18,-902.54 617.67,-899.05 617.67,-894.74Z" fill="#ffd100"/>
    <path d="M695.47,-894.74C695.47,-892.37 693.55,-890.45 691.18,-890.45C688.82,-890.45 686.90,-892.37 686.90,-894.74C686.90,-897.10 688.82,-899.02 691.18,-899.02C693.55,-899.02 695.47,-897.10 695.47,-894.74Z" fill="#ffcb00"/>
    <path d="M777.36,-894.74C777.36,-892.05 775.18,-889.88 772.50,-889.88C769.82,-889.88 767.64,-892.05 767.64,-894.74C767.64,-897.42 769.82,-899.59 772.50,-899.59C775.18,-899.59 777.36,-897.42 777.36,-894.74Z" fill="#00ff06"/>
    <path d="M-764.70,-789.47C-764.70,-785.16 -768.19,-781.67 -772.50,-781.67C-776.81,-781.67 -780.30,-785.16 -780.30,-789.47C-780.30,-793.78 -776.81,-797.28 -772.50,-797.28C-768.19,-797.28 -764.70,-793.78 -764.70,-789.47Z" fill="#00ff49"/>
    <path d="M-686.90,-789.47C-686.90,-787.11 -688.82,-785.19 -691.18,-785.19C-693.55,-785.19 -695.47,-787.11 -695.47,-789.47C-695.47,-791.84 -693.55,-793.76 -691.18,-793.76C-688.82,-793.76 -686.90,-791.84 -686.90,-789.47Z" fill="#00ff09"/>
    <path d="M-605.01,-789.47C-605.01,-786.79 -607.19,-784.62 -609.87,-784.62C-612.55,-784.62 -614.73,-786.79 -614.73,-789.47C-614.73,-792.16 -612.55,-794.33 -609.87,-794.33C-607.19,-794.33 -605.01,-792.16 -605.01,-789.47Z" fill="#8eff00"/>
    <path d="M-520.75,-789.47C-520.75,-785.16 -524.24,-781.67 -528.55,-781.67C-532.86,-781.67 -536.36,-785.16 -536.36,-789.47C-536.36,-793.78 -532.86,-797.28 -528.55,-797.28C-524.24,-797.28 -520.75,-793.78 -520.75,-789.47Z" fill="#ff6b00"/>
    <path d="M-442.95,-789.47C-442.95,-787.11 -444.87,-785.19 -447.24,-785.19C-449.60,-785.19 -451.52,-787.11 -451.52,-789.47C-451.52,-791.84 -449.60,-793.76 -447.24,-793.76C-444.87,-793.76 -442.95,-791.84 -442.95,-789.47Z" fill="#ff8300"/>
    <path d="M-361.06,-789.47C-361.06,-786.79 -363.24,-784.62 -365.92,-784.62C-368.60,-784.62 -370.78,-786.79 -370.78,-789.47C-370.78,-792.16 -368.60,-794.33 -365.92,-794.33C-363.24,-794.33 -361.06,-792.16 -361.06,-789.47Z" fill="#00ff03"/>
    <path d="M-276.80,-789.47C-276.80,-785.16 -280.29,-781.67 -284.61,-781.67C-288.92,-781.67 -292.41,-785.16 -292.41,-789.47C-292.41,-793.78 -288.92,-797.28 -284.61,-797.28C-280.29,-797.28 -276.80,-793.78 -276.80,-789.47Z" fill="#ff0600"/>
    <path d="M-199.01,-789.47C-199.01,-787.11 -200.92,-785.19 -203.29,-785.19C-205.65,-785.19 -207.57,-787.11 -207.57,-789.47C-207.57,-791.84 -205.65,-793.76 -203.29,-793.76C-200.92,-793.76 -199.01,-791.84 -199.01,-789.47Z" fill="#5fff00"/>
    <path d="M-117.12,-789.47C-117.12,-786.79 -119.29,-784.62 -121.97,-784.62C-124.66,-784.62 -126.83,-786.79 -126.83,-789.47C-126.83,-792.16 -124.66,-794.33 -121.97,-794.33C-119.29,-794.33 -117.12,-792.16 -117.12,-789.47Z" fill="#2fff00"/>
    <path d="M-32.85,-789.47C-32.85,-785.16 -36.35,-781.67 -40.66,-781.67C-44.97,-781.67 -48.46,-785.16 -48.46,-789.47C-48.46,-793.78 -44.97,-797.28 -40.66,-797.28C-36.35,-797.28 -32.85,-793.78 -32.85,-789.47Z" fill="#52ff00"/>
    <path d="M44.94,-789.47C44.94,-787.11 43.02,-785.19 40.66,-785.19C38.29,-785.19 36.38,-787.11 36.38,-789.47C36.38,-791.84 38.29,-793.76 40.66,-793.76C43.02,-793.76 44.94,-791.84 44.94,-789.47Z" fill="#ff7f00"/>
    <path d="M126.83,-789.47C126.83,-786.79 124.66,-784.62 121.97,-784.62C119.29,-784.62 117.12,-786.79 117.12,-789.47C117.12,-792.16 119.29,-794.33 121.97,-794.33C124.66,-794.33 126.83,-792.16 126.83,-789.47Z" fill="#28ff00"/>
    <path d="M211.09,-789.47C211.09,-785.16 207.60,-781.67 203.29,-781.67C198.98,-781.67 195.48,-785.16 195.48,-789.47C195.48,-793.78 198.98,-797.28 203.29,-797.28C207.60,-797.28 211.09,-793.78 211.09,-789.47Z" fill="#00ff39"/>
    <path d="M288.89,-789.47C288.89,-787.11 286.97,-785.19 284.61,-785.19C282.24,-785.19 280.32,-787.11 280.32,-789.47C280.32,-791.84 282.24,-793.76 284.61,-793.76C286.97,-793.76 288.89,-791.84 288.89,-789.47Z" fill="#ff0900"/>
    <path d="M370.78,-789.47C370.78,-786.79 368.60,-784.62 365.92,-784.62C363.24,-784.62 361.06,-786.79 361.06,-789.47C361.06,-792.16 363.24,-794.33 365.92,-794.33C368.60,-794.33 370.78,-792.16 370.78,-789.47Z" fill="#ffed00"/>
    <path d="M455.04,-789.47C455.04,-785.16 451.55,-781.67 447.24,-781.67C442.93,-781.67 439.43,-785.16 439.43,-789.47C439.43,-793.78 442.93,-797.28 447.24,-797.28C451.55,-797.28 455.04,-793.78 455.04,-789.47Z" fill="#00ff02"/>
    <path d="M532.84,-789.47C532.84,-787.11 530.92,-785.19 528.55,-785.19C526.19,-785.19 524.27,-787.11 524.27,-789.47C524.27,-791.84 526.19,-793.76 528.55,-793.76C530.92,-793.76 532.84,-791.84 532.84,-789.47Z" fill="#26ff00"/>
    <path d="M614.73,-789.47C614.73,-786.79 612.55,-784.62 609.87,-784.62C607.19,-784.62 605.01,-786.79 605.01,-789.47C605.01,-792.16 607.19,-794.33 609.87,-794.33C612.55,-794.33 614.73,-792.16 614.73,-789.47Z" fill="#00ff56"/>
    <path d="M698.99,-789.47C698.99,-785.16 695.49,-781.67 691.18,-781.67C686.87,-781.67 683.38,-785.16 683.38,-789.47C683.38,-793.78 686.87,-797.28 691.18,-797.28C695.49,-797.28 698.99,-793.78 698.99,-789.47Z" fill="#00ff14"/>
    <path d="M776.78,-789.47C776.78,-787.11 774.87,-785.19 772.50,-785.19C770.13,-785.19 768.22,-787.11 768.22,-789.47C768.22,-791.84 770.13,-793.76 772.50,-793.76C774.87,-793.76 776.78,-791.84 776.78,-789.47Z" fill="#ff6600"/>
    <path d="M-767.64,-684.21C-767.64,-681.53 -769.82,-679.35 -772.50,-679.35C-775.18,-679.35 -777.36,-681.53 -777.36,-684.21C-777.36,-686.89 -775.18,-689.07 -772.50,-689.07C-769.82,-689.07 -767.64,-686.89 -767.64,-684.21Z" fill="#00ff43"/>
    <path d="M-683.38,-684.21C-683.38,-679.90 -686.87,-676.41 -691.18,-676.41C-695.49,-676.41 -698.99,-679.90 -698.99,-684.21C-698.99,-688.52 -695.49,-692.02 -691.18,-692.02C-686.87,-692.02 -683.38,-688.52 -683.38,-684.21Z" fill="#4bff00"/>
    <path d="M-605.59,-684.21C-605.59,-681.85 -607.50,-679.93 -609.87,-679.93C-612.23,-679.93 -614.15,-681.85 -614.15,-684.21C-614.15,-686.58 -612.23,-688.49 -609.87,-688.49C-607.50,-688.49 -605.59,-686.58 -605.59,-684.21Z" fill="#68ff00"/>
    <path d="M-523.70,-684.21C-523.70,-681.53 -525.87,-679.35 -528.55,-679.35C-531.23,-679.35 -533.41,-681.53 -533.41,-684.21C-533.41,-686.89 -531.23,-689.07 -528.55,-689.07C-525.87,-689.07 -523.70,-686.89 -523.70,-684.21Z" fill="#1bff00"/>
    <path d="M-439.43,-684.21C-439.43,-679.90 -442.93,-676.41 -447.24,-676.41C-451.55,-676.41 -455.04,-679.90 -455.04,-684.21C-455.04,-688.52 -451.55,-692.02 -447.24,-692.02C-442.93,-692.02 -439.43,-688.52 -439.43,-684.21Z" fill="#f5ff00"/>
    <path d="M-361.64,-684.21C-361.64,-681.85 -363.56,-679.93 -365.92,-679.93C-368.29,-679.93 -370.20,-681.85 -370.20,-684.21C-370.20,-686.58 -368.29,-688.49 -365.92,-688.49C-363.56,-688.49 -361.64,-686.58 -361.64,-684.21Z" fill="#e9ff00"/>
    <path d="M-279.75,-684.21C-279.75,-681.53 -281.92,-679.35 -284.61,-679.35C-287.29,-679.35 -289.46,-681.53 -289.46,-684.21C-289.46,-686.89 -287.29,-689.07 -284.61,-689.07C-281.92,-689.07 -279.75,-686.89 -279.75,-684.21Z" fill="#00ff02"/>
    <path d="M-195.48,-684.21C-195.48,-679.90 -198.98,-676.41 -203.29,-676.41C-207.60,-676.41 -211.09,-679.90 -211.09,-684.21C-211.09,-688.52 -207.60,-692.02 -203.29,-692.02C-198.98,-692.02 -195.48,-688.52 -195.48,-684.21Z" fill="#d1ff00"/>
    <path d="M-117.69,-684.21C-117.69,-681.85 -119.61,-679.93 -121.97,-679.93C-124.34,-679.93 -126.26,-681.85 -126.26,-684.21C-126.26,-686.58 -124.34,-688.49 -121.97,-688.49C-119.61,-688.49 -117.69,-686.58 -117.69,-684.21Z" fill="#00ff55"/>
    <path d="M-35.80,-684.21C-35.80,-681.53 -37.98,-679.35 -40.66,-679.35C-43.34,-679.35 -45.51,-681.53 -45.51,-684.21C-45.51,-686.89 -43.34,-689.07 -40.66,-689.07C-37.98,-689.07 -35.80,-686.89 -35.80,-684.21Z" fill="#00ff48"/>
    <path d="M48.46,-684.21C48.46,-679.90 44.97,-676.41 40.66,-676.41C36.35,-676.41 32.85,-679.90 32.85,-684.21C32.85,-688.52 36.35,-692.02 40.66,-692.02C44.97,-692.02 48.46,-688.52 48.46,-684.21Z" fill="#ffd400"/>
    <path d="M126.26,-684.21C126.26,-681.85 124.34,-679.93 121.97,-679.93C119.61,-679.93 117.69,-681.85 117.69,-684.21C117.69,-686.58 119.61,-688.49 121.97,-688.49C124.34,-688.49 126.26,-686.58 126.26,-684.21Z" fill="#ff1c00"/>
    <path d="M208.15,-684.21C208.15,-681.53 205.97,-679.35 203.29,-679.35C200.61,-679.35 198.43,-681.53 198.43,-684.21C198.43,-686.89 200.61,-689.07 203.29,-689.07C205.97,-689.07 208.15,-686.89 208.15,-684.21Z" fill="#ff2b00"/>
    <path d="M292.41,-684.21C292.41,-679.90 288.92,-676.41 284.61,-676.41C280.29,-676.41 276.80,-679.90 276.80,-684.21C276.80,-688.52 280.29,-692.02 284.61,-692.02C288.92,-692.02 292.41,-688.52 292.41,-684.21Z" fill="#ff1100"/>
    <path d="M370.20,-684.21C370.20,-681.85 368.29,-679.93 365.92,-679.93C363.56,-679.93 361.64,-681.85 361.64,-684.21C361.64,-686.58 363.56,-688.49 365.92,-688.49C368.29,-688.49 370.20,-686.58 370.20,-684.21Z" fill="#dcff00"/>
    <path d="M452.09,-684.21C452.09,-681.53 449.92,-679.35 447.24,-679.35C444.55,-679.35 442.38,-681.53 442.38,-684.21C442.38,-686.89 444.55,-689.07 447.24,-689.07C449.92,-689.07 452.09,-686.89 452.09,-684.21Z" fill="#00ff49"/>
    <path d="M536.36,-684.21C536.36,-679.90 532.86,-676.41 528.55,-676.41C524.24,-676.41 520.75,-679.90 520.75,-684.21C520.75,-688.52 524.24,-692.02 528.55,-692.02C532.86,-692.02 536.36,-688.52 536.36,-684.21Z" fill="#00ff53"/>
    <path d="M614.15,-684.21C614.15,-681.85 612.23,-679.93 609.87,-679.93C607.50,-679.93 605.59,-681.85 605.59,-684.21C605.59,-686.58 607.50,-688.49 609.87,-688.49C612.23,-688.49 614.15,-686.58 614.15,-684.21Z" fill="#32ff00"/>
    <path d="M696.04,-684.21C696.04,-681.53 693.87,-679.35 691.18,-679.35C688.50,-679.35 686.33,-681.53 686.33,-684.21C686.33,-686.89 688.50,-689.07 691.18,-689.07C693.87,-689.07 696.04,-686.89 696.04,-684.21Z" fill="#d1ff00"/>
    <path d="M780.30,-684.21C780.30,-679.90 776.81,-676.41 772.50,-676.41C768.19,-676.41 764.70,-679.90 764.70,-684.21C764.70,-688.52 768.19,-692.02 772.50,-692.02C776.81,-692.02 780.30,-688.52 780.30,-684.21Z" fill="#ff9900"/>
    <path d="M-768.22,-578.95C-768.22,-576.58 -770.13,-574.66 -772.50,-574.66C-774.87,-574.66 -776.78,-576.58 -776.78,-578.95C-776.78,-581.31 -774.87,-583.23 -772.50,-583.23C-770.13,-583.23 -768.22,-581.31 -768.22,-578.95Z" fill="#ffb900"/>
    <path d="M-686.33,-578.95C-686.33,-576.27 -688.50,-574.09 -691.18,-574.09C-693.87,-574.09 -696.04,-576.27 -696.04,-578.95C-696.04,-581.63 -693.87,-583.80 -691.18,-583.80C-688.50,-583.80 -686.33,-581.63 -686.33,-578.95Z" fill="#01ff00"/>
    <path d="M-602.06,-578.95C-602.06,-574.64 -605.56,-571.14 -609.87,-571.14C-614.18,-571.14 -617.67,-574.64 -617.67,-578.95C-617.67,-583.26 -614.18,-586.75 -609.87,-586.75C-605.56,-586.75 -602.06,-583.26 -602.06,-578.95Z" fill="#ff1f00"/>
    <path d="M-524.27,-578.95C-524.27,-576.58 -526.19,-574.66 -528.55,-574.66C-530.92,-574.66 -532.84,-576.58 -532.84,-578.95C-532.84,-581.31 -530.92,-583.23 -528.55,-583.23C-526.19,-583.23 -524.27,-581.31 -524.27,-578.95Z" fill="#ff0600"/>
    <path d="M-442.38,-578.95C-442.38,-576.27 -444.55,-574.09 -447.24,-574.09C-449.92,-574.09 -452.09,-576.27 -452.09,-578.95C-452.09,-581.63 -449.92,-583.80 -447.24,-583.80C-444.55,-583.80 -442.38,-581.63 -442.38,-578.95Z" fill="#ffd400"/>
    <path d="M-358.12,-578.95C-358.12,-574.64 -361.61,-571.14 -365.92,-571.14C-370.23,-571.14 -373.73,-574.64 -373.73,-578.95C-373.73,-583.26 -370.23,-586.75 -365.92,-586.75C-361.61,-586.75 -358.12,-583.26 -358.12,-578.95Z" fill="#ff3400"/>
    <path d="M-280.32,-578.95C-280.32,-576.58 -282.24,-574.66 -284.61,-574.66C-286.97,-574.66 -288.89,-576.58 -288.89,-578.95C-288.89,-581.31 -286.97,-583.23 -284.61,-583.23C-282.24,-583.23 -280.32,-581.31 -280.32,-578.95Z" fill="#00ff00"/>
    <path d="M-198.43,-578.95C-198.43,-576.27 -200.61,-574.09 -203.29,-574.09C-205.97,-574.09 -208.15,-576.27 -208.15,-578.95C-208.15,-581.63 -205.97,-583.80 -203.29,-583.80C-200.61,-583.80 -198.43,-581.63 -198.43,-578.95Z" fill="#ff0200"/>
    <path d="M-114.17,-578.95C-114.17,-574.64 -117.66,-571.14 -121.97,-571.14C-126.28,-571.14 -129.78,-574.64 -129.78,-578.95C-129.78,-583.26 -126.28,-586.75 -121.97,-586.75C-117.66,-586.75 -114.17,-583.26 -114.17,-578.95Z" fill="#ffb900"/>
    <path d="M-36.38,-578.95C-36.38,-576.58 -38.29,-574.66 -40.66,-574.66C-43.02,-574.66 -44.94,-576.58 -44.94,-578.95C-44.94,-581.31 -43.02,-583.23 -40.66,-583.23C-38.29,-583.23 -36.38,-581.31 -36.38,-578.95Z" fill="#bfff00"/>
    <path d="M45.51,-578.95C45.51,-576.27 43.34,-574.09 40.66,-574.09C37.98,-574.09 35.80,-576.27 35.80,-578.95C35.80,-581.63 37.98,-583.80 40.66,-583.80C43.34,-583.80 45.51,-581.63 45.51,-578.95Z" fill="#00ff29"/>
    <path d="M129.78,-578.95C129.78,-574.64 126.28,-571.14 121.97,-571.14C117.66,-571.14 114.17,-574.64 114.17,-578.95C114.17,-583.26 117.66,-586.75 121.97,-586.75C126.28,-586.75 129.78,-583.26 129.78,-578.95Z" fill="#ffa600"/>
    <path d="M207.57,-578.95C207.57,-576.58 205.65,-574.66 203.29,-574.66C200.92,-574.66 199.01,-576.58 199.01,-578.95C199.01,-581.31 200.92,-583.23 203.29,-583.23C205.65,-583.23 207.57,-581.31 207.57,-578.95Z" fill="#00ff0f"/>
    <path d="M289.46,-578.95C289.46,-576.27 287.29,-574.09 284.61,-574.09C281.92,-574.09 279.75,-576.27 279.75,-578.95C279.75,-581.63 281.92,-583.80 284.61,-583.80C287.29,-583.80 289.46,-581.63 289.46,-578.95Z" fill="#90ff00"/>
    <path d="M373.73,-578.95C373.73,-574.64 370.23,-571.14 365.92,-571.14C361.61,-571.14 358.12,-574.64 358.12,-578.95C358.12,-583.26 361.61,-586.75 365.92,-586.75C370.23,-586.75 373.73,-583.26 373.73,-578.95Z" fill="#00ff23"/>
    <path d="M451.52,-578.95C451.52,-576.58 449.60,-574.66 447.24,-574.66C444.87,-574.66 442.95,-576.58 442.95,-578.95C442.95,-581.31 444.87,-583.23 447.24,-583.23C449.60,-583.23 451.52,-581.31 451.52,-578.95Z" fill="#ff1b00"/>
    <path d="M533.41,-578.95C533.41,-576.27 531.23,-574.09 528.55,-574.09C525.87,-574.09 523.70,-576.27 523.70,-578.95C523.70,-581.63 525.87,-583.80 528.55,-583.80C531.23,-583.80 533.41,-581.63 533.41,-578.95Z" fill="#7aff00"/>
    <path d="M617.67,-578.95C617.67,-574.64 614.18,-571.14 609.87,-571.14C605.56,-571.14 602.06,-574.64 602.06,-578.95C602.06,-583.26 605.56,-586.75 609.87,-586.75C614.18,-586.75 617.67,-583.26 617.67,-578.95Z" fill="#d4ff00"/>
    <path d="M695.47,-578.95C695.47,-576.58 693.55,-574.66 691.18,-574.66C688.82,-574.66 686.90,-576.58 686.90,-578.95C686.90,-581.31 688.82,-583.23 691.18,-583.23C693.55,-583.23 695.47,-581.31 695.47,-578.95Z" fill="#ceff00"/>
    <path d="M777.36,-578.95C777.36,-576.27 775.18,-574.09 772.50,-574.09C769.82,-574.09 767.64,-576.27 767.64,-578.95C767.64,-581.63 769.82,-583.80 772.50,-583.80C775.18,-583.80 777.36,-581.63 777.36,-578.95Z" fill="#c6ff00"/>
    <path d="M-764.70,-473.68C-764.70,-469.37 -768.19,-465.88 -772.50,-465.88C-776.81,-465.88 -780.30,-469.37 -780.30,-473.68C-780.30,-477.99 -776.81,-481.49 -772.50,-481.49C-768.19,-481.49 -764.70,-477.99 -764.70,-473.68Z" fill="#47ff00"/>
    <path d="M-686.90,-473.68C-686.90,-471.32 -688.82,-469.40 -691.18,-469.40C-693.55,-469.40 -695.47,-471.32 -695.47,-473.68C-695.47,-476.05 -693.55,-477.97 -691.18,-477.97C-688.82,-477.97 -686.90,-476.05 -686.90,-473.68Z" fill="#ff9000"/>
    <path d="M-605.01,-473.68C-605.01,-471.00 -607.19,-468.83 -609.87,-468.83C-612.55,-468.83 -614.73,-471.00 -614.73,-473.68C-614.73,-476.37 -612.55,-478.54 -609.87,-478.54C-607.19,-478.54 -605.01,-476.37 -605.01,-473.68Z" fill="#80ff00"/>
    <path d="M-520.75,-473.68C-520.75,-469.37 -524.24,-465.88 -528.55,-465.88C-532.86,-465.88 -536.36,-469.37 -536.36,-473.68C-536.36,-477.99 -532.86,-481.49 -528.55,-481.49C-524.24,-481.49 -520.75,-477.99 -520.75,-473.68Z" fill="#b4ff00"/>
    <path d="M-442.95,-473.68C-442.95,-471.32 -444.87,-469.40 -447.24,-469.40C-449.60,-469.40 -451.52,-471.32 -451.52,-473.68C-451.52,-476.05 -449.60,-477.97 -447.24,-477.97C-444.87,-477.97 -442.95,-476.05 -442.95,-473.68Z" fill="#97ff00"/>
    <path d="M-361.06,-473.68C-361.06,-471.00 -363.24,-468.83 -365.92,-468.83C-368.60,-468.83 -370.78,-471.00 -370.78,-473.68C-370.78,-476.37 -368.60,-478.54 -365.92,-478.54C-363.24,-478.54 -361.06,-476.37 -361.06,-473.68Z" fill="#ffc800"/>
    <path d="M-276.80,-473.68C-276.80,-469.37 -280.29,-465.88 -284.61,-465.88C-288.92,-465.88 -292.41,-469.37 -292.41,-473.68C-292.41,-477.99 -288.92,-481.49 -284.61,-481.49C-280.29,-481.49 -276.80,-477.99 -276.80,-473.68Z" fill="#ffe700"/>
    <path d="M-199.01,-473.68C-199.01,-471.32 -200.92,-469.40 -203.29,-469.40C-205.65,-469.40 -207.57,-471.32 -207.57,-473.68C-207.57,-476.05 -205.65,-477.97 -203.29,-477.97C-200.92,-477.97 -199.01,-476.05 -199.01,-473.68Z" fill="#00ff51"/>
    <path d="M-117.12,-473.68C-117.12,-471.00 -119.29,-468.83 -121.97,-468.83C-124.66,-468.83 -126.83,-471.00 -126.83,-473.68C-126.83,-476.37 -124.66,-478.54 -121.97,-478.54C-119.29,-478.54 -117.12,-476.37 -117.12,-473.68Z" fill="#00ff12"/>
    <path d="M-32.85,-473.68C-32.85,-469.37 -36.35,-465.88 -40.66,-465.88C-44.97,-465.88 -48.46,-469.37 -48.46,-473.68C-48.46,-477.99 -44.97,-481.49 -40.66,-481.49C-36.35,-481.49 -32.85,-477.99 -32.85,-473.68Z" fill="#00ff37"/>
    <path d="M44.94,-473.68C44.94,-471.32 43.02,-469.40 40.66,-469.40C38.29,-469.40 36.38,-471.32 36.38,-473.68C36.38,-476.05 38.29,-477.97 40.66,-477.97C43.02,-477.97 44.94,-476.05 44.94,-473.68Z" fill="#ffa500"/>
    <path d="M126.83,-473.68C126.83,-471.00 124.66,-468.83 121.97,-468.83C119.29,-468.83 117.12,-471.00 117.12,-473.68C117.12,-476.37 119.29,-478.54 121.97,-478.54C124.66,-478.54 126.83,-476.37 126.83,-473.68Z" fill="#ff4d00"/>
    <path d="M211.09,-473.68C211.09,-469.37 207.60,-465.88 203.29,-465.88C198.98,-465.88 195.48,-469.37 195.48,-473.68C195.48,-477.99 198.98,-481.49 203.29,-481.49C207.60,-481.49 211.09,-477.99 211.09,-473.68Z" fill="#ff5800"/>
    <path d="M288.89,-473.68C288.89,-471.32 286.97,-469.40 284.61,-469.40C282.24,-469.40 280.32,-471.32 280.32,-473.68C280.32,-476.05 282.24,-477.97 284.61,-477.97C286.97,-477.97 288.89,-476.05 288.89,-473.68Z" fill="#ff0e00"/>
    <path d="M370.78,-473.68C370.78,-471.00 368.60,-468.83 365.92,-468.83C363.24,-468.83 361.06,-471.00 361.06,-473.68C361.06,-476.37 363.24,-478.54 365.92,-478.54C368.60,-478.54 370.78,-476.37 370.78,-473.68Z" fill="#b6ff00"/>
    <path d="M455.04,-473.68C455.04,-469.37 451.55,-465.88 447.24,-465.88C442.93,-465.88 439.43,-469.37 439.43,-473.68C439.43,-477.99 442.93,-481.49 447.24,-481.49C451.55,-481.49 455.04,-477.99 455.04,-473.68Z" fill="#00ff45"/>
    <path d="M532.84,-473.68C532.84,-471.32 530.92,-469.40 528.55,-469.40C526.19,-469.40 524.27,-471.32 524.27,-473.68C524.27,-476.05 526.19,-477.97 528.55,-477.97C530.92,-477.97 532.84,-476.05 532.84,-473.68Z" fill="#ff3f00"/>
    <path d="M614.73,-473.68C614.73,-471.00 612.55,-468.83 609.87,-468.83C607.19,-468.83 605.01,-471.00 605.01,-473.68C605.01,-476.37 607.19,-478.54 609.87,-478.54C612.55,-478.54 614.73,-476.37 614.73,-473.68Z" fill="#87ff00"/>
    <path d="M698.99,-473.68C698.99,-469.37 695.49,-465.88 691.18,-465.88C686.87,-465.88 683.38,-469.37 683.38,-473.68C683.38,-477.99 686.87,-481.49 691.18,-481.49C695.49,-481.49 698.99,-477.99 698.99,-473.68Z" fill="#fff600"/>
    <path d="M776.78,-473.68C776.78,-471.32 774.87,-469.40 772.50,-469.40C770.13,-469.40 768.22,-471.32 768.22,-473.68C768.22,-476.05 770.13,-477.97 772.50,-477.97C774.87,-477.97 776.78,-476.05 776.78,-473.68Z" fill="#2cff00"/>
    <path d="M-767.64,-368.42C-767.64,-365.74 -769.82,-363.56 -772.50,-363.56C-775.18,-363.56 -777.36,-365.74 -777.36,-368.42C-777.36,-371.10 -775.18,-373.28 -772.50,-373.28C-769.82,-373.28 -767.64,-371.10 -767.64,-368.42Z" fill="#00ff54"/>
    <path d="M-683.38,-368.42C-683.38,-364.11 -686.87,-360.62 -691.18,-360.62C-695.49,-360.62 -698.99,-364.11 -698.99,-368.42C-698.99,-372.73 -695.49,-376.23 -691.18,-376.23C-686.87,-376.23 -683.38,-372.73 -683.38,-368.42Z" fill="#daff00"/>
    <path d="M-605.59,-368.42C-605.59,-366.06 -607.50,-364.14 -609.87,-364.14C-612.23,-364.14 -614.15,-366.06 -614.15,-368.42C-614.15,-370.79 -612.23,-372.70 -609.87,-372.70C-607.50,-372.70 -605.59,-370.79 -605.59,-368.42Z" fill="#3eff00"/>
    <path d="M-523.70,-368.42C-523.70,-365.74 -525.87,-363.56 -528.55,-363.56C-531.23,-363.56 -533.41,-365.74 -533.41,-368.42C-533.41,-371.10 -531.23,-373.28 -528.55,-373.28C-525.87,-373.28 -523.70,-371.10 -523.70,-368.42Z" fill="#46ff00"/>
    <path d="M-439.43,-368.42C-439.43,-364.11 -442.93,-360.62 -447.24,-360.62C-451.55,-360.62 -455.04,-364.11 -455.04,-368.42C-455.04,-372.73 -451.55,-376.23 -447.24,-376.23C-442.93,-376.23 -439.43,-372.73 -439.43,-368.42Z" fill="#14ff00"/>
    <path d="M-361.64,-368.42C-361.64,-366.06 -363.56,-364.14 -365.92,-364.14C-368.29,-364.14 -370.20,-366.06 -370.20,-368.42C-370.20,-370.79 -368.29,-372.70 -365.92,-372.70C-363.56,-372.70 -361.64,-370.79 -361.64,-368.42Z" fill="#07ff00"/>
    <path d="M-279.75,-368.42C-279.75,-365.74 -281.92,-363.56 -284.61,-363.56C-287.29,-363.56 -289.46,-365.74 -289.46,-368.42C-289.46,-371.10 -287.29,-373.28 -284.61,-373.28C-281.92,-373.28 -279.75,-371.10 -279.75,-368.42Z" fill="#c2ff00"/>
    <path d="M-195.48,-368.42C-195.48,-364.11 -198.98,-360.62 -203.29,-360.62C-207.60,-360.62 -211.09,-364.11 -211.09,-368.42C-211.09,-372.73 -207.60,-376.23 -203.29,-376.23C-198.98,-376.23 -195.48,-372.73 -195.48,-368.42Z" fill="#00ff1e"/>
    <path d="M-117.69,-368.42C-117.69,-366.06 -119.61,-364.14 -121.97,-364.14C-124.34,-364.14 -126.26,-366.06 -126.26,-368.42C-126.26,-370.79 -124.34,-372.70 -121.97,-372.70C-119.61,-372.70 -117.69,-370.79 -117.69,-368.42Z" fill="#ff5000"/>
    <path d="M-35.80,-368.42C-35.80,-365.74 -37.98,-363.56 -40.66,-363.56C-43.34,-363.56 -45.51,-365.74 -45.51,-368.42C-45.51,-371.10 -43.34,-373.28 -40.66,-373.28C-37.98,-373.28 -35.80,-371.10 -35.80,-368.42Z" fill="#ff3200"/>
    <path d="M48.46,-368.42C48.46,-364.11 44.97,-360.62 40.66,-360.62C36.35,-360.62 32.85,-364.11 32.85,-368.42C32.85,-372.73 36.35,-376.23 40.66,-376.23C44.97,-376.23 48.46,-372.73 48.46,-368.42Z" fill="#00ff4d"/>
    <path d="M126.26,-368.42C126.26,-366.06 124.34,-364.14 121.97,-364.14C119.61,-364.14 117.69,-366.06 117.69,-368.42C117.69,-370.79 119.61,-372.70 121.97,-372.70C124.34,-372.70 126.26,-370.79 126.26,-368.42Z" fill="#4dff00"/>
    <path d="M208.15,-368.42C208.15,-365.74 205.97,-363.56 203.29,-363.56C200.61,-363.56 198.43,-365.74 198.43,-368.42C198.43,-371.10 200.61,-373.28 203.29,-373.28C205.97,-373.28 208.15,-371.10 208.15,-368.42Z" fill="#51ff00"/>
    <path d="M292.41,-368.42C292.41,-364.11 288.92,-360.62 284.61,-360.62C280.29,-360.62 276.80,-364.11 276.80,-368.42C276.80,-372.73 280.29,-376.23 284.61,-376.23C288.92,-376.23 292.41,-372.73 292.41,-368.42Z" fill="#ff5600"/>
    <path d="M370.20,-368.42C370.20,-366.06 368.29,-364.14 365.92,-364.14C363.56,-364.14 361.64,-366.06 361.64,-368.42C361.64,-370.79 363.56,-372.70 365.92,-372.70C368.29,-372.70 370.20,-370.79 370.20,-368.42Z" fill="#e8ff00"/>
    <path d="M452.09,-368.42C452.09,-365.74 449.92,-363.56 447.24,-363.56C444.55,-363.56 442.38,-365.74 442.38,-368.42C442.38,-371.10 444.55,-373.28 447.24,-373.28C449.92,-373.28 452.09,-371.10 452.09,-368.42Z" fill="#ff0300"/>
    <path d="M536.36,-368.42C536.36,-364.11 532.86,-360.62 528.55,-360.62C524.24,-360.62 520.75,-364.11 520.75,-368.42C520.75,-372.73 524.24,-376.23 528.55,-376.23C532.86,-376.23 536.36,-372.73 536.36,-368.42Z" fill="#ff2b00"/>
    <path d="M614.15,-368.42C614.15,-366.06 612.23,-364.14 609.87,-364.14C607.50,-364.14 605.59,-366.06 605.59,-368.42C605.59,-370.79 607.50,-372.70 609.87,-372.70C612.23,-372.70 614.15,-370.79 614.15,-368.42Z" fill="#ffd100"/>
    <path d="M696.04,-368.42C696.04,-365.74 693.87,-363.56 691.18,-363.56C688.50,-363.56 686.33,-365.74 686.33,-368.42C686.33,-371.10 688.50,-373.28 691.18,-373.28C693.87,-373.28 696.04,-371.10 696.04,-368.42Z" fill="#ffcb00"/>
    <path d="M780.30,-368.42C780.30,-364.11 776.81,-360.62 772.50,-360.62C768.19,-360.62 764.70,-364.11 764.70,-368.42C764.70,-372.73 768.19,-376.23 772.50,-376.23C776.81,-376.23 780.30,-372.73 780.30,-368.42Z" fill="#00ff06"/>
    <path d="M-768.22,-263.16C-768.22,-260.79 -770.13,-258.88 -772.50,-258.88C-774.87,-258.88 -776.78,-260.79 -776.78,-263.16C-776.78,-265.52 -774.87,-267.44 -772.50,-267.44C-770.13,-267.44 -768.22,-265.52 -768.22,-263.16Z" fill="#00ff49"/>
    <path d="M-686.33,-263.16C-686.33,-260.48 -688.50,-258.30 -691.18,-258.30C-693.87,-258.30 -696.04,-260.48 -696.04,-263.16C-696.04,-265.84 -693.87,-268.01 -691.18,-268.01C-688.50,-268.01 -686.33,-265.84 -686.33,-263.16Z" fill="#00ff09"/>
    <path d="M-602.06,-263.16C-602.06,-258.85 -605.56,-255.35 -609.87,-255.35C-614.18,-255.35 -617.67,-258.85 -617.67,-263.16C-617.67,-267.47 -614.18,-270.96 -609.87,-270.96C-605.56,-270.96 -602.06,-267.47 -602.06,-263.16Z" fill="#8eff00"/>
    <path d="M-524.27,-263.16C-524.27,-260.79 -526.19,-258.88 -528.55,-258.88C-530.92,-258.88 -532.84,-260.79 -532.84,-263.16C-532.84,-265.52 -530.92,-267.44 -528.55,-267.44C-526.19,-267.44 -524.27,-265.52 -524.27,-263.16Z" fill="#ff6b00"/>
    <path d="M-442.38,-263.16C-442.38,-260.48 -444.55,-258.30 -447.24,-258.30C-449.92,-258.30 -452.09,-260.48 -452.09,-263.16C-452.09,-265.84 -449.92,-268.01 -447.24,-268.01C-444.55,-268.01 -442.38,-265.84 -442.38,-263.16Z" fill="#ff8300"/>
    <path d="M-358.12,-263.16C-358.12,-258.85 -361.61,-255.35 -365.92,-255.35C-370.23,-255.35 -373.73,-258.85 -373.73,-263.16C-373.73,-267.47 -370.23,-270.96 -365.92,-270.96C-361.61,-270.96 -358.12,-267.47 -358.12,-263.16Z" fill="#00ff03"/>
    <path d="M-280.32,-263.16C-280.32,-260.79 -282.24,-258.88 -284.61,-258.88C-286.97,-258.88 -288.89,-260.79 -288.89,-263.16C-288.89,-265.52 -286.97,-267.44 -284.61,-267.44C-282.24,-267.44 -280.32,-265.52 -280.32,-263.16Z" fill="#ff0600"/>
    <path d="M-198.43,-263.16C-198.43,-260.48 -200.61,-258.30 -203.29,-258.30C-205.97,-258.30 -208.15,-260.48 -208.15,-263.16C-208.15,-265.84 -205.97,-268.01 -203.29,-268.01C-200.61,-268.01 -198.43,-265.84 -198.43,-263.16Z" fill="#5fff00"/>
    <path d="M-114.17,-263.16C-114.17,-258.85 -117.66,-255.35 -121.97,-255.35C-126.28,-255.35 -129.78,-258.85 -129.78,-263.16C-129.78,-267.47 -126.28,-270.96 -121.97,-270.96C-117.66,-270.96 -114.17,-267.47 -114.17,-263.16Z" fill="#2fff00"/>
    <path d="M-36.38,-263.16C-36.38,-260.79 -38.29,-258.88 -40.66,-258.88C-43.02,-258.88 -44.94,-260.79 -44.94,-263.16C-44.94,-265.52 -43.02,-267.44 -40.66,-267.44C-38.29,-267.44 -36.38,-265.52 -36.38,-263.16Z" fill="#52ff00"/>
    <path d="M45.51,-263.16C45.51,-260.48 43.34,-258.30 40.66,-258.30C37.98,-258.30 35.80,-260.48 35.80,-263.16C35.80,-265.84 37.98,-268.01 40.66,-268.01C43.34,-268.01 45.51,-265.84 45.51,-263.16Z" fill="#ff7f00"/>
    <path d="M129.78,-263.16C129.78,-258.85 126.28,-255.35 121.97,-255.35C117.66,-255.35 114.17,-258.85 114.17,-263.16C114.17,-267.47 117.66,-270.96 121.97,-270.96C126.28,-270.96 129.78,-267.47 129.78,-263.16Z" fill="#28ff00"/>
    <path d="M207.57,-263.16C207.57,-260.79 205.65,-258.88 203.29,-258.88C200.92,-258.88 199.01,-260.79 199.01,-263.16C199.01,-265.52 200.92,-267.44 203.29,-267.44C205.65,-267.44 207.57,-265.52 207.57,-263.16Z" fill="#00ff39"/>
    <path d="M289.46,-263.16C289.46,-260.48 287.29,-258.30 284.61,-258.30C281.92,-258.30 279.75,-260.48 279.75,-263.16C279.75,-265.84 281.92,-268.01 284.61,-268.01C287.29,-268.01 289.46,-265.84 289.46,-263.16Z" fill="#ff0900"/>
    <path d="M373.73,-263.16C373.73,-258.85 370.23,-255.35 365.92,-255.35C361.61,-255.35 358.12,-258.85 358.12,-263.16C358.12,-267.47 361.61,-270.96 365.92,-270.96C370.23,-270.96 373.73,-267.47 373.73,-263.16Z" fill="#ffed00"/>
    <path d="M451.52,-263.16C451.52,-260.79 449.60,-258.88 447.24,-258.88C444.87,-258.88 442.95,-260.79 442.95,-263.16C442.95,-265.52 444.87,-267.44 447.24,-267.44C449.60,-267.44 451.52,-265.52 451.52,-263.16Z" fill="#00ff02"/>
    <path d="M533.41,-263.16C533.41,-260.48 531.23,-258.30 528.55,-258.30C525.87,-258.30 523.70,-260.48 523.70,-263.16C523.70,-265.84 525.87,-268.01 528.55,-268.01C531.23,-268.01 533.41,-265.84 533.41,-263.16Z" fill="#26ff00"/>
    <path d="M617.67,-263.16C617.67,-258.85 614.18,-255.35 609.87,-255.35C605.56,-255.35 602.06,-258.85 602.06,-263.16C602.06,-267.47 605.56,-270.96 609.87,-270.96C614.18,-270.96 617.67,-267.47 617.67,-263.16Z" fill="#00ff56"/>
    <path d="M695.47,-263.16C695.47,-260.79 693.55,-258.88 691.18,-258.88C688.82,-258.88 686.90,-260.79 686.90,-263.16C686.90,-265.52 688.82,-267.44 691.18,-267.44C693.55,-267.44 695.47,-265.52 695.47,-263.16Z" fill="#00ff14"/>
    <path d="M777.36,-263.16C777.36,-260.48 775.18,-258.30 772.50,-258.30C769.82,-258.30 767.64,-260.48 767.64,-263.16C767.64,-265.84 769.82,-268.01 772.50,-268.01C775.18,-268.01 777.36,-265.84 777.36,-263.16Z" fill="#ff6600"/>
    <path d="M-764.70,-157.89C-764.70,-153.58 -768.19,-150.09 -772.50,-150.09C-776.81,-150.09 -780.30,-153.58 -780.30,-157.89C-780.30,-162.21 -776.81,-165.70 -772.50,-165.70C-768.19,-165.70 -764.70,-162.21 -764.70,-157.89Z" fill="#00ff43"/>
    <path d="M-686.90,-157.89C-686.90,-155.53 -688.82,-153.61 -691.18,-153.61C-693.55,-153.61 -695.47,-155.53 -695.47,-157.89C-695.47,-160.26 -693.55,-162.18 -691.18,-162.18C-688.82,-162.18 -686.90,-160.26 -686.90,-157.89Z" fill="#4bff00"/>
    <path d="M-605.01,-157.89C-605.01,-155.21 -607.19,-153.04 -609.87,-153.04C-612.55,-153.04 -614.73,-155.21 -614.73,-157.89C-614.73,-160.58 -612.55,-162.75 -609.87,-162.75C-607.19,-162.75 -605.01,-160.58 -605.01,-157.89Z" fill="#68ff00"/>
    <path d="M-520.75,-157.89C-520.75,-153.58 -524.24,-150.09 -528.55,-150.09C-532.86,-150.09 -536.36,-153.58 -536.36,-157.89C-536.36,-162.21 -532.86,-165.70 -528.55,-165.70C-524.24,-165.70 -520.75,-162.21 -520.75,-157.89Z" fill="#1bff00"/>
    <path d="M-442.95,-157.89C-442.95,-155.53 -444.87,-153.61 -447.24,-153.61C-449.60,-153.61 -451.52,-155.53 -451.52,-157.89C-451.52,-160.26 -449.60,-162.18 -447.24,-162.18C-444.87,-162.18 -442.95,-160.26 -442.95,-157.89Z" fill="#f5ff00"/>
    <path d="M-361.06,-157.89C-361.06,-155.21 -363.24,-153.04 -365.92,-153.04C-368.60,-153.04 -370.78,-155.21 -370.78,-157.89C-370.78,-160.58 -368.60,-162.75 -365.92,-162.75C-363.24,-162.75 -361.06,-160.58 -361.06,-157.89Z" fill="#e9ff00"/>
    <path d="M-276.80,-157.89C-276.80,-153.58 -280.29,-150.09 -284.61,-150.09C-288.92,-150.09 -292.41,-153.58 -292.41,-157.89C-292.41,-162.21 -288.92,-165.70 -284.61,-165.70C-280.29,-165.70 -276.80,-162.21 -276.80,-157.89Z" fill="#00ff02"/>
    <path d="M-199.01,-157.89C-199.01,-155.53 -200.92,-153.61 -203.29,-153.61C-205.65,-153.61 -207.57,-155.53 -207.57,-157.89C-207.57,-160.26 -205.65,-162.18 -203.29,-162.18C-200.92,-162.18 -199.01,-160.26 -199.01,-157.89Z" fill="#d1ff00"/>
    <path d="M-117.12,-157.89C-117.12,-155.21 -119.29,-153.04 -121.97,-153.04C-124.66,-153.04 -126.83,-155.21 -126.83,-157.89C-126.83,-160.58 -124.66,-162.75 -121.97,-162.75C-119.29,-162.75 -117.12,-160.58 -117.12,-157.89Z" fill="#00ff55"/>
    <path d="M-32.85,-157.89C-32.85,-153.58 -36.35,-150.09 -40.66,-150.09C-44.97,-150.09 -48.46,-153.58 -48.46,-157.89C-48.46,-162.21 -44.97,-165.70 -40.66,-165.70C-36.35,-165.70 -32.85,-162.21 -32.85,-157.89Z" fill="#00ff48"/>
    <path d="M44.94,-157.89C44.94,-155.53 43.02,-153.61 40.66,-153.61C38.29,-153.61 36.38,-155.53 36.38,-157.89C36.38,-160.26 38.29,-162.18 40.66,-162.18C43.02,-162.18 44.94,-160.26 44.94,-157.89Z" fill="#ffd400"/>
    <path d="M126.83,-157.89C126.83,-155.21 124.66,-153.04 121.97,-153.04C119.29,-153.04 117.12,-155.21 117.12,-157.89C117.12,-160.58 119.29,-162.75 121.97,-162.75C124.66,-162.75 126.83,-160.58 126.83,-157.89Z" fill="#ff1c00"/>
    <path d="M211.09,-157.89C211.09,-153.58 207.60,-150.09 203.29,-150.09C198.98,-150.09 195.48,-153.58 195.48,-157.89C195.48,-162.21 198.98,-165.70 203.29,-165.70C207.60,-165.70 211.09,-162.21 211.09,-157.89Z" fill="#ff2b00"/>
    <path d="M288.89,-157.89C288.89,-155.53 286.97,-153.61 284.61,-153.61C282.24,-153.61 280.32,-155.53 280.32,-157.89C280.32,-160.26 282.24,-162.18 284.61,-162.18C286.97,-162.18 288.89,-160.26 288.89,-157.89Z" fill="#ff1100"/>
    <path d="M370.78,-157.89C370.78,-155.21 368.60,-153.04 365.92,-153.04C363.24,-153.04 361.06,-155.21 361.06,-157.89C361.06,-160.58 363.24,-162.75 365.92,-162.75C368.60,-162.75 370.78,-160.58 370.78,-157.89Z" fill="#dcff00"/>
    <path d="M455.04,-157.89C455.04,-153.58 451.55,-150.09 447.24,-150.09C442.93,-150.09 439.43,-153.58 439.43,-157.89C439.43,-162.21 442.93,-165.70 447.24,-165.70C451.55,-165.70 455.04,-162.21 455.04,-157.89Z" fill="#00ff49"/>
    <path d="M532.84,-157.89C532.84,-155.53 530.92,-153.61 528.55,-153.61C526.19,-153.61 524.27,-155.53 524.27,-157.89C524.27,-160.26 526.19,-162.18 528.55,-162.18C530.92,-162.18 532.84,-160.26 532.84,-157.89Z" fill="#00ff53"/>
    <path d="M614.73,-157.89C614.73,-155.21 612.55,-153.04 609.87,-153.04C607.19,-153.04 605.01,-155.21 605.01,-157.89C605.01,-160.58 607.19,-162.75 609.87,-162.75C612.55,-162.75 614.73,-160.58 614.73,-157.89Z" fill="#32ff00"/>
    <path d="M698.99,-157.89C698.99,-153.58 695.49,-150.09 691.18,-150.09C686.87,-150.09 683.38,-153.58 683.38,-157.89C683.38,-162.21 686.87,-165.70 691.18,-165.70C695.49,-165.70 698.99,-162.21 698.99,-157.89Z" fill="#d1ff00"/>
    <path d="M776.78,-157.89C776.78,-155.53 774.87,-153.61 772.50,-153.61C770.13,-153.61 768.22,-155.53 768.22,-157.89C768.22,-160.26 770.13,-162.18 772.50,-162.18C774.87,-162.18 776.78,-160.26 776.78,-157.89Z" fill="#ff9900"/>
    <path d="M-767.64,-52.63C-767.64,-49.95 -769.82,-47.77 -772.50,-47.77C-775.18,-47.77 -777.36,-49.95 -777.36,-52.63C-777.36,-55.31 -775.18,-57.49 -772.50,-57.49C-769.82,-57.49 -767.64,-55.31 -767.64,-52.63Z" fill="#ffb900"/>
    <path d="M-683.38,-52.63C-683.38,-48.32 -686.87,-44.83 -691.18,-44.83C-695.49,-44.83 -698.99,-48.32 -698.99,-52.63C-698.99,-56.94 -695.49,-60.44 -691.18,-60.44C-686.87,-60.44 -683.38,-56.94 -683.38,-52.63Z" fill="#01ff00"/>
    <path d="M-605.59,-52.63C-605.59,-50.27 -607.50,-48.35 -609.87,-48.35C-612.23,-48.35 -614.15,-50.27 -614.15,-52.63C-614.15,-55.00 -612.23,-56.91 -609.87,-56.91C-607.50,-56.91 -605.59,-55.00 -605.59,-52.63Z" fill="#ff1f00"/>
    <path d="M-523.70,-52.63C-523.70,-49.95 -525.87,-47.77 -528.55,-47.77C-531.23,-47.77 -533.41,-49.95 -533.41,-52.63C-533.41,-55.31 -531.23,-57.49 -528.55,-57.49C-525.87,-57.49 -523.70,-55.31 -523.70,-52.63Z" fill="#ff0600"/>
    <path d="M-439.43,-52.63C-439.43,-48.32 -442.93,-44.83 -447.24,-44.83C-451.55,-44.83 -455.04,-48.32 -455.04,-52.63C-455.04,-56.94 -451.55,-60.44 -447.24,-60.44C-442.93,-60.44 -439.43,-56.94 -439.43,-52.63Z" fill="#ffd400"/>
    <path d="M-361.64,-52.63C-361.64,-50.27 -363.56,-48.35 -365.92,-48.35C-368.29,-48.35 -370.20,-50.27 -370.20,-52.63C-370.20,-55.00 -368.29,-56.91 -365.92,-56.91C-363.56,-56.91 -361.64,-55.00 -361.64,-52.63Z" fill="#ff3400"/>
    <path d="M-279.75,-52.63C-279.75,-49.95 -281.92,-47.77 -284.61,-47.77C-287.29,-47.77 -289.46,-49.95 -289.46,-52.63C-289.46,-55.31 -287.29,-57.49 -284.61,-57.49C-281.92,-57.49 -279.75,-55.31 -279.75,-52.63Z" fill="#00ff00"/>
    <path d="M-195.48,-52.63C-195.48,-48.32 -198.98,-44.83 -203.29,-44.83C-207.60,-44.83 -211.09,-48.32 -211.09,-52.63C-211.09,-56.94 -207.60,-60.44 -203.29,-60.44C-198.98,-60.44 -195.48,-56.94 -195.48,-52.63Z" fill="#ff0200"/>
    <path d="M-117.69,-52.63C-117.69,-50.27 -119.61,-48.35 -121.97,-48.35C-124.34,-48.35 -126.26,-50.27 -126.26,-52.63C-126.26,-55.00 -124.34,-56.91 -121.97,-56.91C-119.61,-56.91 -117.69,-55.00 -117.69,-52.63Z" fill="#ffb900"/>
    <path d="M-35.80,-52.63C-35.80,-49.95 -37.98,-47.77 -40.66,-47.77C-43.34,-47.77 -45.51,-49.95 -45.51,-52.63C-45.51,-55.31 -43.34,-57.49 -40.66,-57.49C-37.98,-57.49 -35.80,-55.31 -35.80,-52.63Z" fill="#bfff00"/>
    <path d="M48.46,-52.63C48.46,-48.32 44.97,-44.83 40.66,-44.83C36.35,-44.83 32.85,-48.32 32.85,-52.63C32.85,-56.94 36.35,-60.44 40.66,-60.44C44.97,-60.44 48.46,-56.94 48.46,-52.63Z" fill="#00ff29"/>
    <path d="M126.26,-52.63C126.26,-50.27 124.34,-48.35 121.97,-48.35C119.61,-48.35 117.69,-50.27 117.69,-52.63C117.69,-55.00 119.61,-56.91 121.97,-56.91C124.34,-56.91 126.26,-55.00 126.26,-52.63Z" fill="#ffa600"/>
    <path d="M208.15,-52.63C208.15,-49.95 205.97,-47.77 203.29,-47.77C200.61,-47.77 198.43,-49.95 198.43,-52.63C198.43,-55.31 200.61,-57.49 203.29,-57.49C205.97,-57.49 208.15,-55.31 208.15,-52.63Z" fill="#00ff0f"/>
    <path d="M292.41,-52.63C292.41,-48.32 288.92,-44.83 284.61,-44.83C280.29,-44.83 276.80,-48.32 276.80,-52.63C276.80,-56.94 280.29,-60.44 284.61,-60.44C288.92,-60.44 292.41,-56.94 292.41,-52.63Z" fill="#90ff00"/>
    <path d="M370.20,-52.63C370.20,-50.27 368.29,-48.35 365.92,-48.35C363.56,-48.35 361.64,-50.27 361.64,-52.63C361.64,-55.00 363.56,-56.91 365.92,-56.91C368.29,-56.91 370.20,-55.00 370.20,-52.63Z" fill="#00ff23"/>
    <path d="M452.09,-52.63C452.09,-49.95 449.92,-47.77 447.24,-47.77C444.55,-47.77 442.38,-49.95 442.38,-52.63C442.38,-55.31 444.55,-57.49 447.24,-57.49C449.92,-57.49 452.09,-55.31 452.09,-52.63Z" fill="#ff1b00"/>
    <path d="M536.36,-52.63C536.36,-48.32 532.86,-44.83 528.55,-44.83C524.24,-44.83 520.75,-48.32 520.75,-52.63C520.75,-56.94 524.24,-60.44 528.55,-60.44C532.86,-60.44 536.36,-56.94 536.36,-52.63Z" fill="#7aff00"/>
    <path d="M614.15,-52.63C614.15,-50.27 612.23,-48.35 609.87,-48.35C607.50,-48.35 605.59,-50.27 605.59,-52.63C605.59,-55.00 607.50,-56.91 609.87,-56.91C612.23,-56.91 614.15,-55.00 614.15,-52.63Z" fill="#d4ff00"/>
    <path d="M696.04,-52.63C696.04,-49.95 693.87,-47.77 691.18,-47.77C688.50,-47.77 686.33,-49.95 686.33,-52.63C686.33,-55.31 688.50,-57.49 691.18,-57.49C693.87,-57.49 696.04,-55.31 696.04,-52.63Z" fill="#ceff00"/>
    <path d="M780.30,-52.63C780.30,-48.32 776.81,-44.83 772.50,-44.83C768.19,-44.83 764.70,-48.32 764.70,-52.63C764.70,-56.94 768.19,-60.44 772.50,-60.44C776.81,-60.44 780.30,-56.94 780.30,-52.63Z" fill="#c6ff00"/>
    <path d="M-768.22,52.63C-768.22,55.00 -770.13,56.91 -772.50,56.91C-774.87,56.91 -776.78,55.00 -776.78,52.63C-776.78,50.27 -774.87,48.35 -772.50,48.35C-770.13,48.35 -768.22,50.27 -768.22,52.63Z" fill="#47ff00"/>
    <path d="M-686.33,52.63C-686.33,55.31 -688.50,57.49 -691.18,57.49C-693.87,57.49 -696.04,55.31 -696.04,52.63C-696.04,49.95 -693.87,47.77 -691.18,47.77C-688.50,47.77 -686.33,49.95 -686.33,52.63Z" fill="#ff9000"/>
    <path d="M-602.06,52.63C-602.06,56.94 -605.56,60.44 -609.87,60.44C-614.18,60.44 -617.67,56.94 -617.67,52.63C-617.67,48.32 -614.18,44.83 -609.87,44.83C-605.56,44.83 -602.06,48.32 -602.06,52.63Z" fill="#80ff00"/>
    <path d="M-524.27,52.63C-524.27,55.00 -526.19,56.91 -528.55,56.91C-530.92,56.91 -532.84,55.00 -532.84,52.63C-532.84,50.27 -530.92,48.35 -528.55,48.35C-526.19,48.35 -524.27,50.27 -524.27,52.63Z" fill="#b4ff00"/>
    <path d="M-442.38,52.63C-442.38,55.31 -444.55,57.49 -447.24,57.49C-449.92,57.49 -452.09,55.31 -452.09,52.63C-452.09,49.95 -449.92,47.77 -447.24,47.77C-444.55,47.77 -442.38,49.95 -442.38,52.63Z" fill="#97ff00"/>
    <path d="M-358.12,52.63C-358.12,56.94 -361.61,60.44 -365.92,60.44C-370.23,60.44 -373.73,56.94 -373.73,52.63C-373.73,48.32 -370.23,44.83 -365.92,44.83C-361.61,44.83 -358.12,48.32 -358.12,52.63Z" fill="#ffc800"/>
    <path d="M-280.32,52.63C-280.32,55.00 -282.24,56.91 -284.61,56.91C-286.97,56.91 -288.89,55.00 -288.89,52.63C-288.89,50.27 -286.97,48.35 -284.61,48.35C-282.24,48.35 -280.32,50.27 -280.32,52.63Z" fill="#ffe700"/>
    <path d="M-198.43,52.63C-198.43,55.31 -200.61,57.49 -203.29,57.49C-205.97,57.49 -208.15,55.31 -208.15,52.63C-208.15,49.95 -205.97,47.77 -203.29,47.77C-200.61,47.77 -198.43,49.95 -198.43,52.63Z" fill="#00ff51"/>
    <path d="M-114.17,52.63C-114.17,56.94 -117.66,60.44 -121.97,60.44C-126.28,60.44 -129.78,56.94 -129.78,52.63C-129.78,48.32 -126.28,44.83 -121.97,44.83C-117.66,44.83 -114.17,48.32 -114.17,52.63Z" fill="#00ff12"/>
    <path d="M-36.38,52.63C-36.38,55.00 -38.29,56.91 -40.66,56.91C-43.02,56.91 -44.94,55.00 -44.94,52.63C-44.94,50.27 -43.02,48.35 -40.66,48.35C-38.29,48.35 -36.38,50.27 -36.38,52.63Z" fill="#00ff37"/>
    <path d="M45.51,52.63C45.51,55.31 43.34,57.49 40.66,57.49C37.98,57.49 35.80,55.31 35.80,52.63C35.80,49.95 37.98,47.77 40.66,47.77C43.34,47.77 45.51,49.95 45.51,52.63Z" fill="#ffa500"/>
    <path d="M129.78,52.63C129.78,56.94 126.28,60.44 121.97,60.44C117.66,60.44 114.17,56.94 114.17,52.63C114.17,48.32 117.66,44.83 121.97,44.83C126.28,44.83 129.78,48.32 129.78,52.63Z" fill="#ff4d00"/>
    <path d="M207.57,52.63C207.57,55.00 205.65,56.91 203.29,56.91C200.92,56.91 199.01,55.00 199.01,52.63C199.01,50.27 200.92,48.35 203.29,48.35C205.65,48.35 207.57,50.27 207.57,52.63Z" fill="#ff5800"/>
    <path d="M289.46,52.63C289.46,55.31 287.29,57.49 284.61,57.49C281.92,57.49 279.75,55.31 279.75,52.63C279.75,49.95 281.92,47.77 284.61,47.77C287.29,47.77 289.46,49.95 289.46,52.63Z" fill="#ff0e00"/>
    <path d="M373.73,52.63C373.73,56.94 370.23,60.44 365.92,60.44C361.61,60.44 358.12,56.94 358.12,52.63C358.12,48.32 361.61,44.83 365.92,44.83C370.23,44.83 373.73,48.32 373.73,52.63Z" fill="#b6ff00"/>
    <path d="M451.52,52.63C451.52,55.00 449.60,56.91 447.24,56.91C444.87,56.91 442.95,55.00 442.95,52.63C442.95,50.27 444.87,48.35 447.24,48.35C449.60,48.35 451.52,50.27 451.52,52.63Z" fill="#00ff45"/>
    <path d="M533.41,52.63C533.41,55.31 531.23,57.49 528.55,57.49C525.87,57.49 523.70,55.31 523.70,52.63C523.70,49.95 525.87,47.77 528.55,47.77C531.23,47.77 533.41,49.95 533.41,52.63Z" fill="#ff3f00"/>
    <path d="M617.67,52.63C617.67,56.94 614.18,60.44 609.87,60.44C605.56,60.44 602.06,56.94 602.06,52.63C602.06,48.32 605.56,44.83 609.87,44.83C614.18,44.83 617.67,48.32 617.67,52.63Z" fill="#87ff00"/>
    <path d="M695.47,52.63C695.47,55.00 693.55,56.91 691.18,56.91C688.82,56.91 686.90,55.00 686.90,52.63C686.90,50.27 688.82,48.35 691.18,48.35C693.55,48.35 695.47,50.27 695.47,52.63Z" fill="#fff600"/>
    <path d="M777.36,52.63C777.36,55.31 775.18,57.49 772.50,57.49C769.82,57.49 767.64,55.31 767.64,52.63C767.64,49.95 769.82,47.77 772.50,47.77C775.18,47.77 777.36,49.95 777.36,52.63Z" fill="#2cff00"/>
    <path d="M-764.70,157.89C-764.70,162.21 -768.19,165.70 -772.50,165.70C-776.81,165.70 -780.30,162.21 -780.30,157.89C-780.30,153.58 -776.81,150.09 -772.50,150.09C-768.19,150.09 -764.70,153.58 -764.70,157.89Z" fill="#00ff54"/>
    <path d="M-686.90,157.89C-686.90,160.26 -688.82,162.18 -691.18,162.18C-693.55,162.18 -695.47,160.26 -695.47,157.89C-695.47,155.53 -693.55,153.61 -691.18,153.61C-688.82,153.61 -686.90,155.53 -686.90,157.89Z" fill="#daff00"/>
    <path d="M-605.01,157.89C-605.01,160.58 -607.19,162.75 -609.87,162.75C-612.55,162.75 -614.73,160.58 -614.73,157.89C-614.73,155.21 -612.55,153.04 -609.87,153.04C-607.19,153.04 -605.01,155.21 -605.01,157.89Z" fill="#3eff00"/>
    <path d="M-520.75,157.89C-520.75,162.21 -524.24,165.70 -528.55,165.70C-532.86,165.70 -536.36,162.21 -536.36,157.89C-536.36,153.58 -532.86,150.09 -528.55,150.09C-524.24,150.09 -520.75,153.58 -520.75,157.89Z" fill="#46ff00"/>
    <path d="M-442.95,157.89C-442.95,160.26 -444.87,162.18 -447.24,162.18C-449.60,162.18 -451.52,160.26 -451.52,157.89C-451.52,155.53 -449.60,153.61 -447.24,153.61C-444.87,153.61 -442.95,155.53 -442.95,157.89Z" fill="#14ff00"/>
    <path d="M-361.06,157.89C-361.06,160.58 -363.24,162.75 -365.92,162.75C-368.60,162.75 -370.78,160.58 -370.78,157.89C-370.78,155.21 -368.60,153.04 -365.92,153.04C-363.24,153.04 -361.06,155.21 -361.06,157.89Z" fill="#07ff00"/>
    <path d="M-276.80,157.89C-276.80,162.21 -280.29,165.70 -284.61,165.70C-288.92,165.70 -292.41,162.21 -292.41,157.89C-292.41,153.58 -288.92,150.09 -284.61,150.09C-280.29,150.09 -276.80,153.58 -276.80,157.89Z" fill="#c2ff00"/>
    <path d="M-199.01,157.89C-199.01,160.26 -200.92,162.18 -203.29,162.18C-205.65,162.18 -207.57,160.26 -207.57,157.89C-207.57,155.53 -205.65,153.61 -203.29,153.61C-200.92,153.61 -199.01,155.53 -199.01,157.89Z" fill="#00ff1e"/>
    <path d="M-117.12,157.89C-117.12,160.58 -119.29,162.75 -121.97,162.75C-124.66,162.75 -126.83,160.58 -126.83,157.89C-126.83,155.21 -124.66,153.04 -121.97,153.04C-119.29,153.04 -117.12,155.21 -117.12,157.89Z" fill="#ff5000"/>
    <path d="M-32.85,157.89C-32.85,162.21 -36.35,165.70 -40.66,165.70C-44.97,165.70 -48.46,162.21 -48.46,157.89C-48.46,153.58 -44.97,150.09 -40.66,150.09C-36.35,150.09 -32.85,153.58 -32.85,157.89Z" fill="#ff3200"/>
    <path d="M44.94,157.89C44.94,160.26 43.02,162.18 40.66,162.18C38.29,162.18 36.38,160.26 36.38,157.89C36.38,155.53 38.29,153.61 40.66,153.61C43.02,153.61 44.94,155.53 44.94,157.89Z" fill="#00ff4d"/>
    <path d="M126.83,157.89C126.83,160.58 124.66,162.75 121.97,162.75C119.29,162.75 117.12,160.58 117.12,157.89C117.12,155.21 119.29,153.04 121.97,153.04C124.66,153.04 126.83,155.21 126.83,157.89Z" fill="#4dff00"/>
    <path d="M211.09,157.89C211.09,162.21 207.60,165.70 203.29,165.70C198.98,165.70 195.48,162.21 195.48,157.89C195.48,153.58 198.98,150.09 203.29,150.09C207.60,150.09 211.09,153.58 211.09,157.89Z" fill="#51ff00"/>
    <path d="M288.89,157.89C288.89,160.26 286.97,162.18 284.61,162.18C282.24,162.18 280.32,160.26 280.32,157.89C280.32,155.53 282.24,153.61 284.61,153.61C286.97,153.61 288.89,155.53 288.89,157.89Z" fill="#ff5600"/>
    <path d="M370.78,157.89C370.78,160.58 368.60,162.75 365.92,162.75C363.24,162.75 361.06,160.58 361.06,157.89C361.06,155.21 363.24,153.04 365.92,153.04C368.60,153.04 370.78,155.21 370.78,157.89Z" fill="#e8ff00"/>
    <path d="M455.04,157.89C455.04,162.21 451.55,165.70 447.24,165.70C442.93,165.70 439.43,162.21 439.43,157.89C439.43,153.58 442.93,150.09 447.24,150.09C451.55,150.09 455.04,153.58 455.04,157.89Z" fill="#ff0300"/>
    <path d="M532.84,157.89C532.84,160.26 530.92,162.18 528.55,162.18C526.19,162.18 524.27,160.26 524.27,157.89C524.27,155.53 526.19,153.61 528.55,153.61C530.92,153.61 532.84,155.53 532.84,157.89Z" fill="#ff2b00"/>
    <path d="M614.73,157.89C614.73,160.58 612.55,162.75 609.87,162.75C607.19,162.75 605.01,160.58 605.01,157.89C605.01,155.21 607.19,153.04 609.87,153.04C612.55,153.04 614.73,155.21 614.73,157.89Z" fill="#ffd100"/>
    <path d="M698.99,157.89C698.99,162.21 695.49,165.70 691.18,165.70C686.87,165.70 683.38,162.21 683.38,157.89C683.38,153.58 686.87,150.09 691.18,150.09C695.49,150.09 698.99,153.58 698.99,157.89Z" fill="#ffcb00"/>
    <path d="M776.78,157.89C776.78,160.26 774.87,162.18 772.50,162.18C770.13,162.18 768.22,160.26 768.22,157.89C768.22,155.53 770.13,153.61 772.50,153.61C774.87,153.61 776.78,155.53 776.78,157.89Z" fill="#00ff06"/>
    <path d="M-767.64,263.16C-767.64,265.84 -769.82,268.01 -772.50,268.01C-775.18,268.01 -777.36,265.84 -777.36,263.16C-777.36,260.48 -775.18,258.30 -772.50,258.30C-769.82,258.30 -767.64,260.48 -767.64,263.16Z" fill="#00ff49"/>
    <path d="M-683.38,263.16C-683.38,267.47 -686.87,270.96 -691.18,270.96C-695.49,270.96 -698.99,267.47 -698.99,263.16C-698.99,258.85 -695.49,255.35 -691.18,255.35C-686.87,255.35 -683.38,258.85 -683.38,263.16Z" fill="#00ff09"/>
    <path d="M-605.59,263.16C-605.59,265.52 -607.50,267.44 -609.87,267.44C-612.23,267.44 -614.15,265.52 -614.15,263.16C-614.15,260.79 -612.23,258.88 -609.87,258.88C-607.50,258.88 -605.59,260.79 -605.59,263.16Z" fill="#8eff00"/>
    <path d="M-523.70,263.16C-523.70,265.84 -525.87,268.01 -528.55,268.01C-531.23,268.01 -533.41,265.84 -533.41,263.16C-533.41,260.48 -531.23,258.30 -528.55,258.30C-525.87,258.30 -523.70,260.48 -523.70,263.16Z" fill="#ff6b00"/>
    <path d="M-439.43,263.16C-439.43,267.47 -442.93,270.96 -447.24,270.96C-451.55,270.96 -455.04,267.47 -455.04,263.16C-455.04,258.85 -451.55,255.35 -447.24,255.35C-442.93,255.35 -439.43,258.85 -439.43,263.16Z" fill="#ff8300"/>
    <path d="M-361.64,263.16C-361.64,265.52 -363.56,267.44 -365.92,267.44C-368.29,267.44 -370.20,265.52 -370.20,263.16C-370.20,260.79 -368.29,258.88 -365.92,258.88C-363.56,258.88 -361.64,260.79 -361.64,263.16Z" fill="#00ff03"/>
    <path d="M-279.75,263.16C-279.75,265.84 -281.92,268.01 -284.61,268.01C-287.29,268.01 -289.46,265.84 -289.46,263.16C-289.46,260.48 -287.29,258.30 -284.61,258.30C-281.92,258.30 -279.75,260.48 -279.75,263.16Z" fill="#ff0600"/>
    <path d="M-195.48,263.16C-195.48,267.47 -198.98,270.96 -203.29,270.96C-207.60,270.96 -211.09,267.47 -211.09,263.16C-211.09,258.85 -207.60,255.35 -203.29,255.35C-198.98,255.35 -195.48,258.85 -195.48,263.16Z" fill="#5fff00"/>
    <path d="M-117.69,263.16C-117.69,265.52 -119.61,267.44 -121.97,267.44C-124.34,267.44 -126.26,265.52 -126.26,263.16C-126.26,260.79 -124.34,258.88 -121.97,258.88C-119.61,258.88 -117.69,260.79 -117.69,263.16Z" fill="#2fff00"/>
    <path d="M-35.80,263.16C-35.80,265.84 -37.98,268.01 -40.66,268.01C-43.34,268.01 -45.51,265.84 -45.51,263.16C-45.51,260.48 -43.34,258.30 -40.66,258.30C-37.98,258.30 -35.80,260.48 -35.80,263.16Z" fill="#52ff00"/>
    <path d="M48.46,263.16C48.46,267.47 44.97,270.96 40.66,270.96C36.35,270.96 32.85,267.47 32.85,263.16C32.85,258.85 36.35,255.35 40.66,255.35C44.97,255.35 48.46,258.85 48.46,263.16Z" fill="#ff7f00"/>
    <path d="M126.26,263.16C126.26,265.52 124.34,267.44 121.97,267.44C119.61,267.44 117.69,265.52 117.69,263.16C117.69,260.79 119.61,258.88 121.97,258.88C124.34,258.88 126.26,260.79 126.26,263.16Z" fill="#28ff00"/>
    <path d="M208.15,263.16C208.15,265.84 205.97,268.01 203.29,268.01C200.61,268.01 198.43,265.84 198.43,263.16C198.43,260.48 200.61,258.30 203.29,258.30C205.97,258.30 208.15,260.48 208.15,263.16Z" fill="#00ff39"/>
    <path d="M292.41,263.16C292.41,267.47 288.92,270.96 284.61,270.96C280.29,270.96 276.80,267.47 276.80,263.16C276.80,258.85 280.29,255.35 284.61,255.35C288.92,255.35 292.41,258.85 292.41,263.16Z" fill="#ff0900"/>
    <path d="M370.20,263.16C370.20,265.52 368.29,267.44 365.92,267.44C363.56,267.44 361.64,265.52 361.64,263.16C361.64,260.79 363.56,258.88 365.92,258.88C368.29,258.88 370.20,260.79 370.20,263.16Z" fill="#ffed00"/>
    <path d="M452.09,263.16C452.09,265.84 449.92,268.01 447.24,268.01C444.55,268.01 442.38,265.84 442.38,263.16C442.38,260.48 444.55,258.30 447.24,258.30C449.92,258.30 452.09,260.48 452.09,263.16Z" fill="#00ff02"/>
    <path d="M536.36,263.16C536.36,267.47 532.86,270.96 528.55,270.96C524.24,270.96 520.75,267.47 520.75,263.16C520.75,258.85 524.24,255.35 528.55,255.35C532.86,255.35 536.36,258.85 536.36,263.16Z" fill="#26ff00"/>
    <path d="M614.15,263.16C614.15,265.52 612.23,267.44 609.87,267.44C607.50,267.44 605.59,265.52 605.59,263.16C605.59,260.79 607.50,258.88 609.87,258.88C612.23,258.88 614.15,260.79 614.15,263.16Z" fill="#00ff56"/>
    <path d="M696.04,263.16C696.04,265.84 693.87,268.01 691.18,268.01C688.50,268.01 686.33,265.84 686.33,263.16C686.33,260.48 688.50,258.30 691.18,258.30C693.87,258.30 696.04,260.48 696.04,263.16Z" fill="#00ff14"/>
    <path d="M780.30,263.16C780.30,267.47 776.81,270.96 772.50,270.96C768.19,270.96 764.70,267.47 764.70,263.16C764.70,258.85 768.19,255.35 772.50,255.35C776.81,255.35 780.30,258.85 780.30,263.16Z" fill="#ff6600"/>
    <path d="M-768.22,368.42C-768.22,370.79 -770.13,372.70 -772.50,372.70C-774.87,372.70 -776.78,370.79 -776.78,368.42C-776.78,366.06 -774.87,364.14 -772.50,364.14C-770.13,364.14 -768.22,366.06 -768.22,368.42Z" fill="#00ff43"/>
    <path d="M-686.33,368.42C-686.33,371.10 -688.50,373.28 -691.18,373.28C-693.87,373.28 -696.04,371.10 -696.04,368.42C-696.04,365.74 -693.87,363.56 -691.18,363.56C-688.50,363.56 -686.33,365.74 -686.33,368.42Z" fill="#4bff00"/>
    <path d="M-602.06,368.42C-602.06,372.73 -605.56,376.23 -609.87,376.23C-614.18,376.23 -617.67,372.73 -617.67,368.42C-617.67,364.11 -614.18,360.62 -609.87,360.62C-605.56,360.62 -602.06,364.11 -602.06,368.42Z" fill="#68ff00"/>
    <path d="M-524.27,368.42C-524.27,370.79 -526.19,372.70 -528.55,372.70C-530.92,372.70 -532.84,370.79 -532.84,368.42C-532.84,366.06 -530.92,364.14 -528.55,364.14C-526.19,364.14 -524.27,366.06 -524.27,368.42Z" fill="#1bff00"/>
    <path d="M-442.38,368.42C-442.38,371.10 -444.55,373.28 -447.24,373.28C-449.92,373.28 -452.09,371.10 -452.09,368.42C-452.09,365.74 -449.92,363.56 -447.24,363.56C-444.55,363.56 -442.38,365.74 -442.38,368.42Z" fill="#f5ff00"/>
    <path d="M-358.12,368.42C-358.12,372.73 -361.61,376.23 -365.92,376.23C-370.23,376.23 -373.73,372.73 -373.73,368.42C-373.73,364.11 -370.23,360.62 -365.92,360.62C-361.61,360.62 -358.12,364.11 -358.12,368.42Z" fill="#e9ff00"/>
    <path d="M-280.32,368.42C-280.32,370.79 -282.24,372.70 -284.61,372.70C-286.97,372.70 -288.89,370.79 -288.89,368.42C-288.89,366.06 -286.97,364.14 -284.61,364.14C-282.24,364.14 -280.32,366.06 -280.32,368.42Z" fill="#00ff02"/>
    <path d="M-198.43,368.42C-198.43,371.10 -200.61,373.28 -203.29,373.28C-205.97,373.28 -208.15,371.10 -208.15,368.42C-208.15,365.74 -205.97,363.56 -203.29,363.56C-200.61,363.56 -198.43,365.74 -198.43,368.42Z" fill="#d1ff00"/>
    <path d="M-114.17,368.42C-114.17,372.73 -117.66,376.23 -121.97,376.23C-126.28,376.23 -129.78,372.73 -129.78,368.42C-129.78,364.11 -126.28,360.62 -121.97,360.62C-117.66,360.62 -114.17,364.11 -114.17,368.42Z" fill="#00ff55"/>
    <path d="M-36.38,368.42C-36.38,370.79 -38.29,372.70 -40.66,372.70C-43.02,372.70 -44.94,370.79 -44.94,368.42C-44.94,366.06 -43.02,364.14 -40.66,364.14C-38.29,364.14 -36.38,366.06 -36.38,368.42Z" fill="#00ff48"/>
    <path d="M45.51,368.42C45.51,371.10 43.34,373.28 40.66,373.28C37.98,373.28 35.80,371.10 35.80,368.42C35.80,365.74 37.98,363.56 40.66,363.56C43.34,363.56 45.51,365.74 45.51,368.42Z" fill="#ffd400"/>
    <path d="M129.78,368.42C129.78,372.73 126.28,376.23 121.97,376.23C117.66,376.23 114.17,372.73 114.17,368.42C114.17,364.11 117.66,360.62 121.97,360.62C126.28,360.62 129.78,364.11 129.78,368.42Z" fill="#ff1c00"/>
    <path d="M207.57,368.42C207.57,370.79 205.65,372.70 203.29,372.70C200.92,372.70 199.01,370.79 199.01,368.42C199.01,366.06 200.92,364.14 203.29,364.14C205.65,364.14 207.57,366.06 207.57,368.42Z" fill="#ff2b00"/>
    <path d="M289.46,368.42C289.46,371.10 287.29,373.28 284.61,373.28C281.92,373.28 279.75,371.10 279.75,368.42C279.75,365.74 281.92,363.56 284.61,363.56C287.29,363.56 289.46,365.74 289.46,368.42Z" fill="#ff1100"/>
    <path d="M373.73,368.42C373.73,372.73 370.23,376.23 365.92,376.23C361.61,376.23 358.12,372.73 358.12,368.42C358.12,364.11 361.61,360.62 365.92,360.62C370.23,360.62 373.73,364.11 373.73,368.42Z" fill="#dcff00"/>
    <path d="M451.52,368.42C451.52,370.79 449.60,372.70 447.24,372.70C444.87,372.70 442.95,370.79 442.95,368.42C442.95,366.06 444.87,364.14 447.24,364.14C449.60,364.14 451.52,366.06 451.52,368.42Z" fill="#00ff49"/>
    <path d="M533.41,368.42C533.41,371.10 531.23,373.28 528.55,373.28C525.87,373.28 523.70,371.10 523.70,368.42C523.70,365.74 525.87,363.56 528.55,363.56C531.23,363.56 533.41,365.74 533.41,368.42Z" fill="#00ff53"/>
    <path d="M617.67,368.42C617.67,372.73 614.18,376.23 609.87,376.23C605.56,376.23 602.06,372.73 602.06,368.42C602.06,364.11 605.56,360.62 609.87,360.62C614.18,360.62 617.67,364.11 617.67,368.42Z" fill="#32ff00"/>
    <path d="M695.47,368.42C695.47,370.79 693.55,372.70 691.18,372.70C688.82,372.70 686.90,370.79 686.90,368.42C686.90,366.06 688.82,364.14 691.18,364.14C693.55,364.14 695.47,366.06 695.47,368.42Z" fill="#d1ff00"/>
    <path d="M777.36,368.42C777.36,371.10 775.18,373.28 772.50,373.28C769.82,373.28 767.64,371.10 767.64,368.42C767.64,365.74 769.82,363.56 772.50,363.56C775.18,363.56 777.36,365.74 777.36,368.42Z" fill="#ff9900"/>
    <path d="M-764.70,473.68C-764.70,477.99 -768.19,481.49 -772.50,481.49C-776.81,481.49 -780.30,477.99 -780.30,473.68C-780.30,469.37 -776.81,465.88 -772.50,465.88C-768.19,465.88 -764.70,469.37 -764.70,473.68Z" fill="#ffb900"/>
    <path d="M-686.90,473.68C-686.90,476.05 -688.82,477.97 -691.18,477.97C-693.55,477.97 -695.47,476.05 -695.47,473.68C-695.47,471.32 -693.55,469.40 -691.18,469.40C-688.82,469.40 -686.90,471.32 -686.90,473.68Z" fill="#01ff00"/>
    <path d="M-605.01,473.68C-605.01,476.37 -607.19,478.54 -609.87,478.54C-612.55,478.54 -614.73,476.37 -614.73,473.68C-614.73,471.00 -612.55,468.83 -609.87,468.83C-607.19,468.83 -605.01,471.00 -605.01,473.68Z" fill="#ff1f00"/>
    <path d="M-520.75,473.68C-520.75,477.99 -524.24,481.49 -528.55,481.49C-532.86,481.49 -536.36,477.99 -536.36,473.68C-536.36,469.37 -532.86,465.88 -528.55,465.88C-524.24,465.88 -520.75,469.37 -520.75,473.68Z" fill="#ff0600"/>
    <path d="M-442.95,473.68C-442.95,476.05 -444.87,477.97 -447.24,477.97C-449.60,477.97 -451.52,476.05 -451.52,473.68C-451.52,471.32 -449.60,469.40 -447.24,469.40C-444.87,469.40 -442.95,471.32 -442.95,473.68Z" fill="#ffd400"/>
    <path d="M-361.06,473.68C-361.06,476.37 -363.24,478.54 -365.92,478.54C-368.60,478.54 -370.78,476.37 -370.78,473.68C-370.78,471.00 -368.60,468.83 -365.92,468.83C-363.24,468.83 -361.06,471.00 -361.06,473.68Z" fill="#ff3400"/>
    <path d="M-276.80,473.68C-276.80,477.99 -280.29,481.49 -284.61,481.49C-288.92,481.49 -292.41,477.99 -292.41,473.68C-292.41,469.37 -288.92,465.88 -284.61,465.88C-280.29,465.88 -276.80,469.37 -276.80,473.68Z" fill="#00ff00"/>
    <path d="M-199.01,473.68C-199.01,476.05 -200.92,477.97 -203.29,477.97C-205.65,477.97 -207.57,476.05 -207.57,473.68C-207.57,471.32 -205.65,469.40 -203.29,469.40C-200.92,469.40 -199.01,471.32 -199.01,473.68Z" fill="#ff0200"/>
    <path d="M-117.12,473.68C-117.12,476.37 -119.29,478.54 -121.97,478.54C-124.66,478.54 -126.83,476.37 -126.83,473.68C-126.83,471.00 -124.66,468.83 -121.97,468.83C-119.29,468.83 -117.12,471.00 -117.12,473.68Z" fill="#ffb900"/>
    <path d="M-32.85,473.68C-32.85,477.99 -36.35,481.49 -40.66,481.49C-44.97,481.49 -48.46,477.99 -48.46,473.68C-48.46,469.37 -44.97,465.88 -40.66,465.88C-36.35,465.88 -32.85,469.37 -32.85,473.68Z" fill="#bfff00"/>
    <path d="M44.94,473.68C44.94,476.05 43.02,477.97 40.66,477.97C38.29,477.97 36.38,476.05 36.38,473.68C36.38,471.32 38.29,469.40 40.66,469.40C43.02,469.40 44.94,471.32 44.94,473.68Z" fill="#00ff29"/>
    <path d="M126.83,473.68C126.83,476.37 124.66,478.54 121.97,478.54C119.29,478.54 117.12,476.37 117.12,473.68C117.12,471.00 119.29,468.83 121.97,468.83C124.66,468.83 126.83,471.00 126.83,473.68Z" fill="#ffa600"/>
    <path d="M211.09,473.68C211.09,477.99 207.60,481.49 203.29,481.49C198.98,481.49 195.48,477.99 195.48,473.68C195.48,469.37 198.98,465.88 203.29,465.88C207.60,465.88 211.09,469.37 211.09,473.68Z" fill="#00ff0f"/>
    <path d="M288.89,473.68C288.89,476.05 286.97,477.97 284.61,477.97C282.24,477.97 280.32,476.05 280.32,473.68C280.32,471.32 282.24,469.40 284.61,469.40C286.97,469.40 288.89,471.32 288.89,473.68Z" fill="#90ff00"/>
    <path d="M370.78,473.68C370.78,476.37 368.60,478.54 365.92,478.54C363.24,478.54 361.06,476.37 361.06,473.68C361.06,471.00 363.24,468.83 365.92,468.83C368.60,468.83 370.78,471.00 370.78,473.68Z" fill="#00ff23"/>
    <path d="M455.04,473.68C455.04,477.99 451.55,481.49 447.24,481.49C442.93,481.49 439.43,477.99 439.43,473.68C439.43,469.37 442.93,465.88 447.24,465.88C451.55,465.88 455.04,469.37 455.04,473.68Z" fill="#ff1b00"/>
    <path d="M532.84,473.68C532.84,476.05 530.92,477.97 528.55,477.97C526.19,477.97 524.27,476.05 524.27,473.68C524.27,471.32 526.19,469.40 528.55,469.40C530.92,469.40 532.84,471.32 532.84,473.68Z" fill="#7aff00"/>
    <path d="M614.73,473.68C614.73,476.37 612.55,478.54 609.87,478.54C607.19,478.54 605.01,476.37 605.01,473.68C605.01,471.00 607.19,468.83 609.87,468.83C612.55,468.83 614.73,471.00 614.73,473.68Z" fill="#d4ff00"/>
    <path d="M698.99,473.68C698.99,477.99 695.49,481.49 691.18,481.49C686.87,481.49 683.38,477.99 683.38,473.68C683.38,469.37 686.87,465.88 691.18,465.88C695.49,465.88 698.99,469.37 698.99,473.68Z" fill="#ceff00"/>
    <path d="M776.78,473.68C776.78,476.05 774.87,477.97 772.50,477.97C770.13,477.97 768.22,476.05 768.22,473.68C768.22,471.32 770.13,469.40 772.50,469.40C774.87,469.40 776.78,471.32 776.78,473.68Z" fill="#c6ff00"/>
    <path d="M-767.64,578.95C-767.64,581.63 -769.82,583.80 -772.50,583.80C-775.18,583.80 -777.36,581.63 -777.36,578.95C-777.36,576.27 -775.18,574.09 -772.50,574.09C-769.82,574.09 -767.64,576.27 -767.64,578.95Z" fill="#47ff00"/>
    <path d="M-683.38,578.95C-683.38,583.26 -686.87,586.75 -691.18,586.75C-695.49,586.75 -698.99,583.26 -698.99,578.95C-698.99,574.64 -695.49,571.14 -691.18,571.14C-686.87,571.14 -683.38,574.64 -683.38,578.95Z" fill="#ff9000"/>
    <path d="M-605.59,578.95C-605.59,581.31 -607.50,583.23 -609.87,583.23C-612.23,583.23 -614.15,581.31 -614.15,578.95C-614.15,576.58 -612.23,574.66 -609.87,574.66C-607.50,574.66 -605.59,576.58 -605.59,578.95Z" fill="#80ff00"/>
    <path d="M-523.70,578.95C-523.70,581.63 -525.87,583.80 -528.55,583.80C-531.23,583.80 -533.41,581.63 -533.41,578.95C-533.41,576.27 -531.23,574.09 -528.55,574.09C-525.87,574.09 -523.70,576.27 -523.70,578.95Z" fill="#b4ff00"/>
    <path d="M-439.43,578.95C-439.43,583.26 -442.93,586.75 -447.24,586.75C-451.55,586.75 -455.04,583.26 -455.04,578.95C-455.04,574.64 -451.55,571.14 -447.24,571.14C-442.93,571.14 -439.43,574.64 -439.43,578.95Z" fill="#97ff00"/>
    <path d="M-361.64,578.95C-361.64,581.31 -363.56,583.23 -365.92,583.23C-368.29,583.23 -370.20,581.31 -370.20,578.95C-370.20,576.58 -368.29,574.66 -365.92,574.66C-363.56,574.66 -361.64,576.58 -361.64,578.95Z" fill="#ffc800"/>
    <path d="M-279.75,578.95C-279.75,581.63 -281.92,583.80 -284.61,583.80C-287.29,583.80 -289.46,581.63 -289.46,578.95C-289.46,576.27 -287.29,574.09 -284.61,574.09C-281.92,574.09 -279.75,576.27 -279.75,578.95Z" fill="#ffe700"/>
    <path d="M-195.48,578.95C-195.48,583.26 -198.98,586.75 -203.29,586.75C-207.60,586.75 -211.09,583.26 -211.09,578.95C-211.09,574.64 -207.60,571.14 -203.29,571.14C-198.98,571.14 -195.48,574.64 -195.48,578.95Z" fill="#00ff51"/>
    <path d="M-117.69,578.95C-117.69,581.31 -119.61,583.23 -121.97,583.23C-124.34,583.23 -126.26,581.31 -126.26,578.95C-126.26,576.58 -124.34,574.66 -121.97,574.66C-119.61,574.66 -117.69,576.58 -117.69,578.95Z" fill="#00ff12"/>
    <path d="M-35.80,578.95C-35.80,581.63 -37.98,583.80 -40.66,583.80C-43.34,583.80 -45.51,581.63 -45.51,578.95C-45.51,576.27 -43.34,574.09 -40.66,574.09C-37.98,574.09 -35.80,576.27 -35.80,578.95Z" fill="#00ff37"/>
    <path d="M48.46,578.95C48.46,583.26 44.97,586.75 40.66,586.75C36.35,586.75 32.85,583.26 32.85,578.95C32.85,574.64 36.35,571.14 40.66,571.14C44.97,571.14 48.46,574.64 48.46,578.95Z" fill="#ffa500"/>
    <path d="M126.26,578.95C126.26,581.31 124.34,583.23 121.97,583.23C119.61,583.23 117.69,581.31 117.69,578.95C117.69,576.58 119.61,574.66 121.97,574.66C124.34,574.66 126.26,576.58 126.26,578.95Z" fill="#ff4d00"/>
    <path d="M208.15,578.95C208.15,581.63 205.97,583.80 203.29,583.80C200.61,583.80 198.43,581.63 198.43,578.95C198.43,576.27 200.61,574.09 203.29,574.09C205.97,574.09 208.15,576.27 208.15,578.95Z" fill="#ff5800"/>
    <path d="M292.41,578.95C292.41,583.26 288.92,586.75 284.61,586.75C280.29,586.75 276.80,583.26 276.80,578.95C276.80,574.64 280.29,571.14 284.61,571.14C288.92,571.14 292.41,574.64 292.41,578.95Z" fill="#ff0e00"/>
    <path d="M370.20,578.95C370.20,581.31 368.29,583.23 365.92,583.23C363.56,583.23 361.64,581.31 361.64,578.95C361.64,576.58 363.56,574.66 365.92,574.66C368.29,574.66 370.20,576.58 370.20,578.95Z" fill="#b6ff00"/>
    <path d="M452.09,578.95C452.09,581.63 449.92,583.80 447.24,583.80C444.55,583.80 442.38,581.63 442.38,578.95C442.38,576.27 444.55,574.09 447.24,574.09C449.92,574.09 452.09,576.27 452.09,578.95Z" fill="#00ff45"/>
    <path d="M536.36,578.95C536.36,583.26 532.86,586.75 528.55,586.75C524.24,586.75 520.75,583.26 520.75,578.95C520.75,574.64 524.24,571.14 528.55,571.14C532.86,571.14 536.36,574.64 536.36,578.95Z" fill="#ff3f00"/>
    <path d="M614.15,578.95C614.15,581.31 612.23,583.23 609.87,583.23C607.50,583.23 605.59,581.31 605.59,578.95C605.59,576.58 607.50,574.66 609.87,574.66C612.23,574.66 614.15,576.58 614.15,578.95Z" fill="#87ff00"/>
    <path d="M696.04,578.95C696.04,581.63 693.87,583.80 691.18,583.80C688.50,583.80 686.33,581.63 686.33,578.95C686.33,576.27 688.50,574.09 691.18,574.09C693.87,574.09 696.04,576.27 696.04,578.95Z" fill="#fff600"/>
    <path d="M780.30,578.95C780.30,583.26 776.81,586.75 772.50,586.75C768.19,586.75 764.70,583.26 764.70,578.95C764.70,574.64 768.19,571.14 772.50,571.14C776.81,571.14 780.30,574.64 780.30,578.95Z" fill="#2cff00"/>
    <path d="M-768.22,684.21C-768.22,686.58 -770.13,688.49 -772.50,688.49C-774.87,688.49 -776.78,686.58 -776.78,684.21C-776.78,681.85 -774.87,679.93 -772.50,679.93C-770.13,679.93 -768.22,681.85 -768.22,684.21Z" fill="#00ff54"/>
    <path d="M-686.33,684.21C-686.33,686.89 -688.50,689.07 -691.18,689.07C-693.87,689.07 -696.04,686.89 -696.04,684.21C-696.04,681.53 -693.87,679.35 -691.18,679.35C-688.50,679.35 -686.33,681.53 -686.33,684.21Z" fill="#daff00"/>
    <path d="M-602.06,684.21C-602.06,688.52 -605.56,692.02 -609.87,692.02C-614.18,692.02 -617.67,688.52 -617.67,684.21C-617.67,679.90 -614.18,676.41 -609.87,676.41C-605.56,676.41 -602.06,679.90 -602.06,684.21Z" fill="#3eff00"/>
    <path d="M-524.27,684.21C-524.27,686.58 -526.19,688.49 -528.55,688.49C-530.92,688.49 -532.84,686.58 -532.84,684.21C-532.84,681.85 -530.92,679.93 -528.55,679.93C-526.19,679.93 -524.27,681.85 -524.27,684.21Z" fill="#46ff00"/>
    <path d="M-442.38,684.21C-442.38,686.89 -444.55,689.07 -447.24,689.07C-449.92,689.07 -452.09,686.89 -452.09,684.21C-452.09,681.53 -449.92,679.35 -447.24,679.35C-444.55,679.35 -442.38,681.53 -442.38,684.21Z" fill="#14ff00"/>
    <path d="M-358.12,684.21C-358.12,688.52 -361.61,692.02 -365.92,692.02C-370.23,692.02 -373.73,688.52 -373.73,684.21C-373.73,679.90 -370.23,676.41 -365.92,676.41C-361.61,676.41 -358.12,679.90 -358.12,684.21Z" fill="#07ff00"/>
    <path d="M-280.32,684.21C-280.32,686.58 -282.24,688.49 -284.61,688.49C-286.97,688.49 -288.89,686.58 -288.89,684.21C-288.89,681.85 -286.97,679.93 -284.61,679.93C-282.24,679.93 -280.32,681.85 -280.32,684.21Z" fill="#c2ff00"/>
    <path d="M-198.43,684.21C-198.43,686.89 -200.61,689.07 -203.29,689.07C-205.97,689.07 -208.15,686.89 -208.15,684.21C-208.15,681.53 -205.97,679.35 -203.29,679.35C-200.61,679.35 -198.43,681.53 -198.43,684.21Z" fill="#00ff1e"/>
    <path d="M-114.17,684.21C-114.17,688.52 -117.66,692.02 -121.97,692.02C-126.28,692.02 -129.78,688.52 -129.78,684.21C-129.78,679.90 -126.28,676.41 -121.97,676.41C-117.66,676.41 -114.17,679.90 -114.17,684.21Z" fill="#ff5000"/>
    <path d="M-36.38,684.21C-36.38,686.58 -38.29,688.49 -40.66,688.49C-43.02,688.49 -44.94,686.58 -44.94,684.21C-44.94,681.85 -43.02,679.93 -40.66,679.93C-38.29,679.93 -36.38,681.85 -36.38,684.21Z" fill="#ff3200"/>
    <path d="M45.51,684.21C45.51,686.89 43.34,689.07 40.66,689.07C37.98,689.07 35.80,686.89 35.80,684.21C35.80,681.53 37.98,679.35 40.66,679.35C43.34,679.35 45.51,681.53 45.51,684.21Z" fill="#00ff4d"/>
    <path d="M129.78,684.21C129.78,688.52 126.28,692.02 121.97,692.02C117.66,692.02 114.17,688.52 114.17,684.21C114.17,679.90 117.66,676.41 121.97,676.41C126.28,676.41 129.78,679.90 129.78,684.21Z" fill="#4dff00"/>
    <path d="M207.57,684.21C207.57,686.58 205.65,688.49 203.29,688.49C200.92,688.49 199.01,686.58 199.01,684.21C199.01,681.85 200.92,679.93 203.29,679.93C205.65,679.93 207.57,681.85 207.57,684.21Z" fill="#51ff00"/>
    <path d="M289.46,684.21C289.46,686.89 287.29,689.07 284.61,689.07C281.92,689.07 279.75,686.89 279.75,684.21C279.75,681.53 281.92,679.35 284.61,679.35C287.29,679.35 289.46,681.53 289.46,684.21Z" fill="#ff5600"/>
    <path d="M373.73,684.21C373.73,688.52 370.23,692.02 365.92,692.02C361.61,692.02 358.12,688.52 358.12,684.21C358.12,679.90 361.61,676.41 365.92,676.41C370.23,676.41 373.73,679.90 373.73,684.21Z" fill="#e8ff00"/>
    <path d="M451.52,684.21C451.52,686.58 449.60,688.49 447.24,688.49C444.87,688.49 442.95,686.58 442.95,684.21C442.95,681.85 444.87,679.93 447.24,679.93C449.60,679.93 451.52,681.85 451.52,684.21Z" fill="#ff0300"/>
    <path d="M533.41,684.21C533.41,686.89 531.23,689.07 528.55,689.07C525.87,689.07 523.70,686.89 523.70,684.21C523.70,681.53 525.87,679.35 528.55,679.35C531.23,679.35 533.41,681.53 533.41,684.21Z" fill="#ff2b00"/>
    <path d="M617.67,684.21C617.67,688.52 614.18,692.02 609.87,692.02C605.56,692.02 602.06,688.52 602.06,684.21C602.06,679.90 605.56,676.41 609.87,676.41C614.18,676.41 617.67,679.90 617.67,684.21Z" fill="#ffd100"/>
    <path d="M695.47,684.21C695.47,686.58 693.55,688.49 691.18,688.49C688.82,688.49 686.90,686.58 686.90,684.21C686.90,681.85 688.82,679.93 691.18,679.93C693.55,679.93 695.47,681.85 695.47,684.21Z" fill="#ffcb00"/>
    <path d="M777.36,684.21C777.36,686.89 775.18,689.07 772.50,689.07C769.82,689.07 767.64,686.89 767.64,684.21C767.64,681.53 769.82,679.35 772.50,679.35C775.18,679.35 777.36,681.53 777.36,684.21Z" fill="#00ff06"/>
    <path d="M-764.70,789.47C-764.70,793.78 -768.19,797.28 -772.50,797.28C-776.81,797.28 -780.30,793.78 -780.30,789.47C-780.30,785.16 -776.81,781.67 -772.50,781.67C-768.19,781.67 -764.70,785.16 -764.70,789.47Z" fill="#00ff49"/>
    <path d="M-686.90,789.47C-686.90,791.84 -688.82,793.76 -691.18,793.76C-693.55,793.76 -695.47,791.84 -695.47,789.47C-695.47,787.11 -693.55,785.19 -691.18,785.19C-688.82,785.19 -686.90,787.11 -686.90,789.47Z" fill="#00ff09"/>
    <path d="M-605.01,789.47C-605.01,792.16 -607.19,794.33 -609.87,794.33C-612.55,794.33 -614.73,792.16 -614.73,789.47C-614.73,786.79 -612.55,784.62 -609.87,784.62C-607.19,784.62 -605.01,786.79 -605.01,789.47Z" fill="#8eff00"/>
    <path d="M-520.75,789.47C-520.75,793.78 -524.24,797.28 -528.55,797.28C-532.86,797.28 -536.36,793.78 -536.36,789.47C-536.36,785.16 -532.86,781.67 -528.55,781.67C-524.24,781.67 -520.75,785.16 -520.75,789.47Z" fill="#ff6b00"/>
    <path d="M-442.95,789.47C-442.95,791.84 -444.87,793.76 -447.24,793.76C-449.60,793.76 -451.52,791.84 -451.52,789.47C-451.52,787.11 -449.60,785.19 -447.24,785.19C-444.87,785.19 -442.95,787.11 -442.95,789.47Z" fill="#ff8300"/>
    <path d="M-361.06,789.47C-361.06,792.16 -363.24,794.33 -365.92,794.33C-368.60,794.33 -370.78,792.16 -370.78,789.47C-370.78,786.79 -368.60,784.62 -365.92,784.62C-363.24,784.62 -361.06,786.79 -361.06,789.47Z" fill="#00ff03"/>
    <path d="M-276.80,789.47C-276.80,793.78 -280.29,797.28 -284.61,797.28C-288.92,797.28 -292.41,793.78 -292.41,789.47C-292.41,785.16 -288.92,781.67 -284.61,781.67C-280.29,781.67 -276.80,785.16 -276.80,789.47Z" fill="#ff0600"/>
    <path d="M-199.01,789.47C-199.01,791.84 -200.92,793.76 -203.29,793.76C-205.65,793.76 -207.57,791.84 -207.57,789.47C-207.57,787.11 -205.65,785.19 -203.29,785.19C-200.92,785.19 -199.01,787.11 -199.01,789.47Z" fill="#5fff00"/>
    <path d="M-117.12,789.47C-117.12,792.16 -119.29,794.33 -121.97,794.33C-124.66,794.33 -126.83,792.16 -126.83,789.47C-126.83,786.79 -124.66,784.62 -121.97,784.62C-119.29,784.62 -117.12,786.79 -117.12,789.47Z" fill="#2fff00"/>
    <path d="M-32.85,789.47C-32.85,793.78 -36.35,797.28 -40.66,797.28C-44.97,797.28 -48.46,793.78 -48.46,789.47C-48.46,785.16 -44.97,781.67 -40.66,781.67C-36.35,781.67 -32.85,785.16 -32.85,789.47Z" fill="#52ff00"/>
    <path d="M44.94,789.47C44.94,791.84 43.02,793.76 40.66,793.76C38.29,793.76 36.38,791.84 36.38,789.47C36.38,787.11 38.29,785.19 40.66,785.19C43.02,785.19 44.94,787.11 44.94,789.47Z" fill="#ff7f00"/>
    <path d="M126.83,789.47C126.83,792.16 124.66,794.33 121.97,794.33C119.29,794.33 117.12,792.16 117.12,789.47C117.12,786.79 119.29,784.62 121.97,784.62C124.66,784.62 126.83,786.79 126.83,789.47Z" fill="#28ff00"/>
    <path d="M211.09,789.47C211.09,793.78 207.60,797.28 203.29,797.28C198.98,797.28 195.48,793.78 195.48,789.47C195.48,785.16 198.98,781.67 203.29,781.67C207.60,781.67 211.09,785.16 211.09,789.47Z" fill="#00ff39"/>
    <path d="M288.89,789.47C288.89,791.84 286.97,793.76 284.61,793.76C282.24,793.76 280.32,791.84 280.32,789.47C280.32,787.11 282.24,785.19 284.61,785.19C286.97,785.19 288.89,787.11 288.89,789.47Z" fill="#ff0900"/>
    <path d="M370.78,789.47C370.78,792.16 368.60,794.33 365.92,794.33C363.24,794.33 361.06,792.16 361.06,789.47C361.06,786.79 363.24,784.62 365.92,784.62C368.60,784.62 370.78,786.79 370.78,789.47Z" fill="#ffed00"/>
    <path d="M455.04,789.47C455.04,793.78 451.55,797.28 447.24,797.28C442.93,797.28 439.43,793.78 439.43,789.47C439.43,785.16 442.93,781.67 447.24,781.67C451.55,781.67 455.04,785.16 455.04,789.47Z" fill="#00ff02"/>
    <path d="M532.84,789.47C532.84,791.84 530.92,793.76 528.55,793.76C526.19,793.76 524.27,791.84 524.27,789.47C524.27,787.11 526.19,785.19 528.55,785.19C530.92,785.19 532.84,787.11 532.84,789.47Z" fill="#26ff00"/>
    <path d="M614.73,789.47C614.73,792.16 612.55,794.33 609.87,794.33C607.19,794.33 605.01,792.16 605.01,789.47C605.01,786.79 607.19,784.62 609.87,784.62C612.55,784.62 614.73,786.79 614.73,789.47Z" fill="#00ff56"/>
    <path d="M698.99,789.47C698.99,793.78 695.49,797.28 691.18,797.28C686.87,797.28 683.38,793.78 683.38,789.47C683.38,785.16 686.87,781.67 691.18,781.67C695.49,781.67 698.99,785.16 698.99,789.47Z" fill="#00ff14"/>
    <path d="M776.78,789.47C776.78,791.84 774.87,793.76 772.50,793.76C770.13,793.76 768.22,791.84 768.22,789.47C768.22,787.11 770.13,785.19 772.50,785.19C774.87,785.19 776.78,787.11 776.78,789.47Z" fill="#ff6600"/>
    <path d="M-767.64,894.74C-767.64,897.42 -769.82,899.59 -772.50,899.59C-775.18,899.59 -777.36,897.42 -777.36,894.74C-777.36,892.05 -775.18,889.88 -772.50,889.88C-769.82,889.88 -767.64,892.05 -767.64,894.74Z" fill="#00ff43"/>
    <path d="M-683.38,894.74C-683.38,899.05 -686.87,902.54 -691.18,902.54C-695.49,902.54 -698.99,899.05 -698.99,894.74C-698.99,890.43 -695.49,886.93 -691.18,886.93C-686.87,886.93 -683.38,890.43 -683.38,894.74Z" fill="#4bff00"/>
    <path d="M-605.59,894.74C-605.59,897.10 -607.50,899.02 -609.87,899.02C-612.23,899.02 -614.15,897.10 -614.15,894.74C-614.15,892.37 -612.23,890.45 -609.87,890.45C-607.50,890.45 -605.59,892.37 -605.59,894.74Z" fill="#68ff00"/>
    <path d="M-523.70,894.74C-523.70,897.42 -525.87,899.59 -528.55,899.59C-531.23,899.59 -533.41,897.42 -533.41,894.74C-533.41,892.05 -531.23,889.88 -528.55,889.88C-525.87,889.88 -523.70,892.05 -523.70,894.74Z" fill="#1bff00"/>
    <path d="M-439.43,894.74C-439.43,899.05 -442.93,902.54 -447.24,902.54C-451.55,902.54 -455.04,899.05 -455.04,894.74C-455.04,890.43 -451.55,886.93 -447.24,886.93C-442.93,886.93 -439.43,890.43 -439.43,894.74Z" fill="#f5ff00"/>
    <path d="M-361.64,894.74C-361.64,897.10 -363.56,899.02 -365.92,899.02C-368.29,899.02 -370.20,897.10 -370.20,894.74C-370.20,892.37 -368.29,890.45 -365.92,890.45C-363.56,890.45 -361.64,892.37 -361.64,894.74Z" fill="#e9ff00"/>
    <path d="M-279.75,894.74C-279.75,897.42 -281.92,899.59 -284.61,899.59C-287.29,899.59 -289.46,897.42 -289.46,894.74C-289.46,892.05 -287.29,889.88 -284.61,889.88C-281.92,889.88 -279.75,892.05 -279.75,894.74Z" fill="#00ff02"/>
    <path d="M-195.48,894.74C-195.48,899.05 -198.98,902.54 -203.29,902.54C-207.60,902.54 -211.09,899.05 -211.09,894.74C-211.09,890.43 -207.60,886.93 -203.29,886.93C-198.98,886.93 -195.48,890.43 -195.48,894.74Z" fill="#d1ff00"/>
    <path d="M-117.69,894.74C-117.69,897.10 -119.61,899.02 -121.97,899.02C-124.34,899.02 -126.26,897.10 -126.26,894.74C-126.26,892.37 -124.34,890.45 -121.97,890.45C-119.61,890.45 -117.69,892.37 -117.69,894.74Z" fill="#00ff55"/>
    <path d="M-35.80,894.74C-35.80,897.42 -37.98,899.59 -40.66,899.59C-43.34,899.59 -45.51,897.42 -45.51,894.74C-45.51,892.05 -43.34,889.88 -40.66,889.88C-37.98,889.88 -35.80,892.05 -35.80,894.74Z" fill="#00ff48"/>
    <path d="M48.46,894.74C48.46,899.05 44.97,902.54 40.66,902.54C36.35,902.54 32.85,899.05 32.85,894.74C32.85,890.43 36.35,886.93 40.66,886.93C44.97,886.93 48.46,890.43 48.46,894.74Z" fill="#ffd400"/>
    <path d="M126.26,894.74C126.26,897.10 124.34,899.02 121.97,899.02C119.61,899.02 117.69,897.10 117.69,894.74C117.69,892.37 119.61,890.45 121.97,890.45C124.34,890.45 126.26,892.37 126.26,894.74Z" fill="#ff1c00"/>
    <path d="M208.15,894.74C208.15,897.42 205.97,899.59 203.29,899.59C200.61,899.59 198.43,897.42 198.43,894.74C198.43,892.05 200.61,889.88 203.29,889.88C205.97,889.88 208.15,892.05 208.15,894.74Z" fill="#ff2b00"/>
    <path d="M292.41,894.74C292.41,899.05 288.92,902.54 284.61,902.54C280.29,902.54 276.80,899.05 276.80,894.74C276.80,890.43 280.29,886.93 284.61,886.93C288.92,886.93 292.41,890.43 292.41,894.74Z" fill="#ff1100"/>
    <path d="M370.20,894.74C370.20,897.10 368.29,899.02 365.92,899.02C363.56,899.02 361.64,897.10 361.64,894.74C361.64,892.37 363.56,890.45 365.92,890.45C368.29,890.45 370.20,892.37 370.20,894.74Z" fill="#dcff00"/>
    <path d="M452.09,894.74C452.09,897.42 449.92,899.59 447.24,899.59C444.55,899.59 442.38,897.42 442.38,894.74C442.38,892.05 444.55,889.88 447.24,889.88C449.92,889.88 452.09,892.05 452.09,894.74Z" fill="#00ff49"/>
    <path d="M536.36,894.74C536.36,899.05 532.86,902.54 528.55,902.54C524.24,902.54 520.75,899.05 520.75,894.74C520.75,890.43 524.24,886.93 528.55,886.93C532.86,886.93 536.36,890.43 536.36,894.74Z" fill="#00ff53"/>
    <path d="M614.15,894.74C614.15,897.10 612.23,899.02 609.87,899.02C607.50,899.02 605.59,897.10 605.59,894.74C605.59,892.37 607.50,890.45 609.87,890.45C612.23,890.45 614.15,892.37 614.15,894.74Z" fill="#32ff00"/>
    <path d="M696.04,894.74C696.04,897.42 693.87,899.59 691.18,899.59C688.50,899.59 686.33,897.42 686.33,894.74C686.33,892.05 688.50,889.88 691.18,889.88C693.87,889.88 696.04,892.05 696.04,894.74Z" fill="#d1ff00"/>
    <path d="M780.30,894.74C780.30,899.05 776.81,902.54 772.50,902.54C768.19,902.54 764.70,899.05 764.70,894.74C764.70,890.43 768.19,886.93 772.50,886.93C776.81,886.93 780.30,890.43 780.30,894.74Z" fill="#ff9900"/>
    <path d="M-768.22,1000.00C-768.22,1002.37 -770.13,1004.28 -772.50,1004.28C-774.87,1004.28 -776.78,1002.37 -776.78,1000.00C-776.78,997.63 -774.87,995.72 -772.50,995.72C-770.13,995.72 -768.22,997.63 -768.22,1000.00Z" fill="#ffb900"/>
    <path d="M-686.33,1000.00C-686.33,1002.68 -688.50,1004.86 -691.18,1004.86C-693.87,1004.86 -696.04,1002.68 -696.04,1000.00C-696.04,997.32 -693.87,995.14 -691.18,995.14C-688.50,995.14 -686.33,997.32 -686.33,1000.00Z" fill="#01ff00"/>
    <path d="M-602.06,1000.00C-602.06,1004.31 -605.56,1007.80 -609.87,1007.80C-614.18,1007.80 -617.67,1004.31 -617.67,1000.00C-617.67,995.69 -614.18,992.20 -609.87,992.20C-605.56,992.20 -602.06,995.69 -602.06,1000.00Z" fill="#ff1f00"/>
    <path d="M-524.27,1000.00C-524.27,1002.37 -526.19,1004.28 -528.55,1004.28C-530.92,1004.28 -532.84,1002.37 -532.84,1000.00C-532.84,997.63 -530.92,995.72 -528.55,995.72C-526.19,995.72 -524.27,997.63 -524.27,1000.00Z" fill="#ff0600"/>
    <path d="M-442.38,1000.00C-442.38,1002.68 -444.55,1004.86 -447.24,1004.86C-449.92,1004.86 -452.09,1002.68 -452.09,1000.00C-452.09,997.32 -449.92,995.14 -447.24,995.14C-444.55,995.14 -442.38,997.32 -442.38,1000.00Z" fill="#ffd400"/>
    <path d="M-358.12,1000.00C-358.12,1004.31 -361.61,1007.80 -365.92,1007.80C-370.23,1007.80 -373.73,1004.31 -373.73,1000.00C-373.73,995.69 -370.23,992.20 -365.92,992.20C-361.61,992.20 -358.12,995.69 -358.12,1000.00Z" fill="#ff3400"/>
    <path d="M-280.32,1000.00C-280.32,1002.37 -282.24,1004.28 -284.61,1004.28C-286.97,1004.28 -288.89,1002.37 -288.89,1000.00C-288.89,997.63 -286.97,995.72 -284.61,995.72C-282.24,995.72 -280.32,997.63 -280.32,1000.00Z" fill="#00ff00"/>
    <path d="M-198.43,1000.00C-198.43,1002.68 -200.61,1004.86 -203.29,1004.86C-205.97,1004.86 -208.15,1002.68 -208.15,1000.00C-208.15,997.32 -205.97,995.14 -203.29,995.14C-200.61,995.14 -198.43,997.32 -198.43,1000.00Z" fill="#ff0200"/>
    <path d="M-114.17,1000.00C-114.17,1004.31 -117.66,1007.80 -121.97,1007.80C-126.28,1007.80 -129.78,1004.31 -129.78,1000.00C-129.78,995.69 -126.28,992.20 -121.97,992.20C-117.66,992.20 -114.17,995.69 -114.17,1000.00Z" fill="#ffb900"/>
    <path d="M-36.38,1000.00C-36.38,1002.37 -38.29,1004.28 -40.66,1004.28C-43.02,1004.28 -44.94,1002.37 -44.94,1000.00C-44.94,997.63 -43.02,995.72 -40.66,995.72C-38.29,995.72 -36.38,997.63 -36.38,1000.00Z" fill="#bfff00"/>
    <path d="M45.51,1000.00C45.51,1002.68 43.34,1004.86 40.66,1004.86C37.98,1004.86 35.80,1002.68 35.80,1000.00C35.80,997.32 37.98,995.14 40.66,995.14C43.34,995.14 45.51,997.32 45.51,1000.00Z" fill="#00ff29"/>
    <path d="M129.78,1000.00C129.78,1004.31 126.28,1007.80 121.97,1007.80C117.66,1007.80 114.17,1004.31 114.17,1000.00C114.17,995.69 117.66,992.20 121.97,992.20C126.28,992.20 129.78,995.69 129.78,1000.00Z" fill="#ffa600"/>
    <path d="M207.57,1000.00C207.57,1002.37 205.65,1004.28 203.29,1004.28C200.92,1004.28 199.01,1002.37 199.01,1000.00C199.01,997.63 200.92,995.72 203.29,995.72C205.65,995.72 207.57,997.63 207.57,1000.00Z" fill="#00ff0f"/>
    <path d="M289.46,1000.00C289.46,1002.68 287.29,1004.86 284.61,1004.86C281.92,1004.86 279.75,1002.68 279.75,1000.00C279.75,997.32 281.92,995.14 284.61,995.14C287.29,995.14 289.46,997.32 289.46,1000.00Z" fill="#90ff00"/>
    <path d="M373.73,1000.00C373.73,1004.31 370.23,1007.80 365.92,1007.80C361.61,1007.80 358.12,1004.31 358.12,1000.00C358.12,995.69 361.61,992.20 365.92,992.20C370.23,992.20 373.73,995.69 373.73,1000.00Z" fill="#00ff23"/>
    <path d="M451.52,1000.00C451.52,1002.37 449.60,1004.28 447.24,1004.28C444.87,1004.28 442.95,1002.37 442.95,1000.00C442.95,997.63 444.87,995.72 447.24,995.72C449.60,995.72 451.52,997.63 451.52,1000.00Z" fill="#ff1b00"/>
    <path d="M533.41,1000.00C533.41,1002.68 531.23,1004.86 528.55,1004.86C525.87,1004.86 523.70,1002.68 523.70,1000.00C523.70,997.32 525.87,995.14 528.55,995.14C531.23,995.14 533.41,997.32 533.41,1000.00Z" fill="#7aff00"/>
    <path d="M617.67,1000.00C617.67,1004.31 614.18,1007.80 609.87,1007.80C605.56,1007.80 602.06,1004.31 602.06,1000.00C602.06,995.69 605.56,992.20 609.87,992.20C614.18,992.20 617.67,995.69 617.67,1000.00Z" fill="#d4ff00"/>
    <path d="M695.47,1000.00C695.47,1002.37 693.55,1004.28 691.18,1004.28C688.82,1004.28 686.90,1002.37 686.90,1000.00C686.90,997.63 688.82,995.72 691.18,995.72C693.55,995.72 695.47,997.63 695.47,1000.00Z" fill="#ceff00"/>
    <path d="M777.36,1000.00C777.36,1002.68 775.18,1004.86 772.50,1004.86C769.82,1004.86 767.64,1002.68 767.64,1000.00C767.64,997.32 769.82,995.14 772.50,995.14C775.18,995.14 777.36,997.32 777.36,1000.00Z" fill="#c6ff00"/>
</svg>