<?xml version="1.0" encoding="utf-8"?>
<!-- Generator: Adobe Illustrator 16.0.0, SVG Export Plug-In . SVG Version: 6.00 Build 0)  -->
<!DOCTYPE svg PUBLIC "-//W3C//DTD SVG 1.1//EN" "http://www.w3.org/Graphics/SVG/1.1/DTD/svg11.dtd">
<svg version="1.1"
	 id="svg7997" xmlns:dc="http://purl.org/dc/elements/1.1/" xmlns:inkscape="http://www.inkscape.org/namespaces/inkscape" xmlns:svg="http://www.w3.org/2000/svg" xmlns:cc="http://creativecommons.org/ns#" xmlns:rdf="http://www.w3.org/1999/02/22-rdf-syntax-ns#" xmlns:sodipodi="http://sodipodi.sourceforge.net/DTD/sodipodi-0.dtd" sodipodi:docname="New document 3" inkscape:version="0.48.3.1 r9886"
	 xmlns="http://www.w3.org/2000/svg" xmlns:xlink="http://www.w3.org/1999/xlink" x="0px" y="0px" width="144px" height="144px"
	 viewBox="0 0 144 144" enable-background="new 0 0 144 144" xml:space="preserve">
<sodipodi:namedview  fit-margin-top="0" inkscape:zoom="0.35" id="base" inkscape:cy="-116.57144" pagecolor="#ffffff" fit-margin-left="0" inkscape:cx="398.42879" bordercolor="#666666" borderopacity="1.0" showgrid="false" inkscape:window-maximized="0" inkscape:window-y="592" inkscape:window-x="55" inkscape:window-height="421" inkscape:window-width="483" fit-margin-bottom="0" inkscape:current-layer="layer1" inkscape:pageshadow="2" inkscape:document-units="px" inkscape:pageopacity="0.0" fit-margin-right="0">
	</sodipodi:namedview>
<g>
	<path fill-rule="evenodd" clip-rule="evenodd" fill="#333333" d="M71.887,4.995c0.51-0.145,0.473,0.36,0.603,0.574
		c3.78,6.235,7.536,12.483,11.302,18.728c9.863,16.365,19.729,32.728,29.595,49.093c0.13,0.215,0.265,0.428,0.385,0.65
		c0.152,0.283,0.013,0.412-0.265,0.454c-0.264-0.253-0.562-0.443-0.901-0.596c-6.297-2.832-12.575-5.706-18.861-8.559
		c-5.779-2.621-11.548-5.266-17.334-7.871c-0.688-0.31-1.368-0.635-2.064-0.929c-0.838-0.355-1.593-0.968-2.594-0.806
		c-0.099-0.18-0.107-0.378-0.134-0.575c-0.035-0.335-0.022-0.671-0.022-1.006c-0.001-15.646-0.001-31.292-0.001-46.938
		C71.594,6.462,71.579,5.707,71.887,4.995z"/>
	<path fill-rule="evenodd" clip-rule="evenodd" fill="#8B8B8B" d="M71.887,4.995C71.891,5.523,71.9,6.052,71.9,6.58
		c0,15.71,0.001,31.419-0.001,47.128c0,0.53-0.029,1.061-0.043,1.59c-0.339,0.494-0.896,0.663-1.398,0.883
		c-6.243,2.733-12.418,5.614-18.624,8.428c-5.951,2.699-11.917,5.369-17.843,8.125c-0.961,0.447-1.915,0.918-2.906,1.3
		c-0.272,0.104-0.54,0.34-0.853,0.088c1.199-2.042,2.381-4.097,3.604-6.126c7.67-12.737,15.351-25.47,23.029-38.203
		c4.907-8.138,9.811-16.275,14.721-24.412C71.668,5.243,71.785,5.124,71.887,4.995z"/>
	<path fill-rule="evenodd" clip-rule="evenodd" fill="#383838" d="M30.232,74.122c1.89-0.68,3.675-1.602,5.502-2.427
		c8.542-3.86,17.071-7.748,25.604-11.624c3.504-1.592,7.011-3.183,10.517-4.773c0.004,0.179,0.01,0.358,0.014,0.538
		c0.359,0.183,0.369,0.536,0.407,0.866c0.048,0.417,0.031,0.838,0.031,1.257c0.001,12.836-0.003,25.673,0.01,38.509
		c0,0.777-0.18,1.562,0.053,2.336c-0.432,0.511-0.763,0.042-1.079-0.144c-5.108-3.006-10.208-6.027-15.311-9.041
		c-8.401-4.963-16.804-9.922-25.199-14.895C30.557,74.593,30.122,74.585,30.232,74.122z"/>
	<path fill-rule="evenodd" clip-rule="evenodd" fill="#141414" d="M72.369,98.805c-0.41,0.013-0.586-0.186-0.447-0.571
		c0.156-0.439,0.104-0.886,0.104-1.328c0.002-13.196,0.002-26.39,0.004-39.585c0-0.501-0.008-1-0.161-1.484
		c0.194-0.563,0.573-0.446,0.97-0.263c1.491,0.687,2.979,1.382,4.474,2.061c4.339,1.97,8.683,3.93,13.021,5.902
		c3.117,1.417,6.227,2.855,9.346,4.269c4.438,2.012,8.884,4.009,13.324,6.016c0.279,0.128,0.708,0.171,0.503,0.673
		c-3.432,2.044-6.857,4.098-10.295,6.132C93.083,86.617,82.95,92.602,72.819,98.587C72.676,98.672,72.519,98.732,72.369,98.805z"/>
	<path fill-rule="evenodd" clip-rule="evenodd" fill="#333333" d="M113.325,80.842c-8.476,11.946-16.951,23.892-25.429,35.836
		c-5.228,7.362-10.458,14.721-15.688,22.081c-0.633,0.077-0.559-0.448-0.565-0.769c-0.013-0.726-0.05-1.451-0.05-2.178
		c0.001-9.841-0.001-19.68,0.01-29.519c0.001-0.56-0.182-1.202,0.438-1.606c13.65-8.06,27.301-16.119,40.953-24.178
		C113.351,80.374,113.468,80.479,113.325,80.842z"/>
	<path fill-rule="evenodd" clip-rule="evenodd" fill="#8B8B8B" d="M72.041,104.688c-0.165,0.311-0.141,0.647-0.141,0.981
		c0,10.251,0,20.504,0,30.755c0,0.557-0.011,1.113,0.004,1.67c0.007,0.253-0.119,0.593,0.305,0.665
		c-0.368,0.621-0.452,0.006-0.568-0.156c-1.433-1.998-2.851-4.007-4.273-6.012c-11.06-15.584-22.12-31.169-33.181-46.752
		c-1.261-1.775-2.524-3.549-3.787-5.324c-0.004-0.272,0.102-0.315,0.309-0.145c6.572,3.873,13.144,7.746,19.716,11.622
		c7.006,4.134,14.01,8.271,21.017,12.404C71.631,104.509,71.841,104.591,72.041,104.688z"/>
	<path fill-rule="evenodd" clip-rule="evenodd" fill="#848484" d="M113.325,80.842c0.015-0.236-0.107-0.337-0.332-0.332
		c0.188-0.245,0.448-0.359,0.804-0.446C113.779,80.438,113.561,80.646,113.325,80.842z"/>
	<path fill-rule="evenodd" clip-rule="evenodd" fill="#BBBBBB" d="M30.708,80.37c-0.13-0.01-0.24,0.024-0.309,0.145
		c-0.144-0.101-0.299-0.329-0.201-0.394C30.413,79.981,30.594,80.161,30.708,80.37z"/>
</g>
</svg>
